<?xml version="1.0" standalone="no"?>
<!DOCTYPE svg PUBLIC "-//W3C//DTD SVG 1.1//EN" "http://www.w3.org/Graphics/SVG/1.1/DTD/svg11.dtd" >
<svg xmlns="http://www.w3.org/2000/svg">
<metadata></metadata>
<defs>
<font id="alleynsemibold" horiz-adv-x="631" >
<font-face units-per-em="1000" ascent="800" descent="-200" />
<missing-glyph horiz-adv-x="345" />
<glyph horiz-adv-x="1000" />
<glyph horiz-adv-x="1000" />
<glyph unicode="&#xd;" horiz-adv-x="1000" />
<glyph unicode=" "  horiz-adv-x="345" />
<glyph unicode="&#x09;" horiz-adv-x="345" />
<glyph unicode="&#xa0;" horiz-adv-x="345" />
<glyph unicode="!" horiz-adv-x="344" d="M237 229q-1 -15 -10.5 -24.5t-24.5 -9.5h-43q-13 0 -23 10t-11 24l-14 290v167q0 14 10.5 24.5t24.5 10.5h69q15 0 25 -10.5t10 -24.5v-11v-167q-5 -93 -13 -279zM103 66q0 32 23 55.5t55 23.5q33 0 56 -23.5t23 -55.5q0 -33 -23 -55.5t-56 -22.5q-32 0 -55 22.5 t-23 55.5z" />
<glyph unicode="&#x22;" horiz-adv-x="418" d="M270 742h50q14 0 24 -11t12 -25l-18 -219q-8 -29 -35 -29h-13q-13 0 -24 10t-12 22l-18 215q-1 15 9 26t25 11zM99 742h49q13 0 23 -11.5t12 -24.5l-18 -216q-1 -12 -11.5 -22t-23.5 -10h-14q-13 0 -23 10t-11 22l-19 215q-1 15 10 26t26 11z" />
<glyph unicode="#" d="M608 488v-19q0 -17 -11 -28t-28 -11h-89q-2 -11 -16 -72.5t-16 -69.5h94q17 0 27.5 -11t10.5 -28v-18q0 -17 -11 -28t-27 -11h-117q-5 -28 -17.5 -84.5t-18.5 -83.5q-4 -13 -15 -21.5t-23 -8.5h-16q-20 0 -31.5 14t-6.5 34l33 150h-103l-40 -167q-2 -13 -13.5 -22 t-24.5 -9h-17q-20 0 -30.5 13t-7.5 33q12 64 35 152h-67q-17 0 -28.5 11.5t-11.5 27.5v18q0 17 11.5 28t28.5 11h87q3 12 33 142h-92q-17 0 -28.5 11.5t-11.5 27.5v19q0 17 11.5 28t28.5 11h115q8 34 37 168q3 12 14 20.5t25 8.5h16q20 0 31.5 -14t7.5 -33 q-5 -20 -17.5 -69.5t-18.5 -80.5h107q16 80 36 165q3 12 14.5 22t23.5 10h19q19 0 30 -14t7 -34l-33 -149h65q17 0 28 -11t11 -28zM352 288l33 142h-106q-12 -45 -33 -142h106z" />
<glyph unicode="$" horiz-adv-x="661" d="M392 -53q0 -14 -10 -24t-24 -10h-67q-15 0 -25 10t-10 24v47q-110 16 -190 91q-13 11 -13 28q0 14 27.5 47.5t46.5 33.5q12 0 23 -8q83 -70 178 -70q64 0 102 25.5t38 68.5q0 40 -41.5 62.5t-138.5 38.5q-110 19 -167 73t-57 137q0 75 54.5 129.5t137.5 72.5v50 q0 14 10 24t25 10h67q14 0 24 -10t10 -24v-47q100 -16 192 -90q12 -11 12 -26q0 -11 -8 -22l-40 -48q-10 -12 -26 -12q-11 0 -22 8q-81 67 -174 67q-55 0 -87 -22t-32 -59q0 -61 133 -84q136 -24 203 -79.5t67 -148.5q0 -84 -60.5 -143t-157.5 -73v-47z" />
<glyph unicode="%" horiz-adv-x="780" d="M185 726q151 0 151 -200q0 -199 -151 -199q-150 0 -150 199q0 200 150 200zM185 412q59 0 59 114q0 115 -59 115t-59 -115q0 -114 59 -114zM646 679q-74 -125 -210 -356t-173 -294q-17 -29 -49 -29h-23q-11 0 -19 7.5t-8 18.5q0 7 4 14l384 650q17 30 49 30h23 q10 0 18 -8t8 -19q0 -7 -4 -14zM622 393q151 0 151 -200q0 -199 -151 -199q-150 0 -150 199q0 200 150 200zM622 79q60 0 60 114q0 115 -60 115q-58 0 -58 -115q0 -114 58 -114z" />
<glyph unicode="&#x26;" horiz-adv-x="762" d="M330 624q-31 0 -51.5 -18t-20.5 -44q0 -38 52 -97q37 22 62.5 50t25.5 50q0 28 -18.5 43.5t-49.5 15.5zM323 117q53 0 107 54l-147 147q-69 -48 -69 -90q0 -45 29 -78t80 -33zM330 732q82 0 136.5 -48.5t54.5 -120.5q0 -100 -117 -177l107 -106q35 64 46 108 q4 14 15.5 21t25.5 3l47 -14q13 -4 19.5 -16t3.5 -26q-15 -62 -68 -165l150 -150q13 -15 9 -28t-19 -13h-109q-29 0 -59 30l-50 49q-99 -91 -211 -91q-102 0 -170.5 64.5t-68.5 160.5q0 63 30 108t91 89q-65 72 -65 142q0 73 56 126.5t146 53.5z" />
<glyph unicode="'" horiz-adv-x="246" d="M98 742h50q14 0 24 -11t11 -24l-18 -216q-2 -12 -12 -22t-22 -10h-16q-13 0 -23 10t-11 22l-18 214q-2 15 8.5 26t26.5 11z" />
<glyph unicode="(" horiz-adv-x="368" d="M183 710q20 32 51 32h61q15 0 22.5 -11.5t-0.5 -23.5q-59 -93 -88.5 -211.5t-29.5 -224.5t29.5 -225t88.5 -211q8 -13 0.5 -24t-22.5 -11h-61q-32 0 -51 32q-121 217 -121 439q0 220 121 439z" />
<glyph unicode=")" horiz-adv-x="368" d="M185 710q121 -219 121 -439q0 -222 -121 -439q-19 -32 -51 -32h-61q-15 0 -22.5 11t0.5 24q59 92 88.5 211t29.5 225t-29.5 224.5t-88.5 211.5q-8 12 -0.5 23.5t22.5 11.5h61q31 0 51 -32z" />
<glyph unicode="*" horiz-adv-x="527" d="M455 597q14 0 25 -10.5t11 -25.5v-36q0 -15 -11 -25.5t-26 -10.5q-81 8 -116 11l67 -95q5 -10 5 -19q1 -19 -19 -31l-32 -19h-3q-6 -3 -14 -3q-22 0 -31 18l-48 106l-48 -106q-11 -19 -32 -19q-12 0 -39.5 15t-27.5 39q0 11 4 19l68 95q-19 -2 -58 -6t-58 -5 q-13 0 -24.5 10.5t-11.5 25.5v36q0 14 10 25t24 11q9 0 119 -11q-4 6 -20 26.5t-25.5 33t-18.5 28.5t-9 25q0 22 18 32l33 19h3q8 3 14 3q22 0 31 -18q10 -20 17 -36t15.5 -35t15.5 -35l48 107q8 17 32 17q11 0 16 -3l32 -18q20 -12 19 -31q0 -11 -12 -31t-33 -48l-27 -36 q81 8 117 11z" />
<glyph unicode="+" d="M589 307q0 -15 -10 -25t-24 -10h-179v-179q0 -14 -10.5 -24t-24.5 -10h-52q-14 0 -24.5 10t-10.5 24v179h-178q-15 0 -25 10t-10 25v51q0 14 10 24.5t25 10.5h178v179q0 14 10.5 24.5t24.5 10.5h52q14 0 24.5 -10.5t10.5 -24.5v-179h179q14 0 24 -10.5t10 -24.5v-51z" />
<glyph unicode="," horiz-adv-x="299" d="M67 -125q10 16 27 58.5t20 63.5q0 2 -2 8q-42 24 -42 73q0 32 23 56.5t56 24.5q36 0 61.5 -26t25.5 -70q0 -42 -35 -115.5t-74 -114.5q-7 -7 -17 -7q-17 0 -32 11.5t-15 24.5q0 8 4 13z" />
<glyph unicode="-" horiz-adv-x="384" d="M351 267q0 -14 -10 -24.5t-25 -10.5h-250q-14 0 -24.5 10.5t-10.5 24.5v45q0 14 10.5 24t24.5 10h250q15 0 25 -10t10 -24v-45z" />
<glyph unicode="." horiz-adv-x="291" d="M144 -12q-33 0 -57.5 24t-24.5 58t24.5 58t57.5 24q35 0 59.5 -24t24.5 -58t-24.5 -58t-59.5 -24z" />
<glyph unicode="/" horiz-adv-x="397" d="M384 701q-52 -153 -147 -430.5t-110 -322.5q-4 -13 -15.5 -21t-24.5 -8h-50q-13 0 -24 10.5t-11 24.5q0 4 1 6l259 752q10 30 40 30h49q13 0 23.5 -10t10.5 -23q0 -5 -1 -8z" />
<glyph unicode="0" d="M315 732q270 0 270 -373q0 -191 -68 -281t-202 -90q-269 0 -269 371q0 373 269 373zM315 116q127 0 127 243q0 245 -127 245t-127 -245q0 -243 127 -243z" />
<glyph unicode="1" d="M460 686v-652q0 -14 -10 -24t-25 -10h-71q-15 0 -24.5 10t-9.5 24v486q-33 -29 -116 -99q-10 -8 -21 -8q-15 0 -26 12l-38 47q-8 10 -8 21q0 15 12 26l187 168q26 21 40.5 27t40.5 6h34q15 0 25 -10t10 -24z" />
<glyph unicode="2" d="M73 550q18 78 84.5 130t159.5 52q105 0 174.5 -65.5t69.5 -162.5q0 -108 -88 -189l-189 -187h242q14 0 24.5 -10t10.5 -24v-60q0 -15 -10 -24.5t-25 -9.5h-419q-15 0 -25 9.5t-10 24.5v59q0 22 20 38l297 297q31 29 31 75q0 43 -29.5 71.5t-73.5 28.5q-38 0 -70.5 -26.5 t-45.5 -68.5q-9 -24 -34 -24t-60 16.5t-35 39.5q0 6 1 10z" />
<glyph unicode="3" d="M201 187q38 -71 106 -71q45 0 76.5 31t31.5 78q0 46 -31 74t-76 28h-50q-14 0 -24 10t-10 24v55q0 15 10 24.5t24 9.5h41q35 0 59.5 24t24.5 57q0 31 -21.5 51.5t-53.5 20.5q-29 0 -52 -19t-33 -38q-8 -14 -20.5 -17.5t-25.5 3.5l-57 32q-13 7 -17 20t3 27 q64 121 202 121q91 0 153 -57t62 -140q0 -84 -58 -135q90 -58 90 -181q0 -97 -72.5 -164t-175.5 -67q-157 0 -228 136q-6 13 -1.5 26.5t17.5 20.5l60 31q13 7 26 2.5t20 -17.5z" />
<glyph unicode="4" d="M367 691q24 29 52 29h51q15 0 25 -10.5t10 -24.5v-394h67q14 0 24 -10t10 -24v-60q0 -15 -10 -25t-24 -10h-67v-127q0 -15 -10 -25t-25 -10h-71q-15 0 -25 10t-10 25v127h-305q-14 0 -24 10t-10 25v48q0 24 23 50zM191 289h175v220q-2 -3 -175 -220z" />
<glyph unicode="5" d="M91 384q20 200 31 300q1 16 12 26t26 10h349q14 0 24 -10t10 -24v-60q0 -14 -10.5 -24t-23.5 -10h-258q-7 -61 -11 -108q40 9 69 9q111 0 185 -70.5t74 -180.5q0 -108 -76 -181t-187 -73q-97 0 -155 41t-84 95q-4 7 -4 16q0 21 18 30l60 30q7 4 16 4q18 0 31 -18 q45 -70 118 -70q50 0 86 36t36 91q0 53 -37 87t-89 34q-62 0 -94 -29q-21 -19 -35 -19q-22 0 -52 17.5t-30 42.5q0 2 0.5 4t0.5 4z" />
<glyph unicode="6" d="M328 493q107 0 175 -72t68 -181q0 -106 -74.5 -179t-179.5 -73q-121 0 -189 78t-68 217q0 92 24.5 170.5t73 140.5t128 97.5t180.5 35.5q14 0 24 -10.5t10 -24.5v-58q0 -14 -10 -24.5t-24 -10.5q-83 0 -147 -37.5t-95 -98.5l4 -5q41 35 100 35zM317 116q49 0 81.5 35 t32.5 89q0 55 -32.5 90t-81.5 35q-50 0 -84 -33t-34 -86q0 -57 32 -93.5t86 -36.5z" />
<glyph unicode="7" d="M255 35q-7 -15 -23 -25t-30 -10h-80q-15 0 -23 12t0 27q165 323 300 552h-311q-14 0 -24.5 10.5t-10.5 24.5v59q0 14 10.5 24.5t24.5 10.5h455q14 0 24 -10.5t10 -24.5v-34q0 -26 -14 -46q-149 -261 -308 -570z" />
<glyph unicode="8" d="M457 394q44 -23 74 -70.5t30 -99.5q0 -100 -70.5 -168t-175.5 -68t-175 68t-70 168q0 52 30 99.5t74 70.5v8q-31 22 -51.5 56.5t-20.5 73.5q0 85 62 142.5t151 57.5q91 0 152.5 -57.5t61.5 -142.5q0 -40 -20 -74.5t-52 -55.5v-8zM315 611q-33 0 -56.5 -23.5t-23.5 -55.5 t24 -58t56 -26q33 0 57 26t24 58t-23.5 55.5t-57.5 23.5zM315 116q43 0 73.5 32t30.5 76q0 41 -30.5 72.5t-73.5 31.5t-73 -31.5t-30 -72.5q0 -45 30 -76.5t73 -31.5z" />
<glyph unicode="9" d="M304 227q-108 0 -176 72t-68 181q0 106 74.5 179t179.5 73q121 0 189 -78t68 -216q0 -92 -24.5 -170.5t-73 -140.5t-128 -97.5t-180.5 -35.5q-14 0 -24.5 10t-10.5 25v57q0 15 10.5 25t24.5 10q83 0 147.5 38t93.5 98l-4 5q-43 -35 -98 -35zM314 604q-49 0 -82 -34.5 t-33 -89.5t33 -89.5t82 -34.5q50 0 84 32.5t34 85.5q0 58 -32.5 94t-85.5 36z" />
<glyph unicode=":" horiz-adv-x="306" d="M153 -12q-33 0 -57.5 24t-24.5 58t24.5 58t57.5 24q35 0 59.5 -24t24.5 -58t-24.5 -58t-59.5 -24zM153 376q-33 0 -57.5 24t-24.5 57q0 34 24.5 58.5t57.5 24.5q35 0 59.5 -24t24.5 -59q0 -33 -24.5 -57t-59.5 -24z" />
<glyph unicode=";" horiz-adv-x="312" d="M74 -125q10 16 27 58.5t20 63.5q0 2 -2 8q-42 24 -42 73q0 32 23 56.5t56 24.5q36 0 61.5 -26t25.5 -70q0 -42 -35 -115.5t-74 -114.5q-7 -7 -16 -7q-17 0 -32.5 11.5t-15.5 24.5q0 8 4 13zM77 457q0 34 24 58.5t58 24.5q35 0 59 -24t24 -59q0 -33 -24.5 -57.5 t-58.5 -24.5t-58 24.5t-24 57.5z" />
<glyph unicode="&#x3c;" d="M581 509q0 -13 -9 -26t-22 -18q-61 -25 -172 -71.5t-146 -61.5l303 -126q21 -9 31.5 -22.5t12.5 -23.5t2 -27v-34q0 -12 -8.5 -20.5t-19.5 -8.5q-9 0 -12 3l-461 199q-13 5 -22 18t-9 26v34q0 13 9 26t22 18l464 199q3 1 9 1q12 0 20 -8t8 -20v-57z" />
<glyph unicode="=" d="M586 417q0 -14 -10 -24.5t-24 -10.5h-473q-14 0 -24.5 10.5t-10.5 24.5v51q0 14 10.5 24t24.5 10h473q14 0 24 -10t10 -24v-51zM586 200q0 -15 -10 -25t-24 -10h-473q-14 0 -24.5 10t-10.5 25v51q0 14 10.5 24.5t24.5 10.5h473q14 0 24 -10.5t10 -24.5v-51z" />
<glyph unicode="&#x3e;" d="M49 509v57q0 12 7.5 20t19.5 8q6 0 13 -1q305 -132 461 -200q31 -15 31 -43v-34q0 -9 -2.5 -15.5t-8 -12t-9.5 -8t-13.5 -8t-13.5 -7.5l-445 -192q-3 -3 -13 -3q-11 0 -19 8t-8 21v57q0 13 9 25.5t22 17.5l317 133l-317 133q-13 5 -22 17.5t-9 26.5z" />
<glyph unicode="?" horiz-adv-x="560" d="M280 732q107 0 172.5 -56t65.5 -143q0 -62 -44.5 -119t-134.5 -118v-73q0 -15 -10.5 -25t-24.5 -10h-68q-15 0 -24.5 10t-9.5 25v111q0 10 7 22t16 17q90 59 115 84q36 36 36 70q0 36 -28 58.5t-71 22.5q-71 0 -142 -48q-12 -9 -26 -7t-22 13l-34 49q-8 11 -5 25.5 t14 21.5q99 70 218 70zM269 145q32 0 56 -23t24 -55q0 -33 -23.5 -56t-56.5 -23q-32 0 -55 23t-23 56q0 32 23 55t55 23z" />
<glyph unicode="@" horiz-adv-x="1001" d="M694 14q-38 0 -63.5 26.5t-27.5 68.5h-8q-25 -42 -66.5 -68.5t-89.5 -26.5q-83 0 -135.5 63t-52.5 162q0 66 28.5 134t88.5 118t135 50q71 0 121 -56q0 9 3 15q3 12 13.5 20t22.5 8h48q14 0 23.5 -10.5t7.5 -24.5q0 -1 -18.5 -131.5t-20.5 -148.5q-6 -39 -6 -65 q0 -47 25 -47q59 0 93.5 73t34.5 162q0 136 -89 219.5t-240 83.5q-161 0 -264.5 -110.5t-103.5 -268.5q0 -168 104.5 -262t269.5 -94q131 0 244 45q12 5 24.5 0.5t18.5 -15.5q3 -10 4 -14q5 -14 0.5 -26t-16.5 -17q-143 -60 -275 -60q-212 0 -338.5 122t-126.5 317 q0 206 132.5 337t328.5 131q183 0 299 -110t116 -295q0 -126 -67.5 -215.5t-176.5 -89.5zM454 128q38 0 71.5 40.5t52 96t18.5 106.5q-3 8 -9.5 19t-28 25.5t-49.5 14.5q-52 0 -88.5 -57.5t-36.5 -135.5q0 -53 19 -81t51 -28z" />
<glyph unicode="A" horiz-adv-x="746" d="M736 37q6 -14 -2.5 -25.5t-23.5 -11.5h-83q-30 0 -44 32l-58 139h-304l-58 -139q-14 -32 -44 -32h-83q-16 0 -24 12t-2 26l291 652q11 30 42 30h60q31 0 42 -30zM268 289h209q-21 53 -45 116.5t-39.5 107t-19.5 52.5q-5 -10 -20.5 -53t-39 -107t-45.5 -116z" />
<glyph unicode="B" horiz-adv-x="727" d="M127 720h279q100 0 160 -56t60 -141q0 -84 -67 -129v-9q47 -24 73.5 -68t26.5 -98q0 -95 -64.5 -157t-200.5 -62h-267q-14 0 -24 10t-10 25v651q0 14 10 24t24 10zM234 313v-184h145q139 0 139 90q0 94 -128 94h-156zM397 591h-163v-150h151q101 0 101 77 q0 34 -23.5 53.5t-65.5 19.5z" />
<glyph unicode="C" horiz-adv-x="741" d="M644 187l41 -45q9 -11 8 -25t-12 -24q-110 -105 -259 -105q-164 0 -264.5 104t-100.5 269t100.5 268t264.5 103q152 0 259 -105q11 -10 12 -24t-8 -24l-41 -45q-9 -10 -23.5 -11t-25.5 8q-79 72 -173 72t-159 -67.5t-65 -174.5t65 -175.5t159 -68.5t173 71 q11 10 25.5 9.5t23.5 -10.5z" />
<glyph unicode="D" horiz-adv-x="808" d="M127 720h233q177 0 283.5 -93.5t106.5 -265.5q0 -173 -106.5 -267t-283.5 -94h-233q-14 0 -24 10t-10 24v652q0 14 10 24t24 10zM377 129q103 0 167.5 62.5t64.5 169.5q0 106 -64 168t-168 62h-143v-462h143z" />
<glyph unicode="E" horiz-adv-x="689" d="M127 720h465q14 0 24 -10.5t10 -24.5v-60q0 -13 -10 -23.5t-24 -10.5h-359v-158h313q14 0 24.5 -10.5t10.5 -24.5v-60q0 -14 -10.5 -24t-24.5 -10h-313v-176h359q14 0 24 -10t10 -24v-60q0 -14 -10 -24t-24 -10h-465q-14 0 -24 10t-10 24v651q0 14 10 24.5t24 10.5z" />
<glyph unicode="F" horiz-adv-x="649" d="M127 720h465q14 0 24 -10.5t10 -24.5v-60q0 -13 -10 -23.5t-24 -10.5h-359v-158h313q14 0 24.5 -10.5t10.5 -24.5v-60q0 -14 -10.5 -24t-24.5 -10h-313v-270q0 -14 -10 -24t-24 -10h-72q-14 0 -24 10t-10 24v651q0 14 10 24.5t24 10.5z" />
<glyph unicode="G" horiz-adv-x="782" d="M685 391q15 0 25 -10t10 -25v-229q0 -27 -17 -41q-115 -98 -270 -98q-165 0 -270.5 106t-105.5 266q0 165 101 268.5t265 103.5q158 0 259 -106q11 -11 12 -24.5t-8 -23.5l-39 -43q-10 -11 -24 -11.5t-24 9.5q-78 70 -176 70q-94 0 -159 -67.5t-65 -174.5 q0 -106 66.5 -175.5t165.5 -69.5q81 0 149 47v99h-161q-14 0 -24 10t-10 24v60q0 15 10 25t24 10h266z" />
<glyph unicode="H" horiz-adv-x="805" d="M711 685v-651q0 -14 -10 -24t-24 -10h-72q-14 0 -24 10t-10 24v271h-338v-271q0 -14 -10 -24t-24 -10h-72q-14 0 -24 10t-10 24v651q0 15 10 25t24 10h72q14 0 24 -10t10 -25v-251h338v251q0 15 10 25t24 10h72q14 0 24 -10t10 -25z" />
<glyph unicode="I" horiz-adv-x="327" d="M233 685v-651q0 -14 -10 -24t-24 -10h-72q-14 0 -24 10t-10 24v651q0 15 10 25t24 10h72q14 0 24 -10t10 -25z" />
<glyph unicode="J" horiz-adv-x="517" d="M397 720q14 0 24 -10t10 -24v-457q0 -106 -66.5 -173t-171.5 -67q-104 0 -176 75q-10 11 -10 24.5t10 24.5l43 43q24 22 48 0q43 -39 83 -39q47 0 73 31.5t26 85.5v452q0 14 10.5 24t24.5 10h72z" />
<glyph unicode="K" horiz-adv-x="710" d="M703 53q16 -17 9 -35t-26 -18h-94q-32 0 -62 32l-249 260l-47 -41v-216q0 -15 -10 -25t-25 -10h-72q-14 0 -24 10t-10 25v651q0 14 10 24t24 10h72q15 0 25 -10t10 -24v-260l281 262q30 32 62 32h94q20 0 26 -18t-9 -34l-309 -284z" />
<glyph unicode="L" horiz-adv-x="622" d="M233 128h347q14 0 24 -10t10 -24v-60q0 -14 -10 -24t-24 -10h-453q-14 0 -24 10t-10 24v651q0 14 10 24.5t24 10.5h72q14 0 24 -10.5t10 -24.5v-557z" />
<glyph unicode="M" horiz-adv-x="929" d="M825 686l24 -651q0 -15 -10 -25t-24 -10h-72q-14 0 -24.5 10t-10.5 25q-9 274 -10 289q-1 27 3 140h-6l-169 -303q-20 -34 -52 -34h-19q-15 0 -29.5 10t-22.5 24l-170 303h-6q4 -120 4 -140l-10 -289q-1 -15 -11.5 -25t-24.5 -10h-72q-14 0 -24 10t-9 25l23 651 q0 14 10.5 24t25.5 10h62q15 0 31 -10t23 -24l209 -363l209 363q8 14 24 24t30 10h63q15 0 25 -10t10 -24z" />
<glyph unicode="N" horiz-adv-x="797" d="M669 720q15 0 25 -10t10 -24v-651q0 -15 -10 -25t-25 -10h-73q-26 0 -38 21q-8 8 -324 453h-6q6 -63 6 -140v-299q0 -15 -10 -25t-25 -10h-72q-14 0 -24 10t-10 25v651q0 14 10 24t24 10h73q25 0 39 -23l325 -451h5q-6 126 -6 129v311q0 14 10 24t24 10h72z" />
<glyph unicode="O" horiz-adv-x="842" d="M785 358q0 -162 -107 -266t-257 -104t-257 104t-107 266q0 156 102 265t262 109q161 0 262.5 -109t101.5 -265zM421 117q93 0 157 68.5t64 172.5q0 108 -63.5 176.5t-157.5 68.5t-157.5 -68.5t-63.5 -176.5q0 -104 64 -172.5t157 -68.5z" />
<glyph unicode="P" horiz-adv-x="707" d="M380 720q127 0 202.5 -65t76.5 -174q1 -108 -76 -173t-203 -65h-146v-209q0 -14 -10 -24t-25 -10h-72q-14 0 -24 10t-10 24v652q0 14 10 24t24 10h253zM397 372q56 0 87.5 29t31.5 80t-32 80.5t-87 29.5h-163v-219h163z" />
<glyph unicode="Q" horiz-adv-x="861" d="M815 47q14 -16 7 -31.5t-25 -15.5h-82q-30 0 -53 31l-24 28q-94 -71 -217 -71q-150 0 -257 104t-107 266q0 156 102 265t262 109q161 0 262.5 -109t101.5 -265q0 -119 -60 -209zM200 358q0 -104 64 -172.5t157 -68.5q71 0 126 40l-124 146q-14 16 -7.5 32.5t27.5 16.5h76 q27 0 54 -30l51 -65q21 48 21 101q0 108 -65 176.5t-159 68.5t-157.5 -68.5t-63.5 -176.5z" />
<glyph unicode="R" horiz-adv-x="750" d="M512 265l184 -221q8 -9 8 -21q0 -23 -28 -23h-54q-42 0 -62 8.5t-41 37.5l-163 197h-123v-210q0 -14 -10 -23.5t-24 -9.5h-72q-14 0 -24 9.5t-10 23.5v653q0 14 10 24t24 10h253q125 0 201.5 -65.5t76.5 -174.5q0 -72 -39 -128t-107 -87zM233 372h163q55 0 87.5 29 t32.5 79q0 51 -32.5 81t-87.5 30h-163v-219z" />
<glyph unicode="S" horiz-adv-x="672" d="M344 439q271 -49 271 -224q0 -100 -79 -163.5t-204 -63.5q-158 0 -262 98q-25 23 -5 48l41 48q9 11 23 12t25 -8q82 -69 180 -69q63 0 100.5 25t37.5 69q0 39 -41.5 61.5t-138.5 39.5q-109 19 -166 73t-57 136q0 92 78 151.5t186 59.5q143 0 255 -96q11 -9 12.5 -22.5 t-7.5 -24.5l-40 -49q-9 -11 -23 -12t-25 8q-81 67 -173 67q-56 0 -88 -21.5t-32 -59.5q0 -61 132 -83z" />
<glyph unicode="T" horiz-adv-x="633" d="M589 720q14 0 24 -10t10 -24v-60q0 -14 -10 -24.5t-24 -10.5h-202v-556q0 -15 -10 -25t-24 -10h-72q-14 0 -24 10t-10 25v556h-202q-15 0 -25 10.5t-10 24.5v60q0 14 10 24t25 10h544z" />
<glyph unicode="U" horiz-adv-x="812" d="M691 720q14 0 24 -9.5t10 -24.5v-373q0 -146 -88.5 -235.5t-230.5 -89.5q-143 0 -231 89.5t-88 235.5v373q0 14 10 24t24 10h72q15 0 25 -10t10 -24v-362q0 -93 47.5 -150.5t130.5 -57.5t130.5 57.5t47.5 150.5v362q0 14 10 24t25 10h72z" />
<glyph unicode="V" horiz-adv-x="733" d="M697 720q29 0 29 -27q0 -7 -3 -15l-282 -648q-11 -30 -41 -30h-67q-30 0 -41 30l-282 648q-3 8 -3 15q0 27 29 27h80q28 0 41 -30q11 -26 45 -102t55.5 -125.5t48 -115t41.5 -111.5l19 -52q3 5 12.5 32.5t25.5 70.5t31 79l141 324q13 30 41 30h80z" />
<glyph unicode="W" horiz-adv-x="984" d="M897 720q30 0 30 -27q0 -1 -0.5 -4t-0.5 -4l-106 -654q-7 -31 -39 -31h-75q-26 0 -40 29l-9 18l-165 381l-174 -399q-14 -29 -41 -29h-74q-33 0 -40 31l-106 654q-1 3 -1 8q0 27 31 27h73q29 0 39 -38l51 -309q5 -30 14 -141h9l153 362q13 30 41 30h49q28 0 41 -30 q8 -18 154 -362h9q0 67 13 141l2 16q7 43 25.5 154t24.5 145q8 32 39 32h73z" />
<glyph unicode="X" horiz-adv-x="742" d="M730 41q11 -14 3 -27.5t-26 -13.5h-85q-35 0 -58 29l-194 233l-193 -233q-23 -29 -57 -29h-85q-18 0 -26 13.5t3 27.5l271 326l-259 312q-12 14 -4 27.5t26 13.5h85q33 0 58 -28l181 -220l183 220q22 28 58 28h85q18 0 26 -13.5t-4 -27.5l-260 -312z" />
<glyph unicode="Y" horiz-adv-x="680" d="M652 720q18 0 26 -15.5t-2 -30.5l-266 -386v-253q0 -15 -10 -25t-24 -10h-72q-14 0 -24 10t-10 25v253l-266 386q-10 15 -2 30.5t27 15.5h75q35 0 54 -28l182 -267l183 267q18 28 53 28h76z" />
<glyph unicode="Z" horiz-adv-x="698" d="M611 128q14 0 24 -10t10 -24v-60q0 -14 -10 -24t-24 -10h-524q-15 0 -25 10t-10 24v53q0 21 10 32l379 472h-346q-14 0 -24 10t-10 24v60q0 14 10 24.5t24 10.5h506q14 0 24.5 -10.5t10.5 -24.5v-54q0 -19 -13 -33l-379 -470h367z" />
<glyph unicode="[" horiz-adv-x="386" d="M344 -165q0 -14 -10 -24.5t-25 -10.5h-192q-14 0 -24.5 10.5t-10.5 24.5v873q0 14 10.5 24t24.5 10h192q15 0 25 -10t10 -24v-42q0 -15 -10 -25t-25 -10h-94v-720h94q15 0 25 -10t10 -24v-42z" />
<glyph unicode="\" horiz-adv-x="397" d="M12 701q-1 3 -1 8q0 13 10.5 23t23.5 10h49q30 0 40 -30l259 -752q1 -2 1 -6q0 -14 -11 -24.5t-24 -10.5h-50q-13 0 -24.5 8t-15.5 21q-15 45 -110 322.5t-147 430.5z" />
<glyph unicode="]" horiz-adv-x="387" d="M42 -166v42q0 14 10 24.5t24 10.5h95v720h-95q-14 0 -24 10.5t-10 24.5v42q0 14 10 24t24 10h193q14 0 24.5 -10t10.5 -24v-874q0 -14 -10.5 -24t-24.5 -10h-193q-14 0 -24 10t-10 24z" />
<glyph unicode="^" horiz-adv-x="645" d="M587 350q4 -7 4 -15q0 -11 -8 -19t-21 -8h-40q-37 0 -51 8t-29 32q-41 76 -117 210l-117 -210q-17 -27 -32.5 -33.5t-46.5 -6.5h-41q-13 0 -21 8t-8 19q0 8 4 15q105 178 191 329q21 39 49 39h44q28 0 43 -28l6 -11q165 -283 191 -329z" />
<glyph unicode="_" horiz-adv-x="569" d="M587 -89v-71h-606v71h606z" />
<glyph unicode="`" horiz-adv-x="521" d="M223 625q-19 27 -81 112q-6 9 -6 18q0 11 7.5 18.5t18.5 7.5h73q29 0 44 -34l46 -107q2 -5 2 -13q0 -11 -7.5 -18t-19.5 -7h-33q-25 0 -44 23z" />
<glyph unicode="a" horiz-adv-x="584" d="M368 201v40h-14q-173 0 -173 -78q0 -30 20.5 -48t54.5 -18q39 0 75.5 30.5t36.5 73.5zM364 331v20q0 76 -90 76q-35 0 -87 -13t-56 -13q-21 0 -29 19l-15 36q-2 3 -2 11q0 30 64 51.5t142 21.5q87 0 148.5 -54t61.5 -163v-289q0 -14 -10 -24t-24 -10h-61q-15 0 -24.5 9.5 t-9.5 25.5v22h-8q-18 -31 -57.5 -50t-78.5 -19q-74 0 -127.5 46t-53.5 121q0 55 24.5 91.5t69.5 54t92.5 24t111.5 6.5h19z" />
<glyph unicode="b" horiz-adv-x="635" d="M331 107q54 0 86 41.5t32 115.5q0 71 -31.5 113.5t-82.5 42.5q-47 0 -81.5 -47.5t-34.5 -126.5v-99q49 -40 112 -40zM588 267q0 -126 -66.5 -202.5t-168.5 -76.5q-90 0 -153 59v-13q0 -14 -10.5 -24t-24.5 -10h-48q-14 0 -24.5 10t-10.5 24v674q0 14 10.5 24t24.5 10h67 q14 0 24.5 -10t10.5 -24v-168q0 -28 -4 -68h9q47 68 148 68q91 0 153.5 -74t62.5 -199z" />
<glyph unicode="c" horiz-adv-x="545" d="M473 158q45 -45 45 -65q0 -15 -10 -25q-88 -80 -201 -80q-119 0 -189.5 72.5t-70.5 203.5t70.5 203.5t189.5 72.5q110 0 201 -81q10 -10 10 -25q0 -14 -24 -44.5t-48 -30.5q-14 0 -21 7q-62 53 -118 53t-89.5 -40.5t-33.5 -114.5q0 -73 33.5 -114.5t89.5 -41.5t118 53 q10 8 22 8q15 0 26 -11z" />
<glyph unicode="d" horiz-adv-x="635" d="M308 421q-54 0 -88.5 -42t-34.5 -115q0 -71 30 -113t82 -42q48 0 83.5 47t35.5 126v103q-47 36 -108 36zM272 -12q-95 0 -160 71.5t-65 198.5q0 126 70 204t172 78q73 0 127 -29v197q0 14 10 24t24 10h68q14 0 24.5 -10t10.5 -24v-673q0 -15 -10.5 -25t-24.5 -10h-64 q-15 0 -25 10t-10 25v22l-8 1q-24 -33 -61 -51.5t-78 -18.5z" />
<glyph unicode="e" horiz-adv-x="601" d="M306 429q-44 0 -77.5 -29.5t-41.5 -82.5h227q0 52 -33 82t-75 30zM515 226h-331q1 -51 42 -89t90 -38q78 0 146 34q8 4 14 4q19 0 33 -23t14 -44q0 -35 -67.5 -58.5t-138.5 -23.5q-125 0 -197.5 71.5t-72.5 200.5q0 130 71.5 205t189.5 75q110 0 175.5 -70t65.5 -209 q0 -14 -10 -24.5t-24 -10.5z" />
<glyph unicode="f" horiz-adv-x="384" d="M414 731q30 -13 22 -43q0 -1 -6 -20.5t-7 -21.5q-4 -14 -16.5 -20.5t-25.5 -2.5q-38 12 -83 12q-62 0 -62 -64v-43h120q14 0 24.5 -10t10.5 -24v-40q0 -15 -10.5 -25t-24.5 -10h-120v-384q0 -15 -10.5 -25t-24.5 -10h-67q-14 0 -24 10t-10 25v384h-45q-14 0 -24.5 10 t-10.5 25v40q0 14 10.5 24t24.5 10h45v33q0 89 51.5 140t148.5 51q64 0 114 -21z" />
<glyph unicode="g" horiz-adv-x="632" d="M301 420q-54 0 -85 -37.5t-31 -106.5q0 -66 30.5 -103t82.5 -37q48 0 82 40t34 114v87q-49 43 -113 43zM151 -73q68 -19 141 -19q46 0 84 30t38 71q0 39 3 72q-1 0 -4 0.5t-5 0.5q-48 -67 -135 -67q-96 0 -161 69t-65 189q0 118 66.5 192.5t166.5 74.5q89 0 151 -60v14 q0 14 10.5 24t24.5 10h49q14 0 24 -10t10 -24v-464q0 -109 -69.5 -174.5t-197.5 -65.5q-74 0 -130.5 15t-56.5 46q0 8 2 12l13 41q5 24 33 24q5 0 8 -1z" />
<glyph unicode="h" horiz-adv-x="616" d="M352 540q90 0 136.5 -54.5t46.5 -156.5v-295q0 -14 -10.5 -24t-24.5 -10h-68q-14 0 -24 10t-10 24v281q0 104 -76 104q-43 0 -73 -27t-30 -64v-294q0 -14 -10.5 -24t-24.5 -10h-67q-14 0 -24.5 10t-10.5 24v674q0 14 10.5 24t24.5 10h67q14 0 24.5 -10t10.5 -24v-168 q0 -13 -1.5 -36t-1.5 -27l8 -3q22 31 56.5 48.5t71.5 17.5z" />
<glyph unicode="i" horiz-adv-x="302" d="M219 34q0 -14 -10.5 -24t-24.5 -10h-67q-14 0 -24.5 10t-10.5 24v460q0 14 10.5 24t24.5 10h67q14 0 24.5 -10t10.5 -24v-460zM226 680q0 -30 -22 -51t-54 -21q-31 0 -53.5 21t-22.5 51t22.5 51t53.5 21q32 0 54 -21t22 -51z" />
<glyph unicode="j" horiz-adv-x="301" d="M151 752q32 0 54.5 -21.5t22.5 -51.5t-22.5 -51t-54.5 -21q-30 0 -53 21t-23 51t23 51.5t53 21.5zM19 -210q-63 0 -115 21q-13 5 -19 17t-3 25q13 39 13 43q5 14 17 20.5t25 2.5q40 -10 84 -10q63 0 63 63l-2 523q0 14 10.5 24t24.5 10h67q14 0 24.5 -10t10.5 -24v-514 q0 -89 -51.5 -140t-148.5 -51z" />
<glyph unicode="k" horiz-adv-x="556" d="M537 45q6 -9 6 -19q0 -11 -7.5 -18.5t-19.5 -7.5h-84q-30 0 -52 31l-134 187l-27 -25v-159q0 -14 -10.5 -24t-24.5 -10h-67q-14 0 -24.5 10t-10.5 24v674q0 14 10.5 24t24.5 10h67q14 0 24.5 -10t10.5 -24v-307q0 -24 -5 -64l7 -3q15 26 50 59l97 111q20 24 54 24h78 q12 0 19.5 -8t7.5 -19t-7 -19q-104 -107 -179 -182z" />
<glyph unicode="l" horiz-adv-x="302" d="M219 34q0 -14 -10.5 -24t-24.5 -10h-67q-14 0 -24.5 10t-10.5 24v674q0 14 10.5 24t24.5 10h67q14 0 24.5 -10t10.5 -24v-674z" />
<glyph unicode="m" horiz-adv-x="909" d="M349 540q90 0 134 -74q62 70 138 74q97 0 150.5 -50t53.5 -147v-309q0 -14 -10 -24t-24 -10h-67q-15 0 -25 10t-10 24v284q0 101 -71 101q-41 0 -68.5 -28.5t-27.5 -64.5v-292q0 -14 -9.5 -24t-23.5 -10h-68q-14 0 -24.5 10t-10.5 24v284q0 100 -70 100q-42 0 -69.5 -28 t-27.5 -64v-292q0 -14 -10 -24t-24 -10h-68q-14 0 -24.5 10t-10.5 24v460q0 14 10.5 24t24.5 10h65q14 0 24 -10t10 -24v-18l8 -3q48 67 125 67z" />
<glyph unicode="n" horiz-adv-x="618" d="M354 540q90 0 135.5 -55t45.5 -157v-294q0 -14 -10.5 -24t-24.5 -10h-68q-14 0 -24 10t-10 24v281q0 103 -76 103q-43 0 -73 -27t-30 -64v-293q0 -14 -10.5 -24t-24.5 -10h-67q-14 0 -24.5 10t-10.5 24v460q0 14 10.5 24t24.5 10h64q14 0 24.5 -10t10.5 -24v-18l8 -3 q22 31 57.5 49t72.5 18z" />
<glyph unicode="o" horiz-adv-x="628" d="M314 106q57 0 93.5 43.5t36.5 114.5t-36.5 114.5t-93.5 43.5q-56 0 -92.5 -43.5t-36.5 -115.5q0 -70 36.5 -113.5t92.5 -43.5zM314 540q114 0 190.5 -78t76.5 -197q0 -121 -76 -199t-191 -78q-116 0 -191.5 77t-75.5 198q0 120 76 198.5t191 78.5z" />
<glyph unicode="p" horiz-adv-x="635" d="M331 107q54 0 86 41.5t32 115.5q0 71 -31.5 113t-82.5 42q-48 0 -82 -47t-34 -126v-97q51 -42 112 -42zM588 267q0 -126 -67.5 -202.5t-169.5 -76.5q-76 0 -132 36v-190q0 -14 -10.5 -24t-24.5 -10h-66q-14 0 -25 10t-11 24v660q0 14 10.5 24t24.5 10h63q14 0 24.5 -10 t10.5 -24v-24h9q23 33 59 51.5t76 18.5q96 0 162.5 -72t66.5 -201z" />
<glyph unicode="q" horiz-adv-x="635" d="M303 420q-54 0 -86 -41t-32 -115q0 -71 32 -113.5t83 -42.5q47 0 81.5 47.5t34.5 126.5v97q-50 41 -113 41zM47 261q0 126 66.5 202.5t167.5 76.5q90 0 154 -58v12q0 14 10 24t24 10h49q14 0 24 -10t10 -24v-660q0 -14 -10 -24t-24 -10h-68q-14 0 -24 10t-10 25v154 q0 24 4 68h-10q-49 -69 -135 -69q-95 0 -161.5 72.5t-66.5 200.5z" />
<glyph unicode="r" horiz-adv-x="447" d="M349 540q37 0 67 -16q32 -13 24 -42l-12 -56q-4 -14 -16.5 -22.5t-23.5 -2.5q-28 14 -53 14q-48 0 -82 -47t-34 -126v-207q0 -15 -10 -25t-24 -10h-68q-14 0 -24.5 10t-10.5 25v460q0 14 10.5 24t24.5 10h64q14 0 24.5 -10.5t10.5 -24.5v-24h9q49 70 124 70z" />
<glyph unicode="s" horiz-adv-x="509" d="M246 101q35 0 55 14.5t20 37.5q0 21 -27 34.5t-66 24t-78 25.5t-66 49.5t-27 85.5q0 71 56 119.5t145 48.5q71 0 129.5 -20t58.5 -48q0 -7 -3 -13l-16 -37q-9 -19 -31 -21q-7 0 -13 3q-55 23 -122 23q-26 0 -47 -15t-21 -32q0 -22 20.5 -33t70.5 -23q40 -10 66.5 -20 t54.5 -28t42 -47t14 -69q0 -73 -61.5 -122.5t-155.5 -49.5q-72 0 -134 21.5t-62 49.5q0 7 3 15l19 41q8 18 31 18q5 0 13 -2q69 -30 132 -30z" />
<glyph unicode="t" horiz-adv-x="420" d="M278 -12q-89 0 -135.5 47t-46.5 131v253h-45q-14 0 -24 10t-10 25v40q0 14 10 24t24 10h45v100q0 14 10 24.5t23 10.5h68q14 0 24.5 -10.5t10.5 -24.5v-100h123q14 0 24.5 -10t10.5 -24v-40q0 -15 -10.5 -25t-24.5 -10h-123v-249q0 -61 48 -61q28 0 65 11q12 4 25 -2.5 t18 -19.5l14 -44q8 -27 -20 -43q-56 -23 -104 -23z" />
<glyph unicode="u" horiz-adv-x="618" d="M263 -12q-90 0 -135.5 54t-45.5 156v296q0 14 10.5 24t24.5 10h67q14 0 24.5 -10t10.5 -24v-282q0 -103 76 -103q43 0 73 27.5t30 64.5v293q0 14 10 24t24 10h68q14 0 24.5 -10t10.5 -24v-460q0 -14 -10.5 -24t-24.5 -10h-65q-14 0 -24 10t-10 24v18l-8 2 q-22 -31 -57.5 -48.5t-72.5 -17.5z" />
<glyph unicode="v" horiz-adv-x="554" d="M311 0h-69q-26 0 -37 27q-58 153 -176 461q-2 4 -2 12q0 12 8 20t22 8h67q24 0 37 -26l93 -246q6 -15 11 -36t6 -22h11q3 7 7.5 26t9.5 32l93 246q10 26 37 26h67q29 0 29 -27q0 -9 -2 -13q-23 -60 -175 -461q-10 -27 -37 -27z" />
<glyph unicode="w" horiz-adv-x="830" d="M759 528q15 0 23.5 -8t8.5 -21q0 -1 -0.5 -3.5t-0.5 -3.5l-114 -463q-8 -29 -37 -29h-83q-28 0 -37 27q-102 300 -102 314h-7q0 -5 -12 -42q-69 -216 -89 -272q-10 -27 -38 -27h-82q-30 0 -36 29l-114 463q-1 3 -1 9q0 27 31 27h67q31 0 38 -39l26 -113q10 -48 26 -133 l12 -72h9q1 2 21 79.5t32 115.5l38 116q9 28 37 28h77q31 0 38 -28q79 -230 91 -311h10l12 72q5 27 11.5 65.5t11 61.5t10 51.5t11 45t12.5 32t15.5 22.5t18.5 7h66z" />
<glyph unicode="x" horiz-adv-x="562" d="M286 173h-10q-1 -2 -6 -11.5t-11.5 -21t-12.5 -20.5l-57 -80q-17 -24 -33 -32t-44 -8h-58q-11 0 -19 7.5t-8 17.5q0 8 6 17q112 152 167 228l-158 216q-6 8 -6 16q0 11 8 18.5t19 7.5h59q18 0 26.5 -1t21 -9t24.5 -24l47 -67q19 -27 36 -61h10q20 41 35 61 q8 11 21.5 29.5t18.5 25t14.5 17.5t14 14t13.5 8t17.5 6t19.5 1h58q11 0 19 -7.5t8 -17.5q0 -8 -6 -17l-159 -216q19 -25 53.5 -71.5t62.5 -84.5t52 -72q5 -8 5 -17q0 -11 -7.5 -18t-19.5 -7h-59q-11 0 -29 4q-11 3 -25.5 15.5t-26 27t-26.5 36t-23 35.5t-19.5 33.5 t-12.5 21.5z" />
<glyph unicode="y" horiz-adv-x="555" d="M524 488q-18 -45 -100.5 -262t-153.5 -399q-10 -27 -37 -27h-67q-13 0 -21.5 8t-8.5 19q0 7 3 13q21 58 70 180q-19 50 -81.5 214t-98.5 254q-2 4 -2 12q0 12 8 20t21 8h69q27 0 37 -26q24 -62 64 -172.5t46 -131.5h11q21 72 30 96l9 23q60 157 71 185q10 26 37 26h67 q29 0 29 -27q0 -9 -2 -13z" />
<glyph unicode="z" horiz-adv-x="530" d="M458 115q14 0 24.5 -10t10.5 -24v-47q0 -14 -10.5 -24t-24.5 -10h-387q-14 0 -24 10t-10 24v36q0 26 14 43l251 300h-222q-15 0 -25 10.5t-10 24.5v46q0 14 10 24t25 10h370q14 0 24 -10t10 -24v-50q0 -11 -17 -31l-251 -298h242z" />
<glyph unicode="{" horiz-adv-x="440" d="M170 264q45 -25 71.5 -74t26.5 -112v-89q0 -46 14.5 -63.5t53.5 -17.5h26q15 0 25 -10t10 -24v-42q0 -13 -10 -22.5t-25 -9.5h-23q-106 0 -154.5 44.5t-48.5 146.5v59q0 74 -25.5 116.5t-75.5 44.5q-15 1 -24.5 9.5t-9.5 22.5v56q0 14 10 23t24 9q48 0 74.5 43.5 t26.5 116.5v60q0 103 48.5 147t154.5 44h23q15 0 25 -9.5t10 -22.5v-42q0 -14 -10 -24t-25 -10h-26q-39 0 -53.5 -17.5t-14.5 -63.5v-89q0 -63 -26.5 -112t-71.5 -74v-14z" />
<glyph unicode="|" horiz-adv-x="322" d="M223 -165q0 -15 -10.5 -25t-24.5 -10h-55q-14 0 -24 10t-10 25v873q0 14 10 24t24 10h55q14 0 24.5 -10t10.5 -24v-873z" />
<glyph unicode="}" horiz-adv-x="440" d="M269 264v14q-45 25 -71.5 74t-26.5 112v89q0 46 -14.5 63.5t-53.5 17.5h-26q-15 0 -25 10t-10 24v42q0 13 10 22.5t25 9.5h23q106 0 154.5 -44t48.5 -147v-60q0 -73 26.5 -116.5t74.5 -43.5q14 0 24 -9t10 -23v-56q0 -14 -9.5 -22.5t-24.5 -9.5q-50 -2 -75.5 -44.5 t-25.5 -116.5v-59q0 -102 -48.5 -146.5t-154.5 -44.5h-23q-15 0 -25 9.5t-10 22.5v42q0 14 10 24t25 10h26q39 0 53.5 17.5t14.5 63.5v89q0 63 26.5 112t71.5 74z" />
<glyph unicode="~" horiz-adv-x="700" d="M279 300q-44 20 -57 20q-15 0 -29.5 -20.5t-15.5 -50.5q-1 -14 -11 -24t-23 -10h-58q-15 0 -25 10t-10 25q3 89 58.5 144t128.5 55q40 0 89 -27.5t89.5 -55t58.5 -27.5q20 0 36.5 22t18.5 55q1 14 11 23.5t24 9.5h58q14 0 24 -10.5t11 -24.5q-4 -86 -58.5 -142.5 t-123.5 -56.5q-32 0 -67 16t-72 38.5t-57 30.5z" />
<glyph unicode="&#xa1;" horiz-adv-x="344" d="M105 301q1 14 11 24t24 10h43q14 0 23.5 -10t10.5 -24l14 -291v-175q0 -15 -10 -25t-25 -10h-70q-14 0 -24 10t-10 25v174q5 98 13 292zM240 461q0 -32 -23 -55.5t-55 -23.5q-33 0 -56.5 23.5t-23.5 55.5q0 33 23.5 56t56.5 23q32 0 55 -23t23 -56z" />
<glyph unicode="&#xa2;" horiz-adv-x="541" d="M366 34q0 -15 -10 -24.5t-24 -9.5h-60q-15 0 -25 9.5t-10 24.5v55q-90 18 -141.5 88t-51.5 182q0 111 51.5 181t141.5 88v57q0 15 10.5 25t24.5 10h60q14 0 24 -10t10 -25v-57q44 -10 96.5 -39.5t52.5 -59.5q0 -13 -23.5 -44.5t-46.5 -31.5q-13 0 -23 8q-61 54 -118 54 q-55 0 -89 -41.5t-34 -114.5v-14q4 -68 37 -105.5t86 -37.5q56 0 118 53q9 9 23 9q16 0 43 -29t27 -48q0 -29 -53.5 -59.5t-95.5 -39.5v-54z" />
<glyph unicode="&#xa3;" horiz-adv-x="608" d="M548 4q-38 -10 -122 -10q-30 0 -90.5 10.5t-93.5 10.5q-61 0 -145 -18q-14 -3 -26 5t-15 23q-10 39 -13 62q-2 13 5 25t20 14q35 11 55.5 51.5t20.5 96.5q0 14 -1 20h-53q-14 0 -24.5 10t-10.5 24v45q0 15 10.5 25t24.5 10h39q-9 55 -9 100q0 95 67 159.5t168 64.5 t178 -57q12 -9 14 -23.5t-7 -26.5l-31 -43q-8 -10 -23 -11.5t-26 5.5q-48 37 -103 37q-43 0 -68 -28.5t-25 -74.5q0 -36 9 -102h138q14 0 24 -10t10 -25v-45q0 -14 -10 -24t-24 -10h-126q0 -2 0.5 -10t0.5 -12q0 -70 -52 -138q12 0 74 -4q18 -1 61.5 -6.5t66.5 -5.5 q35 0 89 12q13 3 24.5 -5.5t14.5 -22.5q0 -13 11 -57q6 -30 -27 -41z" />
<glyph unicode="&#xa4;" d="M516 214l29 -28q11 -10 11 -24t-11 -25l-35 -35q-10 -10 -24 -10t-25 10l-29 28q-53 -31 -117 -31q-63 0 -117 31l-27 -27q-24 -22 -50 0l-35 36q-10 10 -10 24t10 24l28 28q-32 56 -32 116q0 59 32 118l-28 29q-10 10 -10 24t10 24l35 35q10 11 24 11t24 -11l29 -28 q54 32 117 32t117 -32l28 29q11 10 25 10t24 -10l36 -36q11 -10 11 -24t-11 -25l-28 -29q32 -54 32 -117q0 -64 -33 -117zM199 331q0 -48 34 -82t82 -34t82.5 34t34.5 82q0 49 -34.5 83t-82.5 34t-82 -34t-34 -83z" />
<glyph unicode="&#xa5;" horiz-adv-x="666" d="M646 720q17 0 25 -15.5t-2 -30.5l-148 -215h48q14 0 24 -10.5t10 -24.5v-33q0 -15 -10 -25t-24 -10h-119l-41 -60h159q15 0 25 -10t10 -25v-34q0 -14 -10 -24t-25 -10h-164v-158q0 -15 -10 -25t-25 -10h-71q-15 0 -25 10t-10 25v158h-168q-14 0 -24 10t-10 24v34 q0 15 10 25t24 10h163l-42 60h-121q-14 0 -24 10t-10 25v33q0 14 10 24.5t24 10.5h51l-148 215q-10 15 -2 30.5t26 15.5h76q34 0 53 -28l183 -267l182 267q19 28 54 28h76z" />
<glyph unicode="&#xa6;" horiz-adv-x="322" d="M223 344q0 -14 -10.5 -24t-24.5 -10h-55q-14 0 -24 10t-10 24v364q0 14 10 24t24 10h55q14 0 24.5 -10t10.5 -24v-364zM223 -165q0 -15 -10.5 -25t-24.5 -10h-55q-14 0 -24 10t-10 25v363q0 14 10 24t24 10h55q14 0 24.5 -10t10.5 -24v-363z" />
<glyph unicode="&#xa7;" horiz-adv-x="594" d="M261 369q-20 -12 -30.5 -19.5t-24 -22.5t-13.5 -28q0 -34 34 -61t105 -63q69 39 69 69q0 34 -34.5 61t-105.5 64zM85 -133q-12 9 -12.5 24t10.5 27l38 45q11 11 26.5 11t27.5 -10q20 -20 53.5 -33t60.5 -13q39 0 62.5 13t24.5 36q-1 27 -30.5 49t-107.5 60 q-91 44 -136 90.5t-45 104.5q0 93 95 156q-79 59 -79 138q0 83 59 135t169 52q129 0 208 -76q12 -10 12.5 -25.5t-10.5 -25.5l-40 -41q-10 -11 -25 -11t-27 10q-51 43 -115 43q-85 0 -85 -48q0 -28 29.5 -51t108.5 -61q179 -86 179 -203q0 -86 -95 -145q81 -61 81 -140 q0 -83 -60 -135.5t-172 -52.5q-110 0 -205 77z" />
<glyph unicode="&#xa8;" horiz-adv-x="530" d="M164 627q-30 0 -50.5 21t-20.5 51t20.5 50.5t50.5 20.5t51.5 -20.5t21.5 -50.5t-21.5 -51t-51.5 -21zM368 627q-29 0 -50 21t-21 51t21 50.5t50 20.5q30 0 51.5 -20.5t21.5 -50.5t-21.5 -51t-51.5 -21z" />
<glyph unicode="&#xa9;" horiz-adv-x="853" d="M576 247l18 -18q18 -27 -5 -52q-67 -59 -159 -59q-103 0 -166.5 66t-63.5 171t63.5 171t166.5 66q92 0 158 -61q11 -9 12 -25t-7 -25l-19 -22q-8 -8 -23.5 -7.5t-25.5 8.5q-39 37 -95 37q-55 0 -93 -39.5t-38 -102.5t38 -102.5t93 -39.5q53 0 95 35q10 9 25.5 9t25.5 -10 zM426 749q164 0 279.5 -115.5t115.5 -279.5q0 -163 -115.5 -279t-279.5 -116q-163 0 -278.5 116t-115.5 279t115.5 279t278.5 116zM426 49q126 0 215.5 89.5t89.5 215.5t-89.5 215.5t-215.5 89.5q-125 0 -214.5 -90t-89.5 -215t89.5 -215t214.5 -90z" />
<glyph unicode="&#xaa;" horiz-adv-x="574" d="M337 509h-12h-11q-124 -2 -124 -57q0 -44 59 -44q30 0 59 24.5t29 57.5v19zM337 591v9q0 23 -19.5 41t-54.5 18q-29 0 -63 -10t-36 -10q-20 0 -28 16q-16 16 -16 36q0 27 43.5 43.5t112.5 16.5q66 0 112.5 -42t46.5 -128v-219q0 -14 -10 -24.5t-25 -10.5h-33 q-24 0 -24 26v17q-40 -52 -103 -52q-65 0 -107.5 36.5t-42.5 94.5q0 44 19 73.5t54.5 44t73 19.5t87.5 5h13z" />
<glyph unicode="&#xab;" horiz-adv-x="628" d="M31 265q-10 11 -10 24.5t10 23.5l209 210q11 10 25 9.5t24 -10.5l34 -34q10 -10 10 -24t-10 -24l-150 -151l150 -150q10 -11 10 -25t-10 -24l-34 -34q-10 -10 -24 -10t-25 10zM307 265q-10 11 -10 24.5t10 23.5l209 210q11 10 25 9.5t24 -10.5l34 -34q10 -10 10 -24 t-10 -24l-150 -151l150 -150q10 -11 10 -25t-10 -24l-34 -34q-10 -10 -24 -10t-25 10z" />
<glyph unicode="&#xac;" d="M462 329h-388q-35 0 -35 28v58q0 15 10 25t25 10h483q14 0 24 -10t10 -25v-273q0 -14 -10 -24t-24 -10h-61q-14 0 -24 10t-10 24v187z" />
<glyph unicode="&#xad;" horiz-adv-x="396" d="M359 267q0 -14 -10 -24.5t-25 -10.5h-250q-14 0 -24 10.5t-10 24.5v45q0 14 10 24t24 10h250q15 0 25 -10t10 -24v-45z" />
<glyph unicode="&#xae;" horiz-adv-x="853" d="M611 193q14 -16 4 -42t-34 -26h-24q-23 0 -42 21q-12 15 -52.5 70t-44.5 59h-68v-114q0 -14 -10.5 -25t-27.5 -11h-23q-16 0 -26.5 11t-10.5 25v389q0 14 10.5 25t26.5 11h145q80 0 129 -43t49 -113q0 -44 -23 -79.5t-62 -56.5zM350 371h94q32 0 50 15.5t18 43.5 t-18.5 44t-49.5 16h-94v-119zM426 749q164 0 279.5 -115.5t115.5 -279.5q0 -163 -115.5 -279t-279.5 -116q-163 0 -278.5 116t-115.5 279t115.5 279t278.5 116zM426 49q126 0 215.5 89.5t89.5 215.5t-89.5 215.5t-215.5 89.5q-125 0 -214.5 -90t-89.5 -215t89.5 -215 t214.5 -90z" />
<glyph unicode="&#xaf;" horiz-adv-x="505" d="M439 675q0 -14 -10.5 -24.5t-24.5 -10.5h-299q-14 0 -24.5 10.5t-10.5 24.5v38q0 14 10.5 24.5t24.5 10.5h299q14 0 24.5 -10.5t10.5 -24.5v-38z" />
<glyph unicode="&#xb0;" horiz-adv-x="466" d="M62 570q0 69 49.5 118t118.5 49q70 0 119 -49t49 -118q0 -70 -49 -118.5t-119 -48.5q-69 0 -118.5 49t-49.5 118zM157 570q0 -31 21.5 -52t51.5 -21q31 0 52.5 21t21.5 52t-21.5 52t-52.5 21q-30 0 -51.5 -21t-21.5 -52z" />
<glyph unicode="&#xb1;" horiz-adv-x="611" d="M578 34q0 -14 -10 -24t-25 -10h-478q-14 0 -24 10t-10 24v51q0 14 10 24.5t24 10.5h478q15 0 25 -10.5t10 -24.5v-51zM578 402q0 -14 -10 -24.5t-25 -10.5h-178v-175q0 -14 -10 -24.5t-24 -10.5h-52q-14 0 -24.5 10.5t-10.5 24.5v175h-179q-14 0 -24.5 10.5t-10.5 24.5 v51q0 14 10.5 24t24.5 10h179v174q0 15 10.5 25t24.5 10h52q14 0 24 -10t10 -25v-174h178q15 0 25 -10t10 -24v-51z" />
<glyph unicode="&#xb2;" horiz-adv-x="287" d="M11 649q16 34 50 58.5t82 24.5q56 0 94.5 -36t38.5 -90q0 -18 -6.5 -37t-13 -32t-23.5 -32t-25 -27t-31 -29t-28 -26h85q18 0 30 -8.5t12 -24.5v-15q0 -16 -9 -27t-24 -11h-200q-13 0 -24 10t-11 25v17q0 18 23 41l140 139q16 16 16 36q0 18 -12.5 29.5t-31.5 11.5 q-21 0 -44 -29t-40 -29q-20 0 -36 16t-16 30q0 5 4 15z" />
<glyph unicode="&#xb3;" horiz-adv-x="273" d="M86 441q12 -24 43 -24q19 0 33 13t14 33q0 19 -13.5 31t-33.5 12h-18q-34 0 -34 35v16q0 14 8.5 22.5t21.5 8.5h18q16 0 27.5 9.5t11.5 23.5q0 13 -10.5 21.5t-24.5 8.5q-16 0 -35 -19q-17 -29 -44 -18l-16 10q-27 16 -13 45q12 24 38.5 43.5t69.5 19.5q50 0 84.5 -32 t34.5 -78t-27 -67q43 -28 43 -95q0 -55 -39.5 -92t-95.5 -37q-50 0 -80 22.5t-42 48.5q-12 28 14 45l19 10q31 14 46 -16z" />
<glyph unicode="&#xb4;" horiz-adv-x="521" d="M384 737l-75 -102q-24 -33 -51 -33h-33q-12 0 -19.5 7t-7.5 18q0 5 3 13l46 107q14 34 43 34h73q12 0 19 -7.5t7 -19.5q0 -10 -5 -17z" />
<glyph unicode="&#xb5;" horiz-adv-x="609" d="M215 -165q0 -15 -10.5 -25t-24.5 -10h-67q-14 0 -24 10t-10 25v342q-1 11 -1 33v284q0 14 10.5 24t24.5 10h67q14 0 24.5 -10t10.5 -24v-290q0 -96 76 -96q43 0 74 28t31 65v293q0 14 10.5 24t24.5 10h67q14 0 24.5 -10t10.5 -24v-460q0 -14 -10.5 -24t-24.5 -10h-66 q-14 0 -24 10t-10 24v20q-59 -66 -137 -66q-16 0 -46 8v-161z" />
<glyph unicode="&#xb6;" horiz-adv-x="586" d="M547 685v-9q0 -4 -2.5 -13t-5.5 -9q0 -9 -8.5 -17t-18.5 -10v-791q0 -16 -10 -26t-25 -10h-27q-14 0 -24.5 10t-10.5 26v791h-82v-791q0 -15 -10.5 -25.5t-24.5 -10.5h-26q-16 0 -25.5 10t-9.5 26v454q-92 4 -149 65.5t-57 149.5q0 101 63 158t179 57h239q14 0 24.5 -10 t10.5 -25z" />
<glyph unicode="&#xb7;" horiz-adv-x="349" d="M192 254q-34 0 -58 24t-24 58t24 58t58 24q35 0 59 -24t24 -58t-24 -58t-59 -24z" />
<glyph unicode="&#xb8;" horiz-adv-x="497" d="M340 -6l-2 -30q34 -25 34 -64q0 -48 -44 -79t-109 -31q-22 0 -33.5 0.5t-27.5 4t-23 11.5t-7 22v18q0 15 11.5 24t26.5 9q3 0 16.5 -2t22.5 -2q65 0 65 34q0 7 -12.5 20.5t-12.5 27.5l7 46l5 10q13 17 30 17h15q18 0 28.5 -11t9.5 -25z" />
<glyph unicode="&#xb9;" horiz-adv-x="249" d="M144 720h20q33 0 33 -34v-321q0 -14 -9.5 -24t-25.5 -10h-21q-32 0 -32 34v224q-4 -3 -19 -16.5t-19 -16.5q-9 -11 -23.5 -11t-24.5 12q-8 12 -13 17q-19 22 2 43l105 92q11 11 27 11z" />
<glyph unicode="&#xba;" horiz-adv-x="624" d="M312 414q45 0 73.5 33.5t28.5 87.5t-28.5 87t-73.5 33q-44 0 -72.5 -33.5t-28.5 -87.5q0 -53 28.5 -86.5t72.5 -33.5zM312 752q88 0 147 -62t59 -154q0 -96 -58.5 -157t-147.5 -61t-147.5 60t-58.5 156q0 94 58.5 156t147.5 62z" />
<glyph unicode="&#xbb;" horiz-adv-x="629" d="M600 265l-209 -209q-11 -10 -25 -10t-24 10l-34 34q-10 10 -10 24t10 25l150 150l-150 151q-10 11 -10 24.5t10 23.5l34 34q10 10 24 10.5t25 -9.5l209 -210q10 -10 10 -23.5t-10 -24.5zM324 265l-209 -209q-11 -10 -25 -10t-24 10l-34 34q-10 10 -10 24t10 25l150 150 l-150 151q-10 10 -10 24t10 24l34 34q10 10 24 10.5t25 -9.5l209 -210q10 -10 10 -23.5t-10 -24.5z" />
<glyph unicode="&#xbc;" horiz-adv-x="711" d="M535 375q19 19 35 19h18q16 0 25 -13t9 -28v-182h18q14 0 24 -9.5t10 -25.5v-18q0 -14 -10 -24t-24 -10h-18v-44q0 -40 -34 -40h-20q-35 0 -35 40v44h-136q-42 0 -42 34v2v16l3 14q2 5 8 15q57 70 169 210zM453 160h85v107zM153 720h21q18 0 25 -10.5t7 -33.5v-311 q0 -15 -10.5 -24.5t-27.5 -9.5h-17q-32 0 -32 43v214l-32 -28q-15 -15 -31 -15q-12 0 -28.5 17.5t-16.5 32.5q0 11 11 22l105 91q10 12 26 12zM581 679l-384 -650q-17 -29 -49 -29h-23q-11 0 -18.5 8t-7.5 18q0 7 4 14l383 650q17 30 49 30h23q11 0 19 -8.5t8 -19.5 q0 -5 -4 -13z" />
<glyph unicode="&#xbd;" horiz-adv-x="747" d="M153 720h21q18 0 25 -10.5t7 -33.5v-311q0 -15 -10.5 -24.5t-27.5 -9.5h-17q-32 0 -32 43v214l-32 -28q-12 -15 -31 -15q-12 0 -28.5 17.5t-16.5 32.5q0 11 11 22l105 91q10 12 26 12zM583 679q-74 -125 -210 -356t-173 -294q-17 -29 -50 -29h-22q-11 0 -19 7.5t-8 18.5 q0 7 4 14l383 650q17 30 50 30h22q11 0 19 -8t8 -19q0 -9 -4 -14zM455 310q14 35 48.5 59.5t82.5 24.5q57 0 95 -36t38 -90q0 -56 -37 -96l-89 -87h84q42 0 42 -34v-17q0 -16 -9.5 -25t-23.5 -9h-200q-14 0 -24 9t-10 25v16q0 22 22 42l140 139q17 17 17 36q0 18 -12.5 30 t-32.5 12t-43 -29.5t-40 -29.5q-8 0 -14 3l-18 11q-20 12 -20 31q0 8 4 15z" />
<glyph unicode="&#xbe;" horiz-adv-x="733" d="M566 375q4 5 15 12t20 7h17q18 0 26.5 -12t8.5 -29v-182h18q12 0 23.5 -10t11.5 -25v-18q0 -14 -10.5 -24t-24.5 -10h-18v-44q0 -40 -35 -40h-19q-35 0 -35 40v44h-136q-42 0 -42 34v10q0 23 12 37zM484 160h85v107zM615 679q-74 -125 -210 -356t-173 -294 q-17 -29 -49 -29h-24q-10 0 -17.5 7.5t-7.5 18.5q0 7 4 14l383 650q17 30 49 30h23q10 0 18 -8t8 -19q0 -7 -4 -14zM118 430q10 -10 29 -10q17 0 29 12.5t12 30.5t-13.5 30.5t-32.5 12.5h-18q-33 0 -33 35v17q0 30 29 30h18q15 0 26.5 9.5t11.5 23.5q0 13 -10.5 20.5 t-23.5 7.5t-33 -14q-10 -14 -15.5 -19t-14.5 -5q-8 0 -16 4l-16 10q-18 12 -17 28q0 22 30 50.5t82 28.5q50 0 84 -31.5t34 -78.5q0 -45 -26 -67q43 -28 43 -95q0 -55 -39.5 -92t-95.5 -37q-34 0 -60.5 11.5t-39.5 27.5t-19 28.5t-6 18.5q0 20 17 30l18 10q7 4 16 4 q11 0 27 -14t23 -17z" />
<glyph unicode="&#xbf;" horiz-adv-x="560" d="M280 -210q-107 0 -172.5 56.5t-65.5 143.5q0 62 44.5 118.5t134.5 118.5v74q0 13 10.5 23t24.5 10h68q15 0 24.5 -9.5t9.5 -23.5v-112q0 -10 -6.5 -21.5t-16.5 -16.5q-5 -3 -23 -15.5t-24.5 -16.5t-22.5 -15.5t-22.5 -17t-18.5 -16t-17 -18t-11.5 -17.5t-9 -19.5 t-2.5 -19.5q0 -36 28 -58.5t70 -22.5q75 0 143 49q11 8 25.5 6t22.5 -14l34 -49q17 -26 -9 -47q-99 -70 -218 -70zM291 382q-32 0 -56 23.5t-24 55.5q0 33 23.5 56t56.5 23q32 0 55 -23t23 -56q0 -32 -23 -55.5t-55 -23.5z" />
<glyph unicode="&#xc0;" horiz-adv-x="746" d="M736 37q6 -14 -2.5 -25.5t-23.5 -11.5h-83q-30 0 -44 32l-58 139h-304l-58 -139q-14 -32 -44 -32h-83q-16 0 -24 12t-2 26l291 652q11 30 42 30h60q31 0 42 -30zM268 289h209q-21 53 -45 116.5t-39.5 107t-19.5 52.5q-5 -10 -20.5 -53t-39 -107t-45.5 -116zM329 816 q-19 27 -81 112q-6 9 -6 18q0 11 7.5 18.5t18.5 7.5h73q29 0 44 -34l46 -107q2 -5 2 -13q0 -11 -7.5 -18t-19.5 -7h-33q-25 0 -44 23z" />
<glyph unicode="&#xc1;" horiz-adv-x="746" d="M736 37q6 -14 -2.5 -25.5t-23.5 -11.5h-83q-30 0 -44 32l-58 139h-304l-58 -139q-14 -32 -44 -32h-83q-16 0 -24 12t-2 26l291 652q11 30 42 30h60q31 0 42 -30zM268 289h209q-21 53 -45 116.5t-39.5 107t-19.5 52.5q-5 -10 -20.5 -53t-39 -107t-45.5 -116zM503 928 l-75 -102q-24 -33 -51 -33h-33q-12 0 -19.5 7t-7.5 18q0 6 3 13l46 107q14 34 43 34h73q12 0 19 -7.5t7 -19.5q0 -9 -5 -17z" />
<glyph unicode="&#xc2;" horiz-adv-x="746" d="M736 37q6 -14 -2.5 -25.5t-23.5 -11.5h-83q-30 0 -44 32l-58 139h-304l-58 -139q-14 -32 -44 -32h-83q-16 0 -24 12t-2 26l291 652q11 30 42 30h60q31 0 42 -30zM268 289h209q-21 53 -45 116.5t-39.5 107t-19.5 52.5q-5 -10 -20.5 -53t-39 -107t-45.5 -116zM415 816 l-44 68l-36 -57q-23 -37 -65 -35h-39q-24 0 -24 24q0 8 6 19l71 103q23 34 50 34h76q17 0 35 -16q12 -12 51.5 -67t39.5 -73q0 -10 -7 -17t-17 -7h-53q-29 0 -44 24z" />
<glyph unicode="&#xc3;" horiz-adv-x="746" d="M736 37q6 -14 -2.5 -25.5t-23.5 -11.5h-83q-30 0 -44 32l-58 139h-304l-58 -139q-14 -32 -44 -32h-83q-16 0 -24 12t-2 26l291 652q11 30 42 30h60q31 0 42 -30zM268 289h209q-21 53 -45 116.5t-39.5 107t-19.5 52.5q-5 -10 -20.5 -53t-39 -107t-45.5 -116zM346 829 q-33 27 -48 27q-20 0 -30 -32.5t-30 -32.5h-34q-11 0 -20 9.5t-9 21.5q4 64 40.5 101.5t85.5 37.5q29 0 81 -33.5t62 -33.5q18 0 30 32t30 32h35q11 0 19.5 -9.5t8.5 -21.5q-4 -65 -40.5 -102.5t-85.5 -37.5q-38 0 -95 42z" />
<glyph unicode="&#xc4;" horiz-adv-x="746" d="M736 37q6 -14 -2.5 -25.5t-23.5 -11.5h-83q-30 0 -44 32l-58 139h-304l-58 -139q-14 -32 -44 -32h-83q-16 0 -24 12t-2 26l291 652q11 30 42 30h60q31 0 42 -30zM268 289h209q-21 53 -45 116.5t-39.5 107t-19.5 52.5q-5 -10 -20.5 -53t-39 -107t-45.5 -116zM269 818 q-30 0 -50.5 21t-20.5 51t20.5 50.5t50.5 20.5t51.5 -20.5t21.5 -50.5t-21.5 -51t-51.5 -21zM473 818q-29 0 -50 21t-21 51t21 50.5t50 20.5q30 0 51.5 -20.5t21.5 -50.5t-21.5 -51t-51.5 -21z" />
<glyph unicode="&#xc5;" horiz-adv-x="746" d="M238 783q0 55 39.5 94.5t94.5 39.5q56 0 96 -39.5t40 -95.5q0 -67 -57 -107q33 -75 131.5 -294.5t151.5 -339.5q4 -6 4 -16q0 -11 -8 -18t-20 -7h-84q-30 0 -43 32l-58 138h-305q-38 -92 -58 -138q-14 -32 -43 -32h-83q-13 0 -21 7t-8 18t5 16l282 634q-56 40 -56 108z M473 295q-26 63 -61 157.5t-40 104.5l-36 -97q-35 -98 -63 -165h200zM315 783q0 -25 17 -42t41 -17t41 17.5t17 41.5q0 25 -16.5 42t-41.5 17q-24 0 -41 -17t-17 -42z" />
<glyph unicode="&#xc6;" horiz-adv-x="1155" d="M1057 591h-358v-158h313q14 0 24 -10.5t10 -24.5v-60q0 -14 -10 -24t-24 -10h-313v-176h358q14 0 24 -10t10 -24v-60q0 -14 -10 -24t-24 -10h-465q-14 0 -24 10t-10 24v134h-270q-76 -94 -113 -140q-26 -32 -55 -32h-95q-20 0 -20 25q0 13 8 23l533 650q20 26 49 26h462 q14 0 24 -10.5t10 -24.5v-60q0 -14 -10 -24t-24 -10zM387 294h171v225q-101 -136 -171 -225z" />
<glyph unicode="&#xc7;" horiz-adv-x="741" d="M470 -9l-2 -27q35 -25 35 -64q0 -48 -44 -79t-109 -31q-22 0 -33.5 0.5t-27.5 4t-23 11.5t-7 22v18q0 14 10.5 24t24.5 10q5 0 19 -2.5t23 -2.5q31 0 48 10.5t17 23.5q0 7 -13 20.5t-13 27.5l5 33q-147 13 -235 114.5t-88 255.5q0 165 100.5 268.5t264.5 103.5 q151 0 258 -105q12 -12 12 -28q0 -13 -7 -21l-41 -44q-10 -12 -26 -12q-14 0 -23 9q-80 72 -173 72q-94 0 -159 -67.5t-65 -175.5q0 -107 65 -175.5t159 -68.5q91 0 173 72q9 9 23 9q15 0 26 -11l41 -45q7 -8 7 -21q0 -17 -11 -27q-92 -88 -211 -102z" />
<glyph unicode="&#xc8;" horiz-adv-x="689" d="M127 720h465q14 0 24 -10.5t10 -24.5v-60q0 -13 -10 -23.5t-24 -10.5h-359v-158h313q14 0 24.5 -10.5t10.5 -24.5v-60q0 -14 -10.5 -24t-24.5 -10h-313v-176h359q14 0 24 -10t10 -24v-60q0 -14 -10 -24t-24 -10h-465q-14 0 -24 10t-10 24v651q0 14 10 24.5t24 10.5z M307 816q-19 27 -81 112q-6 9 -6 18q0 11 7.5 18.5t18.5 7.5h73q29 0 44 -34l46 -107q2 -5 2 -13q0 -11 -7.5 -18t-19.5 -7h-33q-25 0 -44 23z" />
<glyph unicode="&#xc9;" horiz-adv-x="689" d="M127 720h465q14 0 24 -10.5t10 -24.5v-60q0 -13 -10 -23.5t-24 -10.5h-359v-158h313q14 0 24.5 -10.5t10.5 -24.5v-60q0 -14 -10.5 -24t-24.5 -10h-313v-176h359q14 0 24 -10t10 -24v-60q0 -14 -10 -24t-24 -10h-465q-14 0 -24 10t-10 24v651q0 14 10 24.5t24 10.5z M464 928l-75 -102q-24 -33 -51 -33h-33q-12 0 -19.5 7t-7.5 18q0 6 3 13l46 107q14 34 43 34h73q12 0 19 -7.5t7 -19.5q0 -9 -5 -17z" />
<glyph unicode="&#xca;" horiz-adv-x="689" d="M127 720h465q14 0 24 -10.5t10 -24.5v-60q0 -13 -10 -23.5t-24 -10.5h-359v-158h313q14 0 24.5 -10.5t10.5 -24.5v-60q0 -14 -10.5 -24t-24.5 -10h-313v-176h359q14 0 24 -10t10 -24v-60q0 -14 -10 -24t-24 -10h-465q-14 0 -24 10t-10 24v651q0 14 10 24.5t24 10.5z M400 816l-44 68l-36 -57q-23 -37 -65 -35h-39q-24 0 -24 24q0 8 6 19l71 103q23 34 50 34h76q17 0 35 -16q12 -12 51.5 -67t39.5 -73q0 -10 -6.5 -17t-17.5 -7h-53q-29 0 -44 24z" />
<glyph unicode="&#xcb;" horiz-adv-x="689" d="M127 720h465q14 0 24 -10.5t10 -24.5v-60q0 -13 -10 -23.5t-24 -10.5h-359v-158h313q14 0 24.5 -10.5t10.5 -24.5v-60q0 -14 -10.5 -24t-24.5 -10h-313v-176h359q14 0 24 -10t10 -24v-60q0 -14 -10 -24t-24 -10h-465q-14 0 -24 10t-10 24v651q0 14 10 24.5t24 10.5z M254 818q-30 0 -50.5 21t-20.5 51t20.5 50.5t50.5 20.5t51.5 -20.5t21.5 -50.5t-21.5 -51t-51.5 -21zM458 818q-29 0 -50 21t-21 51t21 50.5t50 20.5q30 0 51.5 -20.5t21.5 -50.5t-21.5 -51t-51.5 -21z" />
<glyph unicode="&#xcc;" horiz-adv-x="323" d="M231 685v-651q0 -14 -10 -24t-24 -10h-72q-14 0 -24 10t-10 24v651q0 15 10 25t24 10h72q14 0 24 -10t10 -25zM128 816q-19 27 -81 112q-6 9 -6 18q0 11 7.5 18.5t18.5 7.5h73q29 0 44 -34l46 -107q2 -5 2 -13q0 -11 -7.5 -18t-19.5 -7h-33q-25 0 -44 23z" />
<glyph unicode="&#xcd;" horiz-adv-x="323" d="M231 685v-651q0 -14 -10 -24t-24 -10h-72q-14 0 -24 10t-10 24v651q0 15 10 25t24 10h72q14 0 24 -10t10 -25zM274 928l-75 -102q-24 -33 -51 -33h-33q-12 0 -19.5 7t-7.5 18q0 6 3 13l46 107q14 34 43 34h73q12 0 19 -7.5t7 -19.5q0 -9 -5 -17z" />
<glyph unicode="&#xce;" horiz-adv-x="323" d="M231 685v-651q0 -14 -10 -24t-24 -10h-72q-14 0 -24 10t-10 24v651q0 15 10 25t24 10h72q14 0 24 -10t10 -25zM207 816l-44 68l-36 -57q-23 -37 -65 -35h-39q-24 0 -24 24q0 8 6 19l71 103q23 34 50 34h76q17 0 35 -16q12 -12 51.5 -67t39.5 -73q0 -10 -7 -17t-17 -7h-53 q-29 0 -44 24z" />
<glyph unicode="&#xcf;" horiz-adv-x="323" d="M231 685v-651q0 -14 -10 -24t-24 -10h-72q-14 0 -24 10t-10 24v651q0 15 10 25t24 10h72q14 0 24 -10t10 -25zM59 818q-30 0 -50.5 21t-20.5 51t20.5 50.5t50.5 20.5t51.5 -20.5t21.5 -50.5t-21.5 -51t-51.5 -21zM263 818q-29 0 -50 21t-21 51t21 50.5t50 20.5 q30 0 51.5 -20.5t21.5 -50.5t-21.5 -51t-51.5 -21z" />
<glyph unicode="&#xd0;" horiz-adv-x="792" d="M112 720h233q176 0 283 -94t107 -266t-107 -266t-283 -94h-233q-14 0 -24.5 10t-10.5 24v262h-22q-14 0 -24.5 10t-10.5 24v61q0 14 10.5 24t24.5 10h22v261q0 14 10.5 24t24.5 10zM362 128q103 0 167.5 63t64.5 169t-64.5 168.5t-167.5 62.5h-144v-166h100 q14 0 24.5 -10t10.5 -24v-61q0 -14 -10.5 -24t-24.5 -10h-100v-168h144z" />
<glyph unicode="&#xd1;" horiz-adv-x="797" d="M669 720q15 0 25 -10t10 -24v-651q0 -15 -10 -25t-25 -10h-73q-26 0 -38 21q-8 8 -324 453h-6q6 -63 6 -140v-299q0 -15 -10 -25t-25 -10h-72q-14 0 -24 10t-10 25v651q0 14 10 24t24 10h73q25 0 39 -23l325 -451h5q-6 126 -6 129v311q0 14 10 24t24 10h72zM371 829 q-33 27 -48 27q-13 0 -20.5 -10t-9.5 -22.5t-9.5 -22.5t-20.5 -10h-34q-11 0 -20 9.5t-9 21.5q4 64 40.5 101.5t85.5 37.5q29 0 81 -33.5t62 -33.5q18 0 30 32t30 32h35q11 0 19.5 -9.5t8.5 -21.5q-4 -65 -40.5 -102.5t-85.5 -37.5q-38 0 -95 42z" />
<glyph unicode="&#xd2;" horiz-adv-x="842" d="M785 358q0 -162 -107 -266t-257 -104t-257 104t-107 266q0 156 102 265t262 109q161 0 262.5 -109t101.5 -265zM421 117q93 0 157 68.5t64 172.5q0 108 -63.5 176.5t-157.5 68.5t-157.5 -68.5t-63.5 -176.5q0 -104 64 -172.5t157 -68.5zM385 816q-19 27 -81 112 q-6 9 -6 18q0 11 7.5 18.5t18.5 7.5h73q29 0 44 -34l46 -107q2 -5 2 -13q0 -11 -7.5 -18t-19.5 -7h-33q-25 0 -44 23z" />
<glyph unicode="&#xd3;" horiz-adv-x="842" d="M785 358q0 -162 -107 -266t-257 -104t-257 104t-107 266q0 156 102 265t262 109q161 0 262.5 -109t101.5 -265zM421 117q93 0 157 68.5t64 172.5q0 108 -63.5 176.5t-157.5 68.5t-157.5 -68.5t-63.5 -176.5q0 -104 64 -172.5t157 -68.5zM546 928l-75 -102 q-24 -33 -51 -33h-33q-12 0 -19.5 7t-7.5 18q0 6 3 13l46 107q14 34 43 34h73q12 0 19 -7.5t7 -19.5q0 -9 -5 -17z" />
<glyph unicode="&#xd4;" horiz-adv-x="842" d="M785 358q0 -162 -107 -266t-257 -104t-257 104t-107 266q0 156 102 265t262 109q161 0 262.5 -109t101.5 -265zM421 117q93 0 157 68.5t64 172.5q0 108 -63.5 176.5t-157.5 68.5t-157.5 -68.5t-63.5 -176.5q0 -104 64 -172.5t157 -68.5zM464 816l-44 68l-36 -57 q-23 -37 -65 -35h-39q-24 0 -24 24q0 8 6 19l71 103q23 34 50 34h76q17 0 35 -16q12 -12 51.5 -67t39.5 -73q0 -10 -6.5 -17t-17.5 -7h-53q-29 0 -44 24z" />
<glyph unicode="&#xd5;" horiz-adv-x="842" d="M785 358q0 -162 -107 -266t-257 -104t-257 104t-107 266q0 156 102 265t262 109q161 0 262.5 -109t101.5 -265zM421 117q93 0 157 68.5t64 172.5q0 108 -63.5 176.5t-157.5 68.5t-157.5 -68.5t-63.5 -176.5q0 -104 64 -172.5t157 -68.5zM398 829q-33 27 -48 27 q-20 0 -30 -32.5t-30 -32.5h-34q-11 0 -20 9.5t-9 21.5q4 64 40.5 101.5t85.5 37.5q29 0 81 -33.5t62 -33.5q18 0 30 32t30 32h35q11 0 19.5 -9.5t8.5 -21.5q-4 -65 -40.5 -102.5t-85.5 -37.5q-38 0 -95 42z" />
<glyph unicode="&#xd6;" horiz-adv-x="842" d="M785 358q0 -162 -107 -266t-257 -104t-257 104t-107 266q0 156 102 265t262 109q161 0 262.5 -109t101.5 -265zM421 117q93 0 157 68.5t64 172.5q0 108 -63.5 176.5t-157.5 68.5t-157.5 -68.5t-63.5 -176.5q0 -104 64 -172.5t157 -68.5zM319 818q-30 0 -50.5 21t-20.5 51 t20.5 50.5t50.5 20.5t51.5 -20.5t21.5 -50.5t-21.5 -51t-51.5 -21zM523 818q-29 0 -50 21t-21 51t21 50.5t50 20.5q30 0 51.5 -20.5t21.5 -50.5t-21.5 -51t-51.5 -21z" />
<glyph unicode="&#xd7;" d="M84 526l34 35q10 10 24.5 10t24.5 -10l145 -146l146 146q10 11 24.5 11t24.5 -11l36 -36q11 -10 11 -24.5t-11 -24.5l-146 -145l146 -146q10 -10 10 -24t-10 -24l-35 -36q-10 -9 -24.5 -9t-24.5 9l-146 146l-144 -144q-11 -11 -25 -11t-25 11l-35 35q-10 10 -10 24.5 t10 24.5l145 145l-145 145q-10 10 -10 24.5t10 24.5z" />
<glyph unicode="&#xd8;" horiz-adv-x="842" d="M674 693l-24 -41q63 -52 98.5 -129.5t35.5 -165.5q0 -162 -106.5 -265.5t-256.5 -103.5q-72 0 -146 28q-8 -10 -26 -19.5t-24 -9.5h-30q-11 0 -19 7.5t-8 18.5q0 7 4 14l23 36q-65 51 -101.5 126.5t-36.5 167.5q0 156 102 265.5t262 109.5q80 0 149 -30q7 12 22 21.5 t29 9.5h31q10 0 18 -7.5t8 -18.5q0 -7 -4 -14zM200 357q0 -105 65 -173l237 402q-39 17 -81 17q-94 0 -157.5 -68.5t-63.5 -177.5zM421 116q93 0 156.5 68.5t63.5 172.5q0 107 -62 174l-236 -401q37 -14 78 -14z" />
<glyph unicode="&#xd9;" horiz-adv-x="812" d="M691 720q14 0 24 -9.5t10 -24.5v-373q0 -146 -88.5 -235.5t-230.5 -89.5q-143 0 -231 89.5t-88 235.5v373q0 14 10 24t24 10h72q15 0 25 -10t10 -24v-362q0 -93 47.5 -150.5t130.5 -57.5t130.5 57.5t47.5 150.5v362q0 14 10 24t25 10h72zM360 816q-19 27 -81 112 q-6 9 -6 18q0 11 7.5 18.5t18.5 7.5h73q29 0 44 -34l46 -107q2 -5 2 -13q0 -11 -7.5 -18t-19.5 -7h-33q-25 0 -44 23z" />
<glyph unicode="&#xda;" horiz-adv-x="812" d="M691 720q14 0 24 -9.5t10 -24.5v-373q0 -146 -88.5 -235.5t-230.5 -89.5q-143 0 -231 89.5t-88 235.5v373q0 14 10 24t24 10h72q15 0 25 -10t10 -24v-362q0 -93 47.5 -150.5t130.5 -57.5t130.5 57.5t47.5 150.5v362q0 14 10 24t25 10h72zM524 928l-75 -102 q-24 -33 -51 -33h-33q-12 0 -19.5 7t-7.5 18q0 6 3 13l46 107q14 34 43 34h73q12 0 19 -7.5t7 -19.5q0 -9 -5 -17z" />
<glyph unicode="&#xdb;" horiz-adv-x="812" d="M691 720q14 0 24 -9.5t10 -24.5v-373q0 -146 -88.5 -235.5t-230.5 -89.5q-143 0 -231 89.5t-88 235.5v373q0 14 10 24t24 10h72q15 0 25 -10t10 -24v-362q0 -93 47.5 -150.5t130.5 -57.5t130.5 57.5t47.5 150.5v362q0 14 10 24t25 10h72zM450 816l-44 68l-36 -57 q-23 -37 -65 -35h-39q-24 0 -24 24q0 8 6 19l71 103q23 34 50 34h76q17 0 35 -16q12 -12 51.5 -67t39.5 -73q0 -10 -6.5 -17t-17.5 -7h-53q-29 0 -44 24z" />
<glyph unicode="&#xdc;" horiz-adv-x="812" d="M691 720q14 0 24 -9.5t10 -24.5v-373q0 -146 -88.5 -235.5t-230.5 -89.5q-143 0 -231 89.5t-88 235.5v373q0 14 10 24t24 10h72q15 0 25 -10t10 -24v-362q0 -93 47.5 -150.5t130.5 -57.5t130.5 57.5t47.5 150.5v362q0 14 10 24t25 10h72zM303 818q-30 0 -50.5 21 t-20.5 51t20.5 50.5t50.5 20.5t51.5 -20.5t21.5 -50.5t-21.5 -51t-51.5 -21zM507 818q-29 0 -50 21t-21 51t21 50.5t50 20.5q30 0 51.5 -20.5t21.5 -50.5t-21.5 -51t-51.5 -21z" />
<glyph unicode="&#xdd;" horiz-adv-x="666" d="M646 720q18 0 26 -15.5t-2 -30.5l-266 -386v-253q0 -15 -10 -25t-24 -10h-72q-14 0 -24 10t-10 25v253l-266 386q-10 15 -2 30.5t27 15.5h75q35 0 54 -28l182 -267l183 267q18 28 53 28h76zM460 928l-75 -102q-24 -33 -51 -33h-33q-12 0 -19.5 7t-7.5 18q0 6 3 13l46 107 q14 34 43 34h73q12 0 19 -7.5t7 -19.5q0 -9 -5 -17z" />
<glyph unicode="&#xde;" horiz-adv-x="682" d="M227 685v-81h146q126 0 202.5 -66t76.5 -175q0 -107 -76 -172t-203 -65h-146v-93q0 -14 -10 -23.5t-24 -9.5h-72q-14 0 -24 9.5t-10 23.5v652q0 15 10 25t24 10h72q14 0 24 -10t10 -25zM390 255q55 0 87 29t32 79q0 52 -32 82t-87 30h-163v-220h163z" />
<glyph unicode="&#xdf;" horiz-adv-x="660" d="M430 418q84 -29 128 -83t44 -119q0 -92 -62 -160t-156 -68q-51 0 -89.5 17.5t-38.5 44.5q0 23 14 51.5t35 28.5q6 0 12 -3q32 -17 66 -17q35 0 58 32.5t23 71.5q0 38 -42.5 75.5t-112.5 37.5q-14 0 -24 10.5t-10 24.5v59q0 13 9 25.5t22 16.5q46 23 64.5 42t18.5 55 q0 24 -22 46t-53 22q-96 0 -96 -127v-466q0 -15 -10 -25t-24 -10h-68q-14 0 -24 10t-10 25v466q0 125 62 188t173 63q93 0 151.5 -51t58.5 -126q0 -90 -97 -155v-2z" />
<glyph unicode="&#xe0;" horiz-adv-x="584" d="M368 201v40h-14q-173 0 -173 -78q0 -30 20.5 -48t54.5 -18q39 0 75.5 30.5t36.5 73.5zM364 331v20q0 76 -90 76q-35 0 -87 -13t-56 -13q-21 0 -29 19l-15 36q-2 3 -2 11q0 30 64 51.5t142 21.5q87 0 148.5 -54t61.5 -163v-289q0 -14 -10 -24t-24 -10h-61q-15 0 -24.5 9.5 t-9.5 25.5v22h-8q-18 -31 -57.5 -50t-78.5 -19q-74 0 -127.5 46t-53.5 121q0 55 24.5 91.5t69.5 54t92.5 24t111.5 6.5h19zM257 625q-19 27 -81 112q-6 9 -6 18q0 11 7.5 18.5t18.5 7.5h73q29 0 44 -34l46 -107q2 -5 2 -13q0 -11 -7.5 -18t-19.5 -7h-33q-25 0 -44 23z" />
<glyph unicode="&#xe1;" horiz-adv-x="584" d="M368 201v40h-14q-173 0 -173 -78q0 -30 20.5 -48t54.5 -18q39 0 75.5 30.5t36.5 73.5zM364 331v20q0 76 -90 76q-35 0 -87 -13t-56 -13q-21 0 -29 19l-15 36q-2 3 -2 11q0 30 64 51.5t142 21.5q87 0 148.5 -54t61.5 -163v-289q0 -14 -10 -24t-24 -10h-61q-15 0 -24.5 9.5 t-9.5 25.5v22h-8q-18 -31 -57.5 -50t-78.5 -19q-74 0 -127.5 46t-53.5 121q0 55 24.5 91.5t69.5 54t92.5 24t111.5 6.5h19zM398 737l-75 -102q-24 -33 -51 -33h-33q-12 0 -19.5 7t-7.5 18q0 5 3 13l46 107q14 34 43 34h73q12 0 19 -7.5t7 -19.5q0 -10 -5 -17z" />
<glyph unicode="&#xe2;" horiz-adv-x="584" d="M368 201v40h-14q-173 0 -173 -78q0 -30 20.5 -48t54.5 -18q39 0 75.5 30.5t36.5 73.5zM364 331v20q0 76 -90 76q-35 0 -87 -13t-56 -13q-21 0 -29 19l-15 36q-2 3 -2 11q0 30 64 51.5t142 21.5q87 0 148.5 -54t61.5 -163v-289q0 -14 -10 -24t-24 -10h-61q-15 0 -24.5 9.5 t-9.5 25.5v22h-8q-18 -31 -57.5 -50t-78.5 -19q-74 0 -127.5 46t-53.5 121q0 55 24.5 91.5t69.5 54t92.5 24t111.5 6.5h19zM332 625l-44 68l-36 -57q-23 -37 -65 -35h-39q-24 0 -24 24q0 9 6 19l71 103q23 34 50 34h76q17 0 35 -16q12 -12 51.5 -67t39.5 -73 q0 -11 -6.5 -17.5t-17.5 -6.5h-53q-29 0 -44 24z" />
<glyph unicode="&#xe3;" horiz-adv-x="584" d="M368 201v40h-14q-173 0 -173 -78q0 -30 20.5 -48t54.5 -18q39 0 75.5 30.5t36.5 73.5zM364 331v20q0 76 -90 76q-35 0 -87 -13t-56 -13q-21 0 -29 19l-15 36q-2 3 -2 11q0 30 64 51.5t142 21.5q87 0 148.5 -54t61.5 -163v-289q0 -14 -10 -24t-24 -10h-61q-15 0 -24.5 9.5 t-9.5 25.5v22h-8q-18 -31 -57.5 -50t-78.5 -19q-74 0 -127.5 46t-53.5 121q0 55 24.5 91.5t69.5 54t92.5 24t111.5 6.5h19zM265 638q-33 27 -48 27q-13 0 -20.5 -10t-9.5 -22.5t-9.5 -22.5t-20.5 -10h-34q-11 0 -20 9.5t-9 21.5q4 64 40.5 101.5t85.5 37.5q29 0 81 -33.5 t62 -33.5q18 0 30 32t30 32h35q11 0 19.5 -9.5t8.5 -21.5q-4 -65 -40.5 -102.5t-85.5 -37.5q-38 0 -95 42z" />
<glyph unicode="&#xe4;" horiz-adv-x="584" d="M368 201v40h-14q-173 0 -173 -78q0 -30 20.5 -48t54.5 -18q39 0 75.5 30.5t36.5 73.5zM364 331v20q0 76 -90 76q-35 0 -87 -13t-56 -13q-21 0 -29 19l-15 36q-2 3 -2 11q0 30 64 51.5t142 21.5q87 0 148.5 -54t61.5 -163v-289q0 -14 -10 -24t-24 -10h-61q-15 0 -24.5 9.5 t-9.5 25.5v22h-8q-18 -31 -57.5 -50t-78.5 -19q-74 0 -127.5 46t-53.5 121q0 55 24.5 91.5t69.5 54t92.5 24t111.5 6.5h19zM185 627q-30 0 -50.5 21t-20.5 51t20.5 50.5t50.5 20.5t51.5 -20.5t21.5 -50.5t-21.5 -51t-51.5 -21zM389 627q-29 0 -50 21t-21 51t21 50.5t50 20.5 q30 0 51.5 -20.5t21.5 -50.5t-21.5 -51t-51.5 -21z" />
<glyph unicode="&#xe5;" horiz-adv-x="584" d="M368 201v40h-14q-173 0 -173 -78q0 -30 20.5 -48t54.5 -18q39 0 75.5 30.5t36.5 73.5zM364 331v20q0 76 -90 76q-35 0 -87 -13t-56 -13q-21 0 -29 19l-15 36q-2 3 -2 11q0 30 64 51.5t142 21.5q87 0 148.5 -54t61.5 -163v-289q0 -14 -10 -24t-24 -10h-61q-15 0 -24.5 9.5 t-9.5 25.5v22h-8q-18 -31 -57.5 -50t-78.5 -19q-74 0 -127.5 46t-53.5 121q0 55 24.5 91.5t69.5 54t92.5 24t111.5 6.5h19zM152 711q0 55 39.5 94t95.5 39t95.5 -39.5t39.5 -94.5t-39.5 -94.5t-95.5 -39.5t-95.5 39t-39.5 96zM229 711q0 -25 17 -42t42 -17q24 0 41 17t17 42 q0 24 -17.5 41.5t-40.5 17.5q-25 0 -42 -17.5t-17 -41.5z" />
<glyph unicode="&#xe6;" horiz-adv-x="917" d="M865 257q0 -14 -10.5 -24.5t-24.5 -10.5h-328q1 -50 40.5 -84.5t88.5 -34.5q77 0 143 34q8 4 14 4q24 -2 31 -19l17 -39q2 -4 2 -13q0 -35 -67.5 -58.5t-138.5 -23.5q-147 0 -216 95q-68 -95 -188 -95q-74 0 -127.5 46t-53.5 121q0 45 17 78t44 52.5t68 31t80 15t89 3.5 h19v17q0 32 -22 52.5t-68 20.5q-35 0 -86 -13.5t-56 -13.5q-20 0 -28 19l-17 40q-2 3 -2 11q0 30 64 51.5t142 21.5q100 0 156 -65q70 65 176 65q111 0 176.5 -70t65.5 -214zM365 204v30h-14q-167 0 -167 -71q0 -27 20 -43.5t53 -16.5q36 0 72 30t36 71zM507 322h219 q0 47 -31.5 76t-73.5 29q-43 0 -74.5 -28t-39.5 -77z" />
<glyph unicode="&#xe7;" horiz-adv-x="542" d="M473 158q45 -45 45 -65q0 -15 -10 -25q-75 -66 -159 -77l-2 -27q35 -25 35 -64q0 -48 -44 -79t-109 -31q-22 0 -34 0.5t-28 4t-23 11.5t-7 22v18q0 13 11 23.5t25 10.5q6 0 20 -2.5t21 -2.5q31 0 48.5 10t17.5 24q0 7 -13 20.5t-13 27.5l5 35q-99 13 -155.5 83.5 t-56.5 188.5q0 131 70.5 204t189.5 73q110 0 201 -81q10 -10 10 -25q0 -14 -24 -44.5t-48 -30.5q-14 0 -21 7q-62 53 -118 53t-89.5 -41t-33.5 -115q0 -73 34 -114.5t89 -41.5q56 0 118 53q10 8 22 8q15 0 26 -11z" />
<glyph unicode="&#xe8;" horiz-adv-x="601" d="M306 429q-44 0 -77.5 -29.5t-41.5 -82.5h227q0 52 -33 82t-75 30zM515 226h-331q1 -51 42 -89t90 -38q78 0 146 34q8 4 14 4q19 0 33 -23t14 -44q0 -35 -67.5 -58.5t-138.5 -23.5q-125 0 -197.5 71.5t-72.5 200.5q0 130 71.5 205t189.5 75q110 0 175.5 -70t65.5 -209 q0 -14 -10 -24.5t-24 -10.5zM267 625q-19 27 -81 112q-6 9 -6 18q0 11 7.5 18.5t18.5 7.5h73q29 0 44 -34l46 -107q2 -5 2 -13q0 -11 -7.5 -18t-19.5 -7h-33q-25 0 -44 23z" />
<glyph unicode="&#xe9;" horiz-adv-x="601" d="M306 429q-44 0 -77.5 -29.5t-41.5 -82.5h227q0 52 -33 82t-75 30zM515 226h-331q1 -51 42 -89t90 -38q78 0 146 34q8 4 14 4q19 0 33 -23t14 -44q0 -35 -67.5 -58.5t-138.5 -23.5q-125 0 -197.5 71.5t-72.5 200.5q0 130 71.5 205t189.5 75q110 0 175.5 -70t65.5 -209 q0 -14 -10 -24.5t-24 -10.5zM424 737l-75 -102q-24 -33 -51 -33h-33q-12 0 -19.5 7t-7.5 18q0 5 3 13l46 107q14 34 43 34h73q12 0 19 -7.5t7 -19.5q0 -10 -5 -17z" />
<glyph unicode="&#xea;" horiz-adv-x="601" d="M306 429q-44 0 -77.5 -29.5t-41.5 -82.5h227q0 52 -33 82t-75 30zM515 226h-331q1 -51 42 -89t90 -38q78 0 146 34q8 4 14 4q19 0 33 -23t14 -44q0 -35 -67.5 -58.5t-138.5 -23.5q-125 0 -197.5 71.5t-72.5 200.5q0 130 71.5 205t189.5 75q110 0 175.5 -70t65.5 -209 q0 -14 -10 -24.5t-24 -10.5zM350 625l-44 68l-36 -57q-23 -37 -65 -35h-39q-24 0 -24 24q0 9 6 19l71 103q23 34 50 34h76q17 0 35 -16q12 -12 51.5 -67t39.5 -73q0 -11 -6.5 -17.5t-17.5 -6.5h-53q-29 0 -44 24z" />
<glyph unicode="&#xeb;" horiz-adv-x="601" d="M306 429q-44 0 -77.5 -29.5t-41.5 -82.5h227q0 52 -33 82t-75 30zM515 226h-331q1 -51 42 -89t90 -38q78 0 146 34q8 4 14 4q19 0 33 -23t14 -44q0 -35 -67.5 -58.5t-138.5 -23.5q-125 0 -197.5 71.5t-72.5 200.5q0 130 71.5 205t189.5 75q110 0 175.5 -70t65.5 -209 q0 -14 -10 -24.5t-24 -10.5zM203 627q-30 0 -50.5 21t-20.5 51t20.5 50.5t50.5 20.5t51.5 -20.5t21.5 -50.5t-21.5 -51t-51.5 -21zM407 627q-29 0 -50 21t-21 51t21 50.5t50 20.5q30 0 51.5 -20.5t21.5 -50.5t-21.5 -51t-51.5 -21z" />
<glyph unicode="&#xec;" horiz-adv-x="302" d="M119 625q-19 27 -81 112q-6 9 -6 18q0 11 7.5 18.5t18.5 7.5h73q29 0 44 -34l46 -107q2 -5 2 -13q0 -11 -7.5 -18t-19.5 -7h-33q-25 0 -44 23zM219 34q0 -14 -10.5 -24t-24.5 -10h-67q-14 0 -24.5 10t-10.5 24v460q0 14 10.5 24t24.5 10h67q14 0 24.5 -10t10.5 -24v-460z " />
<glyph unicode="&#xed;" horiz-adv-x="302" d="M266 737l-75 -102q-24 -33 -51 -33h-33q-12 0 -19.5 7t-7.5 18q0 5 3 13l46 107q14 34 43 34h73q12 0 19 -7.5t7 -19.5q0 -10 -5 -17zM219 34q0 -14 -10.5 -24t-24.5 -10h-67q-14 0 -24.5 10t-10.5 24v460q0 14 10.5 24t24.5 10h67q14 0 24.5 -10t10.5 -24v-460z" />
<glyph unicode="&#xee;" horiz-adv-x="302" d="M219 34q0 -14 -10.5 -24t-24.5 -10h-67q-14 0 -24.5 10t-10.5 24v460q0 14 10.5 24t24.5 10h67q14 0 24.5 -10t10.5 -24v-460zM196 625l-44 68l-36 -57q-23 -37 -65 -35h-39q-24 0 -24 24q0 9 6 19l71 103q23 34 50 34h76q17 0 35 -16q12 -12 51.5 -67t39.5 -73 q0 -11 -6.5 -17.5t-17.5 -6.5h-53q-29 0 -44 24z" />
<glyph unicode="&#xef;" horiz-adv-x="302" d="M49 627q-30 0 -50.5 21t-20.5 51t20.5 50.5t50.5 20.5t51.5 -20.5t21.5 -50.5t-21.5 -51t-51.5 -21zM253 627q-29 0 -50 21t-21 51t21 50.5t50 20.5q30 0 51.5 -20.5t21.5 -50.5t-21.5 -51t-51.5 -21zM219 34q0 -14 -10.5 -24t-24.5 -10h-67q-14 0 -24.5 10t-10.5 24v460 q0 14 10.5 24t24.5 10h67q14 0 24.5 -10t10.5 -24v-460z" />
<glyph unicode="&#xf0;" horiz-adv-x="604" d="M412 654q155 -171 155 -364q0 -142 -71.5 -222t-191.5 -80q-116 0 -188 69t-72 197q0 120 69.5 188.5t171.5 68.5q64 0 115 -33q-23 57 -84 116q-5 -3 -31 -20t-42 -26t-25 -9q-18 0 -28 16l-9 13q-5 8 -5 18q0 8 5 15.5t14.5 15t17.5 13t21.5 13t18.5 10.5l-40 32 q-13 10 -13 26q-1 14 15 24l30 19h-2q13 8 27 8q18 0 33 -12l8 -6q3 -3 17 -14t21 -17l70 44q8 5 18 5q18 0 28 -16l8 -13q6 -9 6 -18q0 -19 -15 -29zM304 109q54 0 87.5 36t33.5 119q0 69 -37 101.5t-85 32.5q-50 0 -83 -38.5t-33 -106.5q0 -71 33 -107.5t84 -36.5z" />
<glyph unicode="&#xf1;" horiz-adv-x="622" d="M357 540q90 0 135.5 -55t45.5 -157v-294q0 -14 -10.5 -24t-24.5 -10h-68q-14 0 -24 10t-10 24v281q0 103 -76 103q-43 0 -73 -27t-30 -64v-293q0 -14 -10.5 -24t-24.5 -10h-67q-14 0 -24.5 10t-10.5 24v460q0 14 10.5 24t24.5 10h64q14 0 24.5 -10t10.5 -24v-18l8 -3 q22 31 57.5 49t72.5 18zM283 638q-33 27 -48 27q-13 0 -20.5 -10t-9.5 -22.5t-9.5 -22.5t-20.5 -10h-34q-11 0 -20 9.5t-9 21.5q4 64 40.5 101.5t85.5 37.5q29 0 81 -33.5t62 -33.5q18 0 30 32t30 32h35q11 0 19.5 -9.5t8.5 -21.5q-4 -65 -40.5 -102.5t-85.5 -37.5 q-38 0 -95 42z" />
<glyph unicode="&#xf2;" horiz-adv-x="628" d="M314 106q57 0 93.5 43.5t36.5 114.5t-36.5 114.5t-93.5 43.5q-56 0 -92.5 -43.5t-36.5 -115.5q0 -70 36.5 -113.5t92.5 -43.5zM314 540q114 0 190.5 -78t76.5 -197q0 -121 -76 -199t-191 -78q-116 0 -191.5 77t-75.5 198q0 120 76 198.5t191 78.5zM277 625 q-19 27 -81 112q-6 9 -6 18q0 11 7.5 18.5t18.5 7.5h73q29 0 44 -34l46 -107q2 -5 2 -13q0 -11 -7.5 -18t-19.5 -7h-33q-25 0 -44 23z" />
<glyph unicode="&#xf3;" horiz-adv-x="628" d="M314 106q57 0 93.5 43.5t36.5 114.5t-36.5 114.5t-93.5 43.5q-56 0 -92.5 -43.5t-36.5 -115.5q0 -70 36.5 -113.5t92.5 -43.5zM314 540q114 0 190.5 -78t76.5 -197q0 -121 -76 -199t-191 -78q-116 0 -191.5 77t-75.5 198q0 120 76 198.5t191 78.5zM433 737l-75 -102 q-24 -33 -51 -33h-33q-12 0 -19.5 7t-7.5 18q0 5 3 13l46 107q14 34 43 34h73q12 0 19 -7.5t7 -19.5q0 -10 -5 -17z" />
<glyph unicode="&#xf4;" horiz-adv-x="628" d="M314 106q57 0 93.5 43.5t36.5 114.5t-36.5 114.5t-93.5 43.5q-56 0 -92.5 -43.5t-36.5 -115.5q0 -70 36.5 -113.5t92.5 -43.5zM314 540q114 0 190.5 -78t76.5 -197q0 -121 -76 -199t-191 -78q-116 0 -191.5 77t-75.5 198q0 120 76 198.5t191 78.5zM361 625l-44 68 l-36 -57q-23 -37 -65 -35h-39q-24 0 -24 24q0 9 6 19l71 103q23 34 50 34h76q17 0 35 -16q12 -12 51.5 -67t39.5 -73q0 -11 -7 -17.5t-17 -6.5h-53q-29 0 -44 24z" />
<glyph unicode="&#xf5;" horiz-adv-x="628" d="M314 106q57 0 93.5 43.5t36.5 114.5t-36.5 114.5t-93.5 43.5q-56 0 -92.5 -43.5t-36.5 -115.5q0 -70 36.5 -113.5t92.5 -43.5zM314 540q114 0 190.5 -78t76.5 -197q0 -121 -76 -199t-191 -78q-116 0 -191.5 77t-75.5 198q0 120 76 198.5t191 78.5zM289 638q-33 27 -48 27 q-13 0 -20.5 -10t-9.5 -22.5t-9.5 -22.5t-20.5 -10h-34q-11 0 -20 9.5t-9 21.5q4 64 40.5 101.5t85.5 37.5q29 0 81 -33.5t62 -33.5q18 0 30 32t30 32h35q11 0 19.5 -9.5t8.5 -21.5q-4 -65 -40.5 -102.5t-85.5 -37.5q-38 0 -95 42z" />
<glyph unicode="&#xf6;" horiz-adv-x="628" d="M314 106q57 0 93.5 43.5t36.5 114.5t-36.5 114.5t-93.5 43.5q-56 0 -92.5 -43.5t-36.5 -115.5q0 -70 36.5 -113.5t92.5 -43.5zM314 540q114 0 190.5 -78t76.5 -197q0 -121 -76 -199t-191 -78q-116 0 -191.5 77t-75.5 198q0 120 76 198.5t191 78.5zM214 627 q-30 0 -50.5 21t-20.5 51t20.5 50.5t50.5 20.5t51.5 -20.5t21.5 -50.5t-21.5 -51t-51.5 -21zM418 627q-29 0 -50 21t-21 51t21 50.5t50 20.5q30 0 51.5 -20.5t21.5 -50.5t-21.5 -51t-51.5 -21z" />
<glyph unicode="&#xf7;" d="M586 303q0 -14 -10 -24.5t-24 -10.5h-473q-14 0 -24.5 10.5t-10.5 24.5v51q0 14 10.5 24.5t24.5 10.5h473q14 0 24 -10.5t10 -24.5v-51zM226 134q0 34 24 58.5t58 24.5t58.5 -24.5t24.5 -58.5t-24 -57.5t-59 -23.5q-34 0 -58 23.5t-24 57.5zM226 519q0 34 24 58.5 t58 24.5t58.5 -24.5t24.5 -58.5t-24.5 -58t-58.5 -24t-58 24t-24 58z" />
<glyph unicode="&#xf8;" horiz-adv-x="626" d="M312 541q53 0 101 -20q21 24 54 24h19q10 0 18 -8t8 -19q0 -7 -4 -14l-17 -30q88 -80 88 -209q0 -122 -76 -199.5t-191 -77.5q-45 0 -101 18q-26 -21 -54 -21h-18q-11 0 -18.5 7.5t-7.5 18.5q0 7 4 14l16 28q-87 76 -87 210q0 120 75.5 199t190.5 79zM177 263 q0 -57 25 -94q80 134 146 248q-17 5 -32 5q-61 0 -100 -43.5t-39 -115.5zM312 105q60 0 98 44t38 115q0 54 -25 95q-126 -214 -146 -248q17 -6 35 -6z" />
<glyph unicode="&#xf9;" horiz-adv-x="618" d="M263 -12q-90 0 -135.5 54t-45.5 156v296q0 14 10.5 24t24.5 10h67q14 0 24.5 -10t10.5 -24v-282q0 -103 76 -103q43 0 73 27.5t30 64.5v293q0 14 10 24t24 10h68q14 0 24.5 -10t10.5 -24v-460q0 -14 -10.5 -24t-24.5 -10h-65q-14 0 -24 10t-10 24v18l-8 2 q-22 -31 -57.5 -48.5t-72.5 -17.5zM270 625q-19 27 -81 112q-6 9 -6 18q0 11 7.5 18.5t18.5 7.5h73q29 0 44 -34l46 -107q2 -5 2 -13q0 -11 -7.5 -18t-19.5 -7h-33q-25 0 -44 23z" />
<glyph unicode="&#xfa;" horiz-adv-x="618" d="M263 -12q-90 0 -135.5 54t-45.5 156v296q0 14 10.5 24t24.5 10h67q14 0 24.5 -10t10.5 -24v-282q0 -103 76 -103q43 0 73 27.5t30 64.5v293q0 14 10 24t24 10h68q14 0 24.5 -10t10.5 -24v-460q0 -14 -10.5 -24t-24.5 -10h-65q-14 0 -24 10t-10 24v18l-8 2 q-22 -31 -57.5 -48.5t-72.5 -17.5zM429 737l-75 -102q-24 -33 -51 -33h-33q-12 0 -19.5 7t-7.5 18q0 5 3 13l46 107q14 34 43 34h73q12 0 19 -7.5t7 -19.5q0 -10 -5 -17z" />
<glyph unicode="&#xfb;" horiz-adv-x="618" d="M263 -12q-90 0 -135.5 54t-45.5 156v296q0 14 10.5 24t24.5 10h67q14 0 24.5 -10t10.5 -24v-282q0 -103 76 -103q43 0 73 27.5t30 64.5v293q0 14 10 24t24 10h68q14 0 24.5 -10t10.5 -24v-460q0 -14 -10.5 -24t-24.5 -10h-65q-14 0 -24 10t-10 24v18l-8 2 q-22 -31 -57.5 -48.5t-72.5 -17.5zM355 625l-44 68l-36 -57q-23 -37 -65 -35h-39q-24 0 -24 24q0 9 6 19l71 103q23 34 50 34h76q17 0 35 -16q12 -12 51.5 -67t39.5 -73q0 -11 -7 -17.5t-17 -6.5h-53q-29 0 -44 24z" />
<glyph unicode="&#xfc;" horiz-adv-x="618" d="M263 -12q-90 0 -135.5 54t-45.5 156v296q0 14 10.5 24t24.5 10h67q14 0 24.5 -10t10.5 -24v-282q0 -103 76 -103q43 0 73 27.5t30 64.5v293q0 14 10 24t24 10h68q14 0 24.5 -10t10.5 -24v-460q0 -14 -10.5 -24t-24.5 -10h-65q-14 0 -24 10t-10 24v18l-8 2 q-22 -31 -57.5 -48.5t-72.5 -17.5zM207 627q-30 0 -50.5 21t-20.5 51t20.5 50.5t50.5 20.5t51.5 -20.5t21.5 -50.5t-21.5 -51t-51.5 -21zM411 627q-29 0 -50 21t-21 51t21 50.5t50 20.5q30 0 51.5 -20.5t21.5 -50.5t-21.5 -51t-51.5 -21z" />
<glyph unicode="&#xfd;" horiz-adv-x="555" d="M524 488q-18 -45 -100.5 -262t-153.5 -399q-10 -27 -37 -27h-67q-13 0 -21.5 8t-8.5 19q0 7 3 13q21 58 70 180q-19 50 -81.5 214t-98.5 254q-2 4 -2 12q0 12 8 20t21 8h69q27 0 37 -26q24 -62 64 -172.5t46 -131.5h11q21 72 30 96l9 23q60 157 71 185q10 26 37 26h67 q29 0 29 -27q0 -9 -2 -13zM402 737l-75 -102q-24 -33 -51 -33h-33q-12 0 -19.5 7t-7.5 18q0 5 3 13l46 107q14 34 43 34h73q12 0 19 -7.5t7 -19.5q0 -10 -5 -17z" />
<glyph unicode="&#xfe;" d="M332 107q53 0 83.5 41t30.5 115q0 72 -30 114t-81 42q-48 0 -82 -43t-34 -115v-106q46 -48 113 -48zM584 267q0 -127 -66.5 -203t-169.5 -76q-79 0 -129 39v-193q0 -14 -10.5 -24t-24.5 -10h-67q-14 0 -24.5 10t-10.5 24v873q0 15 10.5 25t24.5 10h67q14 0 24.5 -10 t10.5 -25v-179v-15.5t-0.5 -15t-0.5 -11.5v-8v-4q1 0 3.5 0.5t3.5 0.5q47 65 134 65q94 0 159.5 -71.5t65.5 -201.5z" />
<glyph unicode="&#xff;" horiz-adv-x="555" d="M524 488q-18 -45 -100.5 -262t-153.5 -399q-10 -27 -37 -27h-67q-13 0 -21.5 8t-8.5 19q0 7 3 13q21 58 70 180q-19 50 -81.5 214t-98.5 254q-2 4 -2 12q0 12 8 20t21 8h69q27 0 37 -26q24 -62 64 -172.5t46 -131.5h11q21 72 30 96l9 23q60 157 71 185q10 26 37 26h67 q29 0 29 -27q0 -9 -2 -13zM174 627q-30 0 -50.5 21t-20.5 51t20.5 50.5t50.5 20.5t51.5 -20.5t21.5 -50.5t-21.5 -51t-51.5 -21zM378 627q-29 0 -50 21t-21 51t21 50.5t50 20.5q30 0 51.5 -20.5t21.5 -50.5t-21.5 -51t-51.5 -21z" />
<glyph unicode="&#x152;" horiz-adv-x="1239" d="M677 720h465q14 0 24 -10.5t10 -24.5v-60q0 -13 -10 -23.5t-24 -10.5h-359v-158h313q15 0 25 -10.5t10 -24.5v-60q0 -14 -10 -24t-25 -10h-313v-176h359q14 0 24 -10t10 -24v-60q0 -14 -10 -24t-24 -10h-465q-15 0 -24.5 8.5t-9.5 22.5v35q-95 -78 -222 -78 q-151 0 -257.5 103.5t-106.5 265.5q0 156 102 265.5t262 109.5q128 0 222 -79v35q0 14 10 23t24 9zM421 116q93 0 156.5 68.5t63.5 172.5q0 109 -63 177.5t-157 68.5t-157.5 -68.5t-63.5 -177.5q0 -104 63.5 -172.5t157.5 -68.5z" />
<glyph unicode="&#x153;" horiz-adv-x="965" d="M910 222h-329q1 -50 41 -84.5t89 -34.5q77 0 143 34q8 4 14 4q19 0 35 -26t16 -46q0 -34 -68 -57.5t-138 -23.5q-137 0 -206 83q-74 -83 -195 -83q-116 0 -191 76.5t-75 198.5q0 120 75.5 199t190.5 79q120 0 196 -87q72 87 196 87q109 0 175 -70t66 -214 q0 -14 -10.5 -24.5t-24.5 -10.5zM312 105q57 0 93.5 44t36.5 115t-36.5 115t-93.5 44q-56 0 -92.5 -44.5t-36.5 -115.5q0 -70 36.5 -114t92.5 -44zM701 428q-43 0 -74.5 -28.5t-39.5 -77.5h219q0 47 -31.5 76.5t-73.5 29.5z" />
<glyph unicode="&#x178;" horiz-adv-x="666" d="M646 720q18 0 26 -15.5t-2 -30.5l-266 -386v-253q0 -15 -10 -25t-24 -10h-72q-14 0 -24 10t-10 25v253l-266 386q-10 15 -2 30.5t27 15.5h75q35 0 54 -28l182 -267l183 267q18 28 53 28h76zM231 818q-30 0 -50.5 21t-20.5 51t20.5 50.5t50.5 20.5t51.5 -20.5t21.5 -50.5 t-21.5 -51t-51.5 -21zM435 818q-29 0 -50 21t-21 51t21 50.5t50 20.5q30 0 51.5 -20.5t21.5 -50.5t-21.5 -51t-51.5 -21z" />
<glyph unicode="&#x2c6;" horiz-adv-x="535" d="M313 625l-44 68l-36 -57q-23 -37 -65 -35h-39q-24 0 -24 24q0 9 6 19l71 103q23 34 50 34h76q17 0 35 -16q12 -12 51.5 -67t39.5 -73q0 -11 -7 -17.5t-17 -6.5h-53q-29 0 -44 24z" />
<glyph unicode="&#x2dc;" horiz-adv-x="509" d="M231 638q-33 27 -48 27q-13 0 -20.5 -10t-9.5 -22.5t-9.5 -22.5t-20.5 -10h-34q-11 0 -20 9.5t-9 21.5q4 64 40.5 101.5t85.5 37.5q29 0 81 -33.5t62 -33.5q18 0 30 32t30 32h35q11 0 19.5 -9.5t8.5 -21.5q-4 -65 -40.5 -102.5t-85.5 -37.5q-38 0 -95 42z" />
<glyph unicode="&#x2000;" horiz-adv-x="486" />
<glyph unicode="&#x2001;" horiz-adv-x="972" />
<glyph unicode="&#x2002;" horiz-adv-x="486" />
<glyph unicode="&#x2003;" horiz-adv-x="972" />
<glyph unicode="&#x2004;" horiz-adv-x="324" />
<glyph unicode="&#x2005;" horiz-adv-x="243" />
<glyph unicode="&#x2006;" horiz-adv-x="162" />
<glyph unicode="&#x2007;" horiz-adv-x="162" />
<glyph unicode="&#x2008;" horiz-adv-x="121" />
<glyph unicode="&#x2009;" horiz-adv-x="194" />
<glyph unicode="&#x200a;" horiz-adv-x="54" />
<glyph unicode="&#x2010;" horiz-adv-x="384" d="M351 267q0 -14 -10 -24.5t-25 -10.5h-250q-14 0 -24.5 10.5t-10.5 24.5v45q0 14 10.5 24t24.5 10h250q15 0 25 -10t10 -24v-45z" />
<glyph unicode="&#x2011;" horiz-adv-x="384" d="M351 267q0 -14 -10 -24.5t-25 -10.5h-250q-14 0 -24.5 10.5t-10.5 24.5v45q0 14 10.5 24t24.5 10h250q15 0 25 -10t10 -24v-45z" />
<glyph unicode="&#x2012;" horiz-adv-x="384" d="M351 267q0 -14 -10 -24.5t-25 -10.5h-250q-14 0 -24.5 10.5t-10.5 24.5v45q0 14 10.5 24t24.5 10h250q15 0 25 -10t10 -24v-45z" />
<glyph unicode="&#x2013;" horiz-adv-x="599" d="M566 266q0 -14 -10 -24t-24 -10h-466q-14 0 -24.5 10t-10.5 24v46q0 14 10.5 24t24.5 10h466q14 0 24 -10t10 -24v-46z" />
<glyph unicode="&#x2014;" horiz-adv-x="972" d="M939 266q0 -14 -10 -24t-25 -10h-838q-14 0 -24.5 10t-10.5 24v46q0 14 10.5 24t24.5 10h838q15 0 25 -10t10 -24v-46z" />
<glyph unicode="&#x2018;" horiz-adv-x="299" d="M232 726q-10 -16 -27.5 -58t-20.5 -63q0 -4 2 -10q43 -25 43 -72q0 -32 -23.5 -57t-56.5 -25q-36 0 -61.5 26t-25.5 70q0 41 35 115.5t74 116.5q6 6 16 6q14 0 30.5 -9.5t18.5 -22.5q0 -10 -4 -17z" />
<glyph unicode="&#x2019;" horiz-adv-x="299" d="M67 494q10 16 27 58.5t20 63.5q0 3 -2 9q-42 24 -42 73q0 31 23 55.5t56 24.5q36 0 61.5 -25.5t25.5 -69.5q0 -42 -35 -116t-74 -116q-7 -7 -17 -7q-16 0 -31.5 12.5t-15.5 24.5q0 8 4 13z" />
<glyph unicode="&#x201a;" horiz-adv-x="299" d="M67 -125q10 16 27 58.5t20 63.5q0 2 -2 8q-42 24 -42 73q0 32 23 56.5t56 24.5q36 0 61.5 -26t25.5 -70q0 -42 -35 -115.5t-74 -114.5q0 -3 -6.5 -5.5t-10.5 -2.5q-18 0 -32.5 12t-14.5 25q0 8 4 13z" />
<glyph unicode="&#x201c;" horiz-adv-x="503" d="M435 726q-11 -16 -29 -60.5t-18 -62.5q0 -4 2 -8q42 -24 42 -72q0 -32 -23 -57t-57 -25q-36 0 -61.5 26t-25.5 70q0 41 35 115.5t75 116.5q6 6 16 6q15 0 31.5 -10.5t16.5 -24.5q0 -6 -4 -14zM232 726q-10 -15 -27 -57.5t-21 -63.5q0 -4 2 -10q43 -23 43 -72 q0 -32 -23.5 -57t-56.5 -25q-36 0 -61.5 26t-25.5 70q0 41 35 115.5t74 116.5q6 6 16 6q14 0 30.5 -9.5t18.5 -22.5q0 -10 -4 -17z" />
<glyph unicode="&#x201d;" horiz-adv-x="503" d="M67 494q10 16 27 58.5t20 63.5q0 3 -2 9q-42 24 -42 73q0 31 23 55.5t56 24.5q36 0 61.5 -25.5t25.5 -69.5q0 -42 -35 -116t-74 -116q-7 -7 -17 -7q-16 0 -31.5 12.5t-15.5 24.5q0 8 4 13zM271 494q10 16 27 58.5t20 63.5q0 2 -22 29t-22 51q0 33 22.5 57.5t56.5 24.5 q37 0 62 -25.5t25 -69.5q0 -41 -34.5 -115.5t-73.5 -116.5q-7 -7 -17 -7q-17 0 -32.5 12.5t-15.5 24.5q0 8 4 13z" />
<glyph unicode="&#x201e;" horiz-adv-x="502" d="M67 -125q10 16 27 58.5t20 63.5q0 2 -2 8q-42 24 -42 73q0 32 23 56.5t56 24.5q36 0 61.5 -26t25.5 -70q0 -42 -35 -115.5t-74 -114.5q0 -3 -6.5 -5.5t-10.5 -2.5q-18 0 -32.5 12t-14.5 25q0 8 4 13zM270 -125q11 17 29 60.5t18 62.5q0 1 -2 7q-42 24 -42 73 q0 32 23.5 56.5t56.5 24.5q36 0 61 -26t25 -70q0 -41 -34.5 -115t-73.5 -115q-7 -7 -17 -7q-6 0 -11 3l-13 6.5t-10.5 5t-7 4.5t-5 7t-1.5 10q0 8 4 13z" />
<glyph unicode="&#x2022;" horiz-adv-x="426" d="M50 334q0 68 48.5 116.5t116.5 48.5t116.5 -48.5t48.5 -116.5t-48.5 -116t-116.5 -48t-116.5 48t-48.5 116z" />
<glyph unicode="&#x2026;" horiz-adv-x="853" d="M426 -12q-34 0 -58.5 24t-24.5 58t24.5 58t58.5 24t58.5 -24t24.5 -58t-24.5 -58t-58.5 -24zM707 -12q-33 0 -57 24t-24 58t24 58t57 24q35 0 59.5 -24t24.5 -58t-24.5 -58t-59.5 -24zM144 -12q-33 0 -57.5 24t-24.5 58t24.5 58t57.5 24q35 0 59.5 -24t24.5 -58 t-24.5 -58t-59.5 -24z" />
<glyph unicode="&#x202f;" horiz-adv-x="194" />
<glyph unicode="&#x2039;" horiz-adv-x="379" d="M31 265q-10 11 -10 24.5t10 23.5l209 210q11 10 25 9.5t24 -10.5l34 -34q10 -10 10 -24t-10 -24l-150 -151l150 -150q10 -11 10 -25t-10 -24l-34 -34q-10 -10 -24 -10t-25 10z" />
<glyph unicode="&#x203a;" horiz-adv-x="379" d="M343 265l-209 -209q-11 -10 -25 -10t-24 10l-34 34q-10 10 -10 24t10 25l150 150l-150 151q-10 10 -10 24t10 24l34 34q10 10 24 10.5t25 -9.5l209 -210q10 -10 10 -23.5t-10 -24.5z" />
<glyph unicode="&#x205f;" horiz-adv-x="243" />
<glyph unicode="&#x20ac;" horiz-adv-x="728" d="M632 147q4 -6 15 -22t17.5 -28t6.5 -21q0 -37 -76.5 -62.5t-141.5 -25.5q-127 0 -218 64.5t-127 174.5h-63q-14 0 -24.5 10t-10.5 24v34q0 14 10.5 24.5t24.5 10.5h45q-2 10 -2 30t2 30h-45q-14 0 -24.5 10t-10.5 24v34q0 14 10.5 24.5t24.5 10.5h63q36 110 127 174.5 t218 64.5q65 0 141.5 -25.5t76.5 -63.5q0 -16 -24 -50.5t-43 -34.5q-11 0 -20 6q-63 39 -131 39q-59 0 -109.5 -29t-78.5 -81h253q14 0 24 -10.5t10 -24.5v-34q0 -14 -10 -24t-24 -10h-288q0 -5 -0.5 -15t-0.5 -15q0 -6 0.5 -15.5t0.5 -14.5h288q14 0 24 -10.5t10 -24.5v-34 q0 -14 -10 -24t-24 -10h-253q29 -52 79 -81.5t109 -29.5q69 0 131 41q8 5 19 5q20 0 29 -15z" />
<glyph unicode="&#x2122;" horiz-adv-x="833" d="M626 399q-8 -19 -30 -21h-14q-26 0 -33 21l-85 198h-5v-239q0 -14 -10 -24t-25 -10h-11q-13 0 -23.5 10t-10.5 24v327q0 15 10 25t24 10h65q8 0 17.5 -6.5t13.5 -14.5l78 -192l80 192q3 8 12.5 14.5t18.5 6.5h60q14 0 24.5 -10t10.5 -25v-327q0 -13 -10.5 -23.5 t-24.5 -10.5h-12q-14 0 -24.5 10.5t-10.5 23.5v237h-6zM334 685v-8q0 -15 -10 -24.5t-25 -9.5h-82v-285q0 -14 -10 -24t-24 -10h-15q-14 0 -24 10t-10 24v285h-82q-14 0 -24 10t-10 24v8q0 15 10 25t24 10h247q16 0 25.5 -10t9.5 -25z" />
<glyph unicode="&#xfb01;" horiz-adv-x="686" d="M411 731q30 -13 22 -43q0 -1 -6 -20.5t-7 -21.5q-4 -14 -16.5 -20.5t-25.5 -2.5q-38 12 -83 12q-62 0 -62 -64v-43h120q14 0 24.5 -10t10.5 -24v-40q0 -15 -10.5 -25t-24.5 -10h-120v-384q0 -15 -10.5 -25t-24.5 -10h-67q-14 0 -24 10t-10 25v384h-45q-14 0 -24.5 10 t-10.5 25v40q0 14 10.5 24t24.5 10h45v33q0 89 51.5 140t148.5 51q64 0 114 -21zM603 34q0 -14 -10.5 -24t-24.5 -10h-67q-14 0 -24.5 10t-10.5 24v460q0 14 10.5 24t24.5 10h67q14 0 24.5 -10t10.5 -24v-460zM610 680q0 -30 -22 -51t-54 -21q-31 0 -53.5 21t-22.5 51 t22.5 51t53.5 21q32 0 54 -21t22 -51z" />
<glyph unicode="&#xfb02;" horiz-adv-x="686" d="M411 731q30 -13 22 -43q0 -1 -6 -20.5t-7 -21.5q-4 -14 -16.5 -20.5t-25.5 -2.5q-38 12 -83 12q-62 0 -62 -64v-43h120q14 0 24.5 -10t10.5 -24v-40q0 -15 -10.5 -25t-24.5 -10h-120v-384q0 -15 -10.5 -25t-24.5 -10h-67q-14 0 -24 10t-10 25v384h-45q-14 0 -24.5 10 t-10.5 25v40q0 14 10.5 24t24.5 10h45v33q0 89 51.5 140t148.5 51q64 0 114 -21zM603 34q0 -14 -10.5 -24t-24.5 -10h-67q-14 0 -24.5 10t-10.5 24v674q0 14 10.5 24t24.5 10h67q14 0 24.5 -10t10.5 -24v-674z" />
</font>
</defs>
</svg>
