<?xml version="1.0" standalone="no"?>
<!DOCTYPE svg PUBLIC "-//W3C//DTD SVG 1.1//EN" "http://www.w3.org/Graphics/SVG/1.1/DTD/svg11.dtd" >
<svg xmlns="http://www.w3.org/2000/svg">
<metadata></metadata>
<defs>
<font id="alleyn_regularregular" horiz-adv-x="627" >
<font-face units-per-em="1000" ascent="800" descent="-200" />
<missing-glyph horiz-adv-x="339" />
<glyph horiz-adv-x="0" />
<glyph horiz-adv-x="333" />
<glyph unicode=" "  horiz-adv-x="339" />
<glyph unicode="&#x09;" horiz-adv-x="339" />
<glyph unicode="&#xa0;" horiz-adv-x="339" />
<glyph unicode="!" horiz-adv-x="319" d="M180 169h-23q-20 0 -22 21l-12 306v189q0 10 6 16.5t15 6.5h47q10 0 16.5 -6.5t6.5 -16.5v-189l-12 -306q-2 -21 -22 -21zM168 97q22 0 39 -16.5t17 -37.5q0 -23 -17 -39t-39 -16t-37.5 15.5t-15.5 39.5q0 21 16 37.5t37 16.5z" />
<glyph unicode="&#x22;" horiz-adv-x="421" d="M274 742h50q9 0 15.5 -7t7.5 -16l-19 -223q-4 -20 -22 -20h-12q-8 0 -15 6.5t-8 14.5l-19 222q-1 10 5.5 16.5t16.5 6.5zM99 742h48q9 0 15 -7t7 -16l-18 -222q-1 -8 -7.5 -14.5t-15.5 -6.5h-11q-8 0 -14.5 6.5t-7.5 14.5l-19 222q-1 10 6 16.5t17 6.5z" />
<glyph unicode="#" d="M603 491v-19q0 -12 -8 -19.5t-19 -7.5h-103q-3 -15 -17 -75t-23 -99h114q12 0 19.5 -7.5t7.5 -19.5v-19q0 -11 -7.5 -19t-19.5 -8h-131q-7 -30 -20 -92t-20 -92q-2 -8 -9.5 -14t-15.5 -6h-18q-14 0 -21.5 10t-4.5 23l39 171h-136l-43 -184q-1 -8 -9 -14t-17 -6h-17 q-13 0 -20.5 9t-5.5 23q2 11 39 172h-86q-11 0 -19 8t-8 19v19q0 12 8 19.5t19 7.5h102q5 23 17.5 79t21.5 95h-112q-11 0 -19 7.5t-8 19.5v19q0 12 8 19.5t19 7.5h130q2 10 5.5 25.5t13 58t22.5 99.5q6 21 26 21h18q14 0 21.5 -10t4.5 -23q-35 -148 -40 -171h137 q2 12 41 184q2 8 10 14t16 6h19q14 0 21.5 -10t4.5 -23l-39 -171h85q11 0 19 -7.5t8 -19.5zM362 271l40 174h-139l-38 -174h137z" />
<glyph unicode="$" horiz-adv-x="653" d="M306 792h40q22 0 22 -22v-53q115 -12 197 -83q15 -15 2 -29l-25 -29q-14 -16 -30 -2q-77 66 -190 66q-74 0 -117 -30.5t-43 -83.5q0 -88 168 -117q261 -46 261 -209q0 -85 -61.5 -141.5t-161.5 -67.5v-44q0 -9 -6 -15.5t-16 -6.5h-40q-10 0 -16 6.5t-6 15.5v43 q-127 11 -210 86q-16 14 -2 31l26 28q14 18 30 2q83 -69 196 -69q82 0 131 34t49 93q0 55 -50.5 85t-167.5 51q-104 18 -157 67.5t-53 126.5q0 75 59.5 128t148.5 64v53q0 22 22 22z" />
<glyph unicode="%" horiz-adv-x="797" d="M185 716q139 0 139 -193q0 -101 -35 -147t-104 -46q-137 0 -137 193t137 193zM185 390q74 0 74 133q0 131 -74 131q-72 0 -72 -131q0 -133 72 -133zM638 380q139 0 139 -193t-139 -193q-137 0 -137 193t137 193zM638 55q74 0 74 132t-74 132q-72 0 -72 -132t72 -132z M607 708h18q10 0 15 -8.5t0 -18.5l-387 -659q-13 -22 -34 -22h-20q-10 0 -14.5 9t0.5 18l388 659q12 22 34 22z" />
<glyph unicode="&#x26;" horiz-adv-x="732" d="M322 642q-41 0 -67.5 -23t-26.5 -58q0 -49 73 -121q49 25 81 58.5t32 65.5q0 38 -25 58t-67 20zM319 68q39 0 82 23.5t75 60.5l-197 196q-55 -36 -82 -65.5t-27 -69.5q0 -59 40 -102t109 -43zM326 720q73 0 122 -43t49 -107q0 -53 -32.5 -97.5t-107.5 -88.5l161 -161 q42 80 59 150q5 22 23 16l35 -8q17 -5 14 -25q-25 -96 -74 -188l137 -136q7 -10 2 -21t-15 -11h-54q-14 0 -35 19l-79 79q-106 -110 -225 -110q-95 0 -158 60t-63 149q0 67 34 113.5t105 91.5q-44 44 -62 80t-18 76q0 65 50.5 113.5t131.5 48.5z" />
<glyph unicode="'" horiz-adv-x="246" d="M97 742h51q10 0 16.5 -6.5t5.5 -16.5l-18 -222q-1 -8 -8 -14.5t-15 -6.5h-14q-20 0 -22 21l-17 221q-2 10 4 17t17 7z" />
<glyph unicode="(" horiz-adv-x="348" d="M199 720q15 22 33 22h40q10 0 14 -6.5t-2 -15.5q-124 -190 -124 -449q0 -260 124 -449q6 -9 2 -15.5t-14 -6.5h-40q-18 0 -33 22q-59 96 -91.5 214t-32.5 235t32 234.5t92 214.5z" />
<glyph unicode=")" horiz-adv-x="348" d="M148 720q60 -97 92 -214.5t32 -234.5t-32.5 -235t-91.5 -214q-15 -22 -33 -22h-40q-10 0 -14 6.5t2 15.5q124 189 124 449q0 259 -124 449q-6 9 -2 15.5t14 6.5h40q18 0 33 -22z" />
<glyph unicode="*" horiz-adv-x="530" d="M332 378l-66 130l-67 -131q-9 -14 -24 -14q-7 0 -12 4l-13 6q-12 6 -12 20q0 8 5 16l79 123l-144 -7q-29 0 -29 27v9q0 12 8 20t20 7l146 -7l-79 121q-5 8 -5 16q0 17 16 24l12 5q3 1 8 1q18 0 24 -14q54 -106 65 -130l68 131q6 14 24 14q5 0 8 -1l9 -3q18 -8 18 -25 q0 -7 -5 -15l-78 -124l145 7q12 0 20 -7.5t8 -19.5v-9q0 -27 -29 -27l-145 8l78 -124q5 -8 5 -16q0 -18 -18 -23l-8 -4q-3 -1 -9 -1q-17 0 -23 13z" />
<glyph unicode="+" d="M584 351v-31q0 -9 -6.5 -15.5t-15.5 -6.5h-210v-210q0 -10 -6.5 -16.5t-16.5 -6.5h-33q-10 0 -16.5 6.5t-6.5 16.5v210h-208q-9 0 -15.5 6.5t-6.5 15.5v31q0 9 6.5 15.5t15.5 6.5h208v210q0 9 6.5 16t16.5 7h33q10 0 16.5 -7t6.5 -16v-210h210q9 0 15.5 -6.5t6.5 -15.5z " />
<glyph unicode="," horiz-adv-x="282" d="M123 -10l-2 4q-44 32 -44 63q0 24 18 42.5t43 18.5q29 0 49 -21t20 -55q0 -42 -28 -104.5t-65 -100.5q-12 -6 -13 -6q-10 -1 -17.5 5.5t-8.5 15.5q0 5 2 9q13 20 30 64t16 65z" />
<glyph unicode="-" horiz-adv-x="373" d="M329 300v-24q0 -10 -6.5 -16t-16.5 -6h-238q-10 0 -16.5 6t-6.5 16v24q0 10 6.5 16t16.5 6h238q10 0 16.5 -6t6.5 -16z" />
<glyph unicode="." horiz-adv-x="281" d="M138 -12q-24 0 -43.5 19.5t-19.5 45.5q0 25 19.5 44.5t43.5 19.5q28 0 48 -19t20 -45t-20 -45.5t-48 -19.5z" />
<glyph unicode="/" horiz-adv-x="370" d="M303 742h26q11 0 17.5 -9t2.5 -19l-262 -780q-4 -15 -20 -15h-30q-12 0 -18 9t-2 20l264 779q6 15 22 15z" />
<glyph unicode="0" d="M313 720q126 0 190 -88.5t64 -276.5q0 -189 -64 -278t-190 -89t-189.5 89t-63.5 278q0 188 63.5 276.5t189.5 88.5zM313 67q168 0 168 288q0 286 -168 286t-168 -286q0 -288 168 -288z" />
<glyph unicode="1" d="M377 708h41q22 0 22 -22v-664q0 -9 -6 -15.5t-16 -6.5h-41q-9 0 -15 6.5t-6 15.5v571l-161 -142q-16 -14 -29 1l-24 29q-13 15 1 28l213 186q15 13 21 13z" />
<glyph unicode="2" d="M478 346l-270 -266h312q9 0 15.5 -6t6.5 -16v-36q0 -10 -6.5 -16t-15.5 -6h-411q-9 0 -15.5 6t-6.5 16v10.5v12.5v11q0 20 31 51l306 306q32 32 32 92q0 58 -40 96.5t-101 38.5q-51 0 -91.5 -29.5t-54.5 -75.5q-7 -20 -28 -15l-34 11q-21 5 -15 27q16 69 76 115.5 t147 46.5q97 0 162 -61.5t65 -152.5q0 -97 -64 -160z" />
<glyph unicode="3" d="M169 144q20 -34 56.5 -55t77.5 -21q61 0 103.5 40.5t42.5 102.5t-41.5 100t-103.5 38h-37q-22 0 -22 22v35q0 22 22 22h28q51 0 85.5 30.5t34.5 79.5q0 44 -32 73t-79 29q-40 0 -69.5 -22.5t-38.5 -39.5q-10 -20 -30 -10l-34 18q-18 11 -8 30q20 40 64.5 72t115.5 32 q83 0 140 -52t57 -128q0 -93 -79 -146q113 -51 113 -189q0 -91 -68 -154t-164 -63q-84 0 -136 38t-71 80q-8 20 9 29l34 18q20 10 30 -9z" />
<glyph unicode="4" d="M393 688q16 20 31 20h37q10 0 16 -6.5t6 -15.5v-434h86q9 0 15.5 -6t6.5 -16v-36q0 -10 -6.5 -16t-15.5 -6h-86v-150q0 -22 -22 -22h-41q-22 0 -22 22v150h-340q-22 0 -22 22v29q0 16 7 28zM142 252h256v322z" />
<glyph unicode="5" d="M106 378l31 304q3 26 28 26h335q9 0 15.5 -6t6.5 -16v-36q0 -10 -6.5 -16t-15.5 -6h-286q-4 -34 -10.5 -103t-7.5 -76q59 19 109 19q104 0 174 -66t70 -171q0 -103 -71.5 -173t-175.5 -70q-92 0 -146.5 38t-73.5 80q-8 20 9 29l34 18q18 9 30 -9q45 -76 147 -76 q67 0 114 46.5t47 117.5t-47.5 113.5t-118.5 42.5q-81 0 -124 -38q-16 -15 -32 -7l-10 5q-10 5 -15 9q-12 7 -10 21z" />
<glyph unicode="6" d="M316 468q101 0 169 -68.5t68 -171.5q0 -100 -69.5 -170t-167.5 -70q-114 0 -177.5 75.5t-63.5 209.5q0 89 25 168t71.5 140.5t120 97.5t163.5 36q9 0 16 -7t7 -17v-33q0 -10 -7 -16.5t-16 -6.5q-100 0 -176.5 -60.5t-108.5 -164.5l4 -4q64 62 142 62zM316 68 q64 0 107.5 44.5t43.5 115.5t-43.5 116t-107.5 45q-66 0 -111 -42.5t-45 -112.5q0 -73 42 -119.5t114 -46.5z" />
<glyph unicode="7" d="M222 22q-11 -22 -34 -22h-43q-10 0 -16.5 9t-0.5 21q177 344 328 598h-366q-9 0 -15.5 6.5t-6.5 15.5v36q0 9 6.5 15.5t15.5 6.5h448q9 0 15.5 -6.5t6.5 -15.5v-23q0 -18 -10 -35q-146 -250 -328 -606z" />
<glyph unicode="8" d="M425 387q55 -23 85.5 -72t30.5 -107q0 -93 -65.5 -156.5t-162.5 -63.5q-98 0 -163 63.5t-65 156.5q0 58 30.5 107t85.5 72v9q-82 49 -82 140q0 77 56 130.5t138 53.5q81 0 137.5 -53.5t56.5 -130.5q0 -91 -82 -140v-9zM313 640q-46 0 -78.5 -30t-32.5 -74q0 -43 33 -76.5 t78 -33.5q44 0 77 33.5t33 76.5t-32 73.5t-78 30.5zM313 68q59 0 100.5 41t41.5 99q0 57 -42 99t-100 42q-59 0 -101 -42t-42 -99q0 -58 42 -99t101 -41z" />
<glyph unicode="9" d="M312 240q-102 0 -169.5 69t-67.5 171q0 101 69.5 170.5t167.5 69.5q114 0 177.5 -75.5t63.5 -209.5q0 -120 -42.5 -218.5t-130.5 -161t-208 -62.5q-9 0 -16 7t-7 17v33q0 10 7 16.5t16 6.5q100 0 176.5 60.5t108.5 164.5l-4 4q-64 -62 -141 -62zM312 640 q-65 0 -108.5 -44.5t-43.5 -115.5t43.5 -116t108.5 -45q66 0 110.5 42.5t44.5 112.5q0 73 -42 119.5t-113 46.5z" />
<glyph unicode=":" horiz-adv-x="296" d="M147 -12q-24 0 -43.5 19.5t-19.5 45.5q0 25 19.5 44.5t43.5 19.5q28 0 48 -19t20 -45t-20 -45.5t-48 -19.5zM147 403q-24 0 -43.5 19.5t-19.5 44.5q0 26 19.5 45.5t43.5 19.5q28 0 48 -19.5t20 -45.5q0 -25 -20 -44.5t-48 -19.5z" />
<glyph unicode=";" horiz-adv-x="295" d="M147 403q-25 0 -44 19.5t-19 44.5q0 26 19 45.5t44 19.5q28 0 47.5 -19t19.5 -46q0 -25 -19.5 -44.5t-47.5 -19.5zM129 -10l-2 4q-43 33 -43 63q0 24 18 42.5t43 18.5q29 0 49 -21t20 -55q0 -42 -28 -104.5t-65 -100.5q-12 -6 -13 -6q-10 -1 -17.5 5.5t-8.5 15.5q0 5 2 9 q13 20 29.5 64t15.5 65z" />
<glyph unicode="&#x3c;" d="M572 142v-32q0 -9 -6.5 -15.5t-14.5 -6.5q-5 0 -11 3l-471 204q-13 6 -13 21v40q0 15 13 19l471 205q6 2 10 2q9 0 15.5 -6t6.5 -16v-33q0 -5 -4.5 -12t-8.5 -8l-405 -172l405 -172q13 -9 13 -21z" />
<glyph unicode="=" d="M575 457v-30q0 -9 -6.5 -15.5t-15.5 -6.5h-479q-9 0 -15.5 6.5t-6.5 15.5v30q0 9 6.5 15.5t15.5 6.5h479q9 0 15.5 -6.5t6.5 -15.5zM575 244v-30q0 -10 -6.5 -16t-15.5 -6h-479q-9 0 -15.5 6t-6.5 16v30q0 10 6.5 16t15.5 6h479q9 0 15.5 -6t6.5 -16z" />
<glyph unicode="&#x3e;" d="M572 356v-40q0 -15 -13 -19q-19 -8 -199.5 -87.5t-272.5 -118.5q-8 -2 -11 -2q-21 0 -21 21v32q0 16 14 20l401 173l-401 172q-5 1 -9.5 8t-4.5 12v33q0 10 6 16t15 6q3 0 11 -2q294 -127 472 -206q5 -2 9 -7.5t4 -10.5z" />
<glyph unicode="?" horiz-adv-x="560" d="M278 720q102 0 164.5 -53.5t62.5 -135.5q0 -63 -48 -121t-147 -124v-94q0 -10 -6.5 -16t-15.5 -6h-43q-22 0 -22 22v121q0 13 12 19q2 1 31.5 20t36.5 24.5t31.5 23t33 28.5t22.5 28t19 33.5t5 34.5q0 51 -39.5 83.5t-99.5 32.5q-83 0 -158 -50q-17 -11 -29 2l-25 36 q-9 16 7 28q89 64 208 64zM266 97q21 0 38.5 -16.5t17.5 -37.5q0 -23 -17 -39t-39 -16q-23 0 -39 15.5t-16 39.5q0 21 16.5 37.5t38.5 16.5z" />
<glyph unicode="@" horiz-adv-x="1017" d="M704 26q-37 0 -61 28.5t-21 87.5h-9q-29 -52 -76.5 -84t-96.5 -32q-75 0 -122.5 59.5t-47.5 153.5q0 48 16.5 98.5t45.5 94.5t75.5 72t99.5 28q98 0 142 -60l4 27q4 20 24 20h30q19 0 21 -27q-6 -45 -20 -144t-19 -141q-3 -21 -3 -51q0 -70 34 -70q74 0 117 78.5 t43 175.5q0 140 -97.5 232t-252.5 92q-171 0 -281 -117t-110 -284q0 -179 111 -279t286 -100q132 0 254 48q5 3 12 1.5t10 -6.5l7 -21q4 -17 -7 -22q-145 -59 -276 -59q-211 0 -336 120.5t-125 313.5q0 204 131 334.5t326 130.5q181 0 295.5 -109t114.5 -291 q0 -123 -66 -210t-172 -88zM455 100q48 0 90 47t64.5 111.5t21.5 122.5q-1 3 -3.5 8.5t-12 19.5t-21.5 24.5t-33.5 19.5t-46.5 9q-66 0 -112 -67t-46 -159q0 -67 26.5 -101.5t72.5 -34.5z" />
<glyph unicode="A" horiz-adv-x="730" d="M708 24q4 -8 -2.5 -16t-17.5 -8h-44q-18 0 -28 21l-67 160h-369l-66 -160q-10 -21 -29 -21h-44q-11 0 -17 8.5t-2 16.5l295 667q7 16 26 16h43q19 0 26 -16zM214 257h301q-24 52 -53 122t-58.5 144t-38.5 95q-5 -13 -62 -152t-89 -209z" />
<glyph unicode="B" horiz-adv-x="721" d="M126 708h279q91 0 147 -52t56 -129q0 -96 -84 -143v-7q57 -18 87 -63.5t30 -109.5q0 -89 -61 -146.5t-189 -57.5h-265q-9 0 -15 6.5t-6 16.5v663q0 10 6 16t15 6zM189 332v-252h187q180 0 180 124q0 69 -43.5 98.5t-125.5 29.5h-198zM395 628h-206v-217h193 q140 0 140 111q0 49 -33.5 77.5t-93.5 28.5z" />
<glyph unicode="C" horiz-adv-x="738" d="M647 139l26 -27q13 -15 -4 -32q-100 -92 -244 -92q-160 0 -257.5 101.5t-97.5 265.5q0 162 97.5 263.5t257.5 101.5q145 0 244 -93q7 -6 8 -15t-4 -15l-26 -28q-5 -7 -14.5 -6.5t-15.5 6.5q-35 32 -87.5 51.5t-104.5 19.5q-114 0 -192 -79.5t-78 -205.5q0 -127 78 -207 t192 -80q52 0 104.5 19t87.5 51q6 6 15.5 6.5t14.5 -5.5z" />
<glyph unicode="D" horiz-adv-x="808" d="M126 708h230q173 0 277.5 -92t104.5 -261t-104.5 -262t-277.5 -93h-230q-9 0 -15 6.5t-6 14.5v666q0 9 6 15t15 6zM374 80q124 0 201 74t77 201q0 126 -77 199.5t-201 73.5h-185v-548h185z" />
<glyph unicode="E" horiz-adv-x="681" d="M585 0h-459q-9 0 -15 6.5t-6 15.5v664q0 9 6 15.5t15 6.5h459q9 0 15.5 -6.5t6.5 -15.5v-36q0 -9 -6.5 -15.5t-15.5 -6.5h-396v-226h348q9 0 15.5 -6.5t6.5 -15.5v-35q0 -9 -6.5 -15.5t-15.5 -6.5h-348v-243h396q9 0 15.5 -6.5t6.5 -15.5v-36q0 -9 -6.5 -15.5t-15.5 -6.5 z" />
<glyph unicode="F" horiz-adv-x="641" d="M167 0h-41q-9 0 -15 6.5t-6 15.5v664q0 9 6 15.5t15 6.5h459q9 0 15.5 -6.5t6.5 -15.5v-36q0 -9 -6.5 -15.5t-15.5 -6.5h-396v-226h348q9 0 15.5 -6.5t6.5 -15.5v-35q0 -9 -6.5 -15.5t-15.5 -6.5h-348v-301q0 -9 -6.5 -15.5t-15.5 -6.5z" />
<glyph unicode="G" horiz-adv-x="783" d="M686 358q22 0 22 -22v-225q0 -18 -11 -27q-115 -96 -261 -96q-161 0 -263.5 104t-102.5 262q0 163 97.5 264.5t257.5 101.5q146 0 245 -93q7 -6 8 -15t-4 -15l-26 -28q-6 -6 -15.5 -5.5t-14.5 6.5q-35 32 -88 51t-105 19q-114 0 -192 -79.5t-78 -205.5t80 -206.5 t199 -80.5q105 0 190 63v147h-185q-9 0 -15.5 6t-6.5 16v36q0 10 6.5 16t15.5 6h247z" />
<glyph unicode="H" horiz-adv-x="802" d="M634 708h41q22 0 22 -22v-664q0 -9 -6 -15.5t-16 -6.5h-41q-9 0 -15 6.5t-6 15.5v303h-424v-303q0 -9 -6 -15.5t-16 -6.5h-41q-9 0 -15 6.5t-6 15.5v664q0 10 6 16t15 6h41q22 0 22 -22v-282h424v282q0 10 6 16t15 6z" />
<glyph unicode="I" horiz-adv-x="294" d="M126 708h41q22 0 22 -22v-664q0 -9 -6 -15.5t-16 -6.5h-41q-9 0 -15 6.5t-6 15.5v664q0 10 6 16t15 6z" />
<glyph unicode="J" horiz-adv-x="502" d="M382 708q22 0 22 -22v-472q0 -100 -61.5 -163t-159.5 -63q-93 0 -156 63q-15 15 0 31l26 26q15 15 31 0q45 -40 97 -40q67 0 103 40.5t36 111.5v466q0 22 22 22h40z" />
<glyph unicode="K" horiz-adv-x="689" d="M672 34q9 -12 4.5 -23t-14.5 -11h-55q-23 0 -37 16l-297 309l-84 -75v-228q0 -9 -6 -15.5t-16 -6.5h-41q-9 0 -15 6.5t-6 15.5v664q0 10 6 16t15 6h41q22 0 22 -22v-332l366 339q17 15 38 15h57q9 0 12.5 -10.5t-5.5 -19.5l-324 -298z" />
<glyph unicode="L" horiz-adv-x="613" d="M126 708h41q9 0 15.5 -6.5t6.5 -15.5v-606h382q9 0 15.5 -6.5t6.5 -15.5v-36q0 -9 -6.5 -15.5t-15.5 -6.5h-445q-9 0 -15 6.5t-6 15.5v664q0 9 6 15.5t15 6.5z" />
<glyph unicode="M" horiz-adv-x="935" d="M819 686l24 -664q0 -9 -6 -15.5t-16 -6.5h-41q-10 0 -16 6.5t-6 15.5q-13 363 -15 406q-1 22 3 136h-8l-236 -411q-10 -18 -29 -18h-12q-19 0 -29 18l-236 411h-8q4 -114 3 -136l-15 -406q0 -9 -6 -15.5t-16 -6.5h-40q-10 0 -16 6.5t-6 15.5l24 664q0 22 21 22h45 q23 0 35 -22l250 -434l250 434q12 22 35 22h45q22 0 22 -22z" />
<glyph unicode="N" horiz-adv-x="793" d="M666 708q22 0 22 -22v-664q0 -9 -6 -15.5t-16 -6.5h-44q-23 0 -38 22l-397 557h-7q9 -84 9 -167v-390q0 -9 -6 -15.5t-16 -6.5h-41q-9 0 -15 6.5t-6 15.5v664q0 10 6 16t15 6h45q21 0 38 -22l397 -558h6q-8 104 -8 154v404q0 10 6 16t15 6h41z" />
<glyph unicode="O" horiz-adv-x="849" d="M779 352q0 -160 -104 -262t-251 -102t-250.5 102t-103.5 262q0 154 99 261t255 107t255.5 -107t99.5 -261zM424 68q114 0 190.5 80.5t76.5 203.5q0 127 -76.5 207.5t-190.5 80.5t-190.5 -80.5t-76.5 -207.5q0 -123 77 -203.5t190 -80.5z" />
<glyph unicode="P" horiz-adv-x="701" d="M377 708q119 0 190.5 -61.5t72.5 -164.5q1 -101 -71.5 -162.5t-191.5 -61.5h-188v-238q0 -8 -6.5 -14t-15.5 -6h-41q-9 0 -15 6t-6 14v668q0 8 6 14t15 6h251zM394 338q74 0 117 38.5t43 105.5q0 68 -43 107t-117 39h-205v-290h205z" />
<glyph unicode="Q" horiz-adv-x="849" d="M794 34q8 -10 3.5 -22t-14.5 -12h-53q-22 0 -40 22l-38 48q-98 -82 -228 -82q-147 0 -250.5 102t-103.5 262q0 154 99 261t255 107t255.5 -107t99.5 -261q0 -127 -70 -222zM157 352q0 -123 77 -203.5t190 -80.5q100 0 176 66l-120 142q-9 10 -4.5 25.5t19.5 15.5h39 q21 0 40 -22l77 -96q40 66 40 153q0 127 -76.5 207.5t-190.5 80.5t-190.5 -80.5t-76.5 -207.5z" />
<glyph unicode="R" horiz-adv-x="740" d="M666 27q6 -7 2 -17t-16 -10h-49q-22 0 -40 22q-31 37 -97 117.5t-98 118.5h-179v-238q0 -8 -6.5 -14t-15.5 -6h-41q-9 0 -15 6t-6 14v668q0 8 6 14t15 6h251q119 0 190.5 -61.5t72.5 -164.5q1 -80 -45 -136.5t-127 -80.5zM189 338h205q74 0 117 38.5t43 105.5 q0 68 -43 107t-117 39h-205v-290z" />
<glyph unicode="S" horiz-adv-x="664" d="M334 409q261 -46 261 -209q0 -94 -75.5 -153t-193.5 -59q-149 0 -248 88q-16 14 -2 31l26 28q14 18 30 2q83 -69 196 -69q82 0 131 34t49 93q0 55 -50.5 85t-167.5 51q-104 18 -157 67.5t-53 126.5q0 84 73 139.5t174 55.5q143 0 242 -86q15 -15 2 -29l-25 -29 q-14 -16 -30 -2q-76 66 -190 66q-74 0 -117 -30.5t-43 -83.5q0 -88 168 -117z" />
<glyph unicode="T" horiz-adv-x="626" d="M585 708q9 0 15.5 -6t6.5 -16v-36q0 -10 -6.5 -16t-15.5 -6h-229v-606q0 -9 -6 -15.5t-16 -6.5h-41q-10 0 -16 6.5t-6 15.5v606h-229q-22 0 -22 22v36q0 22 22 22h543z" />
<glyph unicode="U" horiz-adv-x="810" d="M689 708q22 0 22 -22v-380q0 -143 -85 -230.5t-221 -87.5q-137 0 -221.5 87.5t-84.5 230.5v380q0 22 22 22h40q22 0 22 -22v-369q0 -112 59.5 -180.5t162.5 -68.5t162 68.5t59 180.5v369q0 22 22 22h41z" />
<glyph unicode="V" horiz-adv-x="725" d="M383 0h-41q-23 0 -32 22l-286 653q-6 13 -2 23t18 10h41q22 0 32 -22q134 -307 208 -481q37 -89 42 -104q17 48 40 103l210 482q10 22 31 22h41q14 0 18 -10t-2 -23l-286 -653q-9 -22 -32 -22z" />
<glyph unicode="W" horiz-adv-x="986" d="M899 708q10 0 15 -6.5t3 -16.5l-107 -663q-1 -9 -9.5 -15.5t-18.5 -6.5h-42q-21 0 -32 22l-215 472l-215 -472q-11 -22 -32 -22h-42q-10 0 -18.5 6.5t-9.5 15.5l-107 663q-2 10 3 16.5t15 6.5h41q23 0 26 -22q50 -301 62 -378q9 -63 16 -181h9l205 458q10 22 32 22h30 q22 0 32 -22l205 -458h9q3 102 16 181l62 378q3 22 26 22h41z" />
<glyph unicode="X" horiz-adv-x="694" d="M674 31q8 -9 3 -20t-17 -11h-43q-22 0 -40 22l-230 277l-229 -277q-18 -22 -40 -22h-44q-12 0 -17 11t3 20l275 331l-262 315q-8 10 -4 20.5t17 10.5h44q22 0 39 -22l218 -262l218 262q17 22 40 22h43q13 0 17 -10.5t-4 -20.5l-262 -315z" />
<glyph unicode="Y" horiz-adv-x="643" d="M618 708q12 0 17.5 -10.5t-1.5 -20.5l-269 -392v-263q0 -9 -6 -15.5t-16 -6.5h-41q-10 0 -16 6.5t-6 15.5v263l-271 392q-7 10 -1 20.5t19 10.5h39q22 0 37 -22l219 -318l219 318q15 22 38 22h39z" />
<glyph unicode="Z" horiz-adv-x="695" d="M621 686v-36q0 -12 -10 -22l-430 -548h428q9 0 15 -6.5t6 -15.5v-36q0 -9 -6 -15.5t-15 -6.5h-522q-9 0 -15.5 6.5t-6.5 15.5v32q0 16 11 25l428 549h-407q-9 0 -15.5 6.5t-6.5 15.5v36q0 9 6.5 15.5t15.5 6.5h502q9 0 15.5 -6.5t6.5 -15.5z" />
<glyph unicode="[" horiz-adv-x="369" d="M314 -156v-21q0 -10 -6 -16.5t-16 -6.5h-175q-9 0 -15.5 6.5t-6.5 16.5v897q0 10 6.5 16t15.5 6h175q22 0 22 -22v-21q0 -10 -6 -16.5t-16 -6.5h-117v-810h117q10 0 16 -6.5t6 -15.5z" />
<glyph unicode="\" horiz-adv-x="370" d="M41 742h26q16 0 22 -15l264 -779q4 -11 -2 -20t-18 -9h-30q-16 0 -20 15l-262 780q-4 10 2.5 19t17.5 9z" />
<glyph unicode="]" horiz-adv-x="370" d="M55 -177v21q0 9 6.5 15.5t15.5 6.5h116v810h-116q-9 0 -15.5 6.5t-6.5 16.5v21q0 10 6.5 16t15.5 6h175q10 0 16.5 -6t6.5 -16v-897q0 -10 -6.5 -16.5t-16.5 -6.5h-175q-9 0 -15.5 6.5t-6.5 16.5z" />
<glyph unicode="^" d="M356 715l202 -343q7 -13 0.5 -24t-21.5 -11h-34q-5 0 -12 4t-8 8l-165 290l-166 -289q-8 -13 -20 -13h-36q-14 0 -20.5 11t0.5 23l203 344q1 4 8 7.5t12 3.5h37q13 0 20 -11z" />
<glyph unicode="_" horiz-adv-x="586" d="M591 -123v-51h-596v51h596z" />
<glyph unicode="`" horiz-adv-x="500" d="M241 757l53 -112q5 -12 -0.5 -21.5t-19.5 -9.5h-20q-10 0 -18 8l-85 111q-7 11 -1.5 23.5t19.5 12.5h52q14 0 20 -12z" />
<glyph unicode="a" horiz-adv-x="579" d="M400 198v53h-26q-229 0 -229 -104q0 -40 28.5 -62t80.5 -22q50 0 98 39.5t48 95.5zM116 496q70 36 175 36q81 0 137 -51t56 -155v-304q0 -9 -6 -15.5t-16 -6.5h-34q-22 0 -22 25v52h-10q-20 -36 -64.5 -62.5t-91.5 -26.5q-79 0 -129.5 43t-50.5 110q0 53 24.5 89 t69.5 53.5t93 24.5t111 7h42v29q0 53 -33 83.5t-94 30.5q-73 0 -126 -25q-21 -8 -26 5q-2 4 -8 18t-8 18q-5 14 11 22z" />
<glyph unicode="b" horiz-adv-x="640" d="M345 532q96 0 166 -70t70 -199q0 -124 -66.5 -199.5t-166.5 -75.5q-89 0 -174 59v-25q0 -9 -6.5 -15.5t-15.5 -6.5h-35q-9 0 -15.5 6.5t-6.5 15.5v698q0 10 6.5 16t15.5 6h38q10 0 16.5 -6.5t6.5 -16.5v-223l-5 -55h14q22 40 66 65.5t92 25.5zM334 63q73 0 116.5 52 t43.5 145q0 90 -43.5 143t-113.5 53q-65 0 -112 -58.5t-47 -157.5v-116q21 -18 35 -28t47.5 -21.5t73.5 -11.5z" />
<glyph unicode="c" horiz-adv-x="541" d="M479 121l21 -28q14 -15 0 -31q-82 -74 -188 -74q-116 0 -184 72t-68 201t68 200t184 71q107 0 187 -74q15 -15 1 -31l-21 -28q-11 -11 -32 -2q-72 59 -135 59q-77 0 -122 -51t-45 -144q0 -94 45 -145.5t122 -51.5q63 0 135 59q16 8 32 -2z" />
<glyph unicode="d" horiz-adv-x="640" d="M322 458q-74 0 -125.5 -53.5t-51.5 -144.5q0 -92 39 -144t111 -52q66 0 116.5 58.5t50.5 157.5v134q-22 16 -31.5 22t-39.5 14t-69 8zM285 -12q-94 0 -159.5 68t-65.5 194q0 125 73 203.5t177 78.5q85 0 152 -37v225q0 9 6.5 15.5t15.5 6.5h40q9 0 15.5 -6.5t6.5 -15.5 v-698q0 -10 -6.5 -16t-15.5 -6h-37q-22 0 -22 22v54l-12 2q-21 -39 -69.5 -64.5t-98.5 -25.5z" />
<glyph unicode="e" horiz-adv-x="608" d="M311 460q-63 0 -108 -41.5t-57 -117.5h313q0 75 -43 117t-105 42zM502 86l10 -24q7 -15 -9 -28q-81 -46 -180 -46q-122 0 -192.5 70.5t-70.5 197.5q0 128 69.5 202t183.5 74q105 0 168 -68.5t63 -203.5q0 -9 -6.5 -15.5t-15.5 -6.5h-377q0 -75 52 -126t124 -51 q87 0 153 34q17 9 28 -9z" />
<glyph unicode="f" horiz-adv-x="368" d="M403 737q17 -5 13 -27q-5 -16 -6 -26q-2 -8 -9.5 -12.5t-14.5 -3.5q-45 10 -86 10q-101 0 -101 -97v-61h149q9 0 15.5 -6.5t6.5 -15.5v-19q0 -10 -6.5 -16t-15.5 -6h-149v-435q0 -9 -6.5 -15.5t-15.5 -6.5h-39q-9 0 -15 6.5t-6 15.5v435h-65q-22 0 -22 22v19q0 9 6 15.5 t16 6.5h65v52q0 84 47.5 132t137.5 48q48 0 101 -15z" />
<glyph unicode="g" horiz-adv-x="632" d="M455 272v115q-66 70 -155 70q-72 0 -113 -48.5t-41 -134.5q0 -84 41.5 -132.5t111.5 -48.5q63 0 109.5 46.5t46.5 132.5zM517 520q9 0 15 -6.5t6 -15.5v-473q0 -107 -67 -171t-191 -64q-64 0 -158 23q-10 2 -13.5 12t1.5 23l6 21q3 15 23 13q77 -18 151 -18 q67 0 116 42.5t49 106.5v34l3 53l-12 4q-19 -38 -63 -62.5t-93 -24.5q-97 0 -163.5 69.5t-66.5 185.5q0 113 65.5 186.5t164.5 73.5q88 0 167 -63v29q0 9 6.5 15.5t16.5 6.5h37z" />
<glyph unicode="h" horiz-adv-x="615" d="M178 498l-3 -38l10 -8q20 35 62 57.5t90 22.5q89 0 137 -53t48 -149v-308q0 -9 -6 -15.5t-16 -6.5h-40q-9 0 -15.5 6.5t-6.5 15.5v293q0 140 -115 140q-60 0 -102.5 -38.5t-42.5 -89.5v-305q0 -9 -6 -15.5t-16 -6.5h-39q-9 0 -15.5 6.5t-6.5 15.5v698q0 9 6.5 15.5 t15.5 6.5h39q10 0 16 -6.5t6 -15.5v-222z" />
<glyph unicode="i" horiz-adv-x="273" d="M135 742q23 0 39.5 -16t16.5 -38q0 -23 -16.5 -39t-39.5 -16q-21 0 -37 16t-16 39q0 22 16 38t37 16zM117 520h39q10 0 16 -6.5t6 -15.5v-476q0 -9 -6 -15.5t-16 -6.5h-39q-10 0 -16 6.5t-6 15.5v476q0 9 6 15.5t16 6.5z" />
<glyph unicode="j" horiz-adv-x="272" d="M135 742q23 0 39.5 -16t16.5 -38q0 -23 -16.5 -39t-39.5 -16q-21 0 -37 16t-16 39q0 22 16 38t37 16zM-8 -210q-50 0 -102 15q-17 5 -13 27q5 16 6 26q2 8 9.5 12t14.5 3q70 -11 87 -11q101 0 101 99v537q0 9 6.5 15.5t15.5 6.5h38q9 0 15.5 -6.5t6.5 -15.5v-528 q0 -84 -47.5 -132t-137.5 -48z" />
<glyph unicode="k" horiz-adv-x="538" d="M424 9l-180 239l-66 -63v-163q0 -9 -6.5 -15.5t-15.5 -6.5h-39q-10 0 -16 6.5t-6 15.5v698q0 22 22 22h39q9 0 15.5 -6t6.5 -16v-386q0 -23 -3 -47l11 -9q15 24 30 39l188 191q12 12 23 12h43q15 0 20.5 -13t-5.5 -24q-93 -95 -181 -181q39 -52 113.5 -149.5t89.5 -117.5 q9 -11 3.5 -23t-20.5 -12h-46q-4 0 -11.5 3t-8.5 6z" />
<glyph unicode="l" horiz-adv-x="273" d="M117 742h39q22 0 22 -22v-698q0 -9 -6 -15.5t-16 -6.5h-39q-10 0 -16 6.5t-6 15.5v698q0 22 22 22z" />
<glyph unicode="m" horiz-adv-x="924" d="M175 498v-38l10 -8q20 35 61.5 57.5t89.5 22.5q101 0 147 -94q42 53 80.5 73.5t89.5 20.5q83 0 130 -50t47 -138v-322q0 -9 -6.5 -15.5t-15.5 -6.5h-40q-9 0 -15.5 6.5t-6.5 15.5v295q0 69 -24.5 103.5t-82.5 34.5q-56 0 -95 -38.5t-39 -88.5v-306q0 -9 -6.5 -15.5 t-15.5 -6.5h-40q-9 0 -15.5 6.5t-6.5 15.5v297q0 68 -24.5 102t-81.5 34t-97 -38.5t-40 -88.5v-306q0 -9 -6 -15.5t-15 -6.5h-40q-9 0 -15.5 6.5t-6.5 15.5v476q0 9 6.5 15.5t15.5 6.5h37q9 0 15 -6.5t6 -15.5z" />
<glyph unicode="n" horiz-adv-x="617" d="M175 498v-38l10 -8q20 35 62 57.5t90 22.5q89 0 137 -53t48 -149v-308q0 -9 -6 -15.5t-16 -6.5h-40q-9 0 -15.5 6.5t-6.5 15.5v293q0 140 -115 140q-60 0 -102.5 -38.5t-42.5 -89.5v-305q0 -9 -6 -15.5t-16 -6.5h-39q-9 0 -15.5 6.5t-6.5 15.5v476q0 9 6.5 15.5t15.5 6.5 h36q10 0 16 -6.5t6 -15.5z" />
<glyph unicode="o" horiz-adv-x="636" d="M318 60q75 0 124 55t49 145q0 89 -49 144t-124 55t-124 -55t-49 -145t49 -144.5t124 -54.5zM318 532q111 0 185 -77t74 -194q0 -120 -74 -196.5t-185 -76.5q-113 0 -185.5 75.5t-72.5 195.5q0 118 73 195.5t185 77.5z" />
<glyph unicode="p" horiz-adv-x="640" d="M345 532q96 0 166 -70t70 -199q0 -124 -66.5 -199.5t-166.5 -75.5q-38 0 -71.5 9.5t-52.5 20.5t-46 29v-225q0 -9 -6.5 -15.5t-15.5 -6.5h-35q-9 0 -17.5 6.5t-8.5 15.5v676q0 10 6.5 16t15.5 6h33q10 0 16.5 -7t6.5 -17v-55h14q22 40 66 65.5t92 25.5zM334 63 q73 0 116.5 52t43.5 145q0 90 -43.5 143t-113.5 53q-65 0 -112 -58.5t-47 -157.5v-116q21 -18 35 -28t47.5 -21.5t73.5 -11.5z" />
<glyph unicode="q" horiz-adv-x="640" d="M296 -12q-96 0 -166 69.5t-70 199.5q0 124 66 199.5t167 75.5q88 0 173 -59v25q0 9 6.5 15.5t15.5 6.5h36q9 0 15.5 -6.5t6.5 -15.5v-676q0 -10 -6.5 -16t-15.5 -6h-39q-10 0 -16.5 6.5t-6.5 16.5v201l5 55h-14q-22 -40 -65.5 -65.5t-91.5 -25.5zM307 457q-73 0 -117 -52 t-44 -145q0 -91 43.5 -143.5t114.5 -52.5q65 0 111.5 58.5t46.5 157.5v115q-20 18 -34.5 28.5t-48 22t-72.5 11.5z" />
<glyph unicode="r" horiz-adv-x="424" d="M345 532q38 0 57 -12q21 -8 16 -28l-5 -35q-2 -10 -9.5 -15t-14.5 -2q-29 12 -52 12q-65 0 -112 -58.5t-47 -157.5v-214q0 -9 -6.5 -15.5t-15.5 -6.5h-39q-9 0 -15.5 6.5t-6.5 15.5v476q0 10 6.5 16t15.5 6h33q10 0 16.5 -6.5t6.5 -16.5v-56h14q22 40 66 65.5t92 25.5z " />
<glyph unicode="s" horiz-adv-x="504" d="M423 469l-12 -25q-9 -16 -26 -10q-53 25 -129 25q-49 0 -76.5 -20t-27.5 -53q0 -35 28 -51t96 -33q38 -9 64 -19t52 -27.5t39 -44.5t13 -63q0 -69 -55.5 -114.5t-143.5 -45.5q-102 0 -176 39q-15 10 -6 28l13 28q7 14 26 8q69 -31 144 -31q54 0 84 22.5t30 58.5 q0 38 -29 54.5t-105 33.5q-158 35 -158 148q0 66 52 110.5t136 44.5q86 0 161 -33q15 -8 6 -30z" />
<glyph unicode="t" horiz-adv-x="413" d="M283 -12q-82 0 -124.5 44t-42.5 122v303h-64q-10 0 -16 6.5t-6 15.5v19q0 22 22 22h64v123q0 9 6 15.5t15 6.5h40q9 0 15.5 -6.5t6.5 -15.5v-123h152q9 0 15.5 -6t6.5 -16v-19q0 -9 -6.5 -15.5t-15.5 -6.5h-152v-299q0 -93 83 -93q42 0 68 10q7 2 14.5 -2t10.5 -11l8 -27 q4 -20 -9 -27q-40 -20 -91 -20z" />
<glyph unicode="u" horiz-adv-x="617" d="M441 22v38l-10 8q-20 -35 -61.5 -57.5t-89.5 -22.5q-89 0 -137 52.5t-48 149.5v308q0 9 6 15.5t16 6.5h39q9 0 15.5 -6.5t6.5 -15.5v-293q0 -140 116 -140q59 0 101.5 38t42.5 90v305q0 9 6 15.5t16 6.5h40q9 0 15.5 -6.5t6.5 -15.5v-476q0 -9 -6.5 -15.5t-15.5 -6.5h-37 q-10 0 -16 6.5t-6 15.5z" />
<glyph unicode="v" horiz-adv-x="546" d="M483 520q12 0 18.5 -9.5t1.5 -20.5l-184 -476q-6 -14 -20 -14h-52q-14 0 -20 14l-184 476q-5 11 1.5 20.5t18.5 9.5h39q14 0 20 -14q72 -191 116 -307q12 -30 27 -86h15q25 79 28 86l116 307q6 14 20 14h39z" />
<glyph unicode="w" horiz-adv-x="784" d="M711 520q10 0 17 -8.5t5 -19.5l-114 -476q-6 -16 -21 -16h-51q-17 0 -21 15q-65 184 -101 293q-5 15 -10 29.5t-8.5 25t-6 19t-4.5 13.5l-1 5h-8q0 -1 -1.5 -5.5t-4 -12.5t-5.5 -18.5t-7.5 -25.5t-9.5 -30l-101 -292q-9 -16 -22 -16h-51q-16 0 -20 16l-114 476 q-3 11 3.5 19.5t18.5 8.5h36q13 0 19 -16q40 -171 65 -282q9 -42 20 -109h12q14 61 30 108l91 261q4 18 22 18h48q16 0 22 -17l90 -261q23 -83 30 -109h12q12 71 20 109l65 282q4 16 20 16h36z" />
<glyph unicode="x" horiz-adv-x="524" d="M463 0h-49q-4 0 -11 4.5t-9 8.5q-10 15 -43.5 63.5t-49.5 71.5q-9 12 -33 52h-14q-14 -28 -32 -54l-98 -134q-2 -4 -8.5 -8t-10.5 -4h-43q-15 0 -20 11.5t3 23.5l168 231l-160 219q-8 11 -2.5 23t19.5 12h49q4 0 11 -5t9 -9q45 -64 81 -115q23 -33 38 -63h13q10 23 39 63 l82 118q14 11 19 11h44q14 0 19.5 -11.5t-2.5 -22.5l-162 -219l171 -232q6 -11 0.5 -23t-18.5 -12z" />
<glyph unicode="y" horiz-adv-x="548" d="M216 -200h-36q-12 0 -18 9t-2 21q23 58 73 179q-20 50 -85.5 218t-105.5 263q-4 11 2 20.5t18 9.5h44q5 0 11.5 -4.5t7.5 -9.5q63 -166 106 -280q25 -68 38 -113h14q33 106 36 114q48 131 108 279q6 14 20 14h38q13 0 19 -9t2 -21q-34 -82 -270 -675q-6 -15 -20 -15z" />
<glyph unicode="z" horiz-adv-x="532" d="M59 472v26q0 9 6 15.5t15 6.5h371q10 0 16 -6.5t6 -15.5v-25q0 -15 -16 -33l-306 -370h309q10 0 16 -6.5t6 -15.5v-26q0 -9 -6 -15.5t-16 -6.5h-388q-10 0 -16 6.5t-6 15.5v25q0 15 10 29q11 13 61 75t111 136.5t136 162.5h-288q-9 0 -15 6.5t-6 15.5z" />
<glyph unicode="{" horiz-adv-x="437" d="M382 721v-21q0 -10 -6.5 -16.5t-15.5 -6.5h-11q-62 0 -85 -26t-23 -92v-76q0 -142 -112 -204v-15q112 -62 112 -205v-75q0 -66 23 -92t85 -26h11q9 0 15.5 -6.5t6.5 -15.5v-21q0 -10 -6.5 -16.5t-15.5 -6.5h-25q-174 0 -174 176v75q0 173 -127 185q-8 1 -13.5 7.5 t-5.5 14.5v27q0 8 6 15t13 7q127 12 127 183v77q0 175 174 175h25q9 0 15.5 -6t6.5 -15z" />
<glyph unicode="|" horiz-adv-x="285" d="M174 721v-898q0 -10 -6.5 -16.5t-15.5 -6.5h-20q-8 0 -14.5 6.5t-6.5 16.5v898q0 9 6.5 15t14.5 6h20q9 0 15.5 -6t6.5 -15z" />
<glyph unicode="}" horiz-adv-x="437" d="M54 700v21q0 9 6.5 15t15.5 6h25q174 0 174 -175v-77q0 -171 127 -183q7 0 13 -7t6 -15v-27q0 -8 -5.5 -14.5t-13.5 -7.5q-127 -12 -127 -185v-75q0 -176 -174 -176h-25q-9 0 -15.5 6.5t-6.5 16.5v21q0 9 6.5 15.5t15.5 6.5h11q62 0 85 26t23 92v75q0 143 112 205v15 q-112 62 -112 204v76q0 66 -23 92t-85 26h-11q-9 0 -15.5 6.5t-6.5 16.5z" />
<glyph unicode="~" horiz-adv-x="712" d="M488 235q-39 0 -89.5 30.5t-96.5 60.5t-73 30q-33 0 -58.5 -29t-32.5 -73q-2 -7 -8.5 -13t-12.5 -6h-32q-9 0 -15.5 6.5t-6.5 17.5q8 75 56 125t111 50q38 0 90 -30t99 -59.5t71 -29.5q33 0 59 28.5t33 70.5q4 20 22 20h30q9 0 15 -7.5t7 -16.5q-11 -73 -59 -124 t-109 -51z" />
<glyph unicode="&#xa1;" horiz-adv-x="319" d="M138 340h23q20 0 22 -21l13 -306v-190q0 -10 -6.5 -16.5t-15.5 -6.5h-47q-9 0 -15.5 6.5t-6.5 16.5v190l12 306q2 21 21 21zM150 423q-21 0 -38 16.5t-17 37.5q0 23 16.5 39t38.5 16t38 -15.5t16 -39.5q0 -21 -16 -37.5t-38 -16.5z" />
<glyph unicode="&#xa2;" horiz-adv-x="540" d="M288 708h40q22 0 22 -22v-62q82 -11 146 -70q15 -15 1 -31l-21 -28q-11 -11 -32 -2q-72 59 -135 59q-77 0 -122 -51t-45 -144q0 -94 45.5 -146t121.5 -52q63 0 135 59q16 10 32 -2l21 -28q14 -15 0 -31q-66 -58 -147 -70v-65q0 -9 -6 -15.5t-16 -6.5h-40q-10 0 -16 6.5 t-6 15.5v65q-98 13 -153.5 83t-55.5 187t55.5 186t153.5 81v62q0 22 22 22z" />
<glyph unicode="&#xa3;" horiz-adv-x="599" d="M534 3q-29 -9 -106 -9q-31 0 -95.5 11t-100.5 11q-75 0 -140 -16q-9 -2 -18 3t-10 15q-1 4 -4 21t-5 30q0 15 11 21q94 47 94 173q0 33 -1 50h-70q-8 0 -15 7t-7 15v21q0 9 7 15t16 6h60q-14 83 -14 133q0 89 61.5 149.5t155.5 60.5q92 0 162 -50q8 -6 9.5 -15.5 t-5.5 -17.5l-19 -23q-10 -11 -31 -2q-50 37 -114 37q-60 0 -95.5 -38t-35.5 -99q0 -48 14 -135h156q10 0 16 -6t6 -15v-21q0 -9 -6 -15.5t-16 -6.5h-149q0 -6 1 -22.5t1 -29.5q0 -88 -87 -176q52 4 76 4q32 0 99 -10t104 -10q33 0 88 12q6 1 12.5 -5t8.5 -15q0 -6 2 -16 t3 -16q1 -19 -19 -26z" />
<glyph unicode="&#xa4;" d="M486 207l46 -45q16 -16 0 -31l-18 -17q-15 -16 -31 0l-46 44q-55 -39 -124 -39q-71 0 -124 38l-44 -43q-15 -16 -31 0l-20 18q-15 15 0 32l44 45q-38 55 -38 123q0 67 39 125l-45 46q-6 6 -6 15t6 16l18 18q16 14 30 0l46 -47q55 41 125 41q66 0 123 -39l44 44 q16 16 32 0l20 -19q16 -16 0 -33l-45 -44q40 -56 40 -123q0 -70 -41 -125zM165 332q0 -62 43.5 -105t104.5 -43t104.5 43.5t43.5 104.5t-43.5 104.5t-104.5 43.5t-104.5 -43.5t-43.5 -104.5z" />
<glyph unicode="&#xa5;" horiz-adv-x="643" d="M618 708q12 0 17.5 -10.5t-1.5 -20.5l-160 -233h87q9 0 15.5 -6.5t6.5 -15.5v-30q0 -9 -6.5 -15t-15.5 -6h-138l-58 -87h196q9 0 15.5 -6t6.5 -16v-30q0 -10 -6.5 -16t-15.5 -6h-196v-188q0 -9 -6 -15.5t-16 -6.5h-41q-10 0 -16 6.5t-6 15.5v188h-198q-9 0 -15.5 6 t-6.5 16v30q0 21 22 23h198l-60 86h-138q-9 0 -15.5 6t-6.5 15v30q0 9 6.5 15.5t15.5 6.5h87l-160 233q-7 10 -1 20.5t19 10.5h39q22 0 37 -22l219 -318l219 318q15 22 38 22h39z" />
<glyph unicode="&#xa6;" horiz-adv-x="285" d="M174 721v-368q0 -9 -6.5 -15.5t-15.5 -6.5h-20q-8 0 -14.5 6.5t-6.5 15.5v368q0 9 6.5 15t14.5 6h20q9 0 15.5 -6t6.5 -15zM174 191v-368q0 -10 -6.5 -16.5t-15.5 -6.5h-20q-8 0 -14.5 6.5t-6.5 16.5v368q0 9 6.5 15t14.5 6h20q9 0 15.5 -6t6.5 -15z" />
<glyph unicode="&#xa7;" horiz-adv-x="574" d="M254 405q-98 -57 -98 -112q0 -47 38.5 -79t125.5 -77q97 55 97 112q0 47 -39 80t-124 76zM92 -142q-17 12 -2 30l26 28q13 17 30 2q57 -51 128 -51q124 0 128 74q0 40 -36 70.5t-127 73.5q-169 81 -169 190q0 98 121 165q-52 31 -78.5 64t-26.5 82q0 73 53 119.5 t152 46.5q119 0 192 -67q16 -13 2 -31l-26 -27q-15 -17 -31 -2q-58 50 -128 50q-57 0 -92.5 -18.5t-35.5 -55.5q0 -40 35.5 -70t128.5 -74q168 -82 168 -190q0 -101 -122 -164q53 -31 80 -64.5t27 -81.5q0 -74 -54 -120.5t-155 -46.5q-114 0 -188 68z" />
<glyph unicode="&#xa8;" horiz-adv-x="500" d="M156 631q-22 0 -36.5 15t-14.5 37t14.5 36.5t36.5 14.5q20 0 36 -15t16 -36t-16.5 -36.5t-35.5 -15.5zM347 631q-21 0 -36.5 15.5t-15.5 36.5t15.5 36t36.5 15t36.5 -15t15.5 -36t-15.5 -36.5t-36.5 -15.5z" />
<glyph unicode="&#xa9;" horiz-adv-x="878" d="M585 233l16 -18q13 -19 -3 -35q-63 -57 -155 -57q-101 0 -163 64t-62 167q0 102 62 166.5t163 64.5q91 0 155 -59q8 -6 8.5 -17t-5.5 -17l-16 -18q-7 -7 -17.5 -7t-17.5 6q-43 40 -107 40q-63 0 -106.5 -44.5t-43.5 -114.5q0 -71 43.5 -115.5t106.5 -44.5q62 0 107 38 q7 7 17.5 7.5t17.5 -6.5zM439 747q164 0 279.5 -115.5t115.5 -278.5t-116 -279t-279 -116t-278.5 115.5t-115.5 279.5q0 163 115.5 278.5t278.5 115.5zM439 24q137 0 233 96t96 233q0 136 -96.5 232t-232.5 96t-232 -96t-96 -232t96 -232.5t232 -96.5z" />
<glyph unicode="&#xaa;" horiz-adv-x="582" d="M358 493v34h-14q-166 0 -166 -72q0 -27 19.5 -42.5t55.5 -15.5t70.5 28t34.5 68zM146 722q54 28 135 28q63 0 107 -40t44 -121v-227q0 -9 -6.5 -16t-16.5 -7h-25q-22 0 -22 25v29q-18 -26 -51.5 -44.5t-67.5 -18.5q-62 0 -101.5 33.5t-39.5 87.5q0 42 18.5 70t53.5 41.5 t72 19t85 5.5h27v16q0 36 -23.5 57.5t-66.5 21.5q-54 0 -97 -20q-15 -5 -23 8q-7 12 -14 31q-4 13 12 21z" />
<glyph unicode="&#xab;" horiz-adv-x="565" d="M295 109q6 -7 6 -16t-6 -15l-14 -14q-7 -7 -16 -7t-15 7l-208 208q-7 6 -7 15t7 16l208 208q6 6 15 6t16 -6l14 -14q6 -8 6 -16q0 -10 -6 -16l-173 -178zM530 109q6 -7 6 -16t-6 -15l-14 -14q-7 -7 -16 -7t-15 7l-208 208q-7 6 -7 15t7 16l208 208q6 6 15 6t16 -6l14 -14 q6 -8 6 -16q0 -10 -6 -16l-173 -178z" />
<glyph unicode="&#xac;" d="M583 412v-272q0 -10 -6.5 -16t-15.5 -6h-34q-22 0 -22 22v220h-438q-9 0 -15.5 6t-6.5 15v31q0 9 6 15.5t16 6.5h494q9 0 15.5 -6.5t6.5 -15.5z" />
<glyph unicode="&#xad;" horiz-adv-x="385" d="M337 300v-24q0 -10 -6.5 -16t-16.5 -6h-238q-10 0 -16.5 6t-6.5 16v24q0 10 6.5 16t16.5 6h238q10 0 16.5 -6t6.5 -16z" />
<glyph unicode="&#xae;" horiz-adv-x="878" d="M629 165q9 -11 3.5 -23.5t-20.5 -12.5h-30q-18 0 -33 17q-104 129 -113 139h-90v-132q0 -9 -7 -16.5t-18 -7.5h-24q-11 0 -18.5 7.5t-7.5 16.5v402q0 9 7.5 16.5t18.5 7.5h150q77 0 123.5 -40.5t46.5 -107.5q0 -47 -25 -82.5t-70 -53.5zM346 357h111q39 0 61.5 19.5 t22.5 54.5t-22.5 55.5t-61.5 20.5h-111v-150zM439 747q164 0 279.5 -115.5t115.5 -278.5t-116 -279t-279 -116t-278.5 115.5t-115.5 279.5q0 163 115.5 278.5t278.5 115.5zM439 24q137 0 233 96t96 233q0 136 -96.5 232t-232.5 96t-232 -96t-96 -232t96 -232.5t232 -96.5z " />
<glyph unicode="&#xaf;" horiz-adv-x="500" d="M422 731v-24q0 -10 -6.5 -16.5t-16.5 -6.5h-293q-10 0 -16.5 6.5t-6.5 16.5v24q0 9 6.5 15.5t16.5 6.5h293q10 0 16.5 -6.5t6.5 -15.5z" />
<glyph unicode="&#xb0;" horiz-adv-x="479" d="M75 573q0 67 47.5 114.5t114.5 47.5t114.5 -47.5t47.5 -114.5q0 -68 -47.5 -115.5t-114.5 -47.5t-114.5 47.5t-47.5 115.5zM134 573q0 -43 30 -73t73 -30t73 30t30 73q0 42 -30 72t-73 30t-73 -30t-30 -72z" />
<glyph unicode="&#xb1;" d="M330 124h-31q-10 0 -16.5 7t-6.5 16v201h-210q-9 0 -15.5 6.5t-6.5 15.5v29q0 9 6.5 15.5t15.5 6.5h210v196q0 8 6.5 14.5t16.5 6.5h31q10 0 16.5 -6.5t6.5 -14.5v-196h208q10 0 16 -6.5t6 -15.5v-29q0 -9 -6 -15.5t-16 -6.5h-208v-201q0 -9 -6.5 -16t-16.5 -7zM45 22v30 q0 9 6.5 15.5t15.5 6.5h494q10 0 16 -6.5t6 -15.5v-30q0 -9 -6 -15.5t-16 -6.5h-494q-9 0 -15.5 6.5t-6.5 15.5z" />
<glyph unicode="&#xb2;" horiz-adv-x="293" d="M235 514l-115 -114h128q9 0 15.5 -6.5t6.5 -15.5v-17q0 -22 -22 -22h-206q-22 0 -22 22v17q0 15 19 32l153 153q13 13 13 39q0 24 -17 40t-43 16q-20 0 -37 -11t-22 -28q-4 -10 -12.5 -16t-16.5 -4q-3 1 -7 2t-7 2q-25 9 -20 27q9 38 42 64t80 26q53 0 89 -33.5t36 -83.5 q0 -51 -35 -89z" />
<glyph unicode="&#xb3;" horiz-adv-x="282" d="M77 426q18 -32 56 -32q26 0 44 17t18 44q0 26 -17.5 42t-44.5 16h-17q-22 0 -22 22v18q0 22 22 22h13q21 0 35 12.5t14 31.5q0 17 -13 28t-32 11q-26 0 -43 -25q-10 -19 -31 -9l-17 9q-17 10 -8 29q29 58 99 58q46 0 78 -29t32 -71q0 -41 -30 -71q47 -34 47 -97 q0 -51 -37 -85t-90 -34q-46 0 -74 20.5t-39 43.5q-9 19 8 29l19 10q20 10 30 -10z" />
<glyph unicode="&#xb4;" horiz-adv-x="500" d="M211 645l53 112q4 12 20 12h52q14 0 19.5 -12.5t-1.5 -23.5l-85 -111q-8 -8 -18 -8h-20q-14 0 -19.5 9.5t-0.5 21.5z" />
<glyph unicode="&#xb5;" horiz-adv-x="612" d="M91 -177v687q0 9 6.5 15.5t15.5 6.5h39q9 0 15.5 -6.5t6.5 -15.5v-313q0 -69 27 -101.5t89 -32.5q61 0 105.5 39t44.5 92v316q0 9 6.5 15.5t15.5 6.5h40q9 0 15.5 -6.5t6.5 -15.5v-488q0 -9 -6.5 -15.5t-15.5 -6.5h-40q-9 0 -15.5 6.5t-6.5 15.5v44q-57 -78 -165 -78 q-40 0 -101 21v-186q0 -10 -6.5 -16.5t-15.5 -6.5h-39q-9 0 -15.5 6.5t-6.5 16.5z" />
<glyph unicode="&#xb6;" horiz-adv-x="602" d="M550 685v-25q0 -9 -6.5 -15t-16.5 -6h-13v-816q0 -10 -6.5 -16.5t-15.5 -6.5h-29q-9 0 -15.5 6.5t-6.5 16.5v816h-112v-816q0 -10 -7 -16.5t-16 -6.5h-26q-10 0 -16.5 6.5t-6.5 16.5v467q-95 0 -154 60t-59 149q0 98 61.5 153.5t175.5 55.5h246q10 0 16.5 -6.5t6.5 -16.5 z" />
<glyph unicode="&#xb7;" horiz-adv-x="338" d="M185 272q-25 0 -44 19.5t-19 45.5t19 45t44 19q28 0 47.5 -19t19.5 -45t-19.5 -45.5t-47.5 -19.5z" />
<glyph unicode="&#xb8;" horiz-adv-x="500" d="M332 -5l-2 -42q36 -22 36 -58q0 -44 -42.5 -74.5t-103.5 -30.5q-44 0 -68 6q-13 3 -13 20v18q0 9 7 15.5t16 6.5q3 0 9 -2q18 -3 34 -3q40 0 61 14t21 37q0 12 -13.5 25t-12.5 24l7 50q6 18 22 18h20q11 0 17 -7t5 -17z" />
<glyph unicode="&#xb9;" horiz-adv-x="253" d="M146 708h20q22 0 22 -22v-331q0 -22 -22 -22h-20q-22 0 -22 22v262q-34 -32 -62 -56q-6 -7 -14.5 -6.5t-15.5 8.5l-12 14q-12 16 1 29l107 93q7 9 18 9z" />
<glyph unicode="&#xba;" horiz-adv-x="634" d="M317 395q54 0 89 40t35 105q0 64 -35 103.5t-89 39.5t-89 -40t-35 -104t35 -104t89 -40zM317 750q85 0 142.5 -60t57.5 -149q0 -93 -57 -152t-143 -59q-87 0 -143 58t-56 151q0 91 56.5 151t142.5 60z" />
<glyph unicode="&#xbb;" horiz-adv-x="566" d="M276 109l173 178l-173 178q-6 6 -6 16q0 9 6 16l14 14q6 6 16 6q9 0 15 -6l208 -208q7 -9 7 -16q0 -8 -7 -15l-208 -208q-6 -7 -15 -7q-10 0 -16 7l-14 14q-6 6 -6 15t6 16zM41 109l173 178l-173 178q-6 6 -6 16q0 9 6 16l14 14q6 6 16 6q9 0 15 -6l208 -208q7 -9 7 -16 q0 -8 -7 -15l-208 -208q-6 -7 -15 -7q-10 0 -16 7l-14 14q-6 6 -6 15t6 16z" />
<glyph unicode="&#xbc;" horiz-adv-x="697" d="M530 362q13 13 25 13h18q22 0 22 -21v-207h31q22 0 22 -22v-17q0 -9 -6.5 -15.5t-15.5 -6.5h-31v-64q0 -22 -22 -22h-20q-22 0 -22 22v64h-159q-22 0 -22 22v15q0 8 5 20zM418 136h118v149zM532 708h19q10 0 15 -8.5t0 -18.5l-388 -659q-13 -22 -34 -22h-20q-9 0 -13.5 9 t0.5 18l387 659q12 22 34 22zM156 708h20q22 0 22 -22v-331q0 -22 -22 -22h-20q-22 0 -22 22v262l-62 -56q-6 -7 -14.5 -6.5t-15.5 8.5l-12 14q-12 16 1 29l107 93q7 9 18 9z" />
<glyph unicode="&#xbd;" horiz-adv-x="747" d="M156 708h20q22 0 22 -22v-331q0 -22 -22 -22h-20q-22 0 -22 22v262q-34 -32 -62 -56q-6 -7 -14.5 -6.5t-15.5 8.5l-12 14q-12 16 1 29l107 93q7 9 18 9zM672 175l-115 -113h128q9 0 15.5 -6.5t6.5 -15.5v-18q0 -22 -22 -22h-206q-22 0 -22 22v17q0 16 19 33l153 152 q13 13 13 39q0 25 -16.5 41t-42.5 16q-21 0 -38 -11.5t-22 -28.5q-4 -10 -12.5 -16t-16.5 -4q-3 0 -7 2t-7 2q-25 9 -20 28q9 38 42 63.5t81 25.5q53 0 88.5 -33.5t35.5 -83.5q0 -51 -35 -89zM532 708h19q10 0 15 -8.5t0 -18.5l-388 -659q-13 -22 -34 -22h-20q-9 0 -13.5 9 t0.5 18l387 659q12 22 34 22z" />
<glyph unicode="&#xbe;" horiz-adv-x="720" d="M561 708h19q10 0 15 -8.5t0 -18.5l-388 -659q-13 -22 -34 -22h-20q-10 0 -14.5 9t0.5 18l388 659q12 22 34 22zM90 426q18 -32 56 -32q26 0 44 17t18 44q0 26 -17.5 42t-44.5 16h-18q-21 0 -21 22v18q0 22 21 22h14q21 0 35 12.5t14 31.5q0 17 -13 28t-32 11 q-26 0 -43 -25q-10 -19 -31 -9l-17 9q-17 10 -8 29q29 58 99 58q46 0 78 -29t32 -71q0 -41 -30 -71q47 -34 47 -97q0 -51 -37 -85t-90 -34q-46 0 -74 20.5t-39 43.5q-9 19 8 29l19 10q20 10 30 -10zM562 362q13 13 25 13h18q21 0 21 -21v-207h32q22 0 22 -22v-17 q0 -9 -6.5 -15.5t-15.5 -6.5h-32v-64q0 -22 -21 -22h-20q-22 0 -22 22v64h-160q-22 0 -22 22v15q0 8 5 20zM450 136h118v149z" />
<glyph unicode="&#xbf;" horiz-adv-x="560" d="M282 -210q-103 0 -165 53.5t-62 135.5q0 63 48 121t147 124v94q0 10 6.5 16t15.5 6h43q22 0 22 -22v-121q0 -13 -12 -19q-8 -5 -32 -20.5t-35.5 -24t-32.5 -24t-32.5 -27.5t-24 -28t-18 -33t-5.5 -35q0 -51 39.5 -83.5t100.5 -32.5q84 0 158 50q17 11 29 -2l25 -37 q9 -15 -7 -27q-89 -64 -208 -64zM294 423q-21 0 -38.5 16.5t-17.5 37.5q0 23 17 39t39 16q23 0 39 -15.5t16 -39.5q0 -21 -16.5 -37.5t-38.5 -16.5z" />
<glyph unicode="&#xc0;" horiz-adv-x="730" d="M708 24q4 -8 -2.5 -16t-17.5 -8h-44q-18 0 -28 21l-67 160h-369l-66 -160q-10 -21 -29 -21h-44q-11 0 -17 8.5t-2 16.5l295 667q7 16 26 16h43q19 0 26 -16zM214 257h301q-24 52 -53 122t-58.5 144t-38.5 95q-5 -13 -62 -152t-89 -209zM358 945l53 -112q5 -12 -0.5 -21.5 t-19.5 -9.5h-20q-10 0 -18 8l-85 111q-7 11 -1.5 23.5t19.5 12.5h52q14 0 20 -12z" />
<glyph unicode="&#xc1;" horiz-adv-x="730" d="M708 24q4 -8 -2.5 -16t-17.5 -8h-44q-18 0 -28 21l-67 160h-369l-66 -160q-10 -21 -29 -21h-44q-11 0 -17 8.5t-2 16.5l295 667q7 16 26 16h43q19 0 26 -16zM214 257h301q-24 52 -53 122t-58.5 144t-38.5 95q-5 -13 -62 -152t-89 -209zM334 833l53 112q4 12 20 12h52 q14 0 19.5 -12.5t-1.5 -23.5l-85 -111q-8 -8 -18 -8h-20q-14 0 -19.5 9.5t-0.5 21.5z" />
<glyph unicode="&#xc2;" horiz-adv-x="730" d="M708 24q4 -8 -2.5 -16t-17.5 -8h-44q-18 0 -28 21l-67 160h-369l-66 -160q-10 -21 -29 -21h-44q-11 0 -17 8.5t-2 16.5l295 667q7 16 26 16h43q19 0 26 -16zM214 257h301q-24 52 -53 122t-58.5 144t-38.5 95q-5 -13 -62 -152t-89 -209zM281 801h-28q-14 0 -19.5 11 t1.5 22l72 110q2 4 9.5 8.5t11.5 4.5h78q12 0 21 -13q11 -18 36 -55t36 -56q6 -11 0.5 -21.5t-18.5 -10.5h-29q-10 0 -19 9l-68 97l-66 -97q-9 -9 -18 -9z" />
<glyph unicode="&#xc3;" horiz-adv-x="730" d="M708 24q4 -8 -2.5 -16t-17.5 -8h-44q-18 0 -28 21l-67 160h-369l-66 -160q-10 -21 -29 -21h-44q-11 0 -17 8.5t-2 16.5l295 667q7 16 26 16h43q19 0 26 -16zM214 257h301q-24 52 -53 122t-58.5 144t-38.5 95q-5 -13 -62 -152t-89 -209zM507 937h16q9 0 15.5 -8t6.5 -18 q-10 -48 -38 -74t-68 -26t-85 32q-41 31 -64 31q-37 0 -45 -47q-6 -17 -21 -17h-15q-9 0 -15.5 7.5t-6.5 17.5q10 47 38.5 73t67.5 26q34 0 86 -31q37 -28 62 -28q34 0 46 45q7 17 20 17z" />
<glyph unicode="&#xc4;" horiz-adv-x="730" d="M708 24q4 -8 -2.5 -16t-17.5 -8h-44q-18 0 -28 21l-67 160h-369l-66 -160q-10 -21 -29 -21h-44q-11 0 -17 8.5t-2 16.5l295 667q7 16 26 16h43q19 0 26 -16zM214 257h301q-24 52 -53 122t-58.5 144t-38.5 95q-5 -13 -62 -152t-89 -209zM270 819q-22 0 -36.5 15t-14.5 37 t14.5 36.5t36.5 14.5q20 0 36 -15t16 -36t-16.5 -36.5t-35.5 -15.5zM461 819q-21 0 -36.5 15.5t-15.5 36.5t15.5 36t36.5 15t36.5 -15t15.5 -36t-15.5 -36.5t-36.5 -15.5z" />
<glyph unicode="&#xc5;" horiz-adv-x="730" d="M239 802q0 51 37.5 87t89.5 36t89.5 -36.5t37.5 -88.5q0 -38 -21.5 -69t-55.5 -46l287 -647q7 -17 7 -19q0 -19 -21 -19h-44q-19 0 -28 21l-67 160h-369l-67 -160q-9 -21 -28 -21h-44q-22 0 -22 19q0 2 1.5 5.5t3.5 7.5l3 6l287 646q-34 15 -55 46.5t-21 71.5zM215 257 h301q-24 52 -53 122t-58.5 144t-38.5 95q-5 -13 -62 -152t-89 -209zM287 802q0 -35 23.5 -58.5t57.5 -23.5q32 0 55 24t23 58q0 33 -23 56t-55 23q-34 0 -57.5 -23t-23.5 -56z" />
<glyph unicode="&#xc6;" horiz-adv-x="1161" d="M1065 628h-396v-226h348q9 0 15.5 -6.5t6.5 -15.5v-35q0 -9 -6.5 -15.5t-15.5 -6.5h-348v-243h396q9 0 15.5 -6.5t6.5 -15.5v-36q0 -9 -6.5 -15.5t-15.5 -6.5h-458q-10 0 -16 6.5t-6 15.5v152h-317l-134 -165q-17 -22 -35 -22h-65q-12 0 -14.5 8.5t3.5 15.5l562 682 q11 15 30 15h450q9 0 15.5 -6.5t6.5 -15.5v-36q0 -9 -6.5 -15.5t-15.5 -6.5zM332 254h253v319q-20 -24 -110 -139t-143 -180z" />
<glyph unicode="&#xc7;" horiz-adv-x="738" d="M647 139l26 -27q13 -15 -4 -32q-89 -82 -220 -91l-1 -33q36 -22 36 -58q0 -44 -42.5 -74.5t-102.5 -30.5q-44 0 -68 6q-13 3 -13 20v18q0 9 7 15.5t16 6.5q3 0 9 -2q18 -3 34 -3q40 0 60.5 14t20.5 37q0 11 -13.5 24.5t-12.5 24.5l5 36q-143 13 -228.5 113t-85.5 252 q0 162 97.5 263.5t257.5 101.5q145 0 244 -93q7 -6 8 -15t-4 -15l-26 -28q-5 -7 -14.5 -6.5t-15.5 6.5q-35 32 -87.5 51.5t-104.5 19.5q-114 0 -192 -79.5t-78 -205.5q0 -127 78 -207t192 -80q52 0 104.5 19t87.5 51q6 6 15.5 6.5t14.5 -5.5z" />
<glyph unicode="&#xc8;" horiz-adv-x="681" d="M585 0h-459q-9 0 -15 6.5t-6 15.5v664q0 9 6 15.5t15 6.5h459q9 0 15.5 -6.5t6.5 -15.5v-36q0 -9 -6.5 -15.5t-15.5 -6.5h-396v-226h348q9 0 15.5 -6.5t6.5 -15.5v-35q0 -9 -6.5 -15.5t-15.5 -6.5h-348v-243h396q9 0 15.5 -6.5t6.5 -15.5v-36q0 -9 -6.5 -15.5t-15.5 -6.5 zM362 945l53 -112q5 -12 -0.5 -21.5t-19.5 -9.5h-20q-10 0 -18 8l-85 111q-7 11 -1.5 23.5t19.5 12.5h52q14 0 20 -12z" />
<glyph unicode="&#xc9;" horiz-adv-x="681" d="M585 0h-459q-9 0 -15 6.5t-6 15.5v664q0 9 6 15.5t15 6.5h459q9 0 15.5 -6.5t6.5 -15.5v-36q0 -9 -6.5 -15.5t-15.5 -6.5h-396v-226h348q9 0 15.5 -6.5t6.5 -15.5v-35q0 -9 -6.5 -15.5t-15.5 -6.5h-348v-243h396q9 0 15.5 -6.5t6.5 -15.5v-36q0 -9 -6.5 -15.5t-15.5 -6.5 zM270 833l53 112q4 12 20 12h52q14 0 19.5 -12.5t-1.5 -23.5l-85 -111q-8 -8 -18 -8h-20q-14 0 -19.5 9.5t-0.5 21.5z" />
<glyph unicode="&#xca;" horiz-adv-x="681" d="M585 0h-459q-9 0 -15 6.5t-6 15.5v664q0 9 6 15.5t15 6.5h459q9 0 15.5 -6.5t6.5 -15.5v-36q0 -9 -6.5 -15.5t-15.5 -6.5h-396v-226h348q9 0 15.5 -6.5t6.5 -15.5v-35q0 -9 -6.5 -15.5t-15.5 -6.5h-348v-243h396q9 0 15.5 -6.5t6.5 -15.5v-36q0 -9 -6.5 -15.5t-15.5 -6.5 zM258 801h-28q-14 0 -19.5 11t1.5 22l72 110q2 4 9.5 8.5t11.5 4.5h78q12 0 21 -13q11 -18 36 -55t36 -56q6 -11 0.5 -21.5t-18.5 -10.5h-29q-10 0 -19 9l-68 97l-66 -97q-9 -9 -18 -9z" />
<glyph unicode="&#xcb;" horiz-adv-x="681" d="M585 0h-459q-9 0 -15 6.5t-6 15.5v664q0 9 6 15.5t15 6.5h459q9 0 15.5 -6.5t6.5 -15.5v-36q0 -9 -6.5 -15.5t-15.5 -6.5h-396v-226h348q9 0 15.5 -6.5t6.5 -15.5v-35q0 -9 -6.5 -15.5t-15.5 -6.5h-348v-243h396q9 0 15.5 -6.5t6.5 -15.5v-36q0 -9 -6.5 -15.5t-15.5 -6.5 zM246 819q-22 0 -36.5 15t-14.5 37t14.5 36.5t36.5 14.5q20 0 36 -15t16 -36t-16.5 -36.5t-35.5 -15.5zM437 819q-21 0 -36.5 15.5t-15.5 36.5t15.5 36t36.5 15t36.5 -15t15.5 -36t-15.5 -36.5t-36.5 -15.5z" />
<glyph unicode="&#xcc;" horiz-adv-x="282" d="M120 708h41q22 0 22 -22v-664q0 -9 -6 -15.5t-16 -6.5h-41q-9 0 -15 6.5t-6 15.5v664q0 10 6 16t15 6zM136 945l53 -112q5 -12 -0.5 -21.5t-19.5 -9.5h-20q-10 0 -18 8l-85 111q-7 11 -1.5 23.5t19.5 12.5h52q14 0 20 -12z" />
<glyph unicode="&#xcd;" horiz-adv-x="282" d="M120 708h41q22 0 22 -22v-664q0 -9 -6 -15.5t-16 -6.5h-41q-9 0 -15 6.5t-6 15.5v664q0 10 6 16t15 6zM93 833l53 112q4 12 20 12h52q14 0 19.5 -12.5t-1.5 -23.5l-85 -111q-8 -8 -18 -8h-20q-14 0 -19.5 9.5t-0.5 21.5z" />
<glyph unicode="&#xce;" horiz-adv-x="282" d="M120 708h41q22 0 22 -22v-664q0 -9 -6 -15.5t-16 -6.5h-41q-9 0 -15 6.5t-6 15.5v664q0 10 6 16t15 6zM56 801h-28q-14 0 -19.5 11t1.5 22l72 110q2 4 9.5 8.5t11.5 4.5h78q12 0 21 -13q11 -18 36 -55t36 -56q6 -11 0.5 -21.5t-18.5 -10.5h-29q-10 0 -19 9l-68 97 l-66 -97q-9 -9 -18 -9z" />
<glyph unicode="&#xcf;" horiz-adv-x="282" d="M120 708h41q22 0 22 -22v-664q0 -9 -6 -15.5t-16 -6.5h-41q-9 0 -15 6.5t-6 15.5v664q0 10 6 16t15 6zM45 819q-22 0 -36.5 15t-14.5 37t14.5 36.5t36.5 14.5q20 0 36 -15t16 -36t-16.5 -36.5t-35.5 -15.5zM236 819q-21 0 -36.5 15.5t-15.5 36.5t15.5 36t36.5 15 t36.5 -15t15.5 -36t-15.5 -36.5t-36.5 -15.5z" />
<glyph unicode="&#xd0;" horiz-adv-x="802" d="M121 708h229q173 0 277.5 -92t104.5 -261t-104.5 -262t-277.5 -93h-229q-9 0 -15.5 6t-6.5 15v294h-42q-10 0 -16.5 6t-6.5 16v36q0 9 6.5 15t16.5 6h42v293q0 9 6 15t16 6zM354 373v-36q0 -10 -6.5 -16t-16.5 -6h-148v-235h186q123 0 200 74.5t77 200.5t-77 199.5 t-200 73.5h-186v-234h148q10 0 16.5 -6t6.5 -15z" />
<glyph unicode="&#xd1;" horiz-adv-x="793" d="M666 708q22 0 22 -22v-664q0 -9 -6 -15.5t-16 -6.5h-44q-23 0 -38 22l-397 557h-7q9 -84 9 -167v-390q0 -9 -6 -15.5t-16 -6.5h-41q-9 0 -15 6.5t-6 15.5v664q0 10 6 16t15 6h45q21 0 38 -22l397 -558h6q-8 104 -8 154v404q0 10 6 16t15 6h41zM537 937h16q9 0 15.5 -8 t6.5 -18q-10 -48 -38 -74t-68 -26t-85 32q-41 31 -64 31q-37 0 -45 -47q-6 -17 -21 -17h-15q-9 0 -15.5 7.5t-6.5 17.5q10 47 38.5 73t67.5 26q34 0 86 -31q37 -28 62 -28q34 0 46 45q7 17 20 17z" />
<glyph unicode="&#xd2;" horiz-adv-x="849" d="M779 352q0 -160 -104 -262t-251 -102t-250.5 102t-103.5 262q0 154 99 261t255 107t255.5 -107t99.5 -261zM424 68q114 0 190.5 80.5t76.5 203.5q0 127 -76.5 207.5t-190.5 80.5t-190.5 -80.5t-76.5 -207.5q0 -123 77 -203.5t190 -80.5zM426 945l53 -112 q5 -12 -0.5 -21.5t-19.5 -9.5h-20q-10 0 -18 8l-85 111q-7 11 -1.5 23.5t19.5 12.5h52q14 0 20 -12z" />
<glyph unicode="&#xd3;" horiz-adv-x="849" d="M779 352q0 -160 -104 -262t-251 -102t-250.5 102t-103.5 262q0 154 99 261t255 107t255.5 -107t99.5 -261zM424 68q114 0 190.5 80.5t76.5 203.5q0 127 -76.5 207.5t-190.5 80.5t-190.5 -80.5t-76.5 -207.5q0 -123 77 -203.5t190 -80.5zM384 833l53 112q4 12 20 12h52 q14 0 19.5 -12.5t-1.5 -23.5l-85 -111q-8 -8 -18 -8h-20q-14 0 -19.5 9.5t-0.5 21.5z" />
<glyph unicode="&#xd4;" horiz-adv-x="849" d="M779 352q0 -160 -104 -262t-251 -102t-250.5 102t-103.5 262q0 154 99 261t255 107t255.5 -107t99.5 -261zM424 68q114 0 190.5 80.5t76.5 203.5q0 127 -76.5 207.5t-190.5 80.5t-190.5 -80.5t-76.5 -207.5q0 -123 77 -203.5t190 -80.5zM339 801h-28q-14 0 -19.5 11 t1.5 22l72 110q2 4 9.5 8.5t11.5 4.5h78q12 0 21 -13q11 -18 36 -55t36 -56q6 -11 0.5 -21.5t-18.5 -10.5h-29q-10 0 -19 9l-68 97l-66 -97q-9 -9 -18 -9z" />
<glyph unicode="&#xd5;" horiz-adv-x="849" d="M779 352q0 -160 -104 -262t-251 -102t-250.5 102t-103.5 262q0 154 99 261t255 107t255.5 -107t99.5 -261zM424 68q114 0 190.5 80.5t76.5 203.5q0 127 -76.5 207.5t-190.5 80.5t-190.5 -80.5t-76.5 -207.5q0 -123 77 -203.5t190 -80.5zM565 937h16q9 0 15.5 -8t6.5 -18 q-10 -48 -38 -74t-68 -26t-85 32q-41 31 -64 31q-37 0 -45 -47q-6 -17 -21 -17h-15q-9 0 -15.5 7.5t-6.5 17.5q10 47 38.5 73t67.5 26q34 0 86 -31q37 -28 62 -28q34 0 46 45q7 17 20 17z" />
<glyph unicode="&#xd6;" horiz-adv-x="849" d="M779 352q0 -160 -104 -262t-251 -102t-250.5 102t-103.5 262q0 154 99 261t255 107t255.5 -107t99.5 -261zM424 68q114 0 190.5 80.5t76.5 203.5q0 127 -76.5 207.5t-190.5 80.5t-190.5 -80.5t-76.5 -207.5q0 -123 77 -203.5t190 -80.5zM328 819q-22 0 -36.5 15t-14.5 37 t14.5 36.5t36.5 14.5q20 0 36 -15t16 -36t-16.5 -36.5t-35.5 -15.5zM519 819q-21 0 -36.5 15.5t-15.5 36.5t15.5 36t36.5 15t36.5 -15t15.5 -36t-15.5 -36.5t-36.5 -15.5z" />
<glyph unicode="&#xd7;" d="M87 537l18 17q16 14 30 0l170 -170l168 169q17 16 33 0l20 -19q16 -16 -1 -33l-168 -168l168 -169q16 -16 0 -31l-18 -17q-5 -7 -14.5 -7t-16.5 7l-168 168l-170 -168q-14 -16 -30 0l-20 18q-15 15 0 32l169 170l-170 169q-14 14 0 32z" />
<glyph unicode="&#xd8;" horiz-adv-x="849" d="M635 651q68 -50 106 -129t38 -170q0 -160 -104 -262t-251 -102q-84 0 -158 36l-11 -19q-13 -22 -34 -22h-22q-10 0 -14.5 9t0.5 18l28 46q-67 49 -105 125t-38 171q0 154 99 261t255 107q85 0 159 -36l11 18q12 22 33 22h21q10 0 15 -8.5t0 -18.5zM157 352 q0 -142 98 -224l286 486q-57 26 -117 26q-114 0 -190.5 -80.5t-76.5 -207.5zM424 68q114 0 190.5 80.5t76.5 203.5q0 144 -97 228l-286 -486q54 -26 116 -26z" />
<glyph unicode="&#xd9;" horiz-adv-x="810" d="M689 708q22 0 22 -22v-380q0 -143 -85 -230.5t-221 -87.5q-137 0 -221.5 87.5t-84.5 230.5v380q0 22 22 22h40q22 0 22 -22v-369q0 -112 59.5 -180.5t162.5 -68.5t162 68.5t59 180.5v369q0 22 22 22h41zM401 945l53 -112q5 -12 -0.5 -21.5t-19.5 -9.5h-20q-10 0 -18 8 l-85 111q-7 11 -1.5 23.5t19.5 12.5h52q14 0 20 -12z" />
<glyph unicode="&#xda;" horiz-adv-x="810" d="M689 708q22 0 22 -22v-380q0 -143 -85 -230.5t-221 -87.5q-137 0 -221.5 87.5t-84.5 230.5v380q0 22 22 22h40q22 0 22 -22v-369q0 -112 59.5 -180.5t162.5 -68.5t162 68.5t59 180.5v369q0 22 22 22h41zM352 833l53 112q4 12 20 12h52q14 0 19.5 -12.5t-1.5 -23.5 l-85 -111q-8 -8 -18 -8h-20q-14 0 -19.5 9.5t-0.5 21.5z" />
<glyph unicode="&#xdb;" horiz-adv-x="810" d="M689 708q22 0 22 -22v-380q0 -143 -85 -230.5t-221 -87.5q-137 0 -221.5 87.5t-84.5 230.5v380q0 22 22 22h40q22 0 22 -22v-369q0 -112 59.5 -180.5t162.5 -68.5t162 68.5t59 180.5v369q0 22 22 22h41zM320 801h-28q-14 0 -19.5 11t1.5 22l72 110q2 4 9.5 8.5t11.5 4.5 h78q12 0 21 -13q11 -18 36 -55t36 -56q6 -11 0.5 -21.5t-18.5 -10.5h-29q-10 0 -19 9l-68 97l-66 -97q-9 -9 -18 -9z" />
<glyph unicode="&#xdc;" horiz-adv-x="810" d="M689 708q22 0 22 -22v-380q0 -143 -85 -230.5t-221 -87.5q-137 0 -221.5 87.5t-84.5 230.5v380q0 22 22 22h40q22 0 22 -22v-369q0 -112 59.5 -180.5t162.5 -68.5t162 68.5t59 180.5v369q0 22 22 22h41zM308 819q-22 0 -36.5 15t-14.5 37t14.5 36.5t36.5 14.5 q20 0 36 -15t16 -36t-16.5 -36.5t-35.5 -15.5zM499 819q-21 0 -36.5 15.5t-15.5 36.5t15.5 36t36.5 15t36.5 -15t15.5 -36t-15.5 -36.5t-36.5 -15.5z" />
<glyph unicode="&#xdd;" horiz-adv-x="643" d="M618 708q12 0 17.5 -10.5t-1.5 -20.5l-269 -392v-263q0 -9 -6 -15.5t-16 -6.5h-41q-10 0 -16 6.5t-6 15.5v263l-271 392q-7 10 -1 20.5t19 10.5h39q22 0 37 -22l219 -318l219 318q15 22 38 22h39zM282 833l53 112q4 12 20 12h52q14 0 19.5 -12.5t-1.5 -23.5l-85 -111 q-8 -8 -18 -8h-20q-14 0 -19.5 9.5t-0.5 21.5z" />
<glyph unicode="&#xde;" horiz-adv-x="677" d="M121 708h40q22 0 22 -22v-101h189q118 0 189.5 -61.5t72.5 -164.5q1 -102 -71 -163.5t-191 -61.5h-189v-114q0 -8 -6.5 -14t-15.5 -6h-40q-9 0 -15.5 6t-6.5 14v666q0 22 22 22zM388 214q74 0 117 39t43 106q0 68 -43 107t-117 39h-205v-291h205z" />
<glyph unicode="&#xdf;" horiz-adv-x="646" d="M490 198q0 52 -53.5 96.5t-140.5 49.5q-8 1 -14.5 8t-6.5 17v47q0 6 3.5 13.5t8.5 8.5q124 56 124 148q0 34 -28.5 63.5t-77.5 29.5q-128 0 -128 -180v-474q0 -10 -6.5 -17.5t-15.5 -7.5h-39q-8 0 -14.5 7.5t-6.5 17.5v474q0 120 56.5 186.5t157.5 66.5q83 0 134 -46.5 t51 -113.5q0 -47 -30 -95.5t-90 -83.5v-5q99 -32 151 -86t52 -123q0 -85 -58.5 -148t-145.5 -63q-69 0 -123 36q-15 17 -7 35l10 17q5 10 15 14t17 -1q47 -28 88 -28q51 0 84 42t33 95z" />
<glyph unicode="&#xe0;" horiz-adv-x="579" d="M400 198v53h-26q-229 0 -229 -104q0 -40 28.5 -62t80.5 -22q50 0 98 39.5t48 95.5zM116 496q70 36 175 36q81 0 137 -51t56 -155v-304q0 -9 -6 -15.5t-16 -6.5h-34q-22 0 -22 25v52h-10q-20 -36 -64.5 -62.5t-91.5 -26.5q-79 0 -129.5 43t-50.5 110q0 53 24.5 89 t69.5 53.5t93 24.5t111 7h42v29q0 53 -33 83.5t-94 30.5q-73 0 -126 -25q-21 -8 -26 5q-2 4 -8 18t-8 18q-5 14 11 22zM306 757l53 -112q5 -12 -0.5 -21.5t-19.5 -9.5h-20q-10 0 -18 8l-85 111q-7 11 -1.5 23.5t19.5 12.5h52q14 0 20 -12z" />
<glyph unicode="&#xe1;" horiz-adv-x="579" d="M400 198v53h-26q-229 0 -229 -104q0 -40 28.5 -62t80.5 -22q50 0 98 39.5t48 95.5zM116 496q70 36 175 36q81 0 137 -51t56 -155v-304q0 -9 -6 -15.5t-16 -6.5h-34q-22 0 -22 25v52h-10q-20 -36 -64.5 -62.5t-91.5 -26.5q-79 0 -129.5 43t-50.5 110q0 53 24.5 89 t69.5 53.5t93 24.5t111 7h42v29q0 53 -33 83.5t-94 30.5q-73 0 -126 -25q-21 -8 -26 5q-2 4 -8 18t-8 18q-5 14 11 22zM215 645l53 112q4 12 20 12h52q14 0 19.5 -12.5t-1.5 -23.5l-85 -111q-8 -8 -18 -8h-20q-14 0 -19.5 9.5t-0.5 21.5z" />
<glyph unicode="&#xe2;" horiz-adv-x="579" d="M400 198v53h-26q-229 0 -229 -104q0 -40 28.5 -62t80.5 -22q50 0 98 39.5t48 95.5zM116 496q70 36 175 36q81 0 137 -51t56 -155v-304q0 -9 -6 -15.5t-16 -6.5h-34q-22 0 -22 25v52h-10q-20 -36 -64.5 -62.5t-91.5 -26.5q-79 0 -129.5 43t-50.5 110q0 53 24.5 89 t69.5 53.5t93 24.5t111 7h42v29q0 53 -33 83.5t-94 30.5q-73 0 -126 -25q-21 -8 -26 5q-2 4 -8 18t-8 18q-5 14 11 22zM202 613h-28q-14 0 -19.5 11t1.5 22l72 110q2 4 9.5 8.5t11.5 4.5h78q12 0 21 -13q11 -18 36 -55t36 -56q6 -11 0.5 -21.5t-18.5 -10.5h-29q-10 0 -19 9 l-68 97l-66 -97q-9 -9 -18 -9z" />
<glyph unicode="&#xe3;" horiz-adv-x="579" d="M400 198v53h-26q-229 0 -229 -104q0 -40 28.5 -62t80.5 -22q50 0 98 39.5t48 95.5zM116 496q70 36 175 36q81 0 137 -51t56 -155v-304q0 -9 -6 -15.5t-16 -6.5h-34q-22 0 -22 25v52h-10q-20 -36 -64.5 -62.5t-91.5 -26.5q-79 0 -129.5 43t-50.5 110q0 53 24.5 89 t69.5 53.5t93 24.5t111 7h42v29q0 53 -33 83.5t-94 30.5q-73 0 -126 -25q-21 -8 -26 5q-2 4 -8 18t-8 18q-5 14 11 22zM428 749h16q9 0 15.5 -8t6.5 -18q-10 -48 -38 -74t-68 -26t-85 32q-41 31 -64 31q-37 0 -45 -47q-6 -17 -21 -17h-15q-9 0 -15.5 7.5t-6.5 17.5 q10 47 38.5 73t67.5 26q34 0 86 -31q37 -28 62 -28q34 0 46 45q7 17 20 17z" />
<glyph unicode="&#xe4;" horiz-adv-x="579" d="M400 198v53h-26q-229 0 -229 -104q0 -40 28.5 -62t80.5 -22q50 0 98 39.5t48 95.5zM116 496q70 36 175 36q81 0 137 -51t56 -155v-304q0 -9 -6 -15.5t-16 -6.5h-34q-22 0 -22 25v52h-10q-20 -36 -64.5 -62.5t-91.5 -26.5q-79 0 -129.5 43t-50.5 110q0 53 24.5 89 t69.5 53.5t93 24.5t111 7h42v29q0 53 -33 83.5t-94 30.5q-73 0 -126 -25q-21 -8 -26 5q-2 4 -8 18t-8 18q-5 14 11 22zM191 631q-22 0 -36.5 15t-14.5 37t14.5 36.5t36.5 14.5q20 0 36 -15t16 -36t-16.5 -36.5t-35.5 -15.5zM382 631q-21 0 -36.5 15.5t-15.5 36.5t15.5 36 t36.5 15t36.5 -15t15.5 -36t-15.5 -36.5t-36.5 -15.5z" />
<glyph unicode="&#xe5;" horiz-adv-x="579" d="M400 198v53h-26q-229 0 -229 -104q0 -40 28.5 -62t80.5 -22q50 0 98 39.5t48 95.5zM116 496q70 36 175 36q81 0 137 -51t56 -155v-304q0 -9 -6 -15.5t-16 -6.5h-34q-22 0 -22 25v52h-10q-20 -36 -64.5 -62.5t-91.5 -26.5q-79 0 -129.5 43t-50.5 110q0 53 24.5 89 t69.5 53.5t93 24.5t111 7h42v29q0 53 -33 83.5t-94 30.5q-73 0 -126 -25q-21 -8 -26 5q-2 4 -8 18t-8 18q-5 14 11 22zM159 727q0 51 38 87.5t89 36.5q52 0 89.5 -37t37.5 -89t-37.5 -88.5t-89.5 -36.5t-89.5 36.5t-37.5 90.5zM207 727q0 -35 23.5 -58.5t57.5 -23.5 q32 0 55.5 24t23.5 58q0 33 -23.5 56.5t-55.5 23.5q-34 0 -57.5 -23.5t-23.5 -56.5z" />
<glyph unicode="&#xe6;" horiz-adv-x="947" d="M652 532q105 0 168 -68t63 -204q0 -9 -6.5 -15.5t-14.5 -6.5h-377q0 -75 52 -126t123 -51q88 0 154 34q17 9 28 -9l10 -24q7 -15 -9 -28q-81 -46 -181 -46q-163 0 -227 121q-31 -57 -83 -89t-112 -32q-79 0 -129.5 43t-50.5 110q0 53 24.5 89t69.5 53.5t93 24.5t111 7h42 v29q0 53 -33 83.5t-94 30.5q-73 0 -126 -25q-21 -8 -26 5l-16 36q-5 14 11 22q70 36 175 36q117 0 166 -90q68 90 195 90zM400 198v53h-26q-229 0 -229 -104q0 -40 28.5 -62t80.5 -22q50 0 98 39.5t48 95.5zM486 301h313q0 75 -43.5 117t-105.5 42q-63 0 -107.5 -41.5 t-56.5 -117.5z" />
<glyph unicode="&#xe7;" horiz-adv-x="541" d="M479 121l21 -28q14 -15 0 -31q-67 -61 -150 -71l-2 -35q35 -22 35 -58q0 -44 -42 -74.5t-103 -30.5q-44 0 -68 6q-13 3 -13 20v18q0 9 7 15.5t16 6.5q3 0 9 -2q18 -3 34 -3q40 0 61 14t21 37q0 11 -13.5 24.5t-12.5 24.5l5 35q-104 8 -164 79.5t-60 192.5q0 129 68 200 t184 71q107 0 187 -74q15 -15 1 -31l-21 -28q-11 -11 -32 -2q-72 59 -135 59q-77 0 -122 -51t-45 -144q0 -94 45 -145.5t122 -51.5q63 0 135 59q16 8 32 -2z" />
<glyph unicode="&#xe8;" horiz-adv-x="608" d="M311 460q-63 0 -108 -41.5t-57 -117.5h313q0 75 -43 117t-105 42zM502 86l10 -24q7 -15 -9 -28q-81 -46 -180 -46q-122 0 -192.5 70.5t-70.5 197.5q0 128 69.5 202t183.5 74q105 0 168 -68.5t63 -203.5q0 -9 -6.5 -15.5t-15.5 -6.5h-377q0 -75 52 -126t124 -51 q87 0 153 34q17 9 28 -9zM313 757l53 -112q5 -12 -0.5 -21.5t-19.5 -9.5h-20q-10 0 -18 8l-85 111q-7 11 -1.5 23.5t19.5 12.5h52q14 0 20 -12z" />
<glyph unicode="&#xe9;" horiz-adv-x="608" d="M311 460q-63 0 -108 -41.5t-57 -117.5h313q0 75 -43 117t-105 42zM502 86l10 -24q7 -15 -9 -28q-81 -46 -180 -46q-122 0 -192.5 70.5t-70.5 197.5q0 128 69.5 202t183.5 74q105 0 168 -68.5t63 -203.5q0 -9 -6.5 -15.5t-15.5 -6.5h-377q0 -75 52 -126t124 -51 q87 0 153 34q17 9 28 -9zM267 645l53 112q4 12 20 12h52q14 0 19.5 -12.5t-1.5 -23.5l-85 -111q-8 -8 -18 -8h-20q-14 0 -19.5 9.5t-0.5 21.5z" />
<glyph unicode="&#xea;" horiz-adv-x="608" d="M311 460q-63 0 -108 -41.5t-57 -117.5h313q0 75 -43 117t-105 42zM502 86l10 -24q7 -15 -9 -28q-81 -46 -180 -46q-122 0 -192.5 70.5t-70.5 197.5q0 128 69.5 202t183.5 74q105 0 168 -68.5t63 -203.5q0 -9 -6.5 -15.5t-15.5 -6.5h-377q0 -75 52 -126t124 -51 q87 0 153 34q17 9 28 -9zM220 613h-28q-14 0 -19.5 11t1.5 22l72 110q2 4 9.5 8.5t11.5 4.5h78q12 0 21 -13q11 -18 36 -55t36 -56q6 -11 0.5 -21.5t-18.5 -10.5h-29q-10 0 -19 9l-68 97l-66 -97q-9 -9 -18 -9z" />
<glyph unicode="&#xeb;" horiz-adv-x="608" d="M311 460q-63 0 -108 -41.5t-57 -117.5h313q0 75 -43 117t-105 42zM502 86l10 -24q7 -15 -9 -28q-81 -46 -180 -46q-122 0 -192.5 70.5t-70.5 197.5q0 128 69.5 202t183.5 74q105 0 168 -68.5t63 -203.5q0 -9 -6.5 -15.5t-15.5 -6.5h-377q0 -75 52 -126t124 -51 q87 0 153 34q17 9 28 -9zM208 631q-22 0 -36.5 15t-14.5 37t14.5 36.5t36.5 14.5q20 0 36 -15t16 -36t-16.5 -36.5t-35.5 -15.5zM399 631q-21 0 -36.5 15.5t-15.5 36.5t15.5 36t36.5 15t36.5 -15t15.5 -36t-15.5 -36.5t-36.5 -15.5z" />
<glyph unicode="&#xec;" horiz-adv-x="273" d="M117 520h39q10 0 16 -6.5t6 -15.5v-476q0 -9 -6 -15.5t-16 -6.5h-39q-10 0 -16 6.5t-6 15.5v476q0 9 6 15.5t16 6.5zM132 757l53 -112q5 -12 -0.5 -21.5t-19.5 -9.5h-20q-10 0 -18 8l-85 111q-7 11 -1.5 23.5t19.5 12.5h52q14 0 20 -12z" />
<glyph unicode="&#xed;" horiz-adv-x="273" d="M117 520h39q10 0 16 -6.5t6 -15.5v-476q0 -9 -6 -15.5t-16 -6.5h-39q-10 0 -16 6.5t-6 15.5v476q0 9 6 15.5t16 6.5zM89 645l53 112q4 12 20 12h52q14 0 19.5 -12.5t-1.5 -23.5l-85 -111q-8 -8 -18 -8h-20q-14 0 -19.5 9.5t-0.5 21.5z" />
<glyph unicode="&#xee;" horiz-adv-x="273" d="M117 520h39q10 0 16 -6.5t6 -15.5v-476q0 -9 -6 -15.5t-16 -6.5h-39q-10 0 -16 6.5t-6 15.5v476q0 9 6 15.5t16 6.5zM51 613h-28q-14 0 -19.5 11t1.5 22l72 110q2 4 9.5 8.5t11.5 4.5h78q12 0 21 -13q11 -18 36 -55t36 -56q6 -11 0.5 -21.5t-18.5 -10.5h-29q-10 0 -19 9 l-68 97l-66 -97q-9 -9 -18 -9z" />
<glyph unicode="&#xef;" horiz-adv-x="273" d="M117 520h39q10 0 16 -6.5t6 -15.5v-476q0 -9 -6 -15.5t-16 -6.5h-39q-10 0 -16 6.5t-6 15.5v476q0 9 6 15.5t16 6.5zM39 631q-22 0 -36.5 15t-14.5 37t14.5 36.5t36.5 14.5q20 0 36 -15t16 -36t-16.5 -36.5t-35.5 -15.5zM230 631q-21 0 -36.5 15.5t-15.5 36.5t15.5 36 t36.5 15t36.5 -15t15.5 -36t-15.5 -36.5t-36.5 -15.5z" />
<glyph unicode="&#xf0;" horiz-adv-x="598" d="M387 648q72 -81 117 -177t45 -190q0 -137 -67.5 -215t-179.5 -78q-109 0 -177 66t-68 189q0 116 66.5 184.5t168.5 68.5q46 0 75.5 -10t63.5 -36q-29 79 -102 162l-104 -63q-17 -12 -28 6l-8 13q-12 18 6 29l93 56q-27 27 -64 54q-7 4 -8 12t4 11l34 20q12 8 27 -3 q37 -27 67 -57l85 54q18 11 29 -7l8 -13q11 -18 -6 -29zM302 59q70 0 115 45.5t45 149.5q0 88 -48.5 129t-112.5 41q-68 0 -112.5 -47.5t-44.5 -134.5q0 -90 44 -136.5t114 -46.5z" />
<glyph unicode="&#xf1;" horiz-adv-x="617" d="M175 498v-38l10 -8q20 35 62 57.5t90 22.5q89 0 137 -53t48 -149v-308q0 -9 -6 -15.5t-16 -6.5h-40q-9 0 -15.5 6.5t-6.5 15.5v293q0 140 -115 140q-60 0 -102.5 -38.5t-42.5 -89.5v-305q0 -9 -6 -15.5t-16 -6.5h-39q-9 0 -15.5 6.5t-6.5 15.5v476q0 9 6.5 15.5t15.5 6.5 h36q10 0 16 -6.5t6 -15.5zM448 749h16q9 0 15.5 -8t6.5 -18q-10 -48 -38 -74t-68 -26t-85 32q-41 31 -64 31q-37 0 -45 -47q-6 -17 -21 -17h-15q-9 0 -15.5 7.5t-6.5 17.5q10 47 38.5 73t67.5 26q34 0 86 -31q37 -28 62 -28q34 0 46 45q7 17 20 17z" />
<glyph unicode="&#xf2;" horiz-adv-x="636" d="M318 60q75 0 124 55t49 145q0 89 -49 144t-124 55t-124 -55t-49 -145t49 -144.5t124 -54.5zM318 532q111 0 185 -77t74 -194q0 -120 -74 -196.5t-185 -76.5q-113 0 -185.5 75.5t-72.5 195.5q0 118 73 195.5t185 77.5zM315 757l53 -112q5 -12 -0.5 -21.5t-19.5 -9.5h-20 q-10 0 -18 8l-85 111q-7 11 -1.5 23.5t19.5 12.5h52q14 0 20 -12z" />
<glyph unicode="&#xf3;" horiz-adv-x="636" d="M318 60q75 0 124 55t49 145q0 89 -49 144t-124 55t-124 -55t-49 -145t49 -144.5t124 -54.5zM318 532q111 0 185 -77t74 -194q0 -120 -74 -196.5t-185 -76.5q-113 0 -185.5 75.5t-72.5 195.5q0 118 73 195.5t185 77.5zM266 645l53 112q4 12 20 12h52q14 0 19.5 -12.5 t-1.5 -23.5l-85 -111q-8 -8 -18 -8h-20q-14 0 -19.5 9.5t-0.5 21.5z" />
<glyph unicode="&#xf4;" horiz-adv-x="636" d="M318 60q75 0 124 55t49 145q0 89 -49 144t-124 55t-124 -55t-49 -145t49 -144.5t124 -54.5zM318 532q111 0 185 -77t74 -194q0 -120 -74 -196.5t-185 -76.5q-113 0 -185.5 75.5t-72.5 195.5q0 118 73 195.5t185 77.5zM234 613h-28q-14 0 -19.5 11t1.5 22l72 110 q2 4 9.5 8.5t11.5 4.5h78q12 0 21 -13q11 -18 36 -55t36 -56q6 -11 0.5 -21.5t-18.5 -10.5h-29q-10 0 -19 9l-68 97l-66 -97q-9 -9 -18 -9z" />
<glyph unicode="&#xf5;" horiz-adv-x="636" d="M318 60q75 0 124 55t49 145q0 89 -49 144t-124 55t-124 -55t-49 -145t49 -144.5t124 -54.5zM318 532q111 0 185 -77t74 -194q0 -120 -74 -196.5t-185 -76.5q-113 0 -185.5 75.5t-72.5 195.5q0 118 73 195.5t185 77.5zM459 749h16q9 0 15.5 -8t6.5 -18q-10 -48 -38 -74 t-68 -26t-85 32q-41 31 -64 31q-37 0 -45 -47q-6 -17 -21 -17h-15q-9 0 -15.5 7.5t-6.5 17.5q10 47 38.5 73t67.5 26q34 0 86 -31q37 -28 62 -28q34 0 46 45q7 17 20 17z" />
<glyph unicode="&#xf6;" horiz-adv-x="636" d="M318 60q75 0 124 55t49 145q0 89 -49 144t-124 55t-124 -55t-49 -145t49 -144.5t124 -54.5zM318 532q111 0 185 -77t74 -194q0 -120 -74 -196.5t-185 -76.5q-113 0 -185.5 75.5t-72.5 195.5q0 118 73 195.5t185 77.5zM222 631q-22 0 -36.5 15t-14.5 37t14.5 36.5 t36.5 14.5q20 0 36 -15t16 -36t-16.5 -36.5t-35.5 -15.5zM413 631q-21 0 -36.5 15.5t-15.5 36.5t15.5 36t36.5 15t36.5 -15t15.5 -36t-15.5 -36.5t-36.5 -15.5z" />
<glyph unicode="&#xf7;" d="M575 346v-31q0 -9 -6.5 -15.5t-15.5 -6.5h-479q-9 0 -15.5 6.5t-6.5 15.5v31q0 9 6.5 15.5t15.5 6.5h479q9 0 15.5 -6.5t6.5 -15.5zM307 87q-27 0 -46 19t-19 45q0 27 18.5 46t46.5 19t46.5 -19t18.5 -46q0 -26 -19 -45t-46 -19zM307 439q-27 0 -46 19.5t-19 46.5 q0 26 19 45.5t46 19.5t46 -19.5t19 -45.5q0 -27 -19 -46.5t-46 -19.5z" />
<glyph unicode="&#xf8;" horiz-adv-x="634" d="M479 476q97 -79 97 -215q0 -120 -74 -196.5t-185 -76.5q-58 0 -111 24l-8 -13q-13 -22 -34 -22h-20q-10 0 -14.5 9t0.5 18l23 40q-94 76 -94 215q0 118 73 195.5t185 77.5q61 0 110 -24l8 14q12 22 34 22h19q10 0 15 -8.5t0 -18.5zM144 259q0 -92 51 -146l194 330 q-31 16 -72 16q-75 0 -124 -55t-49 -145zM317 60q75 0 124 55t49 145q0 93 -51 147l-195 -330q34 -17 73 -17z" />
<glyph unicode="&#xf9;" horiz-adv-x="617" d="M441 22v38l-10 8q-20 -35 -61.5 -57.5t-89.5 -22.5q-89 0 -137 52.5t-48 149.5v308q0 9 6 15.5t16 6.5h39q9 0 15.5 -6.5t6.5 -15.5v-293q0 -140 116 -140q59 0 101.5 38t42.5 90v305q0 9 6 15.5t16 6.5h40q9 0 15.5 -6.5t6.5 -15.5v-476q0 -9 -6.5 -15.5t-15.5 -6.5h-37 q-10 0 -16 6.5t-6 15.5zM309 757l53 -112q5 -12 -0.5 -21.5t-19.5 -9.5h-20q-10 0 -18 8l-85 111q-7 11 -1.5 23.5t19.5 12.5h52q14 0 20 -12z" />
<glyph unicode="&#xfa;" horiz-adv-x="617" d="M441 22v38l-10 8q-20 -35 -61.5 -57.5t-89.5 -22.5q-89 0 -137 52.5t-48 149.5v308q0 9 6 15.5t16 6.5h39q9 0 15.5 -6.5t6.5 -15.5v-293q0 -140 116 -140q59 0 101.5 38t42.5 90v305q0 9 6 15.5t16 6.5h40q9 0 15.5 -6.5t6.5 -15.5v-476q0 -9 -6.5 -15.5t-15.5 -6.5h-37 q-10 0 -16 6.5t-6 15.5zM269 645l53 112q4 12 20 12h52q14 0 19.5 -12.5t-1.5 -23.5l-85 -111q-8 -8 -18 -8h-20q-14 0 -19.5 9.5t-0.5 21.5z" />
<glyph unicode="&#xfb;" horiz-adv-x="617" d="M441 22v38l-10 8q-20 -35 -61.5 -57.5t-89.5 -22.5q-89 0 -137 52.5t-48 149.5v308q0 9 6 15.5t16 6.5h39q9 0 15.5 -6.5t6.5 -15.5v-293q0 -140 116 -140q59 0 101.5 38t42.5 90v305q0 9 6 15.5t16 6.5h40q9 0 15.5 -6.5t6.5 -15.5v-476q0 -9 -6.5 -15.5t-15.5 -6.5h-37 q-10 0 -16 6.5t-6 15.5zM225 613h-28q-14 0 -19.5 11t1.5 22l72 110q2 4 9.5 8.5t11.5 4.5h78q12 0 21 -13q11 -18 36 -55t36 -56q6 -11 0.5 -21.5t-18.5 -10.5h-29q-10 0 -19 9l-68 97l-66 -97q-9 -9 -18 -9z" />
<glyph unicode="&#xfc;" horiz-adv-x="617" d="M441 22v38l-10 8q-20 -35 -61.5 -57.5t-89.5 -22.5q-89 0 -137 52.5t-48 149.5v308q0 9 6 15.5t16 6.5h39q9 0 15.5 -6.5t6.5 -15.5v-293q0 -140 116 -140q59 0 101.5 38t42.5 90v305q0 9 6 15.5t16 6.5h40q9 0 15.5 -6.5t6.5 -15.5v-476q0 -9 -6.5 -15.5t-15.5 -6.5h-37 q-10 0 -16 6.5t-6 15.5zM214 631q-22 0 -36.5 15t-14.5 37t14.5 36.5t36.5 14.5q20 0 36 -15t16 -36t-16.5 -36.5t-35.5 -15.5zM405 631q-21 0 -36.5 15.5t-15.5 36.5t15.5 36t36.5 15t36.5 -15t15.5 -36t-15.5 -36.5t-36.5 -15.5z" />
<glyph unicode="&#xfd;" horiz-adv-x="548" d="M216 -200h-36q-12 0 -18 9t-2 21q23 58 73 179q-20 50 -85.5 218t-105.5 263q-4 11 2 20.5t18 9.5h44q5 0 11.5 -4.5t7.5 -9.5q63 -166 106 -280q25 -68 38 -113h14q33 106 36 114q48 131 108 279q6 14 20 14h38q13 0 19 -9t2 -21q-34 -82 -270 -675q-6 -15 -20 -15z M233 645l53 112q4 12 20 12h52q14 0 19.5 -12.5t-1.5 -23.5l-85 -111q-8 -8 -18 -8h-20q-14 0 -19.5 9.5t-0.5 21.5z" />
<glyph unicode="&#xfe;" horiz-adv-x="629" d="M117 742h39q22 0 22 -22v-263l4 -2l8 1q21 37 63 56.5t92 19.5q91 0 158 -68t67 -201q0 -128 -63.5 -201.5t-168.5 -73.5q-88 0 -160 69v-235q0 -9 -6.5 -15.5t-15.5 -6.5h-39q-9 0 -15.5 6.5t-6.5 15.5v898q0 22 22 22zM335 62q70 0 109.5 50t39.5 147q0 93 -40 145 t-108 52q-64 0 -111 -47.5t-47 -124.5v-141q29 -36 71.5 -58.5t85.5 -22.5z" />
<glyph unicode="&#xff;" horiz-adv-x="548" d="M216 -200h-36q-12 0 -18 9t-2 21q23 58 73 179q-20 50 -85.5 218t-105.5 263q-4 11 2 20.5t18 9.5h44q5 0 11.5 -4.5t7.5 -9.5q63 -166 106 -280q25 -68 38 -113h14q33 106 36 114q48 131 108 279q6 14 20 14h38q13 0 19 -9t2 -21q-34 -82 -270 -675q-6 -15 -20 -15z M178 631q-22 0 -36.5 15t-14.5 37t14.5 36.5t36.5 14.5q20 0 36 -15t16 -36t-16.5 -36.5t-35.5 -15.5zM369 631q-21 0 -36.5 15.5t-15.5 36.5t15.5 36t36.5 15t36.5 -15t15.5 -36t-15.5 -36.5t-36.5 -15.5z" />
<glyph unicode="&#x152;" horiz-adv-x="1268" d="M1171 0h-458q-10 0 -16 6.5t-6 15.5v88q-105 -122 -267 -122q-147 0 -250.5 102t-103.5 262q0 154 99 261t255 107q165 0 267 -122v88q0 9 6 15.5t16 6.5h458q9 0 15.5 -6.5t6.5 -15.5v-36q0 -9 -6.5 -15.5t-15.5 -6.5h-395v-226h347q9 0 15.5 -6.5t6.5 -15.5v-35 q0 -9 -6.5 -15.5t-15.5 -6.5h-347v-243h395q9 0 15.5 -6.5t6.5 -15.5v-36q0 -9 -6.5 -15.5t-15.5 -6.5zM424 68q114 0 190.5 80.5t76.5 203.5q0 127 -76.5 207.5t-190.5 80.5t-190.5 -80.5t-76.5 -207.5q0 -123 77 -203.5t190 -80.5z" />
<glyph unicode="&#x153;" horiz-adv-x="1007" d="M932 86l10 -24q7 -15 -9 -28q-81 -46 -180 -46q-157 0 -223 112q-35 -53 -90.5 -82.5t-122.5 -29.5q-113 0 -185.5 75.5t-72.5 195.5q0 118 73 195.5t185 77.5q67 0 123 -30.5t91 -84.5q68 115 212 115q105 0 168 -68.5t63 -203.5q0 -9 -6.5 -15.5t-15.5 -6.5h-376 q0 -75 51.5 -126.5t123.5 -51.5q86 0 153 35q17 9 28 -9zM317 60q75 0 124 55t49 145q0 89 -49 144t-124 55t-124 -55t-49 -145t49 -144.5t124 -54.5zM741 459q-63 0 -107.5 -41t-56.5 -117h312q0 75 -43 116.5t-105 41.5z" />
<glyph unicode="&#x178;" horiz-adv-x="643" d="M618 708q12 0 17.5 -10.5t-1.5 -20.5l-269 -392v-263q0 -9 -6 -15.5t-16 -6.5h-41q-10 0 -16 6.5t-6 15.5v263l-271 392q-7 10 -1 20.5t19 10.5h39q22 0 37 -22l219 -318l219 318q15 22 38 22h39zM226 819q-22 0 -36.5 15t-14.5 37t14.5 36.5t36.5 14.5q20 0 36 -15 t16 -36t-16.5 -36.5t-35.5 -15.5zM417 819q-21 0 -36.5 15.5t-15.5 36.5t15.5 36t36.5 15t36.5 -15t15.5 -36t-15.5 -36.5t-36.5 -15.5z" />
<glyph unicode="&#x2c6;" horiz-adv-x="500" d="M167 613h-28q-14 0 -19.5 11t1.5 22l72 110q2 4 9.5 8.5t11.5 4.5h78q12 0 21 -13q11 -18 36 -55t36 -56q6 -11 0.5 -21.5t-18.5 -10.5h-29q-10 0 -19 9l-68 97l-66 -97q-9 -9 -18 -9z" />
<glyph unicode="&#x2dc;" horiz-adv-x="500" d="M393 749h16q9 0 15.5 -8t6.5 -18q-10 -48 -38 -74t-68 -26t-85 32q-41 31 -64 31q-37 0 -45 -47q-6 -17 -21 -17h-15q-9 0 -15.5 7.5t-6.5 17.5q10 47 38.5 73t67.5 26q34 0 86 -31q37 -28 62 -28q34 0 46 45q7 17 20 17z" />
<glyph unicode="&#x2000;" horiz-adv-x="478" />
<glyph unicode="&#x2001;" horiz-adv-x="957" />
<glyph unicode="&#x2002;" horiz-adv-x="478" />
<glyph unicode="&#x2003;" horiz-adv-x="957" />
<glyph unicode="&#x2004;" horiz-adv-x="319" />
<glyph unicode="&#x2005;" horiz-adv-x="239" />
<glyph unicode="&#x2006;" horiz-adv-x="159" />
<glyph unicode="&#x2007;" horiz-adv-x="159" />
<glyph unicode="&#x2008;" horiz-adv-x="119" />
<glyph unicode="&#x2009;" horiz-adv-x="191" />
<glyph unicode="&#x200a;" horiz-adv-x="53" />
<glyph unicode="&#x2010;" horiz-adv-x="373" d="M329 300v-24q0 -10 -6.5 -16t-16.5 -6h-238q-10 0 -16.5 6t-6.5 16v24q0 10 6.5 16t16.5 6h238q10 0 16.5 -6t6.5 -16z" />
<glyph unicode="&#x2011;" horiz-adv-x="373" d="M329 300v-24q0 -10 -6.5 -16t-16.5 -6h-238q-10 0 -16.5 6t-6.5 16v24q0 10 6.5 16t16.5 6h238q10 0 16.5 -6t6.5 -16z" />
<glyph unicode="&#x2012;" horiz-adv-x="373" d="M329 300v-24q0 -10 -6.5 -16t-16.5 -6h-238q-10 0 -16.5 6t-6.5 16v24q0 10 6.5 16t16.5 6h238q10 0 16.5 -6t6.5 -16z" />
<glyph unicode="&#x2013;" horiz-adv-x="609" d="M564 300v-25q0 -9 -6.5 -15.5t-15.5 -6.5h-474q-10 0 -16.5 6.5t-6.5 15.5v25q0 9 6.5 15.5t16.5 6.5h474q9 0 15.5 -6.5t6.5 -15.5z" />
<glyph unicode="&#x2014;" horiz-adv-x="1015" d="M970 300v-25q0 -9 -6.5 -15.5t-16.5 -6.5h-879q-10 0 -16.5 6.5t-6.5 15.5v25q0 9 6.5 15.5t16.5 6.5h879q10 0 16.5 -6.5t6.5 -15.5z" />
<glyph unicode="&#x2018;" horiz-adv-x="283" d="M160 607l2 -4q45 -36 45 -64q0 -23 -19 -42t-44 -19q-28 0 -48.5 21.5t-20.5 55.5q0 42 28.5 104t65.5 101q9 6 13 6q9 0 17 -6.5t9 -15.5q0 -5 -2 -9q-13 -21 -29.5 -64.5t-16.5 -63.5z" />
<glyph unicode="&#x2019;" horiz-adv-x="282" d="M123 637l-2 4q-14 11 -21 17t-15 19.5t-8 27.5q0 23 18 42t44 19q28 0 48 -21.5t20 -55.5q0 -42 -28 -104t-65 -101q-12 -6 -13 -6q-9 -1 -17 5.5t-9 16.5q0 5 2 9q13 20 30 64t16 64z" />
<glyph unicode="&#x201a;" horiz-adv-x="282" d="M123 -10l-2 4q-44 32 -44 63q0 24 18 42.5t44 18.5q28 0 48 -21t20 -55q0 -42 -28 -104.5t-65 -100.5q-12 -6 -13 -6q-9 -1 -17 5.5t-9 15.5q0 5 2 9q13 20 30 64t16 65z" />
<glyph unicode="&#x201c;" horiz-adv-x="471" d="M160 607l2 -4q45 -34 45 -64q0 -23 -19 -42t-44 -19q-28 0 -48.5 21.5t-20.5 55.5q0 42 28.5 104t65.5 101q9 6 14 6q8 1 16 -6t9 -16q0 -5 -2 -9q-13 -21 -30 -65t-16 -63zM349 607l2 -4q44 -35 44 -64q0 -23 -18.5 -42t-44.5 -19q-28 0 -48.5 21.5t-20.5 55.5 q0 42 28.5 104t66.5 101q9 6 13 6q8 1 16 -6t9 -16q0 -5 -2 -9q-12 -19 -29 -63.5t-16 -64.5z" />
<glyph unicode="&#x201d;" horiz-adv-x="472" d="M123 637l-2 4q-14 11 -21 17t-15 19.5t-8 27.5q0 23 18 42t44 19q28 0 48 -21.5t20 -55.5q0 -42 -28 -104t-65 -101q-12 -6 -13 -6q-9 -1 -17 5.5t-9 16.5q0 5 2 9q13 20 30 64t16 64zM313 637l-2 4q-14 11 -21 17t-15 19.5t-8 27.5q0 23 18 42t44 19q28 0 48 -21.5 t20 -55.5q0 -42 -28 -104.5t-65 -100.5q-12 -6 -13 -6q-10 -1 -17.5 5.5t-8.5 16.5q0 5 2 9q13 21 30 65t16 63z" />
<glyph unicode="&#x201e;" horiz-adv-x="470" d="M123 -10l-2 4q-44 32 -44 63q0 24 18 42.5t44 18.5q28 0 48 -21t20 -55q0 -42 -28 -104.5t-65 -100.5q-12 -6 -13 -6q-9 -1 -17 5.5t-9 15.5q0 5 2 9q13 20 30 64t16 65zM311 -10l-2 4q-44 32 -44 63q0 24 18 42.5t44 18.5q28 0 48 -21t20 -55q0 -42 -28 -105t-65 -100 q-12 -6 -13 -6q-10 -1 -17.5 5.5t-8.5 15.5q0 5 2 9q13 22 30 65t16 64z" />
<glyph unicode="&#x2022;" horiz-adv-x="426" d="M63 336q0 62 45 106.5t107 44.5t107.5 -45t45.5 -106t-45 -106t-108 -45q-62 0 -107 44.5t-45 106.5z" />
<glyph unicode="&#x2026;" horiz-adv-x="894" d="M446 -12q-26 0 -45.5 19.5t-19.5 45.5q0 25 19.5 44.5t45.5 19.5q28 0 47.5 -19t19.5 -45t-19.5 -45.5t-47.5 -19.5zM753 -12q-26 0 -45.5 19.5t-19.5 45.5q0 25 19.5 44.5t45.5 19.5q28 0 47.5 -19t19.5 -45t-19.5 -45.5t-47.5 -19.5zM138 -12q-25 0 -44 19.5t-19 45.5 q0 25 19 44.5t44 19.5q28 0 47.5 -19t19.5 -45q0 -27 -19.5 -46t-47.5 -19z" />
<glyph unicode="&#x202f;" horiz-adv-x="191" />
<glyph unicode="&#x2039;" horiz-adv-x="356" d="M295 109q6 -7 6 -16t-6 -15l-14 -14q-7 -7 -16 -7t-15 7l-208 208q-7 6 -7 15t7 16l208 208q6 6 15 6t16 -6l14 -14q6 -8 6 -16q0 -10 -6 -16l-173 -178z" />
<glyph unicode="&#x203a;" horiz-adv-x="356" d="M41 109l173 178l-173 178q-6 6 -6 16q0 9 6 16l14 14q6 6 16 6q9 0 15 -6l208 -208q7 -9 7 -16q0 -8 -7 -15l-208 -208q-6 -7 -15 -7q-10 0 -16 7l-14 14q-6 6 -6 15t6 16z" />
<glyph unicode="&#x205f;" horiz-adv-x="239" />
<glyph unicode="&#x20ac;" horiz-adv-x="724" d="M631 103l21 -32q5 -7 2.5 -16t-10.5 -14q-87 -53 -191 -53q-128 0 -218.5 67t-121.5 181h-67q-9 0 -15.5 6t-6.5 16v30q0 10 6.5 16t15.5 6h54q-2 15 -2 44q0 28 2 42h-54q-9 0 -15.5 6.5t-6.5 15.5v30q0 9 6.5 15.5t15.5 6.5h67q31 115 121.5 182.5t218.5 67.5 q104 0 191 -53q8 -5 10.5 -14t-2.5 -16l-21 -31q-10 -16 -30 -5q-71 39 -148 39q-84 0 -151 -45.5t-98 -124.5h321q9 0 15.5 -6.5t6.5 -15.5v-30q0 -9 -6.5 -15.5t-15.5 -6.5h-340q-2 -28 -2 -42q0 -16 2 -44h340q9 0 15.5 -6t6.5 -16v-30q0 -10 -6.5 -16t-15.5 -6h-321 q31 -78 98 -123t151 -45q78 0 148 40q20 11 30 -5z" />
<glyph unicode="&#x2122;" horiz-adv-x="858" d="M634 394q-5 -11 -20 -13h-12q-18 0 -23 13l-110 259h-9v-305q0 -9 -6.5 -15.5t-16.5 -6.5h-11q-9 0 -15.5 6.5t-6.5 15.5v337q0 10 6.5 16.5t15.5 6.5h67q14 0 20 -14l94 -229l93 229q6 14 21 14h62q9 0 16 -6.5t7 -16.5v-337q0 -9 -7 -15.5t-16 -6.5h-12q-9 0 -16 6.5 t-7 15.5v299h-9zM331 685v-8q0 -22 -22 -22h-99v-307q0 -9 -6.5 -15.5t-15.5 -6.5h-15q-9 0 -15.5 6.5t-6.5 15.5v307h-98q-9 0 -15.5 6t-6.5 16v8q0 10 6.5 16.5t15.5 6.5h256q10 0 16 -6.5t6 -16.5z" />
<glyph unicode="&#x25fc;" horiz-adv-x="520" d="M0 520h520v-520h-520v520z" />
<glyph unicode="&#xfb01;" horiz-adv-x="650" d="M403 737q17 -5 13 -27q-5 -16 -6 -26q-2 -8 -9.5 -12.5t-14.5 -3.5q-45 10 -86 10q-101 0 -101 -97v-61h149q9 0 15.5 -6.5t6.5 -15.5v-19q0 -10 -6.5 -16t-15.5 -6h-149v-435q0 -9 -6.5 -15.5t-15.5 -6.5h-39q-9 0 -15 6.5t-6 15.5v435h-65q-22 0 -22 22v19q0 9 6 15.5 t16 6.5h65v52q0 84 47.5 132t137.5 48q48 0 101 -15zM512 742q23 0 39.5 -16t16.5 -38q0 -23 -16.5 -39t-39.5 -16q-21 0 -37 16t-16 39q0 22 16 38t37 16zM494 520h39q10 0 16 -6.5t6 -15.5v-476q0 -9 -6 -15.5t-16 -6.5h-39q-10 0 -16 6.5t-6 15.5v476q0 9 6 15.5t16 6.5z " />
<glyph unicode="&#xfb02;" horiz-adv-x="650" d="M403 737q17 -5 13 -27q-5 -16 -6 -26q-2 -8 -9.5 -12.5t-14.5 -3.5q-45 10 -86 10q-101 0 -101 -97v-61h149q9 0 15.5 -6.5t6.5 -15.5v-19q0 -10 -6.5 -16t-15.5 -6h-149v-435q0 -9 -6.5 -15.5t-15.5 -6.5h-39q-9 0 -15 6.5t-6 15.5v435h-65q-22 0 -22 22v19q0 9 6 15.5 t16 6.5h65v52q0 84 47.5 132t137.5 48q48 0 101 -15zM494 742h39q22 0 22 -22v-698q0 -9 -6 -15.5t-16 -6.5h-39q-10 0 -16 6.5t-6 15.5v698q0 22 22 22z" />
</font>
</defs>
</svg>
