<?xml version="1.0" standalone="no"?>
<!DOCTYPE svg PUBLIC "-//W3C//DTD SVG 1.1//EN" "http://www.w3.org/Graphics/SVG/1.1/DTD/svg11.dtd" >
<svg xmlns="http://www.w3.org/2000/svg">
<metadata></metadata>
<defs>
<font id="alleynlight_italic" horiz-adv-x="608" >
<font-face units-per-em="1000" ascent="800" descent="-200" />
<missing-glyph horiz-adv-x="333" />
<glyph horiz-adv-x="0" />
<glyph horiz-adv-x="333" />
<glyph unicode=" "  horiz-adv-x="333" />
<glyph unicode="&#x09;" horiz-adv-x="333" />
<glyph unicode="&#xa0;" horiz-adv-x="333" />
<glyph unicode="!" horiz-adv-x="284" d="M268 709q5 0 5 -4l-35 -196l-63 -300q-3 -6 -7 -6h-4q-7 0 -7 6l43 299l35 197q0 4 8 4h25zM95 26q3 16 16.5 27.5t29.5 11.5q14 0 23.5 -9t9.5 -23q0 -17 -14.5 -31t-32.5 -14q-15 0 -24 9.5t-9 22.5q0 1 0.5 3t0.5 3z" />
<glyph unicode="&#x22;" horiz-adv-x="358" d="M212 742q4 0 8 -4l-52 -225q-3 -6 -7 -6h-4q-6 0 -6 6l23 186l7 39q0 4 7 4h24zM387 742q4 0 8 -4l-52 -225q-3 -6 -7 -6h-4q-6 0 -6 6l23 186l7 39q0 4 7 4h24z" />
<glyph unicode="#" d="M87 448q0 6 6 6h146l50 214q2 7 10 7h18q3 0 3 -5l-50 -216h189l50 214q2 7 11 7h18q3 0 3 -5l-50 -216h98q7 0 7 -6v-19q0 -7 -7 -7h-106l-42 -183h148q7 0 7 -6v-18q0 -7 -7 -7h-155l-46 -200q-2 -8 -9 -8h-18q-5 0 -5 6l47 202h-190l-46 -200q-2 -8 -8 -8h-19 q-4 0 -4 6l46 202h-89q-6 0 -6 7v18q0 6 6 6h96l42 183h-138q-6 0 -6 7v19zM262 422l-42 -183h189l43 183h-190z" />
<glyph unicode="$" horiz-adv-x="617" d="M621 631q1 -1 1 -4q0 -4 -3 -7l-12 -10q-4 -2 -6 -2q-5 0 -6 3q-73 70 -195 70q-96 0 -160 -47.5t-64 -121.5q0 -102 165 -131q107 -18 168 -61.5t61 -106.5q0 -98 -79 -159t-197 -64l-11 -58q-2 -6 -8 -6h-18q-5 0 -5 6l11 58q-115 4 -204 81q-3 3 -1 6l16 16q3 3 6 3 q2 0 3 -1q85 -75 203 -75q107 0 178 52.5t71 137.5q0 55 -52 88t-157 52q-86 15 -135.5 56.5t-49.5 101.5q0 88 72 143.5t175 59.5l13 69q0 5 8 5h18q5 0 5 -5l-13 -69q120 -4 202 -80z" />
<glyph unicode="%" horiz-adv-x="798" d="M708 698h17q2 0 2 -5q-217 -284 -521 -686q-5 -7 -11 -7h-21q-3 0 -3 4q0 2 1 3l525 685q5 6 11 6zM275 705q103 0 103 -116q0 -34 -7 -70q-33 -185 -162 -185q-101 0 -101 116q0 33 7 69q33 186 160 186zM214 361q54 0 92 57t38 165q0 94 -74 94q-52 0 -89.5 -57.5 t-37.5 -165.5q0 -93 71 -93zM695 364q101 0 101 -116q0 -34 -7 -70q-33 -184 -160 -184q-103 0 -103 114q0 34 7 70q33 186 162 186zM634 20q53 0 91 57t38 165q0 94 -73 94q-53 0 -91 -57t-38 -165q0 -94 73 -94z" />
<glyph unicode="&#x26;" horiz-adv-x="702" d="M626 7l-90 109q-128 -128 -258 -128q-80 0 -133 48t-53 120q0 75 49 127t162 120q-45 53 -63 82.5t-18 57.5q0 63 55 114.5t133 51.5q61 0 99.5 -31.5t38.5 -81.5q0 -58 -42 -102.5t-154 -103.5l189 -229q75 100 109 209q2 5 7 5h15q2 0 5 -5q-43 -135 -120 -229 q34 -41 60 -72.5t35.5 -43t11.5 -14.5l2 -4q0 -7 -8 -7h-18q-8 0 -14 7zM282 18q126 0 236 121l-199 240q-65 -38 -101 -64.5t-63 -65.5t-27 -84q0 -64 38.5 -105.5t115.5 -41.5zM406 679q-54 0 -101.5 -38t-47.5 -95q0 -27 17.5 -56t58.5 -75q91 44 136 84.5t45 90.5 q0 43 -28 66t-80 23z" />
<glyph unicode="'" horiz-adv-x="183" d="M212 742q4 0 8 -4l-52 -225q-3 -6 -7 -6h-4q-6 0 -6 6l23 186l7 39q0 4 7 4h24z" />
<glyph unicode="(" horiz-adv-x="296" d="M299 721q19 21 30 21h6q8 0 8 -7q0 -4 -2 -6q-119 -143 -170.5 -309t-51.5 -323q0 -163 60 -286q1 -2 1 -4q0 -8 -11 -8h-6q-10 0 -23 20q-55 133 -55 301q0 151 56.5 311t157.5 290z" />
<glyph unicode=")" horiz-adv-x="296" d="M208 721q55 -129 55 -295q0 -149 -56.5 -311.5t-160.5 -297.5q-16 -18 -27 -18h-6q-9 0 -9 6q0 3 3 6q118 143 169.5 309.5t51.5 321.5q0 162 -59 287q-1 1 -1 4q0 9 11 9h6q12 0 23 -21z" />
<glyph unicode="*" horiz-adv-x="519" d="M384 740q4 7 10 4l16 -11q9 -4 4 -9l-104 -161q35 1 105 3.5t88 3.5q6 0 6 -6v-19q0 -7 -6 -7l-193 9q19 -29 57.5 -90.5t46.5 -73.5q0 -7 -4 -8l-16 -9q-5 -3 -9 1l-87 172l-89 -171q-5 -5 -9 -2l-18 9q-5 2 -3 8l104 164l-191 -9q-6 2 -6 7v19q0 3 6 6l191 -7l-104 160 q-2 5 3 10l17 11q6 3 10 -4l89 -170z" />
<glyph unicode="+" d="M87 341q0 6 6 6h233v232q0 6 7 6h18q5 0 5 -6v-232h233q7 0 7 -6v-18q0 -6 -7 -6h-233v-233q0 -7 -5 -7h-18q-7 0 -7 7v233h-233q-6 0 -6 6v18z" />
<glyph unicode="," horiz-adv-x="231" d="M94 -32v6q0 10 -17 23t-17 25q0 16 14.5 29.5t31.5 13.5q14 0 23 -10t9 -29q0 -82 -99 -185q-2 -2 -5 -2q-2 0 -3 1q-6 4 -6 6q0 3 1 4q59 67 68 118z" />
<glyph unicode="-" horiz-adv-x="339" d="M74 297q0 5 8 5h238q6 0 6 -5l-3 -19q-2 -6 -9 -6h-238q-5 0 -5 6z" />
<glyph unicode="." horiz-adv-x="225" d="M55 26q3 16 17 27.5t30 11.5q14 0 23.5 -9t9.5 -23q0 -17 -14.5 -31t-32.5 -14q-15 0 -24.5 9.5t-9.5 23.5v2q1 2 1 3z" />
<glyph unicode="/" horiz-adv-x="335" d="M410 742h14q3 0 3 -4q0 -3 -1 -4q-327 -634 -417 -808q-5 -7 -11 -7h-15q-3 0 -3 4q0 3 1 4l417 807q6 8 12 8z" />
<glyph unicode="0" d="M407 709q96 0 145 -53.5t49 -167.5q0 -58 -14 -140q-34 -189 -110 -274.5t-198 -85.5q-96 0 -144.5 52.5t-48.5 165.5q0 66 14 142q33 189 109 275t198 86zM285 18q105 0 171 78t97 252q13 72 13 133q0 199 -165 199q-105 0 -171.5 -79.5t-96.5 -252.5q-14 -79 -14 -134 q0 -102 42 -149t124 -47z" />
<glyph unicode="1" d="M500 698q5 0 5 -5l-121 -687q-2 -6 -7 -6h-19q-6 0 -6 6l115 653q-28 -22 -83.5 -65t-74.5 -58l-81 -64q-2 -1 -5 -1q-4 0 -4 2l-11 14v1l-1 2q0 4 3 5l263 202q1 1 7 1h20z" />
<glyph unicode="2" d="M170 558q27 64 92.5 107.5t146.5 43.5q83 0 131.5 -46.5t48.5 -119.5q0 -119 -99 -201l-385 -314h391q6 0 6 -5l-3 -17q-2 -6 -7 -6h-419q-6 0 -6 6l4 24q1 9 13 18l391 316q80 78 80 170q0 63 -42 104.5t-111 41.5q-66 0 -120 -37t-85 -93q-1 -4 -7 -4l-17 4q-7 4 -3 8z " />
<glyph unicode="3" d="M267 -12q-70 0 -113 32.5t-59 68.5q-4 11 2 15q1 1 14 7q5 1 8 -4q20 -39 59 -64t93 -25q87 0 155 64t68 155q0 62 -42 97.5t-113 35.5h-20q-6 0 -6 6l3 19q2 5 8 5h10q73 0 128 47.5t55 120.5q0 49 -34.5 80.5t-90.5 31.5q-47 0 -90.5 -25t-59.5 -49q-4 -7 -8 -3l-19 11 q-2 2 -2 4q77 91 180 91q70 0 114.5 -37t44.5 -97q0 -59 -39 -108.5t-100 -77.5v-4q114 -41 114 -151q0 -100 -79.5 -173t-180.5 -73z" />
<glyph unicode="4" d="M89 215h358l78 438zM523 690q8 7 17 7h18q6 0 6 -5l-85 -477h110q5 0 5 -6l-3 -17q0 -5 -7 -5h-110l-31 -181q-2 -6 -7 -6h-19q-6 0 -6 6l31 181h-398q-4 0 -4 6l3 18l5 4z" />
<glyph unicode="5" d="M243 704q3 5 8 5h344q5 0 5 -5l-4 -18q0 -4 -6 -6h-323l-74 -262q88 37 154 37q90 0 145 -50.5t55 -135.5q0 -116 -86 -198.5t-198 -82.5q-74 0 -118.5 32t-60.5 69q-4 11 2 15q1 1 14 7q5 1 8 -4q21 -40 61.5 -64.5t96.5 -24.5q94 0 170.5 72t76.5 174q0 73 -48.5 117 t-127.5 44q-96 0 -163 -52q-4 -4 -9 -4l-10 4q-2 0 -2 5q0 3 1 4z" />
<glyph unicode="6" d="M358 443q86 0 140 -50t54 -131q0 -116 -79.5 -195t-185.5 -79q-93 0 -144.5 50t-51.5 146q0 37 8 85q22 123 79.5 220.5t154 158.5t216.5 61q4 0 4 -6l-3 -18q0 -5 -6 -5q-141 0 -243 -90t-154 -240l5 -5q49 52 98 75t108 23zM288 18q91 0 161 68.5t70 171.5 q0 71 -45 113.5t-117 42.5q-96 0 -165 -65t-69 -171q0 -72 44 -116t121 -44z" />
<glyph unicode="7" d="M125 5l1 1q146 214 487 663h-436q-4 0 -4 6l3 18q0 5 7 5h461q6 0 6 -5l-4 -23l-10 -20l-20 -26q-283 -369 -448 -613q-7 -11 -16 -11h-24q-3 0 -3 4v1z" />
<glyph unicode="8" d="M440 380q47 -23 71.5 -64t24.5 -88q0 -97 -77.5 -168.5t-178.5 -71.5q-83 0 -133.5 48t-50.5 123q0 66 43 127.5t120 93.5l1 11q-67 48 -67 125q0 80 64.5 136.5t150.5 56.5q69 0 111.5 -38.5t42.5 -98.5q0 -49 -30 -97.5t-91 -83.5zM229 542q-2 -16 -2 -23 q0 -50 35 -85.5t91 -35.5q69 0 122 52t53 115q0 49 -34.5 82t-91.5 33q-64 0 -113.5 -40.5t-59.5 -97.5zM286 18q84 0 150 62.5t66 143.5q0 61 -43 102.5t-112 41.5q-87 0 -152 -61.5t-65 -141.5q0 -63 43.5 -105t112.5 -42z" />
<glyph unicode="9" d="M327 254q-86 0 -140 50t-54 131q0 116 79.5 195t185.5 79q93 0 144.5 -50t51.5 -146q0 -37 -8 -85q-22 -123 -79.5 -220.5t-154 -158.5t-216.5 -61q-4 0 -4 6l3 18q0 5 6 5q141 0 243 90t154 240l-5 5q-49 -52 -98 -75t-108 -23zM397 679q-91 0 -161 -68.5t-70 -171.5 q0 -71 45 -113.5t117 -42.5q96 0 165 65t69 171q0 72 -44 116t-121 44z" />
<glyph unicode=":" horiz-adv-x="240" d="M145 486q3 16 17 27t30 11q14 0 23.5 -9t9.5 -22q0 -17 -14.5 -31t-32.5 -14q-15 0 -24.5 9.5t-9.5 23.5v2q1 2 1 3zM64 26q3 16 17 27.5t30 11.5q14 0 23.5 -9t9.5 -23q0 -17 -14.5 -31t-32.5 -14q-15 0 -24.5 9.5t-9.5 23.5l1 2v3z" />
<glyph unicode=";" horiz-adv-x="244" d="M149 486q3 16 16.5 27t29.5 11q14 0 24 -9t10 -22q0 -17 -14.5 -31t-33.5 -14q-14 0 -23.5 9.5t-9.5 22.5q0 1 0.5 3t0.5 3zM100 -32v6q0 10 -16.5 23t-16.5 25q0 16 14.5 29.5t30.5 13.5q14 0 23.5 -10t9.5 -29q0 -82 -99 -185q-2 -2 -5 -2q-2 0 -3 1l-6 6q0 3 1 4 q58 68 67 118z" />
<glyph unicode="&#x3c;" d="M584 526q0 -6 -5 -8l-440 -188l440 -188q5 -2 5 -8v-19q0 -3 -2.5 -4.5t-5.5 -0.5l-473 205l-3 3l-1 23q0 1 4 5l473 205q3 1 5.5 -1t2.5 -4v-20z" />
<glyph unicode="=" d="M590 422h-496q-7 0 -7 7v18q0 6 7 6h496q7 0 7 -6v-18q0 -7 -7 -7zM590 208h-496q-7 0 -7 7v18q0 6 7 6h496q7 0 7 -6v-18q0 -7 -7 -7z" />
<glyph unicode="&#x3e;" d="M99 526v20q0 2 2.5 4t5.5 1l473 -205q4 -4 4 -5l-1 -23l-3 -3l-473 -205q-3 -1 -5.5 0.5t-2.5 4.5v19q0 6 5 8l440 188l-440 188q-5 2 -5 8z" />
<glyph unicode="?" horiz-adv-x="528" d="M358 679q-99 0 -188 -59q-4 -2 -6 -2q-4 0 -4 3l-7 13q-2 2 -2 5q0 4 3 6q93 64 207 64q87 0 137.5 -42.5t50.5 -109.5q0 -34 -12 -64t-30 -53.5t-54.5 -51.5t-68.5 -48.5t-90 -55.5l-18 -102q-2 -7 -9 -7h-20q-5 0 -5 7l19 108q1 9 15 19q118 66 177.5 120t59.5 121 q0 58 -42.5 93.5t-112.5 35.5zM192 26q3 16 16.5 27.5t29.5 11.5q14 0 24 -9.5t10 -22.5q0 -17 -14.5 -31t-33.5 -14q-15 0 -24 9.5t-9 22.5q0 1 0.5 3t0.5 3z" />
<glyph unicode="@" horiz-adv-x="1023" d="M781 -122q-152 -63 -295 -63q-188 0 -293.5 96t-105.5 255q0 119 47.5 225t125 179t178 115.5t205.5 42.5q161 0 257 -84.5t96 -232.5q0 -91 -36.5 -178.5t-102.5 -145.5t-141 -58q-33 0 -51.5 21.5t-18.5 61.5q0 29 10 66h-6q-106 -149 -231 -149q-61 0 -95 38t-34 108 q0 47 19.5 105.5t53.5 113.5t91 92.5t122 37.5q95 0 154 -103l25 84q2 7 8 7h18q6 0 6 -7l-96 -301q-15 -49 -15 -84q0 -61 49 -61q67 0 123.5 56t85 135t28.5 156q0 131 -87.5 212t-238.5 81q-140 0 -259 -73t-187.5 -195t-68.5 -261q0 -156 100.5 -241t269.5 -85 q57 0 116 11t87.5 20.5t81.5 28.5q4 1 7 -2q4 -16 4 -17q0 -3 -6 -7zM438 59q58 0 118 52.5t100.5 127.5t52.5 146q-49 112 -136 112q-88 0 -168.5 -98t-80.5 -217q0 -60 30.5 -91.5t83.5 -31.5z" />
<glyph unicode="A" horiz-adv-x="682" d="M641 9q0 -9 -7 -9h-17q-8 0 -10 8l-48 189h-409l-114 -189q-6 -8 -12 -8h-19q-5 0 -5 5q0 3 1 4l416 681q5 7 14 7h21q10 0 12 -7zM167 222h385l-82 321l-31 129h-4l-74 -129z" />
<glyph unicode="B" horiz-adv-x="688" d="M499 366q61 -8 93.5 -48.5t32.5 -95.5q0 -92 -70 -157t-200 -65h-267q-6 0 -6 6l121 686q0 5 7 5h278q74 0 118 -38t44 -99q0 -62 -43 -116.5t-107 -69.5zM179 380h230q90 0 148.5 47.5t58.5 127.5q0 52 -36.5 83t-103.5 31h-247zM344 27q111 0 179 47.5t68 150.5 q0 128 -189 128h-228l-58 -326h228z" />
<glyph unicode="C" horiz-adv-x="720" d="M743 607l1 -4l-16 -14q-1 -1 -4 -1q-4 0 -6 1q-38 41 -93 65.5t-116 24.5q-95 0 -180.5 -50t-139.5 -143t-54 -207q0 -119 71.5 -190t186.5 -71q126 0 241 90h2q2 1 3 1t3 -1h2l13 -16q0 -4 -2 -7q-119 -97 -267 -97q-132 0 -209.5 81.5t-77.5 207.5q0 173 120 302.5 t289 129.5q69 0 131 -29t102 -73z" />
<glyph unicode="D" horiz-adv-x="778" d="M446 697q144 0 227.5 -70.5t83.5 -200.5q0 -200 -124 -313t-309 -113h-236q-7 0 -7 5l122 687q0 5 7 5h236zM329 27q170 0 282 107t112 289q0 118 -74 182t-207 64h-213l-113 -642h213z" />
<glyph unicode="E" horiz-adv-x="649" d="M664 669h-435l-52 -298h384q6 0 6 -4l-3 -17q0 -6 -8 -6h-384l-56 -317h435q7 0 7 -4l-3 -17q-2 -6 -8 -6h-459q-6 0 -6 6l121 686q0 5 7 5h459q7 0 7 -5l-3 -17q-2 -6 -9 -6z" />
<glyph unicode="F" horiz-adv-x="610" d="M669 697q7 0 7 -5l-3 -17q-2 -6 -9 -6h-435l-52 -298h384q6 0 6 -4l-3 -17q0 -6 -8 -6h-384l-59 -338q-2 -6 -7 -6h-18q-6 0 -6 6l121 686q0 5 7 5h459z" />
<glyph unicode="G" horiz-adv-x="754" d="M709 327q6 0 6 -5l-40 -228q0 -6 -8 -14q-136 -92 -266 -92q-137 0 -218.5 81.5t-81.5 210.5q0 112 54 211t149 158.5t207 59.5q144 0 232 -101q1 -1 1 -3t-2 -4l-14 -12q-1 -1 -4 -1q-4 0 -6 1q-38 41 -93 65.5t-116 24.5q-146 0 -260 -114.5t-114 -283.5 q0 -118 73.5 -190.5t194.5 -72.5q65 0 135 27t108 59l34 196h-210q-5 0 -5 6l3 16q2 5 7 5h234z" />
<glyph unicode="H" horiz-adv-x="770" d="M762 697q6 0 6 -5l-121 -686q-2 -6 -7 -6h-17q-7 0 -7 6l60 340h-503l-60 -340q-2 -6 -7 -6h-18q-6 0 -6 6l121 686q0 5 7 5h18q6 0 6 -5l-57 -319h503l57 319q0 5 8 5h17z" />
<glyph unicode="I" horiz-adv-x="237" d="M228 697q6 0 6 -5l-121 -686q-2 -6 -7 -6h-18q-6 0 -6 6l121 686q0 5 7 5h18z" />
<glyph unicode="J" horiz-adv-x="459" d="M35 63q49 -45 104 -45q82 0 136.5 51.5t70.5 139.5l86 483q0 5 8 5h18q6 0 6 -5l-87 -489q-17 -95 -84 -155t-158 -60q-77 0 -128 55q-1 1 -1 5l19 15q2 2 5 2q1 0 5 -2z" />
<glyph unicode="K" horiz-adv-x="649" d="M328 376q193 -248 279 -357l11 -14q0 -5 -6 -5h-22q-5 0 -11 4l-273 354l-152 -113l-41 -239q-2 -6 -7 -6h-18q-6 0 -6 6l121 686q0 5 7 5h18q6 0 6 -5l-73 -411l526 411q7 5 13 5h27q7 0 2 -5z" />
<glyph unicode="L" horiz-adv-x="578" d="M536 27q5 0 5 -5l-3 -17q0 -5 -6 -5h-444q-6 0 -6 6l121 686q0 5 7 5h18q6 0 6 -5l-118 -665h420z" />
<glyph unicode="M" horiz-adv-x="889" d="M874 690l-97 -685q0 -5 -6 -5h-20q-6 0 -6 6l70 491q15 102 23 145h-10q-65 -86 -200.5 -273t-158.5 -218q-10 -8 -19 -8h-4q-12 0 -17 10l-185 489h-9q-12 -66 -29 -145l-104 -490q-4 -7 -7 -7h-20q-6 0 -6 5l148 687q3 5 6 5h23q7 0 12 -7l196 -508l370 506q7 9 16 9 h27q3 0 7 -7z" />
<glyph unicode="N" horiz-adv-x="761" d="M754 697q6 0 6 -5l-121 -686q-2 -6 -7 -6h-18q-4 0 -10 4l-375 635h-8q-7 -53 -21 -136l-87 -497q-2 -6 -7 -6h-18q-6 0 -6 5v1l121 686q0 5 7 5h15q7 0 8 -6l376 -635h9q8 66 22 140l88 496q0 5 7 5h19z" />
<glyph unicode="O" horiz-adv-x="821" d="M511 709q131 0 210 -82t79 -207q0 -112 -54.5 -211.5t-149.5 -160t-205 -60.5q-132 0 -211 81.5t-79 207.5q0 173 120.5 302.5t289.5 129.5zM393 18q70 0 137.5 30t119.5 82.5t83.5 128.5t31.5 162q0 118 -70.5 188t-185.5 70q-95 0 -180.5 -50.5t-139.5 -144t-54 -207.5 q0 -118 71 -188.5t187 -70.5z" />
<glyph unicode="P" horiz-adv-x="667" d="M462 697q99 0 156 -48t57 -129q0 -110 -81.5 -177.5t-205.5 -67.5h-228l-47 -269q-2 -6 -7 -6h-18q-6 0 -6 6l121 686q0 5 7 5h252zM400 303q101 0 171 60t70 154q0 70 -48 111t-130 41h-234l-64 -366h235z" />
<glyph unicode="Q" horiz-adv-x="812" d="M510 709q132 0 211 -82t79 -207q0 -84 -33.5 -164.5t-93.5 -143.5q59 -92 64 -97l6 -9q0 -6 -5 -6h-25q-6 0 -13 9l-53 80q-122 -101 -255 -101q-132 0 -211.5 81.5t-79.5 207.5q0 173 120 302.5t289 129.5zM393 18q130 0 238 97q-86 131 -103 156l-5 8q0 6 6 6h24 q4 0 11 -11l91 -138q110 125 110 283q0 118 -71 189t-185 71q-95 0 -180.5 -50t-139.5 -143t-54 -207q0 -119 71.5 -190t186.5 -71z" />
<glyph unicode="R" horiz-adv-x="696" d="M398 275h-238l-47 -269q-2 -6 -7 -6h-18q-6 0 -6 6l121 686q0 5 7 5h252q99 0 156 -47.5t57 -128.5q0 -97 -67 -162.5t-174 -82.5q171 -270 171 -271q0 -5 -5 -5h-22q-7 0 -13 8zM165 303h235q101 0 171 60t70 154q0 70 -48.5 111t-129.5 41h-234z" />
<glyph unicode="S" horiz-adv-x="628" d="M87 93q85 -75 203 -75q107 0 178 52.5t71 137.5q0 55 -52 88t-157 52q-86 15 -135.5 56.5t-49.5 101.5q0 91 77.5 147t183.5 56q133 0 219 -80q1 -1 1 -4q0 -4 -3 -7l-12 -10q-4 -2 -6 -2q-5 0 -6 3q-73 70 -195 70q-96 0 -160 -47.5t-64 -121.5q0 -102 165 -131 q107 -18 168 -61.5t61 -106.5q0 -100 -82.5 -161.5t-204.5 -61.5q-129 0 -224 81q-3 3 -1 6l16 16q3 3 6 3q2 0 3 -1z" />
<glyph unicode="T" horiz-adv-x="599" d="M673 697q7 0 7 -5l-3 -17q-2 -6 -9 -6h-257l-116 -663q-2 -6 -7 -6h-19q-6 0 -6 6l116 663h-259q-3 0 -3 6l3 17q0 5 5 5h548z" />
<glyph unicode="U" horiz-adv-x="779" d="M783 692l-70 -394q-25 -139 -120.5 -224.5t-224.5 -85.5q-114 0 -180.5 65.5t-66.5 176.5q0 32 6 68l70 394q0 5 7 5h18q6 0 6 -5l-68 -384q-6 -36 -6 -69q0 -102 56 -161.5t160 -59.5q122 0 206.5 80t107.5 210l68 384q0 5 7 5h18q6 0 6 -5z" />
<glyph unicode="V" horiz-adv-x="678" d="M754 697q5 0 5 -5q0 -2 -1 -3l-419 -682q-5 -7 -12 -7h-19q-10 0 -10 7l-178 683q0 7 5 7h20q8 0 8 -6l139 -537l15 -69q2 -10 5 -23t4.5 -20t2.5 -11h6l17 28q2 3 20 35.5t35 59.5l327 537q4 6 10 6h20z" />
<glyph unicode="W" horiz-adv-x="909" d="M938 697q5 0 5 -7l-235 -683q-4 -7 -10 -7h-24q-10 0 -10 7l-133 544q-187 -310 -327 -544q-5 -7 -11 -7h-25q-8 0 -8 7l7 683q2 7 6 7h17q8 0 8 -7q-5 -415 -5 -500q0 -8 -4 -146l8 -1l315 529q5 7 14 7h20q7 0 9 -7l129 -529l8 1q42 135 51 155l168 491q3 7 10 7h17z " />
<glyph unicode="X" horiz-adv-x="641" d="M603 10q1 -1 1 -4q0 -6 -6 -6h-19q-7 0 -14 10l-207 322l-321 -324q-10 -8 -14 -8h-23q-5 0 -5 5q0 1 2 5l345 345q-131 203 -203 315l-13 21q0 6 7 6h22q7 0 11 -7l196 -312q58 58 168 169.5t140 142.5q9 7 13 7h26q5 0 5 -5q0 -1 -2 -3l-332 -332z" />
<glyph unicode="Y" horiz-adv-x="604" d="M695 697q3 0 3 -4q0 -2 -1 -3l-351 -404l-49 -280q-2 -6 -8 -6h-18q-6 0 -6 6l49 280l-208 404q0 7 4 7h21q4 0 9 -7l194 -376l325 377q3 6 10 6h26z" />
<glyph unicode="Z" horiz-adv-x="665" d="M43 6l2 13q0 4 9 13q41 44 260.5 279t331.5 358h-470q-4 0 -4 6l3 17q0 5 6 5h504q7 0 7 -5l-3 -13q0 -5 -6 -11l-596 -641h491q7 0 7 -4l-3 -17q-2 -6 -8 -6h-526q-5 0 -5 6z" />
<glyph unicode="[" horiz-adv-x="319" d="M362 714h-135l-156 -887h135q7 0 7 -6l-3 -16q0 -6 -9 -6h-159q-6 0 -6 6l164 931q2 6 8 6h159q7 0 7 -6l-3 -16q0 -6 -9 -6z" />
<glyph unicode="\" horiz-adv-x="335" d="M127 742h14q8 0 10 -8l133 -807q0 -8 -6 -8h-15q-4 0 -9 7q-22 131 -66 404t-65 404q0 8 4 8z" />
<glyph unicode="]" horiz-adv-x="318" d="M298 714h-134q-6 0 -6 6l3 16q2 6 8 6h159q5 0 5 -6l-164 -931q0 -6 -7 -6h-159q-6 0 -6 6l3 16q0 6 8 6h134z" />
<glyph unicode="^" horiz-adv-x="606" d="M577 375q5 -8 -7 -8h-18q-7 0 -12 8l-196 336l-196 -336q-5 -8 -13 -8h-18q-11 0 -6 8l206 349q4 9 14 9h25q10 0 14 -9z" />
<glyph unicode="_" horiz-adv-x="573" d="M616 -176v-16h-583v16h583z" />
<glyph unicode="`" horiz-adv-x="450" d="M305 747l35 -111q0 -9 -8 -9h-6q-8 0 -8 4l-62 114q-1 1 -1 3q0 5 7 5h34q8 0 9 -6z" />
<glyph unicode="a" horiz-adv-x="551" d="M438 189l14 79h-59q-67 0 -118 -7t-94.5 -23.5t-67 -48.5t-23.5 -78q0 -45 33 -69.5t95 -24.5q66 0 136.5 50t83.5 122zM176 483q-1 2 -1 4q0 3 4 5q77 32 167 32q66 0 109.5 -35.5t43.5 -109.5q0 -25 -4 -48l-57 -325q-2 -6 -8 -6h-16q-6 0 -6 6l15 86h-8 q-35 -43 -94.5 -73.5t-120.5 -30.5q-65 0 -104 32t-39 83q0 189 331 189h68l5 31q5 32 5 53q0 120 -138 120q-60 0 -133 -26l-8 -3q-2 -1 -4 -1t-4 2z" />
<glyph unicode="b" horiz-adv-x="615" d="M93 0h-16q-6 0 -6 5l129 731q2 6 7 6h20q5 0 3 -5l-47 -271q-3 -17 -7 -36t-6 -30l-2 -10h8q37 56 100 95t138 39q77 0 126 -49.5t49 -142.5q0 -78 -27 -144.5t-70 -109t-95.5 -66.5t-105.5 -24q-59 0 -99 15.5t-84 46.5l-8 -45q0 -5 -7 -5zM286 17q107 0 187.5 84.5 t80.5 224.5q0 81 -39.5 125.5t-115.5 44.5q-81 0 -158 -68.5t-97 -180.5l-29 -164q29 -23 44 -33t49.5 -21.5t77.5 -11.5z" />
<glyph unicode="c" horiz-adv-x="512" d="M457 76q7 -15 7 -16q0 -4 -3 -7q-97 -65 -185 -65q-94 0 -147.5 51.5t-53.5 146.5q0 156 85 247t209 91q91 0 164 -64l1 -2v-3q0 -3 -1 -4l-10 -13q-1 -2 -5 -2t-5 1q-64 59 -147 59q-108 0 -183 -82t-75 -223q0 -84 45.5 -129t127.5 -45q78 0 166 61q4 2 6 2q3 0 4 -4z " />
<glyph unicode="d" horiz-adv-x="615" d="M625 742q5 0 5 -5l-128 -731q-2 -6 -7 -6h-15q-6 0 -6 6l20 116l-8 -1q-38 -57 -99 -95t-138 -38t-126.5 49t-49.5 142q0 78 26.5 144.5t69.5 109.5t96 67t107 24q57 0 96 -15t84 -46l48 274q2 5 8 5h17zM377 496q-108 0 -189 -85t-81 -225q0 -80 40 -124.5t116 -44.5 q81 0 157.5 68t96.5 180l29 164q-28 24 -43 34t-49.5 21.5t-76.5 11.5z" />
<glyph unicode="e" horiz-adv-x="584" d="M121 284h397q4 23 4 52q0 76 -40.5 118t-111.5 42q-87 0 -154.5 -56.5t-94.5 -155.5zM546 265q0 -4 -8 -8h-424q-5 -30 -5 -56q0 -87 51 -135.5t140 -48.5q78 0 163 34q4 2 6 -3l6 -17q0 -7 -5 -9q-22 -13 -78.5 -23.5t-98.5 -10.5q-101 0 -159 56.5t-58 152.5 q0 144 88.5 235.5t208.5 91.5q87 0 133.5 -47.5t46.5 -137.5q0 -36 -7 -74z" />
<glyph unicode="f" horiz-adv-x="346" d="M484 712q-37 11 -88 11q-138 0 -162 -136l-13 -75h178q6 0 6 -6l-3 -15q0 -6 -8 -6h-178l-84 -479q-2 -6 -7 -6h-17q-7 0 -7 6l84 479h-87q-5 0 -5 6l3 15q0 6 7 6h87l12 71q13 79 65.5 124t135.5 45q33 0 65 -5.5t32 -13.5v-6l-6 -11q-3 -4 -10 -4z" />
<glyph unicode="g" horiz-adv-x="607" d="M267 48q80 0 154 68.5t92 173.5l21 124q-25 22 -36 30.5t-35.5 24t-51 21.5t-58.5 6q-102 0 -172.5 -77t-70.5 -207q0 -77 41 -120.5t116 -43.5zM209 -210q-54 0 -82 6t-61 23q-6 2 -6 7q0 1 4 9l6 11q2 4 7 4q2 0 6 -2q58 -28 133 -28q85 0 159 51t88 135l10 58 q16 88 18 90h-8q-33 -56 -93.5 -94.5t-136.5 -38.5q-79 0 -127 49.5t-48 137.5q0 131 81.5 223.5t188.5 92.5q61 0 104 -19t91 -56l10 58q0 5 8 5h16q5 0 5 -5l-87 -495q-18 -99 -100 -160.5t-186 -61.5z" />
<glyph unicode="h" horiz-adv-x="584" d="M387 524q71 0 109.5 -35.5t38.5 -102.5q0 -23 -5 -56l-57 -324q-2 -6 -7 -6h-18q-5 0 -5 6l54 309q5 33 5 57q0 62 -28 93t-93 31q-76 0 -145 -61t-81 -128l-53 -301q-2 -6 -6 -6h-18q-6 0 -6 6l128 731q2 5 8 5h18q4 0 4 -5l-46 -261l-12 -62l8 -1q93 111 207 111z" />
<glyph unicode="i" horiz-adv-x="217" d="M185 512q5 0 5 -5l-88 -501q-2 -6 -7 -6h-17q-6 0 -6 6l88 501q0 5 8 5h17zM183 715q2 11 11 19t21 8q10 0 17.5 -7t7.5 -17q0 -13 -11 -22t-23 -9q-11 0 -17.5 6t-6.5 16q0 1 0.5 3t0.5 3z" />
<glyph unicode="j" horiz-adv-x="217" d="M-182 -171q34 -10 86 -10q134 0 159 137l97 550q0 6 7 6h18q5 0 5 -6l-97 -546q-14 -79 -64.5 -124.5t-132.5 -45.5q-36 0 -68 5t-32 13q0 1 2 6t6.5 10t9.5 5h4zM183 715q2 11 11 19t21 8q11 0 18.5 -7t7.5 -17q0 -13 -11 -22t-24 -9q-11 0 -17.5 6t-6.5 16q0 1 0.5 3 t0.5 3z" />
<glyph unicode="k" horiz-adv-x="501" d="M280 305l174 -300q0 -5 -5 -5h-20q-7 0 -10 6l-159 281l-127 -101l-31 -180q-2 -6 -6 -6h-18q-6 0 -6 6l128 731q2 5 8 5h18q4 0 4 -5l-80 -454l-11 -55l8 -1l337 281q6 4 11 4h27q3 0 3 -3l-1 -3z" />
<glyph unicode="l" horiz-adv-x="217" d="M226 742q4 0 4 -5l-128 -731q-2 -6 -6 -6h-18q-6 0 -6 6l128 731q2 5 8 5h18z" />
<glyph unicode="m" horiz-adv-x="918" d="M729 524q67 0 103.5 -35t36.5 -100q0 -27 -6 -59l-57 -324q-2 -6 -7 -6h-17q-6 0 -6 6l54 309q6 34 6 66q0 58 -26.5 86.5t-87.5 28.5q-73 0 -138 -60.5t-77 -128.5l-53 -301q-2 -6 -7 -6h-17q-6 0 -6 6l54 309q6 35 6 64q0 117 -115 117q-73 0 -138 -62.5t-77 -130.5 l-52 -297q-2 -6 -6 -6h-18q-7 0 -7 6l88 501q0 5 9 5h18q4 0 4 -5l-6 -32l-12 -61l8 -1q87 111 195 111q61 0 98.5 -34t43.5 -94q91 128 212 128z" />
<glyph unicode="n" horiz-adv-x="586" d="M385 524q71 0 110.5 -37t39.5 -105q0 -20 -5 -52l-57 -324q-2 -6 -7 -6h-18q-5 0 -5 6l54 309q5 33 5 59q0 61 -29 91.5t-94 30.5q-76 0 -144 -60.5t-80 -128.5l-53 -301q-2 -6 -6 -6h-18q-6 0 -6 6l88 501q0 5 8 5h18q4 0 4 -5l-6 -32l-12 -61l8 -1q89 111 205 111z" />
<glyph unicode="o" horiz-adv-x="615" d="M379 524q93 0 150 -58t57 -154q0 -138 -91 -231t-211 -93q-94 0 -151 57.5t-57 152.5q0 138 91 232t212 94zM289 17q106 0 184.5 82t78.5 213q0 85 -48.5 134.5t-129.5 49.5q-106 0 -186 -83.5t-80 -212.5q0 -85 49 -134t132 -49z" />
<glyph unicode="p" horiz-adv-x="615" d="M59 -200h-18q-5 0 -5 5l124 701q0 6 7 6h20q3 0 3 -5l-8 -42l-14 -75h7q34 56 98.5 95t140.5 39q77 0 126 -49.5t49 -142.5q0 -78 -27 -144.5t-70 -109t-95.5 -66.5t-105.5 -24q-58 0 -97 15t-85 47l-43 -245q-2 -5 -7 -5zM286 17q107 0 187.5 84.5t80.5 224.5 q0 81 -39.5 125.5t-115.5 44.5q-81 0 -158 -68t-97 -180l-29 -165q29 -23 44 -33t49.5 -21.5t77.5 -11.5z" />
<glyph unicode="q" horiz-adv-x="615" d="M570 512h15q5 0 5 -5l-124 -702q0 -6 -7 -6h-19q-6 0 -4 5l43 243q12 72 15 75h-8q-34 -56 -98 -95t-139 -39q-77 0 -126.5 49t-49.5 142q0 78 26.5 144.5t69.5 109.5t96 67t107 24q57 0 97 -15t85 -46l8 44q0 5 8 5zM377 496q-108 0 -189 -85t-81 -225q0 -80 40 -124.5 t116 -44.5q81 0 157.5 68t96.5 180l29 164q-28 24 -43 34t-49.5 21.5t-76.5 11.5z" />
<glyph unicode="r" horiz-adv-x="392" d="M449 514q5 -2 5 -8l-7 -23q-2 -4 -7 -4q-23 15 -67 15q-78 0 -145.5 -76t-86.5 -188l-39 -224q-2 -6 -6 -6h-18q-6 0 -6 6l88 501q0 5 8 5h18q4 0 4 -5l-10 -56q-12 -54 -12 -63l6 1q37 62 92.5 98.5t123.5 36.5q32 0 59 -10z" />
<glyph unicode="s" horiz-adv-x="470" d="M198 17q78 0 131 39.5t53 96.5q0 32 -28 52.5t-68.5 31t-80.5 23t-68 37.5t-28 64q0 67 56 115t139 48q110 0 155 -33q4 -4 1 -8q-11 -15 -12 -16q-4 -2 -7 0q-56 28 -134 28q-73 0 -119 -36.5t-46 -91.5q0 -33 28.5 -53.5t69 -32t80.5 -23.5t68.5 -37.5t28.5 -64.5 q0 -69 -64 -118.5t-153 -49.5q-110 0 -155 33q-4 4 -1 8q11 15 12 16q4 2 7 0q56 -28 135 -28z" />
<glyph unicode="t" horiz-adv-x="390" d="M338 6q-36 -18 -90 -18q-127 0 -127 114q0 21 4 41l60 342h-87q-5 0 -5 6l3 15q0 6 7 6h87l26 149q0 4 8 4h18q5 0 5 -4l-26 -149h179q6 0 6 -6l-3 -15q0 -6 -8 -6h-179l-60 -338q-1 -4 -4 -38q0 -92 99 -92q30 0 80 16q7 2 8 -5l4 -14q0 -6 -5 -8z" />
<glyph unicode="u" horiz-adv-x="586" d="M245 -12q-70 0 -108.5 36.5t-38.5 103.5q0 29 5 54l57 324q0 6 7 6h18q5 0 5 -6l-55 -308q-4 -19 -6 -60q0 -61 30 -91t96 -30q75 0 143 60.5t80 128.5l53 300q0 6 6 6h18q6 0 6 -6l-89 -501q0 -5 -7 -5h-18q-5 0 -5 5l6 31l13 63l-9 1q-90 -112 -207 -112z" />
<glyph unicode="v" horiz-adv-x="500" d="M525 512q3 0 3 -6l-281 -501q-3 -5 -7 -5h-23q-5 0 -7 5l-103 502q0 5 5 5h20q4 0 6 -5q8 -39 39 -184.5t44 -218t8 -72.5l7 1q17 44 61 122l198 352q3 5 8 5h22z" />
<glyph unicode="w" horiz-adv-x="747" d="M760 512q6 0 6 -6l-210 -499q-5 -7 -12 -7h-29q-8 0 -10 8l-60 359q-10 80 -10 88l-6 -1l-5 -11q-5 -11 -15 -33.5t-21 -42.5l-188 -359q-6 -8 -11 -8h-30q-9 0 -9 7l-34 500q0 5 8 5h16q6 0 8 -6l24 -351q5 -76 2 -127l7 1q57 110 235 449q2 7 11 7h19q4 0 9 -7l75 -450 l7 1q-1 0 5.5 17.5t18.5 48.5t24 60l147 351q2 6 10 6h18z" />
<glyph unicode="x" horiz-adv-x="476" d="M415 8l1 -1v-2q0 -5 -5 -5h-18q-10 0 -13 9l-84 153l-36 68h-5l-8 -9q-8 -9 -22.5 -26t-28.5 -33l-138 -152q-10 -10 -14 -10h-21q-5 0 -5 4q0 2 2 4l225 248q-136 247 -136 249q0 7 5 7h20q4 0 9 -9l85 -154l34 -66h5l198 220q9 9 14 9h20q4 0 4 -4q0 -3 -2 -5 l-222 -245z" />
<glyph unicode="y" horiz-adv-x="508" d="M513 512h19q3 0 3 -3t-1 -5l-397 -696q-4 -8 -11 -8h-15q-4 0 -4 8l105 186q-36 182 -106 510q0 8 7 8h16q5 0 10 -7l72 -351l22 -118h8l51 96l210 373q4 7 11 7z" />
<glyph unicode="z" horiz-adv-x="507" d="M433 26q7 0 7 -5l-2 -15q-2 -6 -9 -6h-396q-5 0 -5 6l2 15q2 5 6 9l438 455h-346q-5 0 -5 7l3 15q0 5 7 5h375q6 0 6 -5l-3 -17q-1 -4 -6 -9q-169 -175 -438 -455h366z" />
<glyph unicode="{" horiz-adv-x="380" d="M434 737l-2 -15q-2 -6 -8 -6h-10q-77 0 -110.5 -29.5t-47.5 -110.5l-15 -87q-13 -75 -54.5 -134.5t-100.5 -80.5l-1 -7q41 -16 62 -58.5t21 -99.5q0 -25 -5 -58l-14 -84q-6 -33 -6 -57q0 -46 26 -64.5t88 -18.5h10q6 0 6 -5l-3 -16q0 -6 -8 -6h-26q-65 0 -94 26t-29 82 q0 27 6 60l14 83q5 26 5 58q0 69 -28.5 109t-66.5 41l-4 5l3 14q0 6 4 6q50 0 99 54.5t66 149.5l15 86q15 88 55.5 128t120.5 40h26q6 0 6 -5z" />
<glyph unicode="|" horiz-adv-x="249" d="M242 742q5 0 5 -6l-164 -930q0 -6 -7 -6h-18q-6 0 -6 6l164 930q2 6 8 6h18z" />
<glyph unicode="}" horiz-adv-x="380" d="M159 722l2 15q3 5 8 5h26q65 0 94.5 -26.5t29.5 -82.5q0 -26 -6 -59l-15 -86q-6 -33 -6 -60q0 -68 29 -106t70 -38q2 0 2 -6l-3 -14l-6 -5q-46 -1 -97 -58.5t-67 -150.5l-14 -82q-14 -87 -56 -127.5t-121 -40.5h-26q-6 0 -6 6l3 16q0 5 8 5h10q76 0 110 30t47 110l14 83 q12 75 55 135.5t102 81.5l1 7q-42 17 -63.5 60t-21.5 100q0 23 5 55l15 87q6 33 6 57q0 47 -25.5 65t-87.5 18h-10q-6 0 -6 6z" />
<glyph unicode="~" horiz-adv-x="703" d="M680 425q7 0 5 -6q-9 -69 -52.5 -115.5t-98.5 -46.5q-26 0 -58.5 13.5t-48.5 23.5t-50 33q-32 22 -45.5 30.5t-37.5 19t-43 10.5q-46 0 -77.5 -37t-41.5 -94q-2 -8 -9 -8h-18q-6 0 -4 6q8 69 51.5 115.5t99.5 46.5q54 0 156 -69q33 -22 46.5 -30.5t38 -19t42.5 -10.5 q46 0 77.5 36.5t40.5 93.5q2 8 8 8h19z" />
<glyph unicode="&#xa1;" horiz-adv-x="284" d="M62 -201q-5 0 -5 5l35 197l61 297q3 6 7 6h4q7 0 7 -5v-1l-42 -296l-35 -198q-2 -5 -8 -5h-24zM234 486q-2 -15 -16 -26.5t-30 -11.5q-14 0 -23.5 9.5t-9.5 22.5q0 17 15 30.5t32 13.5q14 0 23.5 -9t9.5 -22q0 -1 -0.5 -3.5t-0.5 -3.5z" />
<glyph unicode="&#xa2;" horiz-adv-x="510" d="M407 697q6 0 6 -5l-14 -76q83 -6 147 -63q1 -2 1 -7l-9 -14q-4 -3 -9 -3q-1 0 -3 1q-64 59 -144 59q-108 0 -184.5 -81.5t-76.5 -220.5q0 -85 44.5 -130.5t126.5 -45.5q76 0 168 62l1 1h2t7 -3l9 -17q-3 -5 -4 -6q-86 -59 -170 -66l-13 -76q-2 -6 -8 -6h-18q-6 0 -6 6 l13 76q-87 6 -135.5 57.5t-48.5 142.5q0 147 80 237t198 97l14 76q0 5 8 5h18z" />
<glyph unicode="&#xa3;" horiz-adv-x="576" d="M504 -4q-28 -8 -108 -8q-24 0 -93 11.5t-115 11.5q-40 0 -135 -15q-7 -2 -7 5l-6 39q0 7 8 10q59 23 98 99.5t47 176.5h-88q-6 0 -6 7l3 16q0 3 8 6h85q1 112 9 156q14 84 82 141t157 57q97 0 145 -46q1 -1 1 -3q0 -3 -2 -5l-11 -9q-3 -4 -8 -4q-3 0 -5 2q-39 35 -124 35 q-79 0 -133 -46t-67 -120q-10 -57 -11 -158h185q6 0 6 -5l-3 -17q0 -5 -8 -7h-179q-1 -5 -2 -14.5t-2 -14.5q-2 -23 -10 -54.5t-25 -73t-49 -79.5t-73 -59v-3q1 -2 1 -3q50 13 128 13q36 0 107.5 -11t109.5 -11q17 0 47.5 3t43.5 3q4 0 6 -2l1 -17q0 -5 -8 -7z" />
<glyph unicode="&#xa4;" d="M552 143q3 -5 0 -10l-12 -11q-5 -4 -9 0l-55 53q-60 -50 -135 -50q-76 0 -134 50l-55 -54q-5 -4 -10 1l-12 11q-4 5 0 9l55 55q-50 58 -50 135q0 76 50 134l-54 54q-5 5 -1 9l13 13q5 5 10 0l54 -54q58 50 134 50q77 0 135 -50l54 54q5 5 9 1l13 -13q3 -5 0 -10l-54 -54 q50 -58 50 -134q0 -77 -50 -135zM341 156q73 0 124.5 51.5t51.5 124.5t-51.5 124.5t-124.5 51.5t-124.5 -51.5t-51.5 -124.5t51.5 -124.5t124.5 -51.5z" />
<glyph unicode="&#xa5;" horiz-adv-x="604" d="M697 698q2 0 2 -3t-1 -4q-184 -212 -227 -262h134q6 0 6 -5l-3 -17q0 -6 -8 -6h-155l-98 -115l-5 -30h233q6 0 6 -5l-3 -18q-2 -6 -8 -6h-233l-39 -221q-2 -6 -8 -6h-18q-6 0 -6 6l39 221h-233q-5 0 -5 6l3 18q0 5 7 5h233l5 30l-60 115h-153q-5 0 -5 6l3 17q2 5 7 5h132 l-134 262q0 7 5 7h24q3 0 8 -7l194 -377l327 378q1 6 10 6h24z" />
<glyph unicode="&#xa6;" horiz-adv-x="249" d="M242 742q5 0 5 -6l-68 -387q0 -6 -7 -6h-18q-6 0 -6 6l68 387q2 6 8 6h18zM147 203q5 0 5 -5l-69 -392q0 -6 -7 -6h-18q-6 0 -6 6l69 392q3 5 8 5h18z" />
<glyph unicode="&#xa7;" horiz-adv-x="529" d="M312 104q63 -41 91 -72.5t28 -70.5q0 -71 -63.5 -121t-158.5 -50q-100 0 -171 62q-1 0 -1 4q0 3 1 4l19 18q2 0 8 -2q71 -58 143 -58q78 0 133 36t55 98q0 41 -37.5 73.5t-123.5 76.5q-72 37 -106.5 73.5t-34.5 80.5q0 63 50.5 109t130.5 77q-67 41 -95.5 71t-28.5 68 q0 72 63 121.5t159 49.5q104 0 170 -63l-1 -6l-17 -15q-1 -1 -3 -1q-3 0 -5 1q-75 56 -143 56q-80 0 -135 -36t-55 -98q0 -39 38.5 -71.5t122.5 -77.5q80 -51 111.5 -81t31.5 -73q0 -110 -176 -183zM130 285q-2 -14 -2 -21q0 -40 30 -68t99 -68q20 -11 26 -14 q170 79 170 164q0 40 -29.5 67.5t-98.5 68.5l-27 16q-156 -73 -168 -145z" />
<glyph unicode="&#xa8;" horiz-adv-x="467" d="M232 647q-14 0 -23 9t-9 21q0 16 13.5 28t30.5 12q12 0 21 -8.5t9 -21.5q0 -15 -13.5 -27.5t-28.5 -12.5zM423 647q-13 0 -22 9t-9 21q0 16 14 28t29 12q14 0 23 -8.5t9 -21.5q0 -15 -13.5 -27.5t-30.5 -12.5z" />
<glyph unicode="&#xa9;" horiz-adv-x="883" d="M621 212l13 -15q4 -7 -1 -13q-61 -55 -149 -55q-99 0 -159.5 62.5t-60.5 163.5q0 100 60.5 162t159.5 62q78 0 149 -56q3 -2 3 -6t-2 -5l-15 -14q-7 -6 -12 -1q-48 45 -123 45t-126.5 -52.5t-51.5 -134.5q0 -84 51.5 -135.5t126.5 -51.5q74 0 125 46q6 4 12 -2zM479 752 q165 0 281.5 -117t116.5 -281t-116.5 -281t-281.5 -117t-281 116.5t-116 281.5t116 281.5t281 116.5zM479 -13q151 0 259 107.5t108 259.5q0 151 -107.5 258.5t-259.5 107.5q-151 0 -258.5 -107t-107.5 -259t107.5 -259.5t258.5 -107.5z" />
<glyph unicode="&#xaa;" horiz-adv-x="551" d="M438 500l10 56h-38q-67 0 -112 -8t-77 -34t-32 -71q0 -66 91 -66q47 0 98 36t60 87zM447 363q-2 -6 -8 -6h-16q-5 0 -5 6l11 65h-6q-32 -41 -67 -60.5t-88 -19.5q-51 0 -81.5 24.5t-30.5 64.5q0 144 244 144h52l7 38q2 16 2 22q0 40 -26.5 62t-76.5 22q-58 0 -118 -25 q-5 0 -9 2l-3 17q0 10 53.5 22t95.5 12q49 0 82 -28t33 -85q0 -18 -3 -37z" />
<glyph unicode="&#xab;" horiz-adv-x="550" d="M101 284q163 -199 163 -200q0 -3 -2 -5l-15 -12q-1 -1 -4 -1q-4 0 -5 1l-173 210q-2 4 -2 7q0 5 4 8l247 211q1 1 6 1q3 0 4 -1l10 -12q1 -1 1 -3l-1 -4zM351 284q162 -199 162 -200q0 -3 -2 -5l-14 -12q-1 -1 -4 -1q-4 0 -5 1l-173 210q-2 4 -2 7q0 5 4 8l247 211 q1 1 6 1q3 0 4 -1l9 -12q1 -1 1 -3l-1 -4z" />
<glyph unicode="&#xac;" d="M571 118q-7 0 -7 5v252h-471q-6 0 -6 7v19q0 6 6 6h496q7 0 7 -6v-278q0 -5 -7 -5h-18z" />
<glyph unicode="&#xad;" horiz-adv-x="351" d="M82 297q0 5 8 5h238q6 0 6 -5l-3 -19q-2 -6 -9 -6h-238q-5 0 -5 6z" />
<glyph unicode="&#xae;" horiz-adv-x="883" d="M537 300l126 -153q3 -4 1 -7t-8 -3h-29q-9 0 -16 8q-19 22 -60.5 75.5t-65.5 80.5h-124v-158q0 -6 -7 -6h-26q-8 0 -8 6v424q0 6 8 6h160q71 0 115.5 -37.5t44.5 -98.5q0 -45 -29.5 -80.5t-81.5 -56.5zM361 339h138q49 0 77.5 26t28.5 72t-28.5 72t-77.5 26h-138v-196z M479 752q165 0 281.5 -117t116.5 -281t-116.5 -281t-281.5 -117t-281 116.5t-116 281.5t116 281.5t281 116.5zM479 -13q151 0 259 107.5t108 259.5q0 151 -107.5 258.5t-259.5 107.5q-151 0 -258.5 -107t-107.5 -259t107.5 -259.5t258.5 -107.5z" />
<glyph unicode="&#xaf;" horiz-adv-x="468" d="M499 726l-3 -14q-2 -7 -9 -7h-295q-8 0 -8 7l3 14q0 6 10 6h295q7 0 7 -6z" />
<glyph unicode="&#xb0;" horiz-adv-x="453" d="M111 568q0 63 45 106t105 43q62 0 106.5 -43.5t44.5 -105.5q0 -61 -44 -105t-107 -44q-61 0 -105.5 43.5t-44.5 105.5zM143 568q0 -50 34.5 -84t83.5 -34q51 0 85.5 34t34.5 84q0 51 -34.5 85t-85.5 34q-50 0 -84 -34t-34 -85z" />
<glyph unicode="&#xb1;" d="M88 386q0 6 6 6h233v232q0 6 7 6h18q5 0 5 -6v-232h233q7 0 7 -6v-19q0 -6 -7 -6h-233v-232q0 -7 -5 -7h-18q-7 0 -7 7v232h-233q-6 0 -6 6v19zM590 0h-496q-7 0 -7 7v18q0 6 7 6h496q7 0 7 -6v-18q0 -7 -7 -7z" />
<glyph unicode="&#xb2;" horiz-adv-x="270" d="M285 520l-177 -150h179q4 0 4 -4l-3 -18q-2 -5 -6 -5h-219q-4 0 -4 5l3 17q1 7 11 15l198 168q30 26 30 69q0 29 -19 46.5t-50 17.5q-27 0 -52.5 -16.5t-38.5 -41.5q-6 -10 -11 -7q-9 3 -13 5q-4 1 -4 7q0 4 1 5q16 33 48.5 54.5t74.5 21.5q44 0 70.5 -25t26.5 -63 q0 -60 -49 -101z" />
<glyph unicode="&#xb3;" horiz-adv-x="258" d="M71 403l16 8l2 1h3t3 -2q8 -20 26.5 -32.5t41.5 -12.5q39 0 69 28.5t30 70.5q0 29 -19.5 46t-51.5 17h-19q-4 0 -4 4l4 20q0 4 5 4h15q33 0 57 22t24 55q0 23 -15 36t-39 13t-42.5 -12t-26.5 -21t-10 -7l-14 9q-2 0 -2 4q0 14 31 34.5t69 20.5q37 0 60.5 -21.5 t23.5 -53.5q0 -44 -58 -90q44 -32 44 -83q0 -50 -42.5 -87t-93.5 -37q-42 0 -65 18t-28 39q0 6 6 9z" />
<glyph unicode="&#xb4;" horiz-adv-x="450" d="M296 636l73 111q5 6 11 6h34q6 0 6 -4q0 -2 -2 -4l-103 -114q-4 -4 -9 -4h-6q-5 0 -5 5q0 3 1 4z" />
<glyph unicode="&#xb5;" horiz-adv-x="577" d="M236 -12q-88 0 -128 66l-44 -249q0 -6 -7 -6h-19q-6 0 -6 6l124 701q0 6 7 6h18q7 0 7 -6l-56 -316q-5 -32 -5 -53q0 -120 128 -120q75 0 141.5 60.5t78.5 128.5l53 300q0 6 6 6h19q6 0 6 -6l-89 -501q0 -5 -7 -5h-19q-5 0 -5 5l6 31l13 62l-9 1q-37 -47 -93 -79 t-120 -32z" />
<glyph unicode="&#xb6;" horiz-adv-x="596" d="M636 669h-43l-153 -864q0 -6 -7 -6h-17q-7 0 -7 6l153 864h-161l-153 -864q0 -6 -7 -6h-18q-7 0 -7 6l87 490q-91 0 -144.5 47.5t-53.5 120.5q0 104 75 169t190 65h271q6 0 6 -5l-3 -16q-2 -7 -8 -7z" />
<glyph unicode="&#xb7;" horiz-adv-x="282" d="M235 337q-3 -15 -16.5 -26.5t-29.5 -11.5q-15 0 -24 9t-9 22q0 18 14.5 31.5t32.5 13.5q14 0 23.5 -9t9.5 -22q0 -2 -0.5 -4t-0.5 -3z" />
<glyph unicode="&#xb8;" horiz-adv-x="461" d="M262 -61q25 -16 25 -46q0 -42 -43.5 -72.5t-100.5 -30.5q-64 0 -64 12l3 13q0 2 4 4.5t6 2.5q22 -6 41 -6q53 0 86 19t33 52q0 15 -13 26.5t-13 19.5q0 12 10.5 37t14.5 25h19q6 0 6 -5q0 -7 -2.5 -16t-6.5 -19.5t-5 -15.5z" />
<glyph unicode="&#xb9;" horiz-adv-x="223" d="M113 577q-2 -2 -5 -2q-2 0 -3 1l-9 14q0 1 2 5l129 99l8 4h21q4 0 4 -4l-62 -351q-2 -5 -6 -5h-21q-5 0 -5 5l56 318z" />
<glyph unicode="&#xba;" horiz-adv-x="613" d="M348 360q77 0 135.5 59.5t58.5 154.5q0 62 -36.5 98t-96.5 36q-77 0 -135.5 -59.5t-58.5 -154.5q0 -63 36.5 -98.5t96.5 -35.5zM414 736q71 0 115.5 -45.5t44.5 -116.5q0 -102 -70.5 -172.5t-160.5 -70.5q-73 0 -116.5 44t-43.5 116q0 101 69.5 173t161.5 72z" />
<glyph unicode="&#xbb;" horiz-adv-x="551" d="M279 86l232 200l-163 199q0 3 3 6l14 12q2 2 5 2t5 -2l172 -211q1 -2 1 -6q0 -6 -5 -9l-246 -210q-1 -1 -4 -1q-4 0 -5 1q-12 13 -12 14q0 3 3 5zM29 86l232 200l-163 199q0 3 3 6l14 12q2 2 5 2t5 -2l174 -211v-5q0 -6 -4 -10l-248 -210q-1 -1 -5 -1q-3 0 -4 1 q-12 13 -12 14q0 3 3 5z" />
<glyph unicode="&#xbc;" horiz-adv-x="760" d="M432 110q1 8 10 17l216 224q8 8 18 8h17q5 0 5 -5l-42 -236h51q4 0 4 -5l-3 -18q0 -5 -6 -5h-51l-15 -86q0 -4 -5 -4h-21q-6 0 -6 4l15 86h-184q-5 0 -5 7zM471 118h153l34 193zM232 661l-110 -84q-6 -6 -8 -1l-9 12v6l132 100l8 4h21q4 0 4 -4l-62 -351q-2 -5 -6 -5h-21 q-5 0 -5 5zM668 698h15q5 0 5 -3q0 -2 -1 -3l-523 -683q-7 -9 -13 -9h-17q-5 0 -5 3t1 4l525 685q5 6 13 6z" />
<glyph unicode="&#xbd;" horiz-adv-x="797" d="M232 661l-110 -84q-6 -6 -8 -1l-9 12v6l132 100l8 4h21q4 0 4 -4l-62 -351q-2 -5 -6 -5h-21q-5 0 -5 5zM735 177l-178 -150h180q5 0 5 -4l-4 -18q0 -5 -5 -5h-219q-6 0 -6 5l3 17l9 12l2 2l1 1l199 168q28 25 28 69q0 29 -18 46t-49 17q-27 0 -52.5 -15t-38.5 -40 q-3 -9 -11 -8l-16 6q-3 1 -3 3q0 3 1 5q17 31 51.5 54t73.5 23q43 0 70 -24.5t27 -62.5q0 -59 -50 -101zM668 698h15q5 0 5 -3q0 -2 -1 -3l-523 -683q-7 -9 -13 -9h-17q-5 0 -5 3t1 4l525 685q5 6 13 6z" />
<glyph unicode="&#xbe;" horiz-adv-x="776" d="M82 403l9 5q1 1 4 1q1 0 3 -1h1q18 -43 76 -43q39 0 69 28.5t30 70.5q0 29 -19.5 46t-51.5 17h-18q-4 0 -4 4l4 20q0 4 5 4h14q34 0 58 22t24 55q0 23 -15 36t-40 13q-24 0 -43 -13t-24 -22q-6 -6 -9 -6q-2 0 -3 1l-14 9q-2 0 -2 4q0 14 31 34.5t69 20.5q36 0 59.5 -21 t23.5 -53q0 -43 -56 -91q43 -34 43 -84t-42 -86.5t-94 -36.5q-40 0 -67 21.5t-27 36.5q0 5 6 8zM457 110q1 7 9 17l217 224q8 8 18 8h16q5 0 5 -5l-42 -236h51q5 0 5 -5l-3 -18q0 -5 -7 -5h-51l-15 -86q0 -4 -5 -4h-20q-6 0 -6 4l15 86h-185q-4 0 -4 7zM496 118h153l34 193z M694 698h14q5 0 5 -3q0 -2 -1 -3l-523 -683q-7 -9 -13 -9h-17q-5 0 -5 3t1 4l526 685q5 6 13 6z" />
<glyph unicode="&#xbf;" horiz-adv-x="528" d="M215 -180q99 0 188 59q4 2 6 2q4 0 4 -3l7 -13q2 -2 2 -5q0 -4 -3 -6q-93 -64 -207 -64q-87 0 -137.5 42.5t-50.5 109.5q0 34 12 64t30 53.5t54.5 51.5t68.5 48.5t90 55.5l18 102q2 7 9 7h20q5 0 5 -7l-19 -108q-1 -9 -15 -19q-118 -66 -177.5 -120t-59.5 -121 q0 -58 42.5 -93.5t112.5 -35.5zM381 486q-3 -16 -16.5 -27.5t-29.5 -11.5q-14 0 -24 9.5t-10 22.5q0 17 14.5 31t33.5 14q15 0 24 -9.5t9 -22.5q0 -1 -0.5 -3t-0.5 -3z" />
<glyph unicode="&#xc0;" horiz-adv-x="682" d="M619 9q0 -9 -7 -9h-17q-8 0 -10 8l-48 189h-409l-114 -189q-6 -8 -12 -8h-19q-5 0 -5 5q0 3 1 4l416 681q5 7 14 7h21q10 0 12 -7zM145 222h385l-82 321l-31 129h-4l-74 -129zM437 932l35 -111q0 -9 -8 -9h-6q-8 0 -8 4l-62 114q-1 1 -1 3q0 5 7 5h34q8 0 9 -6z" />
<glyph unicode="&#xc1;" horiz-adv-x="682" d="M619 9q0 -9 -7 -9h-17q-8 0 -10 8l-48 189h-409l-114 -189q-6 -8 -12 -8h-19q-5 0 -5 5q0 3 1 4l416 681q5 7 14 7h21q10 0 12 -7zM145 222h385l-82 321l-31 129h-4l-74 -129zM411 821l73 111q4 6 11 6h34q6 0 6 -4q0 -2 -2 -4l-103 -114q-4 -4 -9 -4h-6q-5 0 -5 5 q0 3 1 4z" />
<glyph unicode="&#xc2;" horiz-adv-x="682" d="M619 9q0 -9 -7 -9h-17q-8 0 -10 8l-48 189h-409l-114 -189q-6 -8 -12 -8h-19q-5 0 -5 5q0 3 1 4l416 681q5 7 14 7h21q10 0 12 -7zM145 222h385l-82 321l-31 129h-4l-74 -129zM549 820q1 -3 -2 -5.5t-6 -2.5h-21q-6 0 -11 9l-53 100l-88 -102q-7 -7 -13 -7h-22q-7 0 -7 6 l101 112q9 9 15 9h35q8 0 13 -9z" />
<glyph unicode="&#xc3;" horiz-adv-x="682" d="M619 9q0 -9 -7 -9h-17q-8 0 -10 8l-48 189h-409l-114 -189q-6 -8 -12 -8h-19q-5 0 -5 5q0 3 1 4l416 681q5 7 14 7h21q10 0 12 -7zM145 222h385l-82 321l-31 129h-4l-74 -129zM602 917h16q7 0 5 -7q-18 -38 -47 -63t-60 -25q-27 0 -73.5 31.5t-65.5 31.5q-47 0 -66 -58 q-3 -7 -11 -7h-17q-4 0 -4 10q13 37 44 60.5t62 23.5q22 0 71.5 -30.5t66.5 -30.5q19 0 38.5 17.5t30.5 41.5q2 5 10 5z" />
<glyph unicode="&#xc4;" horiz-adv-x="682" d="M619 9q0 -9 -7 -9h-17q-8 0 -10 8l-48 189h-409l-114 -189q-6 -8 -12 -8h-19q-5 0 -5 5q0 3 1 4l416 681q5 7 14 7h21q10 0 12 -7zM145 222h385l-82 321l-31 129h-4l-74 -129zM348 832q-14 0 -23 9t-9 21q0 16 13.5 28t30.5 12q12 0 21 -8.5t9 -21.5q0 -15 -13.5 -27.5 t-28.5 -12.5zM539 832q-13 0 -22 9t-9 21q0 16 14 28t29 12q14 0 23 -8.5t9 -21.5q0 -15 -13.5 -27.5t-30.5 -12.5z" />
<glyph unicode="&#xc5;" horiz-adv-x="682" d="M339 778q0 52 42 93t97 41q44 0 73 -27.5t29 -68.5q0 -46 -34.5 -84t-80.5 -47l176 -678q0 -7 -7 -7h-18q-8 0 -10 8l-48 189h-409l-114 -189q-6 -8 -12 -8h-18q-5 0 -5 5q0 3 1 4q74 120 215 351t198 325q-34 8 -54.5 33t-20.5 60zM166 222h385l-82 321l-30 128l-4 1 l-75 -129zM477 890q-41 0 -75.5 -32.5t-34.5 -75.5q0 -33 22 -55t56 -22q40 0 73 33.5t33 76.5q0 32 -21 53.5t-53 21.5z" />
<glyph unicode="&#xc6;" horiz-adv-x="1125" d="M1142 669h-434l-52 -298h384q6 0 6 -4l-3 -17q0 -6 -8 -6h-384l-56 -317h434q7 0 7 -4l-3 -17q-2 -6 -8 -6h-459q-6 0 -6 6l33 191h-374q-120 -124 -185 -189q-8 -8 -14 -8h-19q-4 0 -4 4q0 2 1 3l665 681q9 9 21 9h463q7 0 7 -5l-3 -17q-2 -6 -9 -6zM246 222h352l78 444 z" />
<glyph unicode="&#xc7;" horiz-adv-x="720" d="M387 -59q26 -17 26 -46q0 -41 -43 -72t-101 -31q-61 0 -63 12l2 13q2 7 9 7q24 -6 42 -6q51 0 84.5 19.5t33.5 50.5q0 15 -13 27t-13 20q0 6 3 16t8 21.5t7 16.5q-125 7 -196.5 87t-71.5 201q0 112 55 211.5t151 160t208 60.5q149 0 230 -99l1 -4l-18 -17q-1 -1 -4 -1 q-4 0 -6 1q-38 41 -93 65.5t-116 24.5q-95 0 -180.5 -50t-139.5 -143t-54 -207q0 -119 71.5 -190t186.5 -71q126 0 241 90h2q2 1 3 1t3 -1h2l12 -15q0 -4 -2 -7q-113 -91 -254 -100q-2 -7 -6.5 -22t-6.5 -23z" />
<glyph unicode="&#xc8;" horiz-adv-x="649" d="M642 669h-435l-52 -298h384q6 0 6 -4l-3 -17q0 -6 -8 -6h-384l-56 -317h435q7 0 7 -4l-3 -17q-2 -6 -8 -6h-459q-6 0 -6 6l121 686q0 5 7 5h459q7 0 7 -5l-3 -17q-2 -6 -9 -6zM434 932l35 -111q0 -9 -8 -9h-6q-8 0 -8 4l-62 114q-1 1 -1 3q0 5 7 5h34q7 0 9 -6z" />
<glyph unicode="&#xc9;" horiz-adv-x="649" d="M642 669h-435l-52 -298h384q6 0 6 -4l-3 -17q0 -6 -8 -6h-384l-56 -317h435q7 0 7 -4l-3 -17q-2 -6 -8 -6h-459q-6 0 -6 6l121 686q0 5 7 5h459q7 0 7 -5l-3 -17q-2 -6 -9 -6zM393 821l73 111q4 6 11 6h34q6 0 6 -4q0 -2 -2 -4l-103 -114q-4 -4 -9 -4h-6q-5 0 -5 5 q0 3 1 4z" />
<glyph unicode="&#xca;" horiz-adv-x="649" d="M642 669h-435l-52 -298h384q6 0 6 -4l-3 -17q0 -6 -8 -6h-384l-56 -317h435q7 0 7 -4l-3 -17q-2 -6 -8 -6h-459q-6 0 -6 6l121 686q0 5 7 5h459q7 0 7 -5l-3 -17q-2 -6 -9 -6zM525 820q1 -3 -2 -5.5t-6 -2.5h-21q-6 0 -11 9l-53 100l-88 -102q-7 -7 -13 -7h-22q-7 0 -7 6 l101 112q9 9 15 9h35q8 0 13 -9z" />
<glyph unicode="&#xcb;" horiz-adv-x="649" d="M642 669h-435l-52 -298h384q6 0 6 -4l-3 -17q0 -6 -8 -6h-384l-56 -317h435q7 0 7 -4l-3 -17q-2 -6 -8 -6h-459q-6 0 -6 6l121 686q0 5 7 5h459q7 0 7 -5l-3 -17q-2 -6 -9 -6zM337 832q-14 0 -23 9t-9 21q0 16 13.5 28t30.5 12q12 0 21 -8.5t9 -21.5q0 -15 -13.5 -27.5 t-28.5 -12.5zM528 832q-13 0 -22 9t-9 21q0 16 14 28t29 12q14 0 23 -8.5t9 -21.5q0 -15 -13.5 -27.5t-30.5 -12.5z" />
<glyph unicode="&#xcc;" horiz-adv-x="237" d="M206 697q6 0 6 -5l-121 -686q-2 -6 -7 -6h-18q-6 0 -6 6l121 686q0 5 7 5h18zM226 932l35 -111q0 -9 -8 -9h-6q-8 0 -8 4l-62 114q-1 1 -1 3q0 5 7 5h34q7 0 9 -6z" />
<glyph unicode="&#xcd;" horiz-adv-x="237" d="M206 697q6 0 6 -5l-121 -686q-2 -6 -7 -6h-18q-6 0 -6 6l121 686q0 5 7 5h18zM194 821l73 111q5 6 11 6h34q6 0 6 -4q0 -2 -2 -4l-103 -114q-4 -4 -9 -4h-6q-5 0 -5 5q0 3 1 4z" />
<glyph unicode="&#xce;" horiz-adv-x="237" d="M206 697q6 0 6 -5l-121 -686q-2 -6 -7 -6h-18q-6 0 -6 6l121 686q0 5 7 5h18zM330 820q1 -3 -2 -5.5t-6 -2.5h-21q-7 0 -11 9l-53 100l-88 -102q-7 -7 -13 -7h-22q-7 0 -7 6l101 112q9 9 15 9h35q8 0 13 -9z" />
<glyph unicode="&#xcf;" horiz-adv-x="237" d="M206 697q6 0 6 -5l-121 -686q-2 -6 -7 -6h-18q-6 0 -6 6l121 686q0 5 7 5h18zM130 832q-14 0 -23 9t-9 21q0 16 13.5 28t30.5 12q12 0 21 -8.5t9 -21.5q0 -15 -13.5 -27.5t-28.5 -12.5zM321 832q-13 0 -22 9t-9 21q0 16 14 28t29 12q14 0 23 -8.5t9 -21.5 q0 -15 -13.5 -27.5t-30.5 -12.5z" />
<glyph unicode="&#xd0;" horiz-adv-x="778" d="M445 697q147 0 230 -69.5t83 -199.5q0 -200 -124.5 -314t-310.5 -114h-236q-7 0 -7 5l59 330h-63q-5 0 -5 6l3 18q0 5 7 5h63l58 328q0 5 7 5h236zM328 27q170 0 282 107t112 289q0 118 -74 182t-207 64h-213l-53 -305h176q6 0 6 -5l-3 -18q-2 -6 -8 -6h-176l-55 -308 h213z" />
<glyph unicode="&#xd1;" horiz-adv-x="761" d="M732 697q6 0 6 -5l-121 -686q-2 -6 -7 -6h-18q-4 0 -10 4l-375 635h-8q-7 -53 -21 -136l-87 -497q-2 -6 -7 -6h-18q-6 0 -6 5v1l121 686q0 5 7 5h15q7 0 8 -6l376 -635h9q8 66 22 140l88 496q0 5 7 5h19zM639 917h16q7 0 5 -7q-18 -38 -47 -63t-60 -25q-27 0 -73.5 31.5 t-65.5 31.5q-47 0 -66 -58q-3 -7 -11 -7h-17q-4 0 -4 10q13 37 44 60.5t62 23.5q23 0 72.5 -30.5t65.5 -30.5q19 0 38.5 17.5t30.5 41.5q3 5 10 5z" />
<glyph unicode="&#xd2;" horiz-adv-x="821" d="M489 709q131 0 210 -82t79 -207q0 -112 -54.5 -211.5t-149.5 -160t-205 -60.5q-132 0 -211 81.5t-79 207.5q0 173 120.5 302.5t289.5 129.5zM371 18q70 0 137.5 30t119.5 82.5t83.5 128.5t31.5 162q0 118 -70.5 188t-185.5 70q-95 0 -180.5 -50.5t-139.5 -144t-54 -207.5 q0 -118 71 -188.5t187 -70.5zM514 932l35 -111q0 -9 -8 -9h-6q-8 0 -8 4l-62 114q-1 1 -1 3q0 5 7 5h34q7 0 9 -6z" />
<glyph unicode="&#xd3;" horiz-adv-x="821" d="M489 709q131 0 210 -82t79 -207q0 -112 -54.5 -211.5t-149.5 -160t-205 -60.5q-132 0 -211 81.5t-79 207.5q0 173 120.5 302.5t289.5 129.5zM371 18q70 0 137.5 30t119.5 82.5t83.5 128.5t31.5 162q0 118 -70.5 188t-185.5 70q-95 0 -180.5 -50.5t-139.5 -144t-54 -207.5 q0 -118 71 -188.5t187 -70.5zM472 821l73 111q5 6 11 6h34q6 0 6 -4q0 -2 -2 -4l-103 -114q-4 -4 -9 -4h-6q-5 0 -5 5q0 3 1 4z" />
<glyph unicode="&#xd4;" horiz-adv-x="821" d="M489 709q131 0 210 -82t79 -207q0 -112 -54.5 -211.5t-149.5 -160t-205 -60.5q-132 0 -211 81.5t-79 207.5q0 173 120.5 302.5t289.5 129.5zM371 18q70 0 137.5 30t119.5 82.5t83.5 128.5t31.5 162q0 118 -70.5 188t-185.5 70q-95 0 -180.5 -50.5t-139.5 -144t-54 -207.5 q0 -118 71 -188.5t187 -70.5zM616 820q1 -3 -2 -5.5t-6 -2.5h-21q-7 0 -11 9l-53 100l-88 -102q-7 -7 -13 -7h-22q-7 0 -7 6l101 112q9 9 15 9h35q8 0 13 -9z" />
<glyph unicode="&#xd5;" horiz-adv-x="821" d="M489 709q131 0 210 -82t79 -207q0 -112 -54.5 -211.5t-149.5 -160t-205 -60.5q-132 0 -211 81.5t-79 207.5q0 173 120.5 302.5t289.5 129.5zM371 18q70 0 137.5 30t119.5 82.5t83.5 128.5t31.5 162q0 118 -70.5 188t-185.5 70q-95 0 -180.5 -50.5t-139.5 -144t-54 -207.5 q0 -118 71 -188.5t187 -70.5zM674 917h16q7 0 5 -7q-18 -38 -47 -63t-60 -25q-27 0 -73.5 31.5t-65.5 31.5q-47 0 -66 -58q-3 -7 -11 -7h-17q-4 0 -4 10q13 37 44 60.5t62 23.5q23 0 72 -30.5t66 -30.5q19 0 38.5 17.5t30.5 41.5q2 5 10 5z" />
<glyph unicode="&#xd6;" horiz-adv-x="821" d="M489 709q131 0 210 -82t79 -207q0 -112 -54.5 -211.5t-149.5 -160t-205 -60.5q-132 0 -211 81.5t-79 207.5q0 173 120.5 302.5t289.5 129.5zM371 18q70 0 137.5 30t119.5 82.5t83.5 128.5t31.5 162q0 118 -70.5 188t-185.5 70q-95 0 -180.5 -50.5t-139.5 -144t-54 -207.5 q0 -118 71 -188.5t187 -70.5zM416 832q-14 0 -23 9t-9 21q0 16 13.5 28t30.5 12q12 0 21 -8.5t9 -21.5q0 -15 -13.5 -27.5t-28.5 -12.5zM607 832q-13 0 -22 9t-9 21q0 16 14 28t29 12q14 0 23 -8.5t9 -21.5q0 -15 -13.5 -27.5t-30.5 -12.5z" />
<glyph unicode="&#xd7;" d="M552 142q3 -5 0 -10l-12 -11q-5 -4 -9 0l-189 189l-189 -189q-5 -4 -10 1l-12 11q-4 5 0 9l189 189l-189 189q-5 5 -1 9l13 13q5 5 10 0l189 -189l188 188q5 5 9 1l13 -13q3 -5 0 -10l-189 -188z" />
<glyph unicode="&#xd8;" horiz-adv-x="821" d="M515 710q90 0 158 -43v1q1 2 8 11t10 12.5t8 9.5t9.5 8.5t7.5 2.5h14q5 0 5 -3q0 -2 -1 -3l-39 -51v-2q50 -39 77.5 -100.5t27.5 -134.5q0 -171 -123 -300.5t-290 -129.5q-91 0 -168 46l-27 -37q-7 -9 -14 -9h-17q-5 0 -5 3l2 4l41 53v2q-98 81 -98 227q0 112 55 212 t151 160.5t208 60.5zM393 18q70 0 137 29.5t119 80.5t84 126.5t32 160.5q0 138 -92 212l-432 -565v-2q61 -42 152 -42zM141 349q-6 -36 -6 -68q0 -133 84 -206l434 567q-65 38 -144 38q-132 0 -237 -92.5t-131 -238.5z" />
<glyph unicode="&#xd9;" horiz-adv-x="779" d="M761 692l-70 -394q-25 -139 -120.5 -224.5t-224.5 -85.5q-114 0 -180.5 65.5t-66.5 176.5q0 32 6 68l70 394q0 5 7 5h18q6 0 6 -5l-68 -384q-6 -36 -6 -69q0 -102 56 -161.5t160 -59.5q122 0 206.5 80t107.5 210l68 384q0 5 7 5h18q6 0 6 -5zM495 932l35 -111q0 -9 -8 -9 h-6q-8 0 -8 4l-62 114q-1 1 -1 3q0 5 7 5h34q8 0 9 -6z" />
<glyph unicode="&#xda;" horiz-adv-x="779" d="M761 692l-70 -394q-25 -139 -120.5 -224.5t-224.5 -85.5q-114 0 -180.5 65.5t-66.5 176.5q0 32 6 68l70 394q0 5 7 5h18q6 0 6 -5l-68 -384q-6 -36 -6 -69q0 -102 56 -161.5t160 -59.5q122 0 206.5 80t107.5 210l68 384q0 5 7 5h18q6 0 6 -5zM447 821l73 111q4 6 11 6h34 q6 0 6 -4q0 -2 -2 -4l-103 -114q-4 -4 -9 -4h-6q-5 0 -5 5q0 3 1 4z" />
<glyph unicode="&#xdb;" horiz-adv-x="779" d="M761 692l-70 -394q-25 -139 -120.5 -224.5t-224.5 -85.5q-114 0 -180.5 65.5t-66.5 176.5q0 32 6 68l70 394q0 5 7 5h18q6 0 6 -5l-68 -384q-6 -36 -6 -69q0 -102 56 -161.5t160 -59.5q122 0 206.5 80t107.5 210l68 384q0 5 7 5h18q6 0 6 -5zM596 820q1 -3 -2 -5.5 t-6 -2.5h-21q-7 0 -11 9l-53 100l-88 -102q-7 -7 -13 -7h-22q-7 0 -7 6l101 112q9 9 15 9h35q8 0 13 -9z" />
<glyph unicode="&#xdc;" horiz-adv-x="779" d="M761 692l-70 -394q-25 -139 -120.5 -224.5t-224.5 -85.5q-114 0 -180.5 65.5t-66.5 176.5q0 32 6 68l70 394q0 5 7 5h18q6 0 6 -5l-68 -384q-6 -36 -6 -69q0 -102 56 -161.5t160 -59.5q122 0 206.5 80t107.5 210l68 384q0 5 7 5h18q6 0 6 -5zM396 832q-14 0 -23 9t-9 21 q0 16 13.5 28t30.5 12q12 0 21 -8.5t9 -21.5q0 -15 -13.5 -27.5t-28.5 -12.5zM587 832q-13 0 -22 9t-9 21q0 16 14 28t29 12q14 0 23 -8.5t9 -21.5q0 -15 -13.5 -27.5t-30.5 -12.5z" />
<glyph unicode="&#xdd;" horiz-adv-x="604" d="M673 697q3 0 3 -4q0 -2 -1 -3l-351 -404l-49 -280q-2 -6 -8 -6h-18q-6 0 -6 6l49 280l-208 404q0 7 4 7h21q4 0 9 -7l194 -376l325 377q3 6 10 6h26zM344 821l73 111q5 6 11 6h34q6 0 6 -4q0 -2 -2 -4l-103 -114q-4 -4 -9 -4h-6q-5 0 -5 5q0 3 1 4z" />
<glyph unicode="&#xde;" horiz-adv-x="644" d="M222 697q6 0 6 -5l-23 -127h228q99 0 156 -47t57 -127q0 -111 -82 -179.5t-205 -68.5h-228l-24 -137q-2 -6 -7 -6h-18q-6 0 -6 6l121 686q0 5 7 5h18zM371 170q101 0 171.5 61.5t70.5 154.5q0 69 -48.5 110.5t-129.5 41.5h-235l-65 -368h236z" />
<glyph unicode="&#xdf;" horiz-adv-x="621" d="M251 45q51 -30 93 -30q74 0 131 57.5t57 130.5q0 59 -50 107.5t-140 54.5q-6 2 -6 7l7 39q1 6 11 12q162 79 162 194q0 44 -30.5 74.5t-89.5 30.5q-76 0 -130 -46t-75 -165l-89 -505q-2 -6 -7 -6h-18q-5 0 -5 6l89 505q43 241 242 241q68 0 108 -36t40 -90 q0 -62 -46.5 -123t-126.5 -98l-2 -10q95 -15 143 -67t48 -117q0 -89 -69.5 -156t-156.5 -67q-22 0 -66.5 11.5t-44.5 23.5q0 2 1 3l9 16q3 4 7 4q3 0 4 -1z" />
<glyph unicode="&#xe0;" horiz-adv-x="551" d="M416 189l14 79h-59q-67 0 -118 -7t-94.5 -23.5t-67 -48.5t-23.5 -78q0 -45 33 -69.5t95 -24.5q66 0 136.5 50t83.5 122zM154 483q-1 2 -1 4q0 3 4 5q77 32 167 32q66 0 109.5 -35.5t43.5 -109.5q0 -25 -4 -48l-57 -325q-2 -6 -8 -6h-16q-6 0 -6 6l15 86h-8 q-35 -43 -94.5 -73.5t-120.5 -30.5q-65 0 -104 32t-39 83q0 189 331 189h68l5 31q5 32 5 53q0 120 -138 120q-60 0 -133 -26l-8 -3q-2 -1 -4 -1t-4 2zM341 747l35 -111q0 -9 -8 -9h-6q-8 0 -8 4l-62 114q-1 1 -1 3q0 5 7 5h34q8 0 9 -6z" />
<glyph unicode="&#xe1;" horiz-adv-x="551" d="M416 189l14 79h-59q-67 0 -118 -7t-94.5 -23.5t-67 -48.5t-23.5 -78q0 -45 33 -69.5t95 -24.5q66 0 136.5 50t83.5 122zM154 483q-1 2 -1 4q0 3 4 5q77 32 167 32q66 0 109.5 -35.5t43.5 -109.5q0 -25 -4 -48l-57 -325q-2 -6 -8 -6h-16q-6 0 -6 6l15 86h-8 q-35 -43 -94.5 -73.5t-120.5 -30.5q-65 0 -104 32t-39 83q0 189 331 189h68l5 31q5 32 5 53q0 120 -138 120q-60 0 -133 -26l-8 -3q-2 -1 -4 -1t-4 2zM307 636l73 111q4 6 11 6h34q6 0 6 -4q0 -2 -2 -4l-103 -114q-4 -4 -9 -4h-6q-5 0 -5 5q0 3 1 4z" />
<glyph unicode="&#xe2;" horiz-adv-x="551" d="M416 189l14 79h-59q-67 0 -118 -7t-94.5 -23.5t-67 -48.5t-23.5 -78q0 -45 33 -69.5t95 -24.5q66 0 136.5 50t83.5 122zM154 483q-1 2 -1 4q0 3 4 5q77 32 167 32q66 0 109.5 -35.5t43.5 -109.5q0 -25 -4 -48l-57 -325q-2 -6 -8 -6h-16q-6 0 -6 6l15 86h-8 q-35 -43 -94.5 -73.5t-120.5 -30.5q-65 0 -104 32t-39 83q0 189 331 189h68l5 31q5 32 5 53q0 120 -138 120q-60 0 -133 -26l-8 -3q-2 -1 -4 -1t-4 2zM449 635q1 -3 -2 -5.5t-6 -2.5h-21q-6 0 -11 9l-53 100l-88 -102q-7 -7 -13 -7h-22q-7 0 -7 6l101 112q9 9 15 9h35 q8 0 13 -9z" />
<glyph unicode="&#xe3;" horiz-adv-x="551" d="M416 189l14 79h-59q-67 0 -118 -7t-94.5 -23.5t-67 -48.5t-23.5 -78q0 -45 33 -69.5t95 -24.5q66 0 136.5 50t83.5 122zM154 483q-1 2 -1 4q0 3 4 5q77 32 167 32q66 0 109.5 -35.5t43.5 -109.5q0 -25 -4 -48l-57 -325q-2 -6 -8 -6h-16q-6 0 -6 6l15 86h-8 q-35 -43 -94.5 -73.5t-120.5 -30.5q-65 0 -104 32t-39 83q0 189 331 189h68l5 31q5 32 5 53q0 120 -138 120q-60 0 -133 -26l-8 -3q-2 -1 -4 -1t-4 2zM504 732h16q7 0 5 -7q-18 -38 -47 -63t-60 -25q-27 0 -73.5 31.5t-65.5 31.5q-47 0 -66 -58q-3 -7 -11 -7h-17q-4 0 -4 10 q13 37 44 60.5t62 23.5q23 0 72 -30.5t66 -30.5q19 0 38.5 17.5t30.5 41.5q2 5 10 5z" />
<glyph unicode="&#xe4;" horiz-adv-x="551" d="M416 189l14 79h-59q-67 0 -118 -7t-94.5 -23.5t-67 -48.5t-23.5 -78q0 -45 33 -69.5t95 -24.5q66 0 136.5 50t83.5 122zM154 483q-1 2 -1 4q0 3 4 5q77 32 167 32q66 0 109.5 -35.5t43.5 -109.5q0 -25 -4 -48l-57 -325q-2 -6 -8 -6h-16q-6 0 -6 6l15 86h-8 q-35 -43 -94.5 -73.5t-120.5 -30.5q-65 0 -104 32t-39 83q0 189 331 189h68l5 31q5 32 5 53q0 120 -138 120q-60 0 -133 -26l-8 -3q-2 -1 -4 -1t-4 2zM249 647q-14 0 -23 9t-9 21q0 16 13.5 28t30.5 12q12 0 21 -8.5t9 -21.5q0 -15 -13.5 -27.5t-28.5 -12.5zM440 647 q-13 0 -22 9t-9 21q0 16 14 28t29 12q14 0 23 -8.5t9 -21.5q0 -15 -13.5 -27.5t-30.5 -12.5z" />
<glyph unicode="&#xe5;" horiz-adv-x="551" d="M416 189l14 79h-59q-67 0 -118 -7t-94.5 -23.5t-67 -48.5t-23.5 -78q0 -45 33 -69.5t95 -24.5q66 0 136.5 50t83.5 122zM154 483q-1 2 -1 4q0 3 4 5q77 32 167 32q66 0 109.5 -35.5t43.5 -109.5q0 -25 -4 -48l-57 -325q-2 -6 -8 -6h-16q-6 0 -6 6l15 86h-8 q-35 -43 -94.5 -73.5t-120.5 -30.5q-65 0 -104 32t-39 83q0 189 331 189h68l5 31q5 32 5 53q0 120 -138 120q-60 0 -133 -26l-8 -3q-2 -1 -4 -1t-4 2zM245 726q8 47 48 80t88 33q44 0 73 -27.5t29 -68.5q0 -53 -43.5 -93.5t-98.5 -40.5q-42 0 -70 27t-28 69q0 7 2 21z M273 726q-2 -12 -2 -18q0 -33 22 -55t55 -22q39 0 73 33.5t34 75.5q0 32 -21.5 54t-53.5 22q-38 0 -69.5 -26.5t-37.5 -63.5z" />
<glyph unicode="&#xe6;" horiz-adv-x="953" d="M744 523q86 0 133 -47.5t47 -137.5q0 -80 -14 -80l-427 -1q-5 -30 -5 -53q0 -87 53.5 -137t142.5 -50q75 0 158 31h1l1 1q3 0 7 -4l2 -14q0 -4 -3 -7q-84 -36 -178 -36q-80 0 -135 40.5t-76 110.5q-39 -68 -106.5 -109.5t-144.5 -41.5q-65 0 -104.5 32t-39.5 83 q0 189 330 189h70l5 30q5 32 5 53q0 120 -139 120q-59 0 -129 -25l-10 -4q-1 0 -2.5 -0.5t-2.5 -0.5q-4 0 -5 4l-3 13q0 18 58 29.5t112 11.5q57 0 100.5 -34t52.5 -100q46 62 110.5 98t135.5 36zM438 189l13 77h-59q-67 0 -117.5 -6.5t-94.5 -22.5t-67.5 -47.5t-23.5 -78.5 q0 -45 33 -69.5t96 -24.5q65 0 136 50t84 122zM491 284h395v1q4 34 4 47q0 76 -39.5 119.5t-111.5 43.5q-88 0 -155 -56t-93 -154v-1z" />
<glyph unicode="&#xe7;" horiz-adv-x="512" d="M264 -59v-1q25 -15 25 -47q0 -42 -43 -73t-101 -31q-64 0 -64 12l3 13q0 2 4 4.5t6 2.5q22 -6 41 -6q52 0 85.5 20.5t33.5 53.5q0 14 -13.5 25.5t-13.5 20.5q0 8 9 29.5t10 24.5v1q-81 8 -126 58.5t-45 137.5q0 155 86 246.5t210 91.5q89 0 162 -64l1 -2v-3q0 -3 -1 -4 l-13 -16q-1 -2 -5 -2t-5 1q-67 62 -144 62q-108 0 -183 -82t-75 -223q0 -84 45.5 -129t127.5 -45q78 0 166 61q4 2 6 2q3 0 4 -3l7 -15v-2q0 -4 -3 -7q-94 -63 -184 -66v-1q-2 -7 -6.5 -22t-6.5 -23z" />
<glyph unicode="&#xe8;" horiz-adv-x="584" d="M99 284h397q4 23 4 52q0 76 -40.5 118t-111.5 42q-87 0 -154.5 -56.5t-94.5 -155.5zM524 265q0 -4 -8 -8h-424q-5 -30 -5 -56q0 -87 51 -135.5t140 -48.5q78 0 163 34q4 2 6 -3l6 -17q0 -7 -5 -9q-22 -13 -78.5 -23.5t-98.5 -10.5q-101 0 -159 56.5t-58 152.5 q0 144 88.5 235.5t208.5 91.5q87 0 133.5 -47.5t46.5 -137.5q0 -36 -7 -74zM372 747l35 -111q0 -9 -8 -9h-6q-8 0 -8 4l-62 114q-1 1 -1 3q0 5 7 5h34q7 0 9 -6z" />
<glyph unicode="&#xe9;" horiz-adv-x="584" d="M99 284h397q4 23 4 52q0 76 -40.5 118t-111.5 42q-87 0 -154.5 -56.5t-94.5 -155.5zM524 265q0 -4 -8 -8h-424q-5 -30 -5 -56q0 -87 51 -135.5t140 -48.5q78 0 163 34q4 2 6 -3l6 -17q0 -7 -5 -9q-22 -13 -78.5 -23.5t-98.5 -10.5q-101 0 -159 56.5t-58 152.5 q0 144 88.5 235.5t208.5 91.5q87 0 133.5 -47.5t46.5 -137.5q0 -36 -7 -74zM336 636l73 111q4 6 11 6h34q6 0 6 -4q0 -2 -2 -4l-103 -114q-4 -4 -9 -4h-6q-5 0 -5 5q0 3 1 4z" />
<glyph unicode="&#xea;" horiz-adv-x="584" d="M99 284h397q4 23 4 52q0 76 -40.5 118t-111.5 42q-87 0 -154.5 -56.5t-94.5 -155.5zM524 265q0 -4 -8 -8h-424q-5 -30 -5 -56q0 -87 51 -135.5t140 -48.5q78 0 163 34q4 2 6 -3l6 -17q0 -7 -5 -9q-22 -13 -78.5 -23.5t-98.5 -10.5q-101 0 -159 56.5t-58 152.5 q0 144 88.5 235.5t208.5 91.5q87 0 133.5 -47.5t46.5 -137.5q0 -36 -7 -74zM476 635q1 -3 -2 -5.5t-6 -2.5h-21q-7 0 -11 9l-53 100l-88 -102q-7 -7 -13 -7h-22q-7 0 -7 6l101 112q9 9 15 9h35q8 0 13 -9z" />
<glyph unicode="&#xeb;" horiz-adv-x="584" d="M99 284h397q4 23 4 52q0 76 -40.5 118t-111.5 42q-87 0 -154.5 -56.5t-94.5 -155.5zM524 265q0 -4 -8 -8h-424q-5 -30 -5 -56q0 -87 51 -135.5t140 -48.5q78 0 163 34q4 2 6 -3l6 -17q0 -7 -5 -9q-22 -13 -78.5 -23.5t-98.5 -10.5q-101 0 -159 56.5t-58 152.5 q0 144 88.5 235.5t208.5 91.5q87 0 133.5 -47.5t46.5 -137.5q0 -36 -7 -74zM278 647q-14 0 -23 9t-9 21q0 16 13.5 28t30.5 12q12 0 21 -8.5t9 -21.5q0 -15 -13.5 -27.5t-28.5 -12.5zM469 647q-13 0 -22 9t-9 21q0 16 14 28t29 12q14 0 23 -8.5t9 -21.5q0 -15 -13.5 -27.5 t-30.5 -12.5z" />
<glyph unicode="&#xec;" horiz-adv-x="217" d="M164 512q4 0 4 -5l-88 -501q-2 -6 -6 -6h-18q-6 0 -6 6l88 501q0 5 8 5h18zM180 747l35 -111q0 -9 -8 -9h-6q-8 0 -8 4l-62 114q-1 1 -1 3q0 5 7 5h34q7 0 9 -6z" />
<glyph unicode="&#xed;" horiz-adv-x="217" d="M164 512q4 0 4 -5l-88 -501q-2 -6 -6 -6h-18q-6 0 -6 6l88 501q0 5 8 5h18zM151 636l73 111q4 6 11 6h34q6 0 6 -4q0 -2 -2 -4l-103 -114q-4 -4 -9 -4h-6q-5 0 -5 5q0 3 1 4z" />
<glyph unicode="&#xee;" horiz-adv-x="217" d="M164 512q4 0 4 -5l-88 -501q-2 -6 -6 -6h-18q-6 0 -6 6l88 501q0 5 8 5h18zM286 635q1 -3 -2 -5.5t-6 -2.5h-21q-7 0 -11 9l-53 100l-88 -102q-7 -7 -13 -7h-22q-7 0 -7 6l101 112q9 9 15 9h35q8 0 13 -9z" />
<glyph unicode="&#xef;" horiz-adv-x="217" d="M164 512q4 0 4 -5l-88 -501q-2 -6 -6 -6h-18q-6 0 -6 6l88 501q0 5 8 5h18zM86 647q-14 0 -23 9t-9 21q0 16 13.5 28t30.5 12q12 0 21 -8.5t9 -21.5q0 -15 -13.5 -27.5t-28.5 -12.5zM277 647q-13 0 -22 9t-9 21q0 16 14 28t29 12q14 0 23 -8.5t9 -21.5q0 -15 -13.5 -27.5 t-30.5 -12.5z" />
<glyph unicode="&#xf0;" horiz-adv-x="575" d="M555 727l-107 -60q115 -139 115 -296q0 -43 -8 -93q-26 -145 -102.5 -217.5t-186.5 -72.5q-90 0 -143.5 48.5t-53.5 140.5q0 138 82.5 223t192.5 85q136 0 181 -91q3 0 7 4q-9 83 -35.5 139.5t-75.5 116.5l-135 -76q-1 -1 -4 -1q-6 0 -7 6l-3 9q0 2 5 7l128 71 q-44 44 -62 59q-5 3 -5 6t1 4l12 12l2 1h3q2 0 7 -3q24 -16 70 -65l114 63q5 0 7 -5l5 -12q-1 0 -4 -3zM271 17q88 0 155.5 56.5t89.5 176.5q4 24 4 49q0 83 -51 120.5t-121 37.5q-97 0 -171 -75t-74 -203q0 -82 45.5 -122t122.5 -40z" />
<glyph unicode="&#xf1;" horiz-adv-x="586" d="M363 524q71 0 110.5 -37t39.5 -105q0 -20 -5 -52l-57 -324q-2 -6 -7 -6h-18q-5 0 -5 6l54 309q5 33 5 59q0 61 -29 91.5t-94 30.5q-76 0 -144 -60.5t-80 -128.5l-53 -301q-2 -6 -6 -6h-18q-6 0 -6 6l88 501q0 5 8 5h18q4 0 4 -5l-6 -32l-12 -61l8 -1q89 111 205 111z M519 732h16q7 0 5 -7q-18 -38 -47 -63t-60 -25q-27 0 -73.5 31.5t-65.5 31.5q-47 0 -66 -58q-3 -7 -11 -7h-17q-4 0 -4 10q13 37 44 60.5t62 23.5q22 0 72 -30.5t66 -30.5q19 0 38.5 17.5t30.5 41.5q3 5 10 5z" />
<glyph unicode="&#xf2;" horiz-adv-x="615" d="M357 524q93 0 150 -58t57 -154q0 -138 -91 -231t-211 -93q-94 0 -151 57.5t-57 152.5q0 138 91 232t212 94zM267 17q106 0 184.5 82t78.5 213q0 85 -48.5 134.5t-129.5 49.5q-106 0 -186 -83.5t-80 -212.5q0 -85 49 -134t132 -49zM370 747l35 -111q0 -9 -8 -9h-6 q-8 0 -8 4l-62 114q-1 1 -1 3q0 5 7 5h34q7 0 9 -6z" />
<glyph unicode="&#xf3;" horiz-adv-x="615" d="M357 524q93 0 150 -58t57 -154q0 -138 -91 -231t-211 -93q-94 0 -151 57.5t-57 152.5q0 138 91 232t212 94zM267 17q106 0 184.5 82t78.5 213q0 85 -48.5 134.5t-129.5 49.5q-106 0 -186 -83.5t-80 -212.5q0 -85 49 -134t132 -49zM328 636l73 111q5 6 11 6h34q6 0 6 -4 q0 -2 -2 -4l-103 -114q-4 -4 -9 -4h-6q-5 0 -5 5q0 3 1 4z" />
<glyph unicode="&#xf4;" horiz-adv-x="615" d="M357 524q93 0 150 -58t57 -154q0 -138 -91 -231t-211 -93q-94 0 -151 57.5t-57 152.5q0 138 91 232t212 94zM267 17q106 0 184.5 82t78.5 213q0 85 -48.5 134.5t-129.5 49.5q-106 0 -186 -83.5t-80 -212.5q0 -85 49 -134t132 -49zM485 635q1 -3 -2 -5.5t-6 -2.5h-21 q-6 0 -11 9l-53 100l-88 -102q-7 -7 -13 -7h-22q-7 0 -7 6l101 112q9 9 15 9h35q8 0 13 -9z" />
<glyph unicode="&#xf5;" horiz-adv-x="615" d="M357 524q93 0 150 -58t57 -154q0 -138 -91 -231t-211 -93q-94 0 -151 57.5t-57 152.5q0 138 91 232t212 94zM267 17q106 0 184.5 82t78.5 213q0 85 -48.5 134.5t-129.5 49.5q-106 0 -186 -83.5t-80 -212.5q0 -85 49 -134t132 -49zM538 732h16q7 0 5 -7q-18 -38 -47 -63 t-60 -25q-27 0 -73.5 31.5t-65.5 31.5q-47 0 -66 -58q-3 -7 -11 -7h-17q-4 0 -4 10q13 37 44 60.5t62 23.5q23 0 72 -30.5t66 -30.5q19 0 38.5 17.5t30.5 41.5q2 5 10 5z" />
<glyph unicode="&#xf6;" horiz-adv-x="615" d="M357 524q93 0 150 -58t57 -154q0 -138 -91 -231t-211 -93q-94 0 -151 57.5t-57 152.5q0 138 91 232t212 94zM267 17q106 0 184.5 82t78.5 213q0 85 -48.5 134.5t-129.5 49.5q-106 0 -186 -83.5t-80 -212.5q0 -85 49 -134t132 -49zM283 647q-14 0 -23 9t-9 21 q0 16 13.5 28t30.5 12q12 0 21 -8.5t9 -21.5q0 -15 -13.5 -27.5t-28.5 -12.5zM474 647q-13 0 -22 9t-9 21q0 16 14 28t29 12q14 0 23 -8.5t9 -21.5q0 -15 -13.5 -27.5t-30.5 -12.5z" />
<glyph unicode="&#xf7;" d="M377 145q0 -16 -12 -27.5t-28 -11.5t-27.5 11.5t-11.5 27.5t11.5 28t27.5 12t28 -12t12 -28zM377 500q0 -16 -12 -27.5t-28 -11.5t-27.5 11.5t-11.5 27.5t11.5 28t27.5 12t28 -12t12 -28zM590 310h-496q-7 0 -7 7v18q0 6 7 6h496q7 0 7 -6v-18q0 -7 -7 -7z" />
<glyph unicode="&#xf8;" horiz-adv-x="613" d="M378 524q66 0 117 -32l20 25q6 7 14 7h14q4 0 4 -4q0 -2 -1 -3l-30 -41q69 -59 69 -166q0 -137 -91.5 -229.5t-210.5 -92.5q-69 0 -117 31l-17 -23q-6 -8 -13 -8h-17q-5 0 -5 3l2 4l28 38q-69 58 -69 166q0 138 91 231.5t212 93.5zM112 255q-5 -28 -5 -50q0 -92 57 -147 l313 410q-45 28 -104 28q-95 0 -168 -66t-93 -175zM288 17q106 0 184.5 81t78.5 210q0 93 -55 145l-311 -411q41 -25 103 -25z" />
<glyph unicode="&#xf9;" horiz-adv-x="586" d="M223 -12q-70 0 -108.5 36.5t-38.5 103.5q0 29 5 54l57 324q0 6 7 6h18q5 0 5 -6l-55 -308q-4 -19 -6 -60q0 -61 30 -91t96 -30q75 0 143 60.5t80 128.5l53 300q0 6 6 6h18q6 0 6 -6l-89 -501q0 -5 -7 -5h-18q-5 0 -5 5l6 31l13 63l-9 1q-90 -112 -207 -112zM361 747 l35 -111q0 -9 -8 -9h-6q-8 0 -8 4l-62 114q-1 1 -1 3q0 5 7 5h34q8 0 9 -6z" />
<glyph unicode="&#xfa;" horiz-adv-x="586" d="M223 -12q-70 0 -108.5 36.5t-38.5 103.5q0 29 5 54l57 324q0 6 7 6h18q5 0 5 -6l-55 -308q-4 -19 -6 -60q0 -61 30 -91t96 -30q75 0 143 60.5t80 128.5l53 300q0 6 6 6h18q6 0 6 -6l-89 -501q0 -5 -7 -5h-18q-5 0 -5 5l6 31l13 63l-9 1q-90 -112 -207 -112zM315 636 l73 111q4 6 11 6h34q6 0 6 -4q0 -2 -2 -4l-103 -114q-4 -4 -9 -4h-6q-5 0 -5 5q0 3 1 4z" />
<glyph unicode="&#xfb;" horiz-adv-x="586" d="M223 -12q-70 0 -108.5 36.5t-38.5 103.5q0 29 5 54l57 324q0 6 7 6h18q5 0 5 -6l-55 -308q-4 -19 -6 -60q0 -61 30 -91t96 -30q75 0 143 60.5t80 128.5l53 300q0 6 6 6h18q6 0 6 -6l-89 -501q0 -5 -7 -5h-18q-5 0 -5 5l6 31l13 63l-9 1q-90 -112 -207 -112zM461 635 q1 -3 -2 -5.5t-6 -2.5h-21q-6 0 -11 9l-53 100l-88 -102q-7 -7 -13 -7h-22q-7 0 -7 6l101 112q9 9 15 9h35q8 0 13 -9z" />
<glyph unicode="&#xfc;" horiz-adv-x="586" d="M223 -12q-70 0 -108.5 36.5t-38.5 103.5q0 29 5 54l57 324q0 6 7 6h18q5 0 5 -6l-55 -308q-4 -19 -6 -60q0 -61 30 -91t96 -30q75 0 143 60.5t80 128.5l53 300q0 6 6 6h18q6 0 6 -6l-89 -501q0 -5 -7 -5h-18q-5 0 -5 5l6 31l13 63l-9 1q-90 -112 -207 -112zM267 647 q-14 0 -23 9t-9 21q0 16 13.5 28t30.5 12q12 0 21 -8.5t9 -21.5q0 -15 -13.5 -27.5t-28.5 -12.5zM458 647q-13 0 -22 9t-9 21q0 16 14 28t29 12q14 0 23 -8.5t9 -21.5q0 -15 -13.5 -27.5t-30.5 -12.5z" />
<glyph unicode="&#xfd;" horiz-adv-x="508" d="M491 512h19q3 0 3 -3t-1 -5l-397 -696q-4 -8 -11 -8h-15q-4 0 -4 8l105 186q-36 182 -106 510q0 8 7 8h16q5 0 10 -7l72 -351l22 -118h8l51 96l210 373q4 7 11 7zM265 636l73 111q4 6 11 6h34q6 0 6 -4q0 -2 -2 -4l-103 -114q-4 -4 -9 -4h-6q-5 0 -5 5q0 3 1 4z" />
<glyph unicode="&#xfe;" horiz-adv-x="616" d="M59 -200h-18q-5 0 -5 5l164 931q2 6 8 6h20q3 0 3 -5l-48 -271q-3 -17 -7 -36t-6 -30l-2 -10h7q33 54 98 94t141 40q77 0 126.5 -50t49.5 -143q0 -78 -27 -144t-70 -108.5t-96 -66.5t-106 -24q-58 0 -97 15t-85 47l-43 -245q-2 -5 -7 -5zM286 17q107 0 187.5 84.5 t80.5 224.5q0 81 -39.5 125.5t-115.5 44.5q-81 0 -158 -68.5t-97 -180.5l-29 -164q29 -23 44 -33t49.5 -21.5t77.5 -11.5z" />
<glyph unicode="&#xff;" horiz-adv-x="508" d="M491 512h19q3 0 3 -3t-1 -5l-397 -696q-4 -8 -11 -8h-15q-4 0 -4 8l105 186q-36 182 -106 510q0 8 7 8h16q5 0 10 -7l72 -351l22 -118h8l51 96l210 373q4 7 11 7zM224 647q-14 0 -23 9t-9 21q0 16 13.5 28t30.5 12q12 0 21 -8.5t9 -21.5q0 -15 -13.5 -27.5t-28.5 -12.5z M415 647q-13 0 -22 9t-9 21q0 16 14 28t29 12q14 0 23 -8.5t9 -21.5q0 -15 -13.5 -27.5t-30.5 -12.5z" />
<glyph unicode="&#x152;" horiz-adv-x="1267" d="M1285 669h-436l-52 -298h384q6 0 6 -4l-3 -17q0 -6 -8 -6h-384l-56 -317h436q7 0 7 -4l-3 -17q-2 -6 -8 -6h-461q-6 0 -6 7l30 179q-57 -86 -151 -142t-194 -56q-132 0 -209 81.5t-77 207.5q0 173 122.5 302.5t291.5 129.5q102 0 176 -55t99 -143q1 7 5.5 34t8.5 49.5 t8.5 48t9.5 40t8 14.5h461q7 0 7 -5l-3 -17q-2 -6 -9 -6zM392 18q71 0 138.5 30t119.5 81.5t84 127.5t32 162q0 118 -71.5 189t-186.5 71q-147 0 -260.5 -114.5t-113.5 -285.5q0 -118 71.5 -189.5t186.5 -71.5z" />
<glyph unicode="&#x153;" horiz-adv-x="1019" d="M1014 266q0 -5 -9 -8h-424q-5 -30 -5 -53q0 -87 53.5 -137.5t142.5 -50.5q71 0 156 32l2 1h2q6 0 7 -3l3 -16q0 -18 -64 -30.5t-119 -12.5q-87 0 -143.5 45t-69.5 121q-41 -76 -112 -121t-152 -45q-94 0 -151 57.5t-57 152.5q0 138 91.5 232t211.5 94q81 0 135 -45.5 t68 -121.5q40 76 110.5 121.5t150.5 45.5q87 0 133.5 -47t46.5 -137q0 -36 -7 -74zM287 17q107 0 185.5 82t78.5 213q0 85 -48.5 134.5t-130.5 49.5q-105 0 -185.5 -83.5t-80.5 -212.5q0 -85 49.5 -134t131.5 -49zM588 284h398q4 23 4 49q0 76 -41.5 119.5t-112.5 43.5 q-86 0 -154 -56.5t-94 -155.5z" />
<glyph unicode="&#x178;" horiz-adv-x="604" d="M673 697q3 0 3 -4q0 -2 -1 -3l-351 -404l-49 -280q-2 -6 -8 -6h-18q-6 0 -6 6l49 280l-208 404q0 7 4 7h21q4 0 9 -7l194 -376l325 377q3 6 10 6h26zM305 832q-14 0 -23 9t-9 21q0 16 13.5 28t30.5 12q12 0 21 -8.5t9 -21.5q0 -15 -13.5 -27.5t-28.5 -12.5zM496 832 q-13 0 -22 9t-9 21q0 16 14 28t29 12q14 0 23 -8.5t9 -21.5q0 -15 -13.5 -27.5t-30.5 -12.5z" />
<glyph unicode="&#x2c6;" horiz-adv-x="447" d="M426 635q1 -3 -2 -5.5t-6 -2.5h-21q-7 0 -11 9l-53 100l-88 -102q-7 -7 -13 -7h-22q-7 0 -7 6l101 112q9 9 15 9h35q8 0 13 -9z" />
<glyph unicode="&#x2dc;" horiz-adv-x="470" d="M487 732h16q7 0 5 -7q-18 -38 -47 -63t-60 -25q-27 0 -73.5 31.5t-65.5 31.5q-47 0 -66 -58q-3 -7 -11 -7h-17q-4 0 -4 10q13 37 44 60.5t62 23.5q22 0 72 -30.5t66 -30.5q19 0 38.5 17.5t30.5 41.5q3 5 10 5z" />
<glyph unicode="&#x2000;" horiz-adv-x="469" />
<glyph unicode="&#x2001;" horiz-adv-x="939" />
<glyph unicode="&#x2002;" horiz-adv-x="469" />
<glyph unicode="&#x2003;" horiz-adv-x="939" />
<glyph unicode="&#x2004;" horiz-adv-x="313" />
<glyph unicode="&#x2005;" horiz-adv-x="234" />
<glyph unicode="&#x2006;" horiz-adv-x="156" />
<glyph unicode="&#x2007;" horiz-adv-x="156" />
<glyph unicode="&#x2008;" horiz-adv-x="117" />
<glyph unicode="&#x2009;" horiz-adv-x="187" />
<glyph unicode="&#x200a;" horiz-adv-x="52" />
<glyph unicode="&#x2010;" horiz-adv-x="339" d="M74 297q0 5 8 5h238q6 0 6 -5l-3 -19q-2 -6 -9 -6h-238q-5 0 -5 6z" />
<glyph unicode="&#x2011;" horiz-adv-x="339" d="M74 297q0 5 8 5h238q6 0 6 -5l-3 -19q-2 -6 -9 -6h-238q-5 0 -5 6z" />
<glyph unicode="&#x2012;" horiz-adv-x="339" d="M74 297q0 5 8 5h238q6 0 6 -5l-3 -19q-2 -6 -9 -6h-238q-5 0 -5 6z" />
<glyph unicode="&#x2013;" horiz-adv-x="588" d="M74 297q0 5 7 5h489q6 0 6 -5l-3 -19q-2 -6 -9 -6h-489q-4 0 -4 4v2z" />
<glyph unicode="&#x2014;" horiz-adv-x="1024" d="M73 297q0 5 7 5h927q6 0 6 -5l-3 -19q-2 -6 -9 -6h-927q-4 0 -4 6z" />
<glyph unicode="&#x2018;" horiz-adv-x="231" d="M195 612q-1 -3 -1 -7q0 -9 16.5 -22t16.5 -27q0 -15 -14.5 -28t-29.5 -13t-24.5 9.5t-9.5 28.5q0 84 100 185q0 2 5 2q2 0 3 -1l5 -4q1 -1 1 -3l-1 -1v-2q-58 -66 -67 -117z" />
<glyph unicode="&#x2019;" horiz-adv-x="231" d="M214 648v6q0 9 -17 22t-17 27t15 28t31 14q14 0 23 -10t9 -29q0 -83 -99 -185q-2 -2 -5 -2q-2 0 -3 1q-6 4 -6 6q0 3 1 4q57 64 68 118z" />
<glyph unicode="&#x201a;" horiz-adv-x="231" d="M94 -32v6q0 10 -17 23t-17 25q0 16 14.5 29.5t31.5 13.5q14 0 23 -10t9 -29q0 -82 -99 -185q-2 -2 -5 -2q-2 0 -3 1q-6 4 -6 6q0 3 1 4q59 67 68 118z" />
<glyph unicode="&#x201c;" horiz-adv-x="409" d="M195 612q-1 -3 -1 -7q0 -9 16.5 -22t16.5 -27q0 -15 -14.5 -28t-29.5 -13t-24.5 9.5t-9.5 28.5q0 84 100 185q0 2 5 2q2 0 3 -1l5 -4q1 -1 1 -3l-1 -1v-2q-58 -66 -67 -117zM373 612q-1 -3 -1 -7q0 -9 16.5 -22t16.5 -26q0 -16 -13.5 -29t-30.5 -13q-14 0 -23.5 9.5 t-9.5 27.5q0 84 99 186q0 2 5 2q2 0 3 -1l5 -4q1 -1 1 -3l-1 -1v-2q-58 -66 -67 -117z" />
<glyph unicode="&#x201d;" horiz-adv-x="409" d="M392 648v6q0 8 -16.5 21t-16.5 28t14.5 28.5t30.5 13.5q32 0 32 -39q0 -84 -98 -185q-2 -2 -5 -2q-2 0 -3 1l-6 6q0 3 1 4q58 67 67 118zM214 648v6q0 9 -17 22t-17 27t15 28t31 14q14 0 23 -10t9 -29q0 -83 -99 -185q-2 -2 -5 -2q-2 0 -3 1q-6 4 -6 6q0 3 1 4 q57 64 68 118z" />
<glyph unicode="&#x201e;" horiz-adv-x="410" d="M94 -32v6q0 10 -17 23t-17 25q0 16 14.5 29.5t31.5 13.5q14 0 23 -10t9 -29q0 -82 -99 -185q-2 -2 -5 -2q-2 0 -3 1q-6 4 -6 6q0 3 1 4q59 67 68 118zM273 -32v6q0 9 -16.5 22t-16.5 26q0 16 14.5 29.5t30.5 13.5q32 0 32 -39q0 -83 -98 -185q-2 -2 -5 -2q-2 0 -3 1l-6 6 q0 3 1 4q58 68 67 118z" />
<glyph unicode="&#x2022;" horiz-adv-x="389" d="M100 338q0 57 40 97.5t94 40.5q55 0 95 -41t40 -97t-40 -97t-95 -41q-54 0 -94 40.5t-40 97.5z" />
<glyph unicode="&#x2026;" horiz-adv-x="887" d="M134 26q-2 -15 -16.5 -26.5t-30.5 -11.5q-15 0 -24.5 9.5t-9.5 23.5q0 17 15 30.5t33 13.5q14 0 24 -9.5t10 -22.5q0 -2 -0.5 -4t-0.5 -3zM466 26q-2 -15 -16.5 -26.5t-30.5 -11.5q-15 0 -24 9.5t-9 22.5q0 18 14.5 31.5t32.5 13.5q14 0 24 -9.5t10 -22.5q0 -2 -0.5 -4 t-0.5 -3zM797 26q-2 -15 -16 -26.5t-31 -11.5q-14 0 -23.5 10t-9.5 23q0 17 15.5 30.5t31.5 13.5q15 0 24.5 -9t9.5 -23q0 -1 -0.5 -3.5t-0.5 -3.5z" />
<glyph unicode="&#x202f;" horiz-adv-x="187" />
<glyph unicode="&#x2039;" horiz-adv-x="326" d="M101 284l163 -198v-2q0 -3 -2 -5l-14 -12q-1 -1 -4 -1q-4 0 -5 1l-174 210q-2 4 -2 7q0 5 4 8l248 211q1 1 6 1q3 0 4 -1l9 -12q1 -1 1 -3l-1 -4z" />
<glyph unicode="&#x203a;" horiz-adv-x="326" d="M29 86l233 200l-163 198l-1 1q0 3 3 6l14 12q2 2 5 2t5 -2l174 -211v-5q0 -6 -4 -10l-248 -210q-1 -1 -5 -1q-3 0 -4 1l-11 12q-1 1 -1 2q0 3 3 5z" />
<glyph unicode="&#x205f;" horiz-adv-x="234" />
<glyph unicode="&#x20ac;" horiz-adv-x="723" d="M626 76q1 1 4 1q5 0 5 -4l10 -14q0 -1 1 -3q0 -4 -5 -6q-106 -62 -217 -62q-126 0 -202 73.5t-85 191.5h-87q-4 0 -4 6l3 16q2 6 6 7h80q3 78 27 140h-82q-4 0 -4 6l3 18q2 5 6 6h89q52 114 153.5 185.5t224.5 71.5q112 0 195 -62q1 -1 1 -4q0 -2 -1 -3l-15 -18 q-1 -1 -5 -2.5t-5 0.5q-73 59 -176 59t-195 -61.5t-143 -165.5h366q6 0 6 -5l-3 -19q-2 -5 -8 -7h-373q-26 -58 -26 -139h374q6 0 6 -6l-3 -17q0 -5 -8 -7h-368q9 -108 80 -171t179 -63q110 0 196 58z" />
<glyph unicode="&#x2122;" horiz-adv-x="805" d="M643 391q-1 -2 -10 -5h-10q-9 0 -10 3l-118 280h-9v-333q0 -9 -9 -9h-11q-9 0 -9 9v352q0 9 9 9h43q7 0 7 -6l112 -275q20 51 60 149.5t51 125.5q2 6 9 6h35q3 0 6 -3t3 -6v-352q0 -9 -9 -9h-12q-9 0 -9 9v327h-8zM351 688v-9q0 -8 -8 -8h-118v-335q0 -9 -8 -9h-15 q-8 0 -8 9v335h-118q-8 0 -8 8v9q0 9 8 9h267q8 0 8 -9z" />
<glyph unicode="&#x25fc;" horiz-adv-x="510" d="M0 510h510v-510h-510v510z" />
<glyph unicode="&#xfb01;" horiz-adv-x="589" d="M462 712q-37 11 -88 11q-138 0 -162 -136l-13 -75h178q6 0 6 -6l-3 -15q0 -6 -8 -6h-178l-84 -479q-2 -6 -7 -6h-17q-7 0 -7 6l84 479h-87q-5 0 -5 6l3 15q0 6 7 6h87l12 71q13 79 65.5 124t135.5 45q33 0 65 -5.5t32 -13.5v-6l-6 -11q-3 -4 -10 -4zM534 512q5 0 5 -5 l-88 -501q-2 -6 -7 -6h-17q-6 0 -6 6l88 501q0 5 8 5h17zM532 715q2 11 11 19t21 8q10 0 17.5 -7t7.5 -17q0 -13 -11 -22t-23 -9q-11 0 -17.5 6t-6.5 16q0 1 0.5 3t0.5 3z" />
<glyph unicode="&#xfb02;" horiz-adv-x="588" d="M462 712q-37 11 -88 11q-138 0 -162 -136l-13 -75h178q6 0 6 -6l-3 -15q0 -6 -8 -6h-178l-84 -479q-2 -6 -7 -6h-17q-7 0 -7 6l84 479h-87q-5 0 -5 6l3 15q0 6 7 6h87l12 71q13 79 65.5 124t135.5 45q33 0 65 -5.5t32 -13.5v-6l-6 -11q-3 -4 -10 -4zM575 742q4 0 4 -5 l-128 -731q-2 -6 -6 -6h-18q-6 0 -6 6l128 731q3 5 8 5h18z" />
</font>
</defs>
</svg>
