<?xml version="1.0" standalone="no"?>
<!DOCTYPE svg PUBLIC "-//W3C//DTD SVG 1.1//EN" "http://www.w3.org/Graphics/SVG/1.1/DTD/svg11.dtd" >
<svg xmlns="http://www.w3.org/2000/svg">
<metadata></metadata>
<defs>
<font id="alleynregular_italic" horiz-adv-x="627" >
<font-face units-per-em="1000" ascent="800" descent="-200" />
<missing-glyph horiz-adv-x="339" />
<glyph horiz-adv-x="0" />
<glyph horiz-adv-x="333" />
<glyph unicode=" "  horiz-adv-x="339" />
<glyph unicode="&#x09;" horiz-adv-x="339" />
<glyph unicode="&#xa0;" horiz-adv-x="339" />
<glyph unicode="!" horiz-adv-x="319" d="M185 170h-23q-18 0 -18 20l42 306l33 190q5 22 25 22h47q19 0 19 -22l-33 -190l-66 -306q-5 -20 -26 -20zM160 95q19 0 34 -14t15 -32q0 -24 -22 -42.5t-46 -18.5q-19 0 -31.5 12t-12.5 31q0 24 19 44t44 20z" />
<glyph unicode="&#x22;" horiz-adv-x="421" d="M381 742h50q9 0 14 -6.5t5 -15.5l-58 -224q-8 -19 -25 -19h-12q-9 0 -14.5 6t-5.5 14l20 223q4 22 26 22zM205 742h48q18 0 18 -22l-57 -223q-6 -20 -26 -20h-11q-9 0 -14 6t-5 14l20 223q2 9 9.5 15.5t17.5 6.5z" />
<glyph unicode="#" d="M639 491v-19q0 -12 -8 -19.5t-19 -7.5h-103q-4 -15 -17.5 -75t-22.5 -99h114q12 0 19.5 -7.5t7.5 -19.5v-19q0 -11 -7.5 -19t-19.5 -8h-131q-6 -30 -19.5 -92t-20.5 -92q-2 -8 -9.5 -14t-15.5 -6h-18q-14 0 -21.5 10t-4.5 23l39 171h-136l-43 -184q-1 -8 -9 -14t-17 -6 h-17q-13 0 -20.5 9t-5.5 23q2 11 39 172h-86q-11 0 -19 8t-8 19v19q0 12 8 19.5t19 7.5h102q5 23 17.5 79t21.5 95h-112q-11 0 -19 7.5t-8 19.5v19q0 12 8 19.5t19 7.5h130q2 10 5.5 25.5t13 58t22.5 99.5q6 21 26 21h18q14 0 21.5 -10t4.5 -23q-35 -148 -40 -171h137 q2 12 41 184q2 8 10 14t16 6h19q14 0 21.5 -10t4.5 -23l-39 -171h85q11 0 19 -7.5t8 -19.5zM398 271l40 174h-139l-38 -174h137z" />
<glyph unicode="$" horiz-adv-x="653" d="M422 793h40q19 0 19 -21l-10 -54q113 -12 183 -84q5 -7 5 -13q0 -8 -7 -14l-32 -29q-6 -6 -16 -6q-9 0 -14 4q-69 66 -178 66q-79 0 -131 -36t-52 -95q0 -76 150 -103q228 -42 228 -176q0 -95 -76.5 -162t-187.5 -79l-8 -45q-2 -8 -9 -14.5t-17 -6.5h-40q-19 0 -19 17v4 l8 44q-126 11 -195 86q-5 5 -5 12q0 10 8 17l31 29q7 7 17 7q8 0 13 -5q75 -70 185 -70q87 0 145.5 39.5t58.5 105.5q0 45 -48.5 73.5t-147.5 48.5q-84 17 -131.5 60t-47.5 104q0 84 73 146.5t172 74.5l10 54q4 21 26 21z" />
<glyph unicode="%" horiz-adv-x="797" d="M287 717q112 0 112 -123q0 -34 -7 -70q-18 -100 -61 -146.5t-112 -46.5q-111 0 -111 123q0 34 7 70q34 193 172 193zM229 389q41 0 72 49t31 142q0 77 -56 77q-41 0 -71 -49.5t-30 -143.5q0 -75 54 -75zM682 379q112 0 112 -122q0 -34 -7 -70q-34 -193 -173 -193 q-111 0 -111 122q0 33 7 71q34 192 172 192zM625 53q41 0 72 48.5t31 141.5q0 77 -56 77q-41 0 -71.5 -49t-30.5 -143q0 -75 55 -75zM709 708h18q15 0 15 -15q0 -6 -4 -11l-506 -660q-18 -22 -37 -22h-20q-14 0 -14 14q0 6 4 11l506 662q17 21 38 21z" />
<glyph unicode="&#x26;" horiz-adv-x="732" d="M411 643q-44 0 -76.5 -26.5t-32.5 -66.5q0 -46 52 -111q62 29 99.5 67t37.5 75q0 62 -80 62zM306 66q40 0 87 24t86 63l-163 196q-69 -40 -102.5 -76t-33.5 -88q0 -51 32.5 -85t93.5 -34zM428 720q66 0 107 -35t41 -90q0 -59 -41.5 -110.5t-133.5 -102.5l133 -159 q57 81 85 150q6 16 22 16q15 0 32 -6.5t17 -17.5q0 -6 -1 -9q-43 -99 -108 -189l114 -137q1 -3 1 -8q0 -8 -6 -15t-13 -7h-54q-15 0 -32 19l-66 79q-133 -110 -246 -110q-85 0 -136.5 48t-51.5 123q0 80 44.5 135t135.5 109q-56 66 -56 124q0 73 60.5 133t152.5 60z" />
<glyph unicode="'" horiz-adv-x="246" d="M203 742h51q19 0 19 -16q0 -4 -1 -6l-57 -223q-2 -8 -10 -14t-16 -6h-14q-19 0 -19 20l22 222q0 9 7 16t18 7z" />
<glyph unicode="(" horiz-adv-x="348" d="M301 720q20 22 38 22h40q12 0 12 -11q0 -5 -3 -9q-114 -140 -166.5 -301t-52.5 -306q0 -169 60 -296v-4q0 -16 -16 -16h-40q-39 0 -63.5 114t-24.5 207q0 152 56.5 310.5t159.5 289.5z" />
<glyph unicode=")" horiz-adv-x="348" d="M250 720q59 -135 59 -299q0 -150 -57 -310.5t-160 -289.5q-18 -22 -37 -22h-40q-11 0 -11 10q0 4 3 10q113 140 165 302.5t52 306.5q0 164 -58 294v2q-1 1 -1 2q0 16 16 16h40q20 0 29 -22z" />
<glyph unicode="*" horiz-adv-x="530" d="M368 378l-66 130l-67 -131q-9 -14 -24 -14q-7 0 -12 4l-13 6q-12 6 -12 20q0 8 5 16l79 123l-144 -7q-29 2 -29 27v9q0 12 8 20t20 7l146 -7l-79 121q-5 8 -5 16q0 17 16 24l12 5q3 1 8 1q18 0 24 -14q54 -106 65 -130l68 131q6 14 24 14q5 0 8 -1l9 -3q18 -8 18 -25 q0 -7 -5 -15l-78 -124l145 7q28 -2 28 -27v-9q0 -27 -29 -27l-145 8l78 -124q5 -8 5 -16q0 -18 -18 -23l-8 -4q-3 -1 -9 -1q-17 0 -23 13z" />
<glyph unicode="+" d="M620 351v-31q0 -9 -6.5 -15.5t-15.5 -6.5h-210v-210q0 -10 -6.5 -16.5t-16.5 -6.5h-33q-10 0 -16.5 6.5t-6.5 16.5v210h-208q-9 0 -15.5 6.5t-6.5 15.5v31q0 9 6.5 15.5t15.5 6.5h208v210q0 9 6.5 16t16.5 7h33q10 0 16.5 -7t6.5 -16v-210h210q9 0 15.5 -6.5t6.5 -15.5z " />
<glyph unicode="," horiz-adv-x="282" d="M97 -11l-2 5q-34 27 -34 54q0 24 23 46t50 22q25 0 41.5 -16.5t16.5 -43.5q0 -38 -41 -107.5t-90 -112.5l-5 -2q-6 -4 -9 -4q-23 0 -23 18v7q17 21 42.5 66.5t30.5 67.5z" />
<glyph unicode="-" horiz-adv-x="373" d="M358 300l-4 -24q-4 -21 -27 -21h-239q-19 0 -19 17v4l4 24q5 21 27 21h239q19 0 19 -17v-4z" />
<glyph unicode="." horiz-adv-x="281" d="M111 -12q-22 0 -37 15.5t-15 38.5q0 27 24 50t51 23q26 0 42.5 -16t16.5 -39q0 -27 -26 -49.5t-56 -22.5z" />
<glyph unicode="/" horiz-adv-x="370" d="M410 742h26q18 0 18 -18q0 -3 -2 -9l-401 -782q-10 -14 -23 -14h-30q-18 0 -18 17q0 5 3 11l403 781q8 14 24 14z" />
<glyph unicode="0" d="M416 720q204 0 204 -231q0 -62 -13 -134q-65 -367 -320 -367q-203 0 -203 229q0 57 14 138q33 188 112 276.5t206 88.5zM301 65q168 0 219 290q12 69 12 121q0 166 -129 166q-84 0 -138.5 -69t-81.5 -218q-12 -71 -12 -122q0 -168 130 -168z" />
<glyph unicode="1" d="M478 708h41q19 0 19 -18q0 -2 -118 -669q-4 -21 -25 -21h-41q-18 0 -18 18q0 2 101 576l-187 -142q-8 -5 -16 -5t-13 6l-19 29q-2 4 -2 8q0 10 8 18l247 187q17 13 23 13z" />
<glyph unicode="2" d="M516 346l-319 -268h313q8 0 13.5 -6t5.5 -15l-7 -36q-4 -21 -25 -21h-412q-19 0 -19 21l6 34q3 18 35 46l366 311q51 42 51 117q0 50 -32.5 81t-86.5 31q-52 0 -98 -29.5t-68 -76.5q-8 -15 -25 -15q-4 0 -6 1l-32 11q-11 6 -11 20q0 4 1 6q31 67 99.5 114.5t152.5 47.5 q86 0 139.5 -50t53.5 -127q0 -52 -24.5 -105t-70.5 -92z" />
<glyph unicode="3" d="M170 144q14 -35 46.5 -56.5t74.5 -21.5q68 0 121 49.5t53 122.5q0 51 -34 81t-89 30h-38q-18 0 -18 17v4l6 36q4 21 26 21h29q56 0 98.5 37t42.5 93q0 38 -26 61t-68 23q-41 0 -74.5 -22.5t-46.5 -40.5q-9 -12 -21 -12q-5 0 -10 3l-31 18q-8 5 -8 15q0 32 64 75t140 43 q74 0 121 -43t47 -108q0 -59 -31 -103t-76 -71v-5q84 -43 84 -139q0 -107 -82.5 -185t-192.5 -78q-87 0 -137.5 43t-50.5 80q0 14 15 23l37 18q6 3 13 3q11 0 16 -11z" />
<glyph unicode="4" d="M491 688q20 20 34 20h37q19 0 19 -21l-77 -436h87q18 0 18 -21l-6 -36q-1 -9 -9 -15t-17 -6h-87l-27 -152q-3 -21 -25 -21h-41q-19 0 -19 17v4l27 152h-341q-18 0 -18 17v4l5 29q3 17 9 24zM162 251h257l57 324z" />
<glyph unicode="5" d="M148 378l85 305q7 25 32 25h336q8 0 13.5 -6t5.5 -15l-7 -36q-5 -21 -26 -23h-287q-18 -61 -32 -115l-17 -64q62 19 113 19q92 0 149.5 -53t57.5 -139q0 -117 -89.5 -202.5t-205.5 -85.5q-95 0 -148 43t-53 80q0 14 15 23l37 18q6 3 11 3q11 0 18 -12q31 -77 134 -77 q74 0 133.5 57.5t59.5 140.5q0 58 -39 91.5t-102 33.5q-81 0 -132 -38q-13 -10 -23 -10q-5 0 -10 3l-5 3q-24 14 -24 31z" />
<glyph unicode="6" d="M375 468q89 0 144.5 -55t55.5 -140q0 -115 -88 -200t-197 -85q-96 0 -147.5 53.5t-51.5 151.5t35.5 192.5t96.5 167.5t149 118t186 45q19 0 19 -23l-6 -33q-5 -23 -27 -23q-99 0 -188 -61t-138 -165l3 -5q79 62 154 62zM304 66q72 0 127.5 56t55.5 140q0 58 -35 93.5 t-91 35.5q-77 0 -132.5 -54.5t-55.5 -140.5q0 -59 34.5 -94.5t96.5 -35.5z" />
<glyph unicode="7" d="M201 21q-15 -21 -37 -21h-43q-17 0 -17 16q0 5 5 13q205 298 434 600h-367q-18 0 -18 18v4l7 36q2 8 9 14.5t16 6.5h449q20 0 20 -21l-4 -23q-3 -14 -17 -35q-177 -232 -437 -608z" />
<glyph unicode="8" d="M469 385q43 -20 65.5 -58t22.5 -85q0 -103 -82 -178.5t-188 -75.5q-87 0 -140.5 50.5t-53.5 128.5q0 68 40.5 129t110.5 89l3 12q-61 40 -61 111q0 85 70.5 148.5t159.5 63.5q72 0 118.5 -43.5t46.5 -109.5q0 -50 -27.5 -95t-81.5 -75zM403 641q-52 0 -92.5 -36.5 t-40.5 -86.5q0 -39 26.5 -66t67.5 -27q50 0 90.5 40t40.5 89q0 38 -25.5 62.5t-66.5 24.5zM301 66q65 0 117 48.5t52 115.5q0 50 -33.5 84.5t-85.5 34.5q-67 0 -119 -51t-52 -116q0 -51 34 -83.5t87 -32.5z" />
<glyph unicode="9" d="M331 240q-90 0 -145 54t-55 140q0 115 87 200.5t197 85.5q96 0 147.5 -54t51.5 -153q0 -39 -7 -78q-16 -89 -55 -168t-97 -140.5t-138 -97.5t-171 -36q-19 0 -19 19v4l6 33q1 9 9.5 15.5t17.5 6.5q100 0 188 61t138 165l-3 5q-79 -62 -152 -62zM402 641q-74 0 -129.5 -56 t-55.5 -140q0 -58 35 -93t92 -35q75 0 130.5 54t55.5 141q0 59 -33.5 94t-94.5 35z" />
<glyph unicode=":" horiz-adv-x="296" d="M120 -12q-22 0 -37 15.5t-15 38.5q0 27 24 50t51 23q26 0 42.5 -16t16.5 -39q0 -27 -26 -49.5t-56 -22.5zM194 405q-22 0 -37.5 16t-15.5 38q0 27 24 50t51 23q25 0 42 -16t17 -38q0 -27 -25 -50t-56 -23z" />
<glyph unicode=";" horiz-adv-x="295" d="M194 405q-22 0 -37.5 16t-15.5 37q0 28 24 51t51 23q25 0 41.5 -15.5t16.5 -38.5q0 -27 -24.5 -50t-55.5 -23zM103 -11l-2 5q-33 28 -33 54q0 24 23 46t50 22q25 0 41.5 -16.5t16.5 -43.5q0 -38 -41 -107.5t-90 -112.5l-5 -2q-6 -4 -9 -4q-23 0 -23 18v7q17 23 42 67.5 t30 66.5z" />
<glyph unicode="&#x3c;" d="M608 142v-32q0 -9 -6.5 -15.5t-14.5 -6.5q-5 0 -11 3l-471 204q-13 6 -13 21v40q0 15 13 19l471 205q6 2 10 2q9 0 15.5 -6t6.5 -16v-33q0 -5 -4.5 -12t-8.5 -8l-405 -172l405 -172q13 -9 13 -21z" />
<glyph unicode="=" d="M611 457v-30q0 -9 -6.5 -15.5t-15.5 -6.5h-479q-9 0 -15.5 6.5t-6.5 15.5v30q0 9 6.5 15.5t15.5 6.5h479q9 0 15.5 -6.5t6.5 -15.5zM611 244v-30q0 -10 -6.5 -16t-15.5 -6h-479q-9 0 -15.5 6t-6.5 16v30q0 10 6.5 16t15.5 6h479q9 0 15.5 -6t6.5 -16z" />
<glyph unicode="&#x3e;" d="M608 356v-40q0 -15 -13 -19q-19 -8 -199.5 -87.5t-272.5 -118.5q-8 -2 -11 -2q-21 0 -21 21v32q0 16 14 20l401 173l-401 172q-5 1 -9.5 8t-4.5 12v33q0 10 6 16t15 6q3 0 11 -2q294 -127 472 -206q5 -2 9 -7.5t4 -10.5z" />
<glyph unicode="?" horiz-adv-x="560" d="M381 720q91 0 144 -43.5t53 -113.5q0 -73 -59 -138t-182 -139l-17 -95q-4 -21 -26 -21h-44q-18 0 -18 17v4l22 121q2 12 15 18l24 14q45 26 68.5 41.5t57.5 42.5t50 55.5t16 60.5q0 44 -33 70.5t-87 26.5q-85 0 -168 -50q-7 -4 -15 -4q-10 0 -14 6l-18 34q-8 17 11 29 q101 64 220 64zM258 95q19 0 34 -14t15 -32q0 -24 -22 -42.5t-46 -18.5q-20 0 -33 12t-13 31q0 24 19.5 44t45.5 20z" />
<glyph unicode="@" horiz-adv-x="1017" d="M686 26q-29 0 -48 18.5t-19 56.5q0 24 4 41h-8q-40 -52 -92 -84t-102 -32q-64 0 -101 43.5t-37 116.5q0 47 21.5 105.5t58 113t93.5 91t121 36.5q98 0 133 -60l9 28q6 19 27 19h30q16 0 16 -21v-5l-46 -148q-4 -12 -13.5 -42.5t-14 -45t-11.5 -39t-10.5 -38.5t-6 -30 t-2.5 -26q0 -40 24 -40q60 0 110 55t75 126.5t25 135.5q0 118 -80.5 192t-217.5 74q-128 0 -237.5 -68.5t-171.5 -180.5t-62 -238q0 -142 92.5 -220t246.5 -78q138 0 257 48q6 3 10 3q10 0 13.5 -4.5t7.5 -23.5q0 -14 -17 -23q-119 -58 -282 -58q-186 0 -290 94.5 t-104 252.5q0 117 47 221.5t123.5 176.5t176 114t202.5 42q159 0 254 -85.5t95 -233.5q0 -94 -37.5 -180.5t-107.5 -143t-154 -56.5zM449 98q71 0 140.5 95t85.5 188q-1 3 -2 9t-8.5 20t-17.5 25t-30 20t-45 9q-74 0 -138.5 -85t-64.5 -187q0 -94 80 -94z" />
<glyph unicode="A" horiz-adv-x="730" d="M689 23q0 -1 0.5 -2t0.5 -2q0 -7 -7.5 -13t-17.5 -6h-44q-18 0 -25 20l-38 162h-370l-95 -162q-15 -20 -32 -20h-44q-17 0 -17 15q0 6 2 9l413 669q9 15 28 15h44q18 0 24 -15zM235 256l302 1q-16 58 -86 362q-28 -42 -105 -175t-111 -188z" />
<glyph unicode="B" horiz-adv-x="721" d="M226 708h280q81 0 127.5 -42t46.5 -107q0 -117 -112 -174l-1 -9q90 -30 90 -131q0 -47 -17 -90t-50.5 -78t-90.5 -56t-131 -21h-266q-18 0 -18 18v4l118 665q4 21 24 21zM178 78h188q205 0 205 158q0 97 -149 97h-199zM483 630h-207l-39 -220h194q73 0 117.5 34.5 t44.5 99.5q0 41 -28.5 63.5t-81.5 22.5z" />
<glyph unicode="C" horiz-adv-x="738" d="M648 137l21 -27q2 -4 2 -8q0 -13 -11 -22q-117 -92 -261 -92q-140 0 -219 78t-79 209q0 190 124 317.5t303 127.5q66 0 127 -25t101 -68q5 -5 5 -13q0 -9 -6 -15l-31 -28q-7 -5 -17 -5q-8 0 -13 5q-30 31 -79.5 51t-99.5 20q-127 0 -227.5 -99.5t-100.5 -248.5 q0 -103 63.5 -165.5t162.5 -62.5q49 0 106 19.5t98 50.5q8 5 18 5q9 0 13 -4z" />
<glyph unicode="D" horiz-adv-x="808" d="M226 708h230q152 0 240 -71.5t88 -203.5q0 -136 -63.5 -236t-164.5 -148.5t-224 -48.5h-230q-18 0 -18 20l118 668q4 20 24 20zM363 78q138 0 235.5 93t97.5 244q0 101 -63 158t-172 57h-185l-98 -552h185z" />
<glyph unicode="E" horiz-adv-x="681" d="M562 0h-460q-18 0 -18 21l118 666q4 21 24 21h460q8 0 13.5 -6t5.5 -15l-7 -36q-2 -8 -9 -14.5t-16 -6.5h-397l-41 -229h349q19 0 19 -21l-7 -35q-2 -8 -9 -14.5t-16 -6.5h-349l-44 -246h397q19 0 19 -21l-7 -36q-2 -8 -9 -14.5t-16 -6.5z" />
<glyph unicode="F" horiz-adv-x="641" d="M143 0h-41q-18 0 -18 21l118 666q4 21 24 21h460q8 0 13.5 -6t5.5 -15l-7 -36q-2 -8 -9 -14.5t-16 -6.5h-397l-41 -229h349q19 0 19 -21l-7 -35q-2 -8 -9 -14.5t-16 -6.5h-349l-54 -303q-2 -8 -9 -14.5t-16 -6.5z" />
<glyph unicode="G" horiz-adv-x="783" d="M725 357q19 0 19 -21l-40 -226q-3 -15 -16 -26q-132 -96 -278 -96q-141 0 -225 81.5t-84 212.5q0 187 125 312.5t302 125.5q67 0 128 -25t101 -68q5 -5 5 -13q0 -9 -6 -15l-31 -28q-7 -5 -14 -5q-8 0 -16 6q-30 30 -80 50t-100 20q-81 0 -155.5 -43t-123 -123.5 t-48.5 -179.5q0 -103 65 -166.5t169 -63.5q106 0 201 63l27 150h-185q-19 0 -19 21l7 36q1 9 8.5 15t16.5 6h247z" />
<glyph unicode="H" horiz-adv-x="802" d="M735 708h41q19 0 19 -21l-118 -666q-4 -21 -25 -21h-41q-18 0 -18 21l54 305h-425l-54 -305q-4 -21 -25 -21h-41q-18 0 -18 21l118 666q4 21 24 21h41q19 0 19 -21l-50 -284h425l50 284q2 9 8.5 15t15.5 6z" />
<glyph unicode="I" horiz-adv-x="294" d="M226 708h41q19 0 19 -21l-118 -666q-4 -21 -25 -21h-41q-18 0 -18 21l118 666q4 21 24 21z" />
<glyph unicode="J" horiz-adv-x="502" d="M483 708q19 0 19 -21l-84 -473q-18 -100 -90.5 -163t-171.5 -63q-92 0 -145 63q-4 4 -4 10q0 11 10 19l30 26q8 6 16 6q7 0 15 -6q17 -17 42.5 -28.5t47.5 -11.5q67 0 110.5 41t56.5 113l83 467q4 21 25 21h40z" />
<glyph unicode="K" horiz-adv-x="689" d="M654 32q3 -6 3 -11q0 -8 -6 -14.5t-12 -6.5h-55q-19 0 -35 16l-243 310l-97 -75l-41 -230q-4 -21 -25 -21h-41q-18 0 -18 21l118 666q4 21 24 21h41q19 0 19 -21l-59 -334l427 340q19 15 40 15h57q10 0 10 -12q0 -9 -8 -16l-378 -301z" />
<glyph unicode="L" horiz-adv-x="613" d="M226 708h41q8 0 13.5 -6t5.5 -15l-108 -609h383q19 0 19 -21l-7 -36q-2 -8 -9 -14.5t-16 -6.5h-446q-18 0 -18 21l118 666q4 21 24 21z" />
<glyph unicode="M" horiz-adv-x="935" d="M918 687l-94 -666q-4 -21 -25 -21h-41q-20 0 -20 18q0 3 13 94.5t27.5 195t16.5 120.5q4 28 27 138l-8 -1q-59 -80 -168.5 -226t-140.5 -187q-14 -17 -32 -17h-12q-18 0 -26 17l-164 414l-8 -1q-1 -3 -1.5 -9.5t-0.5 -9.5l-6 -32q-6 -33 -14.5 -77.5t-20 -103.5 t-22.5 -115t-22.5 -109.5t-20.5 -87.5q-4 -21 -25 -21h-40q-19 0 -19 21l142 666q6 21 24 21h43q22 0 32 -21l174 -435l327 435q15 21 38 21h48q19 0 19 -21z" />
<glyph unicode="N" horiz-adv-x="793" d="M767 708q19 0 19 -21l-118 -666q-4 -21 -25 -21h-44q-24 0 -35 22q-12 23 -127.5 240.5t-170.5 320.5l-7 -1q-5 -74 -21 -168l-70 -393q-4 -21 -25 -21h-41q-18 0 -18 21l118 666q4 21 24 21h45q22 0 34 -22l299 -562h6l1 7q11 108 18 149l73 407q4 21 24 21h41z" />
<glyph unicode="O" horiz-adv-x="849" d="M819 352q-29 -160 -151.5 -262t-269.5 -102q-129 0 -213 80t-84 211q0 114 56.5 215.5t155.5 163.5t214 62q137 0 217.5 -84.5t80.5 -213.5q0 -34 -6 -70zM412 66q127 0 225 101t98 246q0 104 -61 166.5t-160 62.5q-127 0 -226 -100.5t-99 -248.5q0 -101 62 -164t161 -63 z" />
<glyph unicode="P" horiz-adv-x="701" d="M478 708q106 0 166.5 -49t60.5 -134q0 -117 -87 -191.5t-219 -74.5h-189l-42 -240q-4 -19 -25 -19h-41q-18 0 -18 19l118 670q4 19 24 19h252zM430 337q83 0 135.5 49t52.5 130q0 54 -36 84t-100 30h-206l-52 -293h206z" />
<glyph unicode="Q" horiz-adv-x="849" d="M777 32q3 -5 3 -10q0 -8 -6 -15t-13 -7h-54q-24 0 -37 22l-29 48q-115 -82 -243 -82q-129 0 -213 80t-84 211q0 114 56.5 215.5t155.5 163.5t214 62q137 0 217.5 -84.5t80.5 -213.5q0 -163 -118 -294zM195 352q-6 -32 -6 -59q0 -101 62 -164t161 -63q101 0 188 66 l-95 145q-3 5 -3 10q0 11 7 20t18 9h39q22 0 36 -22l60 -96q73 95 73 215q0 104 -61 166.5t-160 62.5q-114 0 -205.5 -81t-113.5 -209z" />
<glyph unicode="R" horiz-adv-x="740" d="M647 25q1 -2 1 -6q0 -7 -5 -13t-14 -6h-47q-22 0 -37 22l-154 237h-181l-42 -240q-4 -19 -25 -19h-41q-18 0 -18 19l118 670q4 19 24 19h252q106 0 166.5 -49t60.5 -134q0 -95 -58 -163t-156 -96zM224 337h206q83 0 135.5 49t52.5 130q0 54 -36 84t-100 30h-206z" />
<glyph unicode="S" horiz-adv-x="664" d="M381 408q229 -42 229 -176q0 -105 -91 -174.5t-220 -69.5q-149 0 -232 88q-5 5 -5 12q0 10 8 17l31 28q7 7 17 7q8 0 13 -5q76 -69 184 -69q88 0 146.5 39.5t58.5 105.5q0 46 -48 73.5t-148 47.5q-84 17 -131.5 60t-47.5 104q0 94 86.5 159t197.5 65q145 0 228 -86 q5 -7 5 -13q0 -8 -7 -14l-31 -29q-6 -6 -16 -6q-9 0 -14 4q-69 66 -179 66q-79 0 -130.5 -36t-51.5 -96q0 -76 148 -102z" />
<glyph unicode="T" horiz-adv-x="626" d="M686 708q8 0 13.5 -6t5.5 -15l-7 -36q-4 -21 -25 -21h-229l-108 -609q-4 -21 -25 -21h-42q-19 0 -19 18v3l108 609h-229q-19 0 -19 21l7 36q3 21 25 21h544z" />
<glyph unicode="U" horiz-adv-x="810" d="M790 708q19 0 19 -21l-68 -381q-25 -143 -125 -230.5t-237 -87.5q-120 0 -188.5 67t-68.5 182q0 33 6 69l68 381q4 21 25 21h40q19 0 19 -21l-66 -370q-6 -33 -6 -62q0 -87 48.5 -138t136.5 -51q103 0 173.5 68.5t91.5 182.5l66 370q4 21 25 21h41z" />
<glyph unicode="V" horiz-adv-x="725" d="M360 0h-42q-10 0 -18.5 6.5t-10.5 14.5l-170 655q-1 2 -1 7q0 25 22 25h39q22 0 29 -21q1 0 33 -127t68 -272t46 -188q26 48 113.5 193.5t163.5 270t77 123.5q14 21 34 21h43q16 0 16 -15q0 -7 -5 -17l-402 -655q-13 -21 -35 -21z" />
<glyph unicode="W" horiz-adv-x="986" d="M1001 708q16 0 16 -14q0 -2 -2 -8l-224 -665q-8 -21 -31 -21h-43q-23 0 -29 21l-131 473q-52 -80 -152.5 -239.5t-147.5 -233.5q-13 -21 -35 -21h-42q-10 0 -17.5 6.5t-7.5 14.5l9 665q1 9 7.5 15.5t15.5 6.5h41q10 0 16.5 -6.5t6.5 -14.5l-5 -379q-4 -117 -11 -181h7 l284 459q12 21 36 21h30q9 0 17.5 -6t10.5 -15l124 -461l9 1q20 101 48 182l130 379q8 21 29 21h41z" />
<glyph unicode="X" horiz-adv-x="694" d="M656 29q2 -4 2 -8q0 -8 -6 -14.5t-15 -6.5h-40q-22 0 -37 22l-182 278l-278 -278q-22 -22 -43 -22h-47q-14 0 -14 15q0 7 5 14l334 334l-207 316q-3 5 -3 9q0 8 6 14t15 6h41q23 0 35 -22l172 -263l265 263q22 22 44 22h46q14 0 14 -14q0 -8 -6 -15l-318 -318z" />
<glyph unicode="Y" horiz-adv-x="643" d="M719 708q15 0 15 -16q0 -8 -4 -13l-338 -393l-47 -265q-4 -21 -25 -21h-42q-19 0 -19 21l47 265l-202 393q-1 2 -1 5q0 9 7 16.5t17 7.5h36q21 0 33 -22l163 -319l276 319q19 22 42 22h42z" />
<glyph unicode="Z" horiz-adv-x="695" d="M719 687l-7 -36q-1 -9 -13 -21l-529 -552h429q18 0 18 -21l-7 -36q-4 -21 -24 -21h-523q-8 0 -13.5 6t-5.5 15l6 32q2 13 15 24q59 62 246.5 258t280.5 295h-408q-8 0 -13.5 6t-5.5 15l7 36q2 8 9 14.5t16 6.5h503q8 0 13.5 -6t5.5 -15z" />
<glyph unicode="[" horiz-adv-x="369" d="M263 -157l-4 -21q-4 -22 -26 -22h-176q-18 0 -18 18v4l159 899q4 21 25 21h176q19 0 19 -21l-4 -21q-4 -22 -26 -22h-118l-144 -814h118q19 0 19 -21z" />
<glyph unicode="\" horiz-adv-x="370" d="M145 742h26q18 0 22 -14l127 -781v-4q0 -10 -6.5 -17t-16.5 -7h-30q-7 0 -13 4.5t-6 9.5q-125 783 -125 785q0 10 6 17t16 7z" />
<glyph unicode="]" horiz-adv-x="370" d="M-1 -178l4 21q2 8 9 14.5t16 6.5h116l144 814h-116q-18 0 -18 18v4l4 21q4 21 25 21h176q20 0 20 -21l-159 -899q-2 -9 -9.5 -15.5t-17.5 -6.5h-176q-18 0 -18 18v4z" />
<glyph unicode="^" d="M392 715l202 -343q7 -13 0.5 -24t-21.5 -11h-34q-5 0 -12 4t-8 8l-165 290l-166 -289q-8 -13 -20 -13h-36q-14 0 -20.5 11t0.5 23l203 344q1 4 8 7.5t12 3.5h37q13 0 20 -11z" />
<glyph unicode="_" horiz-adv-x="586" d="M627 -123v-51h-596v51h596z" />
<glyph unicode="`" horiz-adv-x="500" d="M351 759l33 -113q0 -1 0.5 -3t0.5 -3q0 -10 -7.5 -17t-18.5 -7h-20q-12 0 -17 8l-67 114q-1 2 -1 7q0 10 7.5 17.5t18.5 7.5h52q12 0 19 -11z" />
<glyph unicode="a" horiz-adv-x="579" d="M411 198l10 54h-26q-251 0 -251 -122q0 -69 96 -69q52 0 106 39.5t65 97.5zM179 496q76 36 182 36q69 0 115.5 -38.5t46.5 -117.5q0 -20 -5 -50l-54 -305q-4 -21 -25 -21h-34q-19 0 -19 17q0 5 1 7l9 53l-10 -1q-26 -36 -75.5 -62t-97.5 -26q-71 0 -113 35t-42 92 q0 199 332 199h42l5 30q2 9 2 27q0 42 -27.5 65.5t-80.5 23.5q-45 0 -95 -14l-50 -13q-12 0 -12 6l-10 36q0 15 15 21z" />
<glyph unicode="b" horiz-adv-x="640" d="M415 532q83 0 139.5 -53t56.5 -153q0 -146 -88.5 -242t-200.5 -96q-89 0 -164 59l-5 -26q-2 -8 -9 -14.5t-16 -6.5h-35q-8 0 -13.5 6t-5.5 15l124 700q4 21 25 21h38q8 0 13.5 -5t5.5 -13v-4l-39 -223q0 -3 -4 -17t-7 -26l-4 -13l14 1q29 39 77.5 64.5t97.5 25.5zM321 61 q81 0 140.5 68.5t59.5 183.5q0 68 -34 106.5t-93 38.5q-66 0 -123 -59t-75 -159l-21 -118q18 -18 30 -27.5t44 -21.5t72 -12z" />
<glyph unicode="c" horiz-adv-x="541" d="M476 119l17 -28q2 -6 2 -10q0 -11 -8 -19q-94 -74 -201 -74q-100 0 -155.5 53t-55.5 151q0 158 88.5 249t218.5 91q108 0 174 -74q3 -4 3 -11q0 -11 -7 -18l-26 -28q-5 -5 -17 -5q-9 0 -15 3q-61 59 -125 59q-87 0 -147 -67.5t-60 -184.5q0 -70 36 -107t101 -37 q64 0 146 59q4 2 13 2q13 0 18 -4z" />
<glyph unicode="d" horiz-adv-x="640" d="M380 460q-88 0 -154 -71.5t-66 -188.5q0 -66 31 -102t91 -36q66 0 127 59.5t79 158.5l24 136q-18 15 -28.5 22t-38 14.5t-65.5 7.5zM259 -12q-80 0 -132.5 50t-52.5 145q0 150 94 249.5t212 99.5q85 0 146 -37l40 226q2 8 9 14.5t16 6.5h40q8 0 14 -6t6 -15l-124 -700 q-1 -9 -9 -15t-17 -6h-37q-19 0 -19 17v4l10 55q-1 0 -5.5 1t-6.5 0q-28 -38 -81 -63.5t-103 -25.5z" />
<glyph unicode="e" horiz-adv-x="608" d="M369 462q-64 0 -117 -42t-78 -119h315q3 19 3 36q0 60 -34.5 92.5t-88.5 32.5zM494 82q5 -22 5 -24q0 -29 -69 -49.5t-133 -20.5q-106 0 -164 52.5t-58 149.5q0 153 90 247.5t218 94.5q88 0 139.5 -49t51.5 -147t-33 -98h-379q-3 -16 -3 -32q0 -65 42.5 -106t106.5 -41 q86 0 159 34q2 1 8 1q13 0 19 -12z" />
<glyph unicode="f" horiz-adv-x="368" d="M509 737q11 -3 11 -17q0 -15 -11.5 -32.5t-24.5 -17.5q-6 0 -37.5 5t-50.5 5q-101 0 -119 -99l-11 -61h150q18 0 18 -21l-3 -19q-1 -9 -9 -15t-17 -6h-150l-77 -438q-2 -8 -9 -14.5t-16 -6.5h-39q-18 0 -18 21l77 438h-65q-18 0 -18 17v4l3 19q2 8 9 14.5t17 6.5h65l9 52 q15 83 71.5 131.5t146.5 48.5q49 0 98 -15z" />
<glyph unicode="g" horiz-adv-x="632" d="M479 272l21 116q-53 71 -143 71q-81 0 -136.5 -63.5t-55.5 -169.5q0 -64 33.5 -99.5t93.5 -35.5q64 0 117.5 47t69.5 134zM585 520q17 0 17 -17v-4l-83 -474q-18 -106 -97 -170.5t-203 -64.5q-79 0 -141 19l-13 4q-11 3 -11 17q0 10 5 17l9 21q7 13 26 13q76 -19 148 -19 q66 0 123 43t69 108l6 33l12 53l-11 4q-26 -37 -74.5 -61.5t-97.5 -24.5q-84 0 -137.5 53t-53.5 145q0 132 85.5 224.5t196.5 92.5q90 0 156 -63l5 30q2 8 9.5 14.5t17.5 6.5h37z" />
<glyph unicode="h" horiz-adv-x="615" d="M241 499l-9 -38l8 -8q26 34 72 56.5t95 22.5q75 0 115 -38.5t40 -110.5q0 -21 -5 -53l-55 -309q-4 -21 -25 -21h-40q-8 0 -13.5 6t-5.5 15l52 294q4 23 4 47q0 95 -94 95q-61 0 -110.5 -39t-58.5 -91l-54 -306q-4 -21 -25 -21h-39q-8 0 -13.5 6t-5.5 15l124 700 q2 8 9 14.5t16 6.5h39q19 0 19 -21z" />
<glyph unicode="i" horiz-adv-x="273" d="M241 742q20 0 34 -13t14 -32q0 -24 -21 -43.5t-46 -19.5q-18 0 -31 13.5t-13 32.5q0 24 20 43t43 19zM184 520h39q18 0 18 -17v-4l-84 -478q-4 -21 -25 -21h-39q-19 0 -19 21l84 478q2 8 9 14.5t17 6.5z" />
<glyph unicode="j" horiz-adv-x="272" d="M241 742q21 0 35 -13t14 -32q0 -25 -21 -44t-47 -19q-18 0 -31 13.5t-13 32.5q0 24 20 43t43 19zM-69 -210q-110 0 -110 31q0 16 11 33.5t25 17.5q7 0 39 -6t50 -6q100 0 118 101l94 538q2 8 9.5 14.5t16.5 6.5h39q18 0 18 -21l-93 -529q-15 -83 -71.5 -131.5 t-145.5 -48.5z" />
<glyph unicode="k" horiz-adv-x="538" d="M405 9l-138 242l-81 -65l-29 -165q-2 -8 -9 -14.5t-16 -6.5h-39q-19 0 -19 21l124 700q4 21 25 21h39q19 0 19 -21l-70 -386q-7 -33 -11 -47l9 -10q20 24 37 39l222 191q14 12 25 12h45q17 0 17 -17q0 -10 -8 -18q-46 -40 -117.5 -101.5t-95.5 -82.5q16 -29 71 -122.5 t84 -145.5q3 -5 3 -10q0 -9 -7.5 -16t-17.5 -7h-43q-17 0 -19 9z" />
<glyph unicode="l" horiz-adv-x="273" d="M223 742h39q19 0 19 -21l-124 -700q-4 -21 -25 -21h-39q-19 0 -19 21l124 700q4 21 25 21z" />
<glyph unicode="m" horiz-adv-x="924" d="M238 499l-6 -39l8 -7q26 34 71.5 56.5t93.5 22.5q104 0 132 -94q50 53 92.5 73.5t94.5 20.5q70 0 109 -37t39 -104q0 -24 -4 -47l-57 -323q-2 -8 -9 -14.5t-16 -6.5h-40q-19 0 -19 21l52 296q5 32 5 53q0 87 -87 87q-57 0 -103 -38.5t-55 -90.5l-54 -307q-2 -8 -9 -14.5 t-16 -6.5h-40q-19 0 -19 21l53 298q5 45 5 49q0 89 -88 89q-57 0 -104 -39t-56 -90l-54 -307q-4 -21 -24 -21h-40q-20 0 -20 21l84 478q1 8 9.5 14.5t17.5 6.5h37q17 0 17 -21z" />
<glyph unicode="n" horiz-adv-x="617" d="M238 499l-6 -39l8 -7q26 34 72 56.5t95 22.5q75 0 115 -38.5t40 -110.5q0 -21 -5 -53l-55 -309q-4 -21 -25 -21h-40q-19 0 -19 21l52 294q4 23 4 47q0 95 -94 95q-61 0 -110.5 -39t-58.5 -91l-54 -306q-4 -21 -25 -21h-39q-19 0 -19 21l84 478q2 8 9.5 14.5t16.5 6.5h36 q18 0 18 -21z" />
<glyph unicode="o" horiz-adv-x="636" d="M305 58q84 0 148 70.5t64 179.5q0 70 -38.5 111.5t-102.5 41.5q-85 0 -149.5 -71t-64.5 -178q0 -71 39 -112.5t104 -41.5zM388 532q97 0 157.5 -61t60.5 -158q0 -137 -95.5 -231t-218.5 -94q-99 0 -157.5 58.5t-58.5 155.5q0 138 93 234t219 96z" />
<glyph unicode="p" horiz-adv-x="640" d="M415 532q83 0 139.5 -53t56.5 -153q0 -146 -88.5 -242t-200.5 -96q-55 0 -89.5 15t-70.5 44l-40 -226q-2 -8 -9.5 -14.5t-16.5 -6.5h-35q-8 0 -15 5.5t-7 15.5l119 678q5 21 26 21h33q19 0 19 -19v-4l-10 -56l14 1q29 39 77.5 64.5t97.5 25.5zM321 61q81 0 140.5 68.5 t59.5 183.5q0 68 -34 106.5t-93 38.5q-66 0 -123 -59t-75 -159l-21 -118q18 -18 30 -27.5t44 -21.5t72 -12z" />
<glyph unicode="q" horiz-adv-x="640" d="M270 -12q-83 0 -139 52.5t-56 150.5q0 148 87 244.5t201 96.5q88 0 163 -59l4 26q2 8 9.5 14.5t16.5 6.5h36q8 0 13.5 -6t5.5 -15l-119 -678q-1 -9 -9.5 -15t-17.5 -6h-39q-19 0 -19 18v4l36 201q0 3 3.5 17t7.5 26l3 13l-14 -1q-29 -39 -77 -64.5t-96 -25.5zM364 459 q-82 0 -142 -69t-60 -183q0 -68 34 -106.5t95 -38.5q65 0 122 59t75 159l21 117q-17 18 -30 28.5t-44.5 22t-70.5 11.5z" />
<glyph unicode="r" horiz-adv-x="424" d="M415 532q30 0 48.5 -9t18.5 -24q0 -4 -1 -6l-11 -35q-7 -17 -21 -17q-3 0 -23 6.5t-32 6.5q-66 0 -124 -59t-75 -159l-38 -215q-2 -8 -9 -14.5t-16 -6.5h-39q-8 0 -13.5 6t-5.5 15l84 478q5 21 26 21h33q19 0 19 -22l-10 -57l14 1q29 39 77.5 64.5t97.5 25.5z" />
<glyph unicode="s" horiz-adv-x="504" d="M482 470l-16 -25q-9 -11 -20 -11q-2 0 -8 2q-49 25 -124 25q-54 0 -86.5 -24t-32.5 -63q0 -24 26 -40.5t63.5 -27t75 -23.5t63.5 -40.5t26 -68.5q0 -77 -67 -131.5t-164 -54.5q-61 0 -118 15.5t-57 35.5q0 12 22 42q6 9 21 9q5 0 7 -1q64 -31 139 -31q59 0 94.5 27 t35.5 70q0 25 -26 40.5t-63.5 25.5t-75 22.5t-63.5 40t-26 69.5q0 74 63 126.5t155 52.5q57 0 109.5 -14t52.5 -31q0 -5 -6 -17z" />
<glyph unicode="t" horiz-adv-x="413" d="M257 -12q-71 0 -106.5 32.5t-35.5 91.5q0 22 4 42l53 305h-64q-18 0 -18 17v4l3 19q5 21 26 21h64l22 124q4 22 25 22h40q18 0 18 -18v-4l-22 -124h153q18 0 18 -17v-4l-3 -19q-2 -8 -9.5 -14.5t-16.5 -6.5h-153l-53 -301q-3 -16 -3 -30q0 -65 71 -65q18 0 44.5 5.5 t29.5 5.5q14 0 18 -13q3 -28 3 -30q0 -20 -33 -31.5t-75 -11.5z" />
<glyph unicode="u" horiz-adv-x="617" d="M421 21l7 39l-9 7q-26 -34 -71.5 -56.5t-94.5 -22.5q-76 0 -115 38t-39 109q0 30 5 55l54 309q2 8 9 14.5t17 6.5h39q18 0 18 -21l-51 -294q-5 -30 -5 -48q0 -94 97 -94q59 0 108.5 38.5t58.5 91.5l53 306q2 8 9 14.5t17 6.5h40q18 0 18 -21l-84 -478q-2 -8 -9 -14.5 t-16 -6.5h-37q-19 0 -19 21z" />
<glyph unicode="v" horiz-adv-x="546" d="M551 520q8 0 13.5 -5t5.5 -12q0 -4 -4 -12l-268 -478q-7 -13 -22 -13h-53q-14 0 -18 13l-100 478q0 1 -1 4q0 10 8 17.5t18 7.5h39q14 0 18 -13l7 -35q7 -34 17 -84t20 -103.5t18.5 -102t10.5 -71.5l16 1q5 8 11 22t7 16q20 44 71 134t89 156t36 67q9 13 22 13h39z" />
<glyph unicode="w" horiz-adv-x="784" d="M780 520q18 0 18 -19q0 -5 -1 -8l-198 -478q-7 -15 -23 -15h-52q-14 0 -19 14q-18 80 -49 294l-13 89q0 1 -0.5 2t-0.5 2l-8 1q0 -4 -44 -94l-154 -293q-11 -15 -24 -15h-51q-16 0 -18 15l-31 478q0 12 7.5 19.5t20.5 7.5h35q13 0 17 -15l16 -336q0 -13 -0.5 -33 t-0.5 -24h12q23 56 49 109l139 262q9 17 25 17h48q12 0 19 -16l44 -262l10 -111q12 2 12 0q1 4 23 62q84 218 133 332q9 15 22 15h37z" />
<glyph unicode="x" horiz-adv-x="524" d="M440 0h-46q-4 0 -10.5 4t-7.5 9q-6 10 -69 136q-20 40 -24 52l-14 -1q-14 -22 -42 -53l-123 -136q-1 -4 -8 -7.5t-12 -3.5h-46q-19 0 -19 16q0 9 7 17l210 234l-122 220q-1 2 -1 6q0 10 6.5 18.5t17.5 8.5h46q4 0 10.5 -4.5t7.5 -9.5l9 -18q10 -19 26 -49t27 -53 q22 -46 25 -59l13 1q12 17 50 63l104 118q17 11 21 11h47q18 0 18 -17q0 -7 -6 -15l-202 -222l131 -235q0 -1 0.5 -3t0.5 -3q0 -10 -7 -17.5t-18 -7.5z" />
<glyph unicode="y" horiz-adv-x="548" d="M156 -201h-36q-18 0 -18 16q0 5 3 13q73 127 105 180q-16 68 -50 230.5t-56 252.5v2l-1 2q0 10 8 17.5t18 7.5h42q13 0 17 -13l56 -281q16 -85 19 -114l14 -1l25 53q70 136 189 343q9 13 22 13h40q19 0 19 -17q0 -6 -3 -12q-10 -16 -390 -678q-10 -14 -23 -14z" />
<glyph unicode="z" horiz-adv-x="532" d="M118 473l4 26q2 8 9 14.5t16 6.5h372q18 0 18 -17v-4l-4 -25q-3 -12 -22 -32q-125 -124 -373 -374h310q19 0 19 -21l-5 -26q-4 -21 -25 -21h-389q-19 0 -19 21l5 25q4 18 15 28l59 61q83 86 316 317h-289q-17 0 -17 17v4z" />
<glyph unicode="{" horiz-adv-x="437" d="M486 722l-4 -21q-1 -9 -9 -15.5t-17 -6.5h-11q-62 0 -90 -26.5t-39 -93.5l-13 -75q-24 -140 -149 -204l-3 -17q82 -51 82 -152q0 -21 -5 -53l-13 -75q-6 -37 -5 -49q0 -38 20.5 -54t70.5 -16h11q8 0 13.5 -6t5.5 -15l-4 -21q-1 -9 -9 -15.5t-17 -6.5h-25q-149 0 -149 125 q0 20 5 50l13 75q6 36 6 66q0 112 -100 121q-15 2 -15 17v4l5 27q4 19 22 21q131 16 160 185l13 76q29 175 206 175h25q19 0 19 -20z" />
<glyph unicode="|" horiz-adv-x="285" d="M277 722l-159 -900q-1 -9 -9 -15.5t-17 -6.5h-20q-17 0 -17 18v4l159 900q4 20 24 20h20q19 0 19 -20z" />
<glyph unicode="}" horiz-adv-x="437" d="M153 701l4 21q4 20 25 20h25q149 0 149 -126q0 -19 -5 -49l-13 -76q-6 -33 -6 -60q0 -113 100 -125q16 -2 16 -21l-5 -27q-1 -7 -8 -13.5t-15 -7.5q-129 -12 -160 -187l-13 -75q-31 -175 -206 -175h-25q-18 0 -18 18v4l4 21q2 8 9 14.5t16 6.5h11q62 0 90.5 26.5 t39.5 92.5l13 75q24 143 149 205l3 17q-82 50 -82 149q0 30 5 55l13 75q5 30 5 48q0 39 -21 55.5t-71 16.5h-11q-18 0 -18 18v4z" />
<glyph unicode="~" horiz-adv-x="712" d="M524 235q-39 0 -89.5 30.5t-96.5 60.5t-73 30q-33 0 -58.5 -29t-32.5 -73q-2 -7 -8.5 -13t-12.5 -6h-32q-9 0 -15.5 6.5t-6.5 17.5q8 75 56 125t111 50q38 0 90 -30t99 -59.5t71 -29.5q33 0 59 28.5t33 70.5q4 20 22 20h30q9 0 15 -7.5t7 -16.5q-11 -73 -59 -124 t-109 -51z" />
<glyph unicode="&#xa1;" horiz-adv-x="319" d="M173 339h23q19 0 19 -20l-41 -307l-34 -191q-1 -9 -9 -15.5t-17 -6.5h-47q-18 0 -18 18v4l34 191l66 307q5 20 24 20zM200 425q-19 0 -32.5 13.5t-13.5 31.5q0 25 20.5 43.5t44.5 18.5q20 0 33 -13t13 -32q0 -23 -20.5 -42.5t-44.5 -19.5z" />
<glyph unicode="&#xa2;" horiz-adv-x="540" d="M389 708h40q19 0 19 -21l-11 -63q80 -11 133 -70q3 -4 3 -10q0 -10 -7 -19l-26 -28q-5 -5 -17 -5q-9 0 -15 3q-61 59 -125 59q-87 0 -147.5 -67t-60.5 -184q0 -70 36.5 -107.5t101.5 -37.5q64 0 146 59q6 3 14 3q10 0 17 -5l16 -28q3 -4 3 -11q0 -28 -61.5 -55.5 t-105.5 -33.5l-12 -66q-4 -21 -25 -21h-40q-20 0 -20 21l12 66q-80 11 -124 63t-44 139q0 143 75 232t188 103l11 63q2 9 9 15t17 6z" />
<glyph unicode="&#xa3;" horiz-adv-x="599" d="M511 3q-32 -9 -108 -9q-30 0 -92.5 11t-100.5 11q-75 0 -142 -16h-4q-19 0 -22 17v51q4 15 15 20q58 26 90.5 80.5t42.5 145.5h-70q-18 0 -18 21l3 21q1 8 9.5 14t17.5 7h60q1 85 9 133q16 89 88.5 149.5t166.5 60.5q54 0 106.5 -19.5t52.5 -44.5q0 -11 -16 -28.5 t-30 -17.5q-9 0 -15 3q-46 38 -108 38q-61 0 -103 -38.5t-53 -100.5q-9 -44 -10 -136h157q18 0 18 -16v-4l-3 -21q-4 -20 -26 -22h-150q0 -1 -1 -8t-2 -11q0 -102 -123 -211q4 0 28.5 2t48.5 2q31 0 97 -10t103 -10q35 0 90 12q6 0 12 -6t7 -13q-1 -6 -1 -16v-16 q0 -18 -24 -25z" />
<glyph unicode="&#xa4;" d="M522 207l46 -45q16 -16 0 -31l-18 -17q-15 -16 -31 0l-46 44q-55 -39 -124 -39q-71 0 -124 38l-44 -43q-15 -16 -31 0l-20 18q-15 15 0 32l44 45q-38 55 -38 123q0 67 39 125l-45 46q-6 6 -6 15t6 16l18 18q16 14 30 0l46 -47q55 41 125 41q66 0 123 -39l44 44 q16 16 32 0l20 -19q16 -16 0 -33l-45 -44q40 -56 40 -123q0 -70 -41 -125zM201 332q0 -62 43.5 -105t104.5 -43t104.5 43.5t43.5 104.5t-43.5 104.5t-104.5 43.5t-104.5 -43.5t-43.5 -104.5z" />
<glyph unicode="&#xa5;" horiz-adv-x="643" d="M720 708q15 0 15 -16q0 -8 -4 -13l-202 -236h88q18 0 18 -21l-5 -30q-4 -21 -26 -21h-139l-74 -88h197q8 0 13.5 -6t5.5 -15l-6 -31q-1 -9 -8.5 -15t-16.5 -6h-197l-34 -189q-4 -21 -25 -21h-41q-20 0 -20 21l34 189h-198q-19 0 -19 21l6 30q3 17 25 23h199l-45 87h-138 q-18 0 -18 17v4l5 30q2 8 9.5 14.5t16.5 6.5h87l-120 236q-1 2 -1 5q0 9 7 16.5t17 7.5h40q21 0 33 -22l164 -320l275 320q22 22 43 22h39z" />
<glyph unicode="&#xa6;" horiz-adv-x="285" d="M277 722l-65 -370q-2 -8 -9.5 -14.5t-16.5 -6.5h-20q-7 0 -12 5t-5 12v4l65 370q4 20 24 20h20q19 0 19 -20zM183 191l-65 -369q-1 -9 -9 -15.5t-17 -6.5h-20q-17 0 -17 18v4l65 369q1 8 9 14t16 6h20q18 0 18 -20z" />
<glyph unicode="&#xa7;" horiz-adv-x="574" d="M301 406q-119 -65 -119 -128q0 -40 35 -71t104 -70q118 64 118 130q0 21 -9 39.5t-31.5 36.5t-41.5 30t-56 33zM42 -142q-5 3 -5 11q0 11 9 18l31 28q6 7 16 7q7 0 14 -5q50 -52 120 -52q63 0 102.5 23t39.5 69q0 34 -31 61.5t-108 67.5q-138 71 -138 166q0 50 37 99.5 t115 89.5q-40 26 -60.5 53.5t-20.5 65.5q0 82 64.5 137t172.5 55q116 0 180 -67q4 -4 4 -12q0 -10 -7 -17l-31 -28q-7 -7 -17 -7q-7 0 -14 5q-51 51 -119 51q-64 0 -104.5 -23t-40.5 -69q0 -34 31.5 -61t110.5 -68q137 -73 137 -168q0 -49 -38 -98t-116 -88q84 -54 84 -120 q0 -81 -66.5 -136.5t-174.5 -55.5q-114 0 -177 68z" />
<glyph unicode="&#xa8;" horiz-adv-x="500" d="M243 633q-20 0 -31.5 12t-11.5 30q0 25 18 42.5t43 17.5q18 0 31 -12t13 -30q0 -23 -20.5 -41.5t-41.5 -18.5zM435 633q-18 0 -31 12.5t-13 31.5q0 23 19.5 40.5t42.5 17.5q18 0 31 -12t13 -30q0 -23 -20 -41.5t-42 -18.5z" />
<glyph unicode="&#xa9;" horiz-adv-x="878" d="M621 233l16 -18q13 -19 -3 -35q-63 -57 -155 -57q-101 0 -163 64t-62 167q0 102 62 166.5t163 64.5q91 0 155 -59q8 -6 8.5 -17t-5.5 -17l-16 -18q-7 -7 -17.5 -7t-17.5 6q-43 40 -107 40q-63 0 -106.5 -44.5t-43.5 -114.5q0 -71 43.5 -115.5t106.5 -44.5q62 0 107 38 q7 7 17.5 7.5t17.5 -6.5zM475 747q164 0 279.5 -115.5t115.5 -278.5t-116 -279t-279 -116t-278.5 115.5t-115.5 279.5q0 163 115.5 278.5t278.5 115.5zM475 24q137 0 233 96t96 233q0 136 -96.5 232t-232.5 96t-232 -96t-96 -232t96 -232.5t232 -96.5z" />
<glyph unicode="&#xaa;" horiz-adv-x="582" d="M422 494l6 35h-14q-181 0 -181 -85q0 -47 66 -47q37 0 76.5 28.5t46.5 68.5zM249 723q59 28 141 28q55 0 90.5 -30.5t35.5 -91.5q0 -18 -3 -39l-41 -228q-2 -9 -9.5 -15.5t-17.5 -6.5h-25q-18 0 -18 17q0 4 1 7l5 31q-23 -27 -59.5 -45.5t-71.5 -18.5q-55 0 -88.5 27.5 t-33.5 72.5q0 156 256 156h27l3 17q2 12 2 18q0 29 -20 46t-58 17q-31 0 -68 -10.5t-40 -10.5q-10 0 -15 7t-9 32q0 13 16 20z" />
<glyph unicode="&#xab;" horiz-adv-x="565" d="M290 107q4 -7 4 -15q-2 -8 -9 -14l-16 -14q-8 -7 -18 -7t-14 7l-171 209q-5 4 -5 11q0 9 10 18l245 209q6 6 16 6q8 0 16 -6l11 -14q3 -6 3 -11q0 -11 -8 -19l-206 -181zM525 107q5 -6 5 -15q-2 -8 -10 -14l-16 -14q-8 -7 -17 -7q-10 0 -14 7l-171 209q-6 4 -6 11 q0 9 11 18l245 209q6 6 16 6q8 0 15 -6l11 -14q4 -5 4 -12q0 -12 -9 -18l-205 -181z" />
<glyph unicode="&#xac;" d="M619 412v-272q0 -10 -6.5 -16t-15.5 -6h-34q-22 0 -22 22v220h-438q-9 0 -15.5 6t-6.5 15v31q0 9 6 15.5t16 6.5h494q9 0 15.5 -6.5t6.5 -15.5z" />
<glyph unicode="&#xad;" horiz-adv-x="385" d="M366 300l-4 -24q-4 -21 -27 -21h-239q-19 0 -19 17v4l4 24q5 21 27 21h239q19 0 19 -17v-4z" />
<glyph unicode="&#xae;" horiz-adv-x="878" d="M665 165q9 -11 3.5 -23.5t-20.5 -12.5h-30q-18 0 -33 17q-104 129 -113 139h-90v-132q0 -9 -7 -16.5t-18 -7.5h-24q-11 0 -18.5 7.5t-7.5 16.5v402q0 9 7.5 16.5t18.5 7.5h150q77 0 123.5 -40.5t46.5 -107.5q0 -47 -25 -82.5t-70 -53.5zM382 357h111q39 0 61.5 19.5 t22.5 54.5t-22.5 55.5t-61.5 20.5h-111v-150zM475 747q164 0 279.5 -115.5t115.5 -278.5t-116 -279t-279 -116t-278.5 115.5t-115.5 279.5q0 163 115.5 278.5t278.5 115.5zM475 24q137 0 233 96t96 233q0 136 -96.5 232t-232.5 96t-232 -96t-96 -232t96 -232.5t232 -96.5z " />
<glyph unicode="&#xaf;" horiz-adv-x="500" d="M528 733l-4 -24q-6 -22 -27 -22h-294q-20 0 -20 17q0 3 1 5l4 24q4 21 26 21h294q20 0 20 -21z" />
<glyph unicode="&#xb0;" horiz-adv-x="479" d="M111 573q0 67 47.5 114.5t114.5 47.5t114.5 -47.5t47.5 -114.5q0 -68 -47.5 -115.5t-114.5 -47.5t-114.5 47.5t-47.5 115.5zM170 573q0 -43 30 -73t73 -30t73 30t30 73q0 42 -30 72t-73 30t-73 -30t-30 -72z" />
<glyph unicode="&#xb1;" d="M366 124h-31q-10 0 -16.5 7t-6.5 16v201h-210q-9 0 -15.5 6.5t-6.5 15.5v29q0 9 6.5 15.5t15.5 6.5h210v196q0 8 6.5 14.5t16.5 6.5h31q10 0 16.5 -6.5t6.5 -14.5v-196h208q10 0 16 -6.5t6 -15.5v-29q0 -9 -6 -15.5t-16 -6.5h-208v-201q0 -9 -6.5 -16t-16.5 -7zM81 22v30 q0 9 6.5 15.5t15.5 6.5h494q10 0 16 -6.5t6 -15.5v-30q0 -9 -6 -15.5t-16 -6.5h-494q-9 0 -15.5 6.5t-6.5 15.5z" />
<glyph unicode="&#xb2;" horiz-adv-x="293" d="M302 515l-136 -116h129q18 0 18 -22l-3 -17q-3 -21 -26 -21h-207q-18 0 -18 17v4l3 17q2 16 25 32l180 153q22 19 22 49q0 22 -14.5 35.5t-37.5 13.5q-28 0 -56 -30t-40 -30q-13 0 -23 7.5t-10 15.5q0 3 2 7q15 38 52.5 64t84.5 26q48 0 78 -27.5t30 -70.5 q0 -59 -53 -107z" />
<glyph unicode="&#xb3;" horiz-adv-x="282" d="M128 426q5 -14 19 -23.5t31 -9.5q28 0 51 21t23 52q0 22 -15 35t-38 13h-17q-19 0 -19 16q0 1 0.5 2.5t0.5 2.5l3 18q4 21 26 21h13q22 0 39.5 15t17.5 37q0 15 -10.5 24.5t-27.5 9.5q-28 0 -48 -27q-8 -11 -20 -11q-6 0 -12 3l-16 9q-7 4 -7 15q0 19 33 45t80 26 q42 0 68.5 -24t26.5 -60q0 -46 -44 -84v-4q32 -27 32 -74q0 -58 -45.5 -99.5t-105.5 -41.5q-50 0 -76 25t-26 45q0 14 13 22l21 10q6 3 12 3q12 0 17 -12z" />
<glyph unicode="&#xb4;" horiz-adv-x="500" d="M300 646l73 113q9 11 23 11h52q19 0 19 -19q0 -8 -4 -13l-108 -114q-11 -8 -20 -8h-20q-19 0 -19 16q0 7 4 14z" />
<glyph unicode="&#xb5;" horiz-adv-x="612" d="M35 -178l122 689q2 8 9 14.5t16 6.5h39q8 0 13.5 -6t5.5 -15l-56 -314q-5 -30 -5 -47q0 -46 23.5 -67.5t74.5 -21.5q61 0 112.5 39.5t61.5 93.5l56 317q2 8 9 14.5t16 6.5h40q8 0 13.5 -6t5.5 -15l-87 -490q-2 -8 -9 -14.5t-16 -6.5h-40q-8 0 -13.5 6t-5.5 15l8 45 q-70 -78 -180 -78q-39 0 -97 21l-33 -187q-1 -9 -9 -15.5t-17 -6.5h-39q-18 0 -18 18v4z" />
<glyph unicode="&#xb6;" horiz-adv-x="602" d="M648 686l-4 -25q-2 -8 -10 -14.5t-18 -6.5h-13l-144 -818q-1 -9 -9 -15.5t-17 -6.5h-29q-18 0 -18 18v4l144 818h-112l-144 -818q-1 -9 -9.5 -15.5t-17.5 -6.5h-26q-20 0 -20 18v4l83 468q-84 0 -132.5 47.5t-48.5 122.5q0 112 77.5 180t201.5 68h246q20 0 20 -18v-4z " />
<glyph unicode="&#xb7;" horiz-adv-x="338" d="M209 273q-23 0 -38 16t-15 38q0 27 23.5 50.5t51.5 23.5q25 0 41.5 -16t16.5 -38q0 -28 -24.5 -51t-55.5 -23z" />
<glyph unicode="&#xb8;" horiz-adv-x="500" d="M307 -6l-9 -43q27 -20 27 -48q0 -46 -51.5 -79.5t-115.5 -33.5q-61 0 -72 10q-5 4 -5 11l1 1v3l3 18q1 8 9.5 14.5t17.5 6.5q5 0 20 -2.5t22 -2.5q43 0 67.5 16t24.5 41q0 10 -9 21t-9 18q0 3 1 5l16 50q9 17 24 17h20q19 0 19 -16q0 -5 -1 -7z" />
<glyph unicode="&#xb9;" horiz-adv-x="253" d="M246 708h20q20 0 20 -17v-4l-59 -333q-4 -21 -27 -21h-20q-19 0 -19 17l1 2v2l46 264q-4 -3 -16 -13.5t-20 -17t-19 -15t-19 -12.5t-13 -4q-9 0 -14 8l-10 14q-4 6 -4 10q0 7 10 17l124 94q7 9 19 9z" />
<glyph unicode="&#xba;" horiz-adv-x="634" d="M363 395q60 0 106.5 51t46.5 128q0 51 -28 81.5t-74 30.5q-62 0 -107.5 -51.5t-45.5 -129.5q0 -51 27.5 -80.5t74.5 -29.5zM426 751q75 0 121 -47t46 -121q0 -107 -73 -179.5t-168 -72.5q-76 0 -121.5 45t-45.5 119q0 106 71.5 181t169.5 75z" />
<glyph unicode="&#xbb;" horiz-adv-x="566" d="M271 107l205 181l-141 179q-5 10 -5 15q2 8 10 15l17 14q6 6 17 6q8 0 14 -6l171 -209q5 -7 5 -13q0 -9 -10 -16l-245 -209q-7 -7 -16 -7q-11 0 -15 7l-12 14q-4 4 -4 10q0 11 9 19zM35 107l205 181l-141 179q-4 8 -4 15q1 8 9 15l17 14q6 6 17 6q8 0 14 -6l172 -209 q4 -8 4 -13q0 -7 -9 -16l-246 -209q-7 -7 -16 -7q-11 0 -15 7l-12 14q-4 6 -4 10q0 10 9 19z" />
<glyph unicode="&#xbc;" horiz-adv-x="697" d="M570 361q17 13 27 13h19q19 0 19 -16v-4l-37 -208h31q18 0 18 -17v-5l-3 -17q-2 -8 -9 -14.5t-16 -6.5h-31l-12 -65q-5 -21 -25 -21h-21q-19 0 -19 17v4l12 65h-159q-19 0 -19 17v4l3 15q1 10 7 19zM418 135h118l27 151zM633 708h19q16 0 16 -15q0 -6 -4 -11l-507 -660 q-18 -22 -37 -22h-20q-13 0 -13 14q0 6 4 11l505 662q17 21 37 21zM256 708h20q19 0 19 -17v-4l-59 -333q-4 -21 -26 -21h-20q-19 0 -19 17l1 2v2l46 264l-71 -56q-7 -6 -16 -6t-14 8l-11 14q-4 6 -4 10q0 7 10 17l125 94q7 9 19 9z" />
<glyph unicode="&#xbd;" horiz-adv-x="747" d="M256 708h20q19 0 19 -17v-4l-59 -333q-4 -21 -26 -21h-20q-19 0 -19 17l1 2v2l46 264q-4 -3 -16 -13.5t-20 -17t-19 -15t-19.5 -12.5t-13.5 -4q-9 0 -14 8l-10 14q-4 6 -4 10q0 7 10 17l125 94q7 9 19 9zM681 176l-137 -116h129q18 0 18 -21l-3 -18q-3 -21 -25 -21h-207 q-19 0 -19 17v4l3 17q2 14 25 32l181 153q21 18 21 52q0 21 -13.5 33.5t-36.5 12.5q-19 0 -34.5 -9.5t-24 -20.5t-19 -20.5t-19.5 -9.5q-12 0 -22.5 7t-10.5 18q0 4 1 6q16 37 54 62.5t86 25.5q46 0 75.5 -27t29.5 -68q0 -61 -52 -109zM633 708h19q15 0 15 -15q0 -6 -4 -11 l-506 -660q-18 -22 -37 -22h-20q-13 0 -13 14q0 6 4 11l505 662q17 21 37 21z" />
<glyph unicode="&#xbe;" horiz-adv-x="720" d="M662 708h20q15 0 15 -15q0 -6 -4 -11l-507 -660q-18 -22 -37 -22h-20q-14 0 -14 14q0 6 4 11l506 662q17 21 37 21zM141 426q5 -14 19 -23.5t31 -9.5q28 0 51 21t23 52q0 22 -15 35t-38 13h-18q-18 0 -18 16q0 1 0.5 2.5t0.5 2.5l3 18q4 21 25 21h14q22 0 39.5 15 t17.5 37q0 15 -10.5 24.5t-27.5 9.5q-28 0 -48 -27q-8 -11 -20 -11q-6 0 -12 3l-16 9q-8 5 -8 16q0 18 34 44t80 26q42 0 68 -24t26 -60q0 -47 -44 -85v-4q32 -27 32 -73q0 -58 -45.5 -99.5t-104.5 -41.5q-51 0 -77 24.5t-26 45.5q0 14 13 22l22 10q6 3 12 3q12 0 17 -12z M602 361q17 13 28 13h18q18 0 18 -16v-4l-37 -208h32q18 0 18 -17v-5l-3 -17q-2 -8 -9 -14.5t-16 -6.5h-32l-12 -65q-5 -21 -24 -21h-20q-20 0 -20 17v4l12 65h-160q-19 0 -19 17v4l3 15q1 10 7 19zM450 135h119l27 151z" />
<glyph unicode="&#xbf;" horiz-adv-x="560" d="M221 -210q-92 0 -144.5 43.5t-52.5 112.5q0 74 58.5 139t182.5 139l17 95q4 21 26 21h43q19 0 19 -21l-22 -121q-2 -12 -15 -18l-30 -18q-99 -60 -132 -90q-55 -51 -55 -106q0 -44 33.5 -71t88.5 -27q82 0 167 51q7 4 15 4q10 0 14 -6l20 -44q0 -12 -13 -19 q-101 -64 -220 -64zM345 425q-19 0 -33.5 13.5t-14.5 31.5q0 25 21.5 43.5t45.5 18.5q20 0 33.5 -13t13.5 -32q0 -23 -20.5 -42.5t-45.5 -19.5z" />
<glyph unicode="&#xc0;" horiz-adv-x="730" d="M665 23q0 -1 0.5 -2t0.5 -2q0 -7 -7.5 -13t-17.5 -6h-44q-18 0 -25 20l-38 162h-370l-95 -162q-15 -20 -32 -20h-44q-17 0 -17 15q0 6 2 9l413 669q9 15 28 15h44q18 0 24 -15zM211 256l302 1q-16 58 -86 362q-28 -42 -105 -175t-111 -188zM477 947l33 -113q0 -1 0.5 -3 t0.5 -3q0 -10 -7.5 -17t-18.5 -7h-20q-12 0 -17 8l-67 114q-1 2 -1 7q0 10 7.5 17.5t18.5 7.5h52q12 0 19 -11z" />
<glyph unicode="&#xc1;" horiz-adv-x="730" d="M665 23q0 -1 0.5 -2t0.5 -2q0 -7 -7.5 -13t-17.5 -6h-44q-18 0 -25 20l-38 162h-370l-95 -162q-15 -20 -32 -20h-44q-17 0 -17 15q0 6 2 9l413 669q9 15 28 15h44q18 0 24 -15zM211 256l302 1q-16 58 -86 362q-28 -42 -105 -175t-111 -188zM432 834l73 113q9 11 23 11h52 q19 0 19 -19q0 -8 -4 -13l-108 -114q-11 -8 -20 -8h-20q-19 0 -19 16q0 7 4 14z" />
<glyph unicode="&#xc2;" horiz-adv-x="730" d="M665 23q0 -1 0.5 -2t0.5 -2q0 -7 -7.5 -13t-17.5 -6h-44q-18 0 -25 20l-38 162h-370l-95 -162q-15 -20 -32 -20h-44q-17 0 -17 15q0 6 2 9l413 669q9 15 28 15h44q18 0 24 -15zM211 256l302 1q-16 58 -86 362q-28 -42 -105 -175t-111 -188zM374 803h-28q-18 0 -18 17 q0 7 5 14l92 112q8 12 23 12h71q21 0 30 -20l53 -109q0 -1 0.5 -2.5t0.5 -2.5q0 -8 -8.5 -14.5t-19.5 -6.5h-29q-10 0 -17 9l-52 98l-83 -98q-11 -9 -20 -9z" />
<glyph unicode="&#xc3;" horiz-adv-x="730" d="M665 23q0 -1 0.5 -2t0.5 -2q0 -7 -7.5 -13t-17.5 -6h-44q-18 0 -25 20l-38 162h-370l-95 -162q-15 -20 -32 -20h-44q-17 0 -17 15q0 6 2 9l413 669q9 15 28 15h44q18 0 24 -15zM211 256l302 1q-16 58 -86 362q-28 -42 -105 -175t-111 -188zM625 938h16q17 0 17 -21v-4 q-18 -48 -50.5 -74t-72.5 -26q-28 0 -76 32t-63 32q-37 0 -54 -49q-8 -16 -23 -16h-15q-18 0 -18 20v4q19 47 51.5 73t71.5 26q25 0 75 -29.5t64 -29.5q20 0 42.5 31t34.5 31z" />
<glyph unicode="&#xc4;" horiz-adv-x="730" d="M665 23q0 -1 0.5 -2t0.5 -2q0 -7 -7.5 -13t-17.5 -6h-44q-18 0 -25 20l-38 162h-370l-95 -162q-15 -20 -32 -20h-44q-17 0 -17 15q0 6 2 9l413 669q9 15 28 15h44q18 0 24 -15zM211 256l302 1q-16 58 -86 362q-28 -42 -105 -175t-111 -188zM366 821q-20 0 -31.5 12 t-11.5 30q0 25 18 42.5t43 17.5q18 0 31 -12t13 -30q0 -23 -20.5 -41.5t-41.5 -18.5zM558 821q-18 0 -31 12.5t-13 31.5q0 23 19.5 40.5t42.5 17.5q18 0 31 -12t13 -30q0 -23 -20 -41.5t-42 -18.5z" />
<glyph unicode="&#xc5;" horiz-adv-x="730" d="M356 803q9 51 53.5 87t96.5 36q46 0 76.5 -30t30.5 -74t-29 -81.5t-71 -54.5l173 -650q0 -1 2 -8.5t2 -9.5q-4 -18 -24 -18h-44q-20 0 -25 20l-38 162h-370l-96 -162q-13 -20 -31 -20h-44q-19 0 -19 14q0 12 11 23q328 529 401 649q-26 13 -41.5 38t-15.5 57q0 6 2 22z M236 256l302 1q-16 58 -86 362q-28 -42 -105 -175t-111 -188zM404 803q-1 -5 -1 -16q0 -29 18.5 -48t49.5 -19q35 0 64.5 29t29.5 68q0 28 -18.5 47t-46.5 19q-34 0 -62 -23t-34 -57z" />
<glyph unicode="&#xc6;" horiz-adv-x="1161" d="M1154 630h-397l-41 -229h349q19 0 19 -21l-7 -35q-2 -8 -9 -14.5t-16 -6.5h-349l-44 -246h397q19 0 19 -21l-7 -36q-2 -8 -9 -14.5t-16 -6.5h-459q-19 0 -19 21l27 153h-318q-10 -10 -149 -152q-22 -22 -40 -22h-65q-12 0 -12 9q0 6 5 13l671 671q15 15 32 15h451 q8 0 13.5 -6t5.5 -15l-7 -36q-2 -8 -9 -14.5t-16 -6.5zM352 253h254l57 322z" />
<glyph unicode="&#xc7;" horiz-adv-x="738" d="M648 137l21 -27q2 -4 2 -8q0 -13 -11 -22q-104 -81 -237 -92q-4 -22 -7 -34q27 -18 27 -46q0 -47 -50 -81.5t-115 -34.5q-1 0 -8.5 -0.5t-13 0t-14 0.5t-15 2t-13 4.5t-10 7.5t-3.5 11l4 19q2 8 9.5 14.5t16.5 6.5q6 0 20.5 -2.5t21.5 -2.5q42 0 67 16t25 41 q0 10 -9.5 21.5t-9.5 17.5q0 7 6 23t7 19q-121 11 -189.5 87.5t-68.5 197.5q0 190 124 317.5t303 127.5q66 0 127 -25t101 -68q5 -5 5 -13q0 -9 -6 -15l-31 -28q-7 -5 -17 -5q-8 0 -13 5q-30 31 -79.5 51t-99.5 20q-127 0 -227.5 -99.5t-100.5 -248.5q0 -103 63.5 -165.5 t162.5 -62.5q49 0 106 19.5t98 50.5q8 5 18 5q9 0 13 -4z" />
<glyph unicode="&#xc8;" horiz-adv-x="681" d="M538 0h-460q-18 0 -18 21l118 666q4 21 24 21h460q8 0 13.5 -6t5.5 -15l-7 -36q-2 -8 -9 -14.5t-16 -6.5h-397l-41 -229h349q19 0 19 -21l-7 -35q-2 -8 -9 -14.5t-16 -6.5h-349l-44 -246h397q19 0 19 -21l-7 -36q-2 -8 -9 -14.5t-16 -6.5zM481 947l33 -113q0 -1 0.5 -3 t0.5 -3q0 -10 -7.5 -17t-18.5 -7h-20q-12 0 -17 8l-67 114q-1 2 -1 7q0 10 7.5 17.5t18.5 7.5h52q12 0 19 -11z" />
<glyph unicode="&#xc9;" horiz-adv-x="681" d="M538 0h-460q-18 0 -18 21l118 666q4 21 24 21h460q8 0 13.5 -6t5.5 -15l-7 -36q-2 -8 -9 -14.5t-16 -6.5h-397l-41 -229h349q19 0 19 -21l-7 -35q-2 -8 -9 -14.5t-16 -6.5h-349l-44 -246h397q19 0 19 -21l-7 -36q-2 -8 -9 -14.5t-16 -6.5zM368 834l73 113q9 11 23 11h52 q19 0 19 -19q0 -8 -4 -13l-108 -114q-11 -8 -20 -8h-20q-19 0 -19 16q0 7 4 14z" />
<glyph unicode="&#xca;" horiz-adv-x="681" d="M538 0h-460q-18 0 -18 21l118 666q4 21 24 21h460q8 0 13.5 -6t5.5 -15l-7 -36q-2 -8 -9 -14.5t-16 -6.5h-397l-41 -229h349q19 0 19 -21l-7 -35q-2 -8 -9 -14.5t-16 -6.5h-349l-44 -246h397q19 0 19 -21l-7 -36q-2 -8 -9 -14.5t-16 -6.5zM351 803h-28q-18 0 -18 17 q0 7 5 14l92 112q8 12 23 12h71q21 0 30 -20l53 -109q0 -1 0.5 -2.5t0.5 -2.5q0 -8 -8.5 -14.5t-19.5 -6.5h-29q-10 0 -17 9l-52 98l-83 -98q-11 -9 -20 -9z" />
<glyph unicode="&#xcb;" horiz-adv-x="681" d="M538 0h-460q-18 0 -18 21l118 666q4 21 24 21h460q8 0 13.5 -6t5.5 -15l-7 -36q-2 -8 -9 -14.5t-16 -6.5h-397l-41 -229h349q19 0 19 -21l-7 -35q-2 -8 -9 -14.5t-16 -6.5h-349l-44 -246h397q19 0 19 -21l-7 -36q-2 -8 -9 -14.5t-16 -6.5zM342 821q-20 0 -31.5 12 t-11.5 30q0 25 18 42.5t43 17.5q18 0 31 -12t13 -30q0 -23 -20.5 -41.5t-41.5 -18.5zM534 821q-18 0 -31 12.5t-13 31.5q0 23 19.5 40.5t42.5 17.5q18 0 31 -12t13 -30q0 -23 -20 -41.5t-42 -18.5z" />
<glyph unicode="&#xcc;" horiz-adv-x="282" d="M196 708h41q19 0 19 -21l-118 -666q-4 -21 -25 -21h-41q-18 0 -18 21l118 666q4 21 24 21zM256 947l33 -113q0 -1 0.5 -3t0.5 -3q0 -10 -7.5 -17t-18.5 -7h-20q-12 0 -17 8l-67 114q-1 2 -1 7q0 10 7.5 17.5t18.5 7.5h52q12 0 19 -11z" />
<glyph unicode="&#xcd;" horiz-adv-x="282" d="M196 708h41q19 0 19 -21l-118 -666q-4 -21 -25 -21h-41q-18 0 -18 21l118 666q4 21 24 21zM192 834l73 113q9 11 23 11h52q19 0 19 -19q0 -8 -4 -13l-108 -114q-11 -8 -20 -8h-20q-19 0 -19 16q0 7 4 14z" />
<glyph unicode="&#xce;" horiz-adv-x="282" d="M196 708h41q19 0 19 -21l-118 -666q-4 -21 -25 -21h-41q-18 0 -18 21l118 666q4 21 24 21zM150 803h-28q-18 0 -18 17q0 7 5 14l92 112q8 12 23 12h71q21 0 30 -20l53 -109q0 -1 0.5 -2.5t0.5 -2.5q0 -8 -8.5 -14.5t-19.5 -6.5h-29q-10 0 -17 9l-52 98l-83 -98 q-11 -9 -20 -9z" />
<glyph unicode="&#xcf;" horiz-adv-x="282" d="M196 708h41q19 0 19 -21l-118 -666q-4 -21 -25 -21h-41q-18 0 -18 21l118 666q4 21 24 21zM142 821q-20 0 -31.5 12t-11.5 30q0 25 18 42.5t43 17.5q18 0 31 -12t13 -30q0 -23 -20.5 -41.5t-41.5 -18.5zM334 821q-18 0 -31 12.5t-13 31.5q0 23 19.5 40.5t42.5 17.5 q18 0 31 -12t13 -30q0 -23 -20 -41.5t-42 -18.5z" />
<glyph unicode="&#xd0;" horiz-adv-x="802" d="M221 708h229q152 0 240.5 -71.5t88.5 -204.5q0 -135 -63.5 -235t-165 -148.5t-224.5 -48.5h-229q-19 0 -19 20l52 296h-42q-19 0 -19 17v4l6 36q4 20 27 20h42l52 295q4 20 25 20zM395 373l-6 -36q-1 -9 -9 -15t-18 -6h-148l-42 -238h187q136 0 233.5 93.5t97.5 243.5 q0 101 -63 158t-170 57h-187l-42 -237h148q19 0 19 -20z" />
<glyph unicode="&#xd1;" horiz-adv-x="793" d="M743 708q19 0 19 -21l-118 -666q-4 -21 -25 -21h-44q-24 0 -35 22q-12 23 -127.5 240.5t-170.5 320.5l-7 -1q-5 -74 -21 -168l-70 -393q-4 -21 -25 -21h-41q-18 0 -18 21l118 666q4 21 24 21h45q22 0 34 -22l299 -562h6l1 7q11 108 18 149l73 407q4 21 24 21h41zM655 938 h16q17 0 17 -21v-4q-18 -48 -50.5 -74t-72.5 -26q-28 0 -76 32t-63 32q-37 0 -54 -49q-8 -16 -23 -16h-15q-18 0 -18 20v4q19 47 51.5 73t71.5 26q25 0 75 -29.5t64 -29.5q20 0 42.5 31t34.5 31z" />
<glyph unicode="&#xd2;" horiz-adv-x="849" d="M795 352q-29 -160 -151.5 -262t-269.5 -102q-129 0 -213 80t-84 211q0 114 56.5 215.5t155.5 163.5t214 62q137 0 217.5 -84.5t80.5 -213.5q0 -34 -6 -70zM388 66q127 0 225 101t98 246q0 104 -61 166.5t-160 62.5q-127 0 -226 -100.5t-99 -248.5q0 -101 62 -164t161 -63 zM545 947l33 -113q0 -1 0.5 -3t0.5 -3q0 -10 -7.5 -17t-18.5 -7h-20q-12 0 -17 8l-67 114q-1 2 -1 7q0 10 7.5 17.5t18.5 7.5h52q12 0 19 -11z" />
<glyph unicode="&#xd3;" horiz-adv-x="849" d="M795 352q-29 -160 -151.5 -262t-269.5 -102q-129 0 -213 80t-84 211q0 114 56.5 215.5t155.5 163.5t214 62q137 0 217.5 -84.5t80.5 -213.5q0 -34 -6 -70zM388 66q127 0 225 101t98 246q0 104 -61 166.5t-160 62.5q-127 0 -226 -100.5t-99 -248.5q0 -101 62 -164t161 -63 zM482 834l73 113q9 11 23 11h52q19 0 19 -19q0 -8 -4 -13l-108 -114q-11 -8 -20 -8h-20q-19 0 -19 16q0 7 4 14z" />
<glyph unicode="&#xd4;" horiz-adv-x="849" d="M795 352q-29 -160 -151.5 -262t-269.5 -102q-129 0 -213 80t-84 211q0 114 56.5 215.5t155.5 163.5t214 62q137 0 217.5 -84.5t80.5 -213.5q0 -34 -6 -70zM388 66q127 0 225 101t98 246q0 104 -61 166.5t-160 62.5q-127 0 -226 -100.5t-99 -248.5q0 -101 62 -164t161 -63 zM432 803h-28q-18 0 -18 17q0 7 5 14l92 112q8 12 23 12h71q21 0 30 -20l53 -109q0 -1 0.5 -2.5t0.5 -2.5q0 -8 -8.5 -14.5t-19.5 -6.5h-29q-10 0 -17 9l-52 98l-83 -98q-11 -9 -20 -9z" />
<glyph unicode="&#xd5;" horiz-adv-x="849" d="M795 352q-29 -160 -151.5 -262t-269.5 -102q-129 0 -213 80t-84 211q0 114 56.5 215.5t155.5 163.5t214 62q137 0 217.5 -84.5t80.5 -213.5q0 -34 -6 -70zM388 66q127 0 225 101t98 246q0 104 -61 166.5t-160 62.5q-127 0 -226 -100.5t-99 -248.5q0 -101 62 -164t161 -63 zM683 938h16q17 0 17 -21v-4q-18 -48 -50.5 -74t-72.5 -26q-28 0 -76 32t-63 32q-37 0 -54 -49q-8 -16 -23 -16h-15q-18 0 -18 20v4q19 47 51.5 73t71.5 26q25 0 75 -29.5t64 -29.5q20 0 42.5 31t34.5 31z" />
<glyph unicode="&#xd6;" horiz-adv-x="849" d="M795 352q-29 -160 -151.5 -262t-269.5 -102q-129 0 -213 80t-84 211q0 114 56.5 215.5t155.5 163.5t214 62q137 0 217.5 -84.5t80.5 -213.5q0 -34 -6 -70zM388 66q127 0 225 101t98 246q0 104 -61 166.5t-160 62.5q-127 0 -226 -100.5t-99 -248.5q0 -101 62 -164t161 -63 zM424 821q-20 0 -31.5 12t-11.5 30q0 25 18 42.5t43 17.5q18 0 31 -12t13 -30q0 -23 -20.5 -41.5t-41.5 -18.5zM616 821q-18 0 -31 12.5t-13 31.5q0 23 19.5 40.5t42.5 17.5q18 0 31 -12t13 -30q0 -23 -20 -41.5t-42 -18.5z" />
<glyph unicode="&#xd7;" d="M123 537l18 17q16 14 30 0l170 -170l168 169q17 17 33 0l20 -19q16 -16 -1 -33l-168 -168l168 -169q16 -16 0 -31l-18 -17q-5 -7 -14.5 -7t-16.5 7l-168 168l-170 -168q-14 -16 -30 0l-20 18q-15 15 0 32l169 170l-170 169q-14 14 0 32z" />
<glyph unicode="&#xd8;" horiz-adv-x="849" d="M727 653q98 -89 98 -234q0 -93 -38 -175t-99 -137t-137 -87t-153 -32q-84 0 -152 36l-15 -20q-17 -21 -37 -21h-22q-14 0 -14 14q0 6 4 11l36 48q-97 82 -97 223q0 114 56.5 215.5t155.5 163.5t214 62q85 0 153 -35q1 1 24 27q11 12 27 12h21q15 0 15 -15q0 -6 -4 -11z M195 352q-5 -24 -5 -56q0 -104 63 -170l373 490q-52 26 -112 26q-114 0 -205.5 -81t-113.5 -209zM412 66q126 0 224.5 99.5t98.5 242.5q0 104 -62 174q-254 -332 -373 -490q49 -26 112 -26z" />
<glyph unicode="&#xd9;" horiz-adv-x="810" d="M766 708q19 0 19 -21l-68 -381q-25 -143 -125 -230.5t-237 -87.5q-120 0 -188.5 67t-68.5 182q0 33 6 69l68 381q4 21 25 21h40q19 0 19 -21l-66 -370q-6 -33 -6 -62q0 -87 48.5 -138t136.5 -51q103 0 173.5 68.5t91.5 182.5l66 370q4 21 25 21h41zM520 947l33 -113 q0 -1 0.5 -3t0.5 -3q0 -10 -7.5 -17t-18.5 -7h-20q-12 0 -17 8l-67 114q-1 2 -1 7q0 10 7.5 17.5t18.5 7.5h52q12 0 19 -11z" />
<glyph unicode="&#xda;" horiz-adv-x="810" d="M766 708q19 0 19 -21l-68 -381q-25 -143 -125 -230.5t-237 -87.5q-120 0 -188.5 67t-68.5 182q0 33 6 69l68 381q4 21 25 21h40q19 0 19 -21l-66 -370q-6 -33 -6 -62q0 -87 48.5 -138t136.5 -51q103 0 173.5 68.5t91.5 182.5l66 370q4 21 25 21h41zM450 834l73 113 q9 11 23 11h52q19 0 19 -19q0 -8 -4 -13l-108 -114q-11 -8 -20 -8h-20q-19 0 -19 16q0 7 4 14z" />
<glyph unicode="&#xdb;" horiz-adv-x="810" d="M766 708q19 0 19 -21l-68 -381q-25 -143 -125 -230.5t-237 -87.5q-120 0 -188.5 67t-68.5 182q0 33 6 69l68 381q4 21 25 21h40q19 0 19 -21l-66 -370q-6 -33 -6 -62q0 -87 48.5 -138t136.5 -51q103 0 173.5 68.5t91.5 182.5l66 370q4 21 25 21h41zM413 803h-28 q-18 0 -18 17q0 7 5 14l92 112q8 12 23 12h71q21 0 30 -20l53 -109q0 -1 0.5 -2.5t0.5 -2.5q0 -8 -8.5 -14.5t-19.5 -6.5h-29q-10 0 -17 9l-52 98l-83 -98q-11 -9 -20 -9z" />
<glyph unicode="&#xdc;" horiz-adv-x="810" d="M766 708q19 0 19 -21l-68 -381q-25 -143 -125 -230.5t-237 -87.5q-120 0 -188.5 67t-68.5 182q0 33 6 69l68 381q4 21 25 21h40q19 0 19 -21l-66 -370q-6 -33 -6 -62q0 -87 48.5 -138t136.5 -51q103 0 173.5 68.5t91.5 182.5l66 370q4 21 25 21h41zM404 821 q-20 0 -31.5 12t-11.5 30q0 25 18 42.5t43 17.5q18 0 31 -12t13 -30q0 -23 -20.5 -41.5t-41.5 -18.5zM596 821q-18 0 -31 12.5t-13 31.5q0 23 19.5 40.5t42.5 17.5q18 0 31 -12t13 -30q0 -23 -20 -41.5t-42 -18.5z" />
<glyph unicode="&#xdd;" horiz-adv-x="643" d="M695 708q15 0 15 -16q0 -8 -4 -13l-338 -393l-47 -265q-4 -21 -25 -21h-42q-19 0 -19 21l47 265l-202 393q-1 2 -1 5q0 9 7 16.5t17 7.5h36q21 0 33 -22l163 -319l276 319q19 22 42 22h42zM380 834l73 113q9 11 23 11h52q19 0 19 -19q0 -8 -4 -13l-108 -114 q-11 -8 -20 -8h-20q-19 0 -19 16q0 7 4 14z" />
<glyph unicode="&#xde;" horiz-adv-x="677" d="M221 708h40q19 0 19 -21l-18 -102h190q105 0 165.5 -49.5t60.5 -134.5q0 -117 -88 -192t-218 -75h-190l-20 -115q-4 -19 -25 -19h-40q-19 0 -19 19l118 668q4 21 25 21zM402 213q82 0 135.5 48.5t53.5 128.5q0 55 -36 85.5t-101 30.5h-206l-52 -293h206z" />
<glyph unicode="&#xdf;" horiz-adv-x="646" d="M501 198q1 5 1 17q0 48 -45.5 86.5t-124.5 43.5q-17 2 -17 19q0 3 1 5l8 48q2 16 16 21q61 26 106.5 67t45.5 95q0 32 -23 56.5t-67 24.5q-129 0 -161 -181l-84 -476q-2 -9 -9.5 -16.5t-16.5 -7.5h-39q-17 0 -17 20v4l84 476q21 120 89 186t170 66q74 0 116.5 -37.5 t42.5 -95.5q0 -51 -38.5 -107.5t-114.5 -96.5l-2 -7q170 -60 170 -181q0 -91 -76 -165t-169 -74q-38 0 -81 14.5t-43 41.5q0 6 3 10l16 21q9 15 24 15q6 0 10 -3q44 -28 84 -28q51 0 91.5 43t49.5 96z" />
<glyph unicode="&#xe0;" horiz-adv-x="579" d="M387 198l10 54h-26q-251 0 -251 -122q0 -69 96 -69q52 0 106 39.5t65 97.5zM155 496q76 36 182 36q69 0 115.5 -38.5t46.5 -117.5q0 -20 -5 -50l-54 -305q-4 -21 -25 -21h-34q-19 0 -19 17q0 5 1 7l9 53l-10 -1q-26 -36 -75.5 -62t-97.5 -26q-71 0 -113 35t-42 92 q0 199 332 199h42l5 30q2 9 2 27q0 42 -27.5 65.5t-80.5 23.5q-45 0 -95 -14l-50 -13q-12 0 -12 6l-10 36q0 15 15 21zM392 759l33 -113q0 -1 0.5 -3t0.5 -3q0 -10 -7.5 -17t-18.5 -7h-20q-12 0 -17 8l-67 114q-1 2 -1 7q0 10 7.5 17.5t18.5 7.5h52q12 0 19 -11z" />
<glyph unicode="&#xe1;" horiz-adv-x="579" d="M387 198l10 54h-26q-251 0 -251 -122q0 -69 96 -69q52 0 106 39.5t65 97.5zM155 496q76 36 182 36q69 0 115.5 -38.5t46.5 -117.5q0 -20 -5 -50l-54 -305q-4 -21 -25 -21h-34q-19 0 -19 17q0 5 1 7l9 53l-10 -1q-26 -36 -75.5 -62t-97.5 -26q-71 0 -113 35t-42 92 q0 199 332 199h42l5 30q2 9 2 27q0 42 -27.5 65.5t-80.5 23.5q-45 0 -95 -14l-50 -13q-12 0 -12 6l-10 36q0 15 15 21zM280 646l73 113q9 11 23 11h52q19 0 19 -19q0 -8 -4 -13l-108 -114q-11 -8 -20 -8h-20q-19 0 -19 16q0 7 4 14z" />
<glyph unicode="&#xe2;" horiz-adv-x="579" d="M387 198l10 54h-26q-251 0 -251 -122q0 -69 96 -69q52 0 106 39.5t65 97.5zM155 496q76 36 182 36q69 0 115.5 -38.5t46.5 -117.5q0 -20 -5 -50l-54 -305q-4 -21 -25 -21h-34q-19 0 -19 17q0 5 1 7l9 53l-10 -1q-26 -36 -75.5 -62t-97.5 -26q-71 0 -113 35t-42 92 q0 199 332 199h42l5 30q2 9 2 27q0 42 -27.5 65.5t-80.5 23.5q-45 0 -95 -14l-50 -13q-12 0 -12 6l-10 36q0 15 15 21zM262 615h-28q-18 0 -18 17q0 7 5 14l92 112q8 12 23 12h71q21 0 30 -20l53 -109q0 -1 0.5 -2.5t0.5 -2.5q0 -8 -8.5 -14.5t-19.5 -6.5h-29q-10 0 -17 9 l-52 98l-83 -98q-11 -9 -20 -9z" />
<glyph unicode="&#xe3;" horiz-adv-x="579" d="M387 198l10 54h-26q-251 0 -251 -122q0 -69 96 -69q52 0 106 39.5t65 97.5zM155 496q76 36 182 36q69 0 115.5 -38.5t46.5 -117.5q0 -20 -5 -50l-54 -305q-4 -21 -25 -21h-34q-19 0 -19 17q0 5 1 7l9 53l-10 -1q-26 -36 -75.5 -62t-97.5 -26q-71 0 -113 35t-42 92 q0 199 332 199h42l5 30q2 9 2 27q0 42 -27.5 65.5t-80.5 23.5q-45 0 -95 -14l-50 -13q-12 0 -12 6l-10 36q0 15 15 21zM513 750h16q17 0 17 -21v-4q-18 -48 -50.5 -74t-72.5 -26q-28 0 -76 32t-63 32q-37 0 -54 -49q-8 -16 -23 -16h-15q-18 0 -18 20v4q19 47 51.5 73 t71.5 26q25 0 75 -29.5t64 -29.5q20 0 42.5 31t34.5 31z" />
<glyph unicode="&#xe4;" horiz-adv-x="579" d="M387 198l10 54h-26q-251 0 -251 -122q0 -69 96 -69q52 0 106 39.5t65 97.5zM155 496q76 36 182 36q69 0 115.5 -38.5t46.5 -117.5q0 -20 -5 -50l-54 -305q-4 -21 -25 -21h-34q-19 0 -19 17q0 5 1 7l9 53l-10 -1q-26 -36 -75.5 -62t-97.5 -26q-71 0 -113 35t-42 92 q0 199 332 199h42l5 30q2 9 2 27q0 42 -27.5 65.5t-80.5 23.5q-45 0 -95 -14l-50 -13q-12 0 -12 6l-10 36q0 15 15 21zM254 633q-20 0 -31.5 12t-11.5 30q0 25 18 42.5t43 17.5q18 0 31 -12t13 -30q0 -23 -20.5 -41.5t-41.5 -18.5zM446 633q-18 0 -31 12.5t-13 31.5 q0 23 19.5 40.5t42.5 17.5q18 0 31 -12t13 -30q0 -23 -20 -41.5t-42 -18.5z" />
<glyph unicode="&#xe5;" horiz-adv-x="579" d="M387 198l10 54h-26q-251 0 -251 -122q0 -69 96 -69q52 0 106 39.5t65 97.5zM155 496q76 36 182 36q69 0 115.5 -38.5t46.5 -117.5q0 -20 -5 -50l-54 -305q-4 -21 -25 -21h-34q-19 0 -19 17q0 5 1 7l9 53l-10 -1q-26 -36 -75.5 -62t-97.5 -26q-71 0 -113 35t-42 92 q0 199 332 199h42l5 30q2 9 2 27q0 42 -27.5 65.5t-80.5 23.5q-45 0 -95 -14l-50 -13q-12 0 -12 6l-10 36q0 15 15 21zM239 729q9 51 53.5 87t95.5 36q47 0 77.5 -29.5t30.5 -74.5q0 -58 -47 -102t-105 -44q-46 0 -76.5 29.5t-30.5 74.5q0 15 2 23zM287 729q-1 -5 -1 -16 q0 -30 18.5 -49t48.5 -19q37 0 66.5 29.5t29.5 68.5q0 29 -19 48t-48 19q-34 0 -61.5 -23.5t-33.5 -57.5z" />
<glyph unicode="&#xe6;" horiz-adv-x="947" d="M723 532q89 0 139.5 -49t50.5 -146q0 -99 -31 -99h-379q-3 -16 -3 -32q0 -65 42 -106t106 -41q87 0 160 34q2 1 8 1q13 0 19 -13q5 -21 5 -23q0 -29 -69 -49.5t-134 -20.5q-79 0 -132 31.5t-74 88.5q-41 -55 -100 -87.5t-118 -32.5q-71 0 -113.5 35.5t-42.5 92.5 q0 198 332 198h43l5 30q2 9 2 26q0 43 -28 66.5t-81 23.5q-43 0 -92.5 -13.5t-50.5 -13.5q-11 0 -13 6q-11 37 -11 38q0 20 62.5 37.5t134.5 17.5q53 0 94 -22t57 -68q85 90 212 90zM411 198l10 54h-26q-251 0 -251 -122q0 -69 96 -69q51 0 105.5 39.5t65.5 97.5zM515 300 h315q3 20 3 36q0 60 -35 93t-89 33q-63 0 -116 -42t-78 -120z" />
<glyph unicode="&#xe7;" horiz-adv-x="541" d="M476 119l17 -28q2 -6 2 -10q0 -11 -8 -19q-75 -60 -162 -72q-1 -5 -4.5 -18t-4.5 -19q26 -19 26 -46q0 -47 -50 -81t-115 -34q-1 0 -8.5 -0.5t-13 0t-14 0.5t-15 2t-13 4.5t-10 7.5t-3.5 11l3 18q1 8 9.5 14.5t17.5 6.5q4 0 19 -2.5t23 -2.5q44 0 68.5 16.5t24.5 42.5 q0 8 -9.5 19t-9.5 18q0 4 2 11.5t6 17t5 13.5q-88 7 -136 59.5t-48 143.5q0 158 88.5 249t218.5 91q108 0 174 -74q3 -4 3 -11q0 -11 -7 -18l-26 -28q-5 -5 -17 -5q-9 0 -15 3q-61 59 -125 59q-87 0 -147 -67.5t-60 -184.5q0 -70 36 -107t101 -37q64 0 146 59q4 2 13 2 q13 0 18 -4z" />
<glyph unicode="&#xe8;" horiz-adv-x="608" d="M345 462q-64 0 -117 -42t-78 -119h315q3 19 3 36q0 60 -34.5 92.5t-88.5 32.5zM470 82q5 -22 5 -24q0 -29 -69 -49.5t-133 -20.5q-106 0 -164 52.5t-58 149.5q0 153 90 247.5t218 94.5q88 0 139.5 -49t51.5 -147t-33 -98h-379q-3 -16 -3 -32q0 -65 42.5 -106t106.5 -41 q86 0 159 34q2 1 8 1q13 0 19 -12zM399 759l33 -113q0 -1 0.5 -3t0.5 -3q0 -10 -7.5 -17t-18.5 -7h-20q-12 0 -17 8l-67 114q-1 2 -1 7q0 10 7.5 17.5t18.5 7.5h52q12 0 19 -11z" />
<glyph unicode="&#xe9;" horiz-adv-x="608" d="M345 462q-64 0 -117 -42t-78 -119h315q3 19 3 36q0 60 -34.5 92.5t-88.5 32.5zM470 82q5 -22 5 -24q0 -29 -69 -49.5t-133 -20.5q-106 0 -164 52.5t-58 149.5q0 153 90 247.5t218 94.5q88 0 139.5 -49t51.5 -147t-33 -98h-379q-3 -16 -3 -32q0 -65 42.5 -106t106.5 -41 q86 0 159 34q2 1 8 1q13 0 19 -12zM332 646l73 113q9 11 23 11h52q19 0 19 -19q0 -8 -4 -13l-108 -114q-11 -8 -20 -8h-20q-19 0 -19 16q0 7 4 14z" />
<glyph unicode="&#xea;" horiz-adv-x="608" d="M345 462q-64 0 -117 -42t-78 -119h315q3 19 3 36q0 60 -34.5 92.5t-88.5 32.5zM470 82q5 -22 5 -24q0 -29 -69 -49.5t-133 -20.5q-106 0 -164 52.5t-58 149.5q0 153 90 247.5t218 94.5q88 0 139.5 -49t51.5 -147t-33 -98h-379q-3 -16 -3 -32q0 -65 42.5 -106t106.5 -41 q86 0 159 34q2 1 8 1q13 0 19 -12zM280 615h-28q-18 0 -18 17q0 7 5 14l92 112q8 12 23 12h71q21 0 30 -20l53 -109q0 -1 0.5 -2.5t0.5 -2.5q0 -8 -8.5 -14.5t-19.5 -6.5h-29q-10 0 -17 9l-52 98l-83 -98q-11 -9 -20 -9z" />
<glyph unicode="&#xeb;" horiz-adv-x="608" d="M345 462q-64 0 -117 -42t-78 -119h315q3 19 3 36q0 60 -34.5 92.5t-88.5 32.5zM470 82q5 -22 5 -24q0 -29 -69 -49.5t-133 -20.5q-106 0 -164 52.5t-58 149.5q0 153 90 247.5t218 94.5q88 0 139.5 -49t51.5 -147t-33 -98h-379q-3 -16 -3 -32q0 -65 42.5 -106t106.5 -41 q86 0 159 34q2 1 8 1q13 0 19 -12zM271 633q-20 0 -31.5 12t-11.5 30q0 25 18 42.5t43 17.5q18 0 31 -12t13 -30q0 -23 -20.5 -41.5t-41.5 -18.5zM463 633q-18 0 -31 12.5t-13 31.5q0 23 19.5 40.5t42.5 17.5q18 0 31 -12t13 -30q0 -23 -20 -41.5t-42 -18.5z" />
<glyph unicode="&#xec;" horiz-adv-x="273" d="M160 520h39q18 0 18 -17v-4l-84 -478q-4 -21 -25 -21h-39q-19 0 -19 21l84 478q2 8 9 14.5t17 6.5zM218 759l33 -113q0 -1 0.5 -3t0.5 -3q0 -10 -7.5 -17t-18.5 -7h-20q-12 0 -17 8l-67 114q-1 2 -1 7q0 10 7.5 17.5t18.5 7.5h52q12 0 19 -11z" />
<glyph unicode="&#xed;" horiz-adv-x="273" d="M160 520h39q18 0 18 -17v-4l-84 -478q-4 -21 -25 -21h-39q-19 0 -19 21l84 478q2 8 9 14.5t17 6.5zM154 646l73 113q9 11 23 11h52q19 0 19 -19q0 -8 -4 -13l-108 -114q-11 -8 -20 -8h-20q-19 0 -19 16q0 7 4 14z" />
<glyph unicode="&#xee;" horiz-adv-x="273" d="M160 520h39q18 0 18 -17v-4l-84 -478q-4 -21 -25 -21h-39q-19 0 -19 21l84 478q2 8 9 14.5t17 6.5zM111 615h-28q-18 0 -18 17q0 7 5 14l92 112q8 12 23 12h71q21 0 30 -20l53 -109q0 -1 0.5 -2.5t0.5 -2.5q0 -8 -8.5 -14.5t-19.5 -6.5h-29q-10 0 -17 9l-52 98l-83 -98 q-11 -9 -20 -9z" />
<glyph unicode="&#xef;" horiz-adv-x="273" d="M160 520h39q18 0 18 -17v-4l-84 -478q-4 -21 -25 -21h-39q-19 0 -19 21l84 478q2 8 9 14.5t17 6.5zM102 633q-20 0 -31.5 12t-11.5 30q0 25 18 42.5t43 17.5q18 0 31 -12t13 -30q0 -23 -20.5 -41.5t-41.5 -18.5zM294 633q-18 0 -31 12.5t-13 31.5q0 23 19.5 40.5 t42.5 17.5q18 0 31 -12t13 -30q0 -23 -20 -41.5t-42 -18.5z" />
<glyph unicode="&#xf0;" horiz-adv-x="598" d="M478 651q104 -152 104 -304q0 -162 -91.5 -260.5t-214.5 -98.5q-95 0 -151 50t-56 144q0 140 85.5 227t201.5 87q46 0 71 -10t56 -37l4 2q-13 76 -73 163l-116 -63q-6 -3 -12 -3q-12 0 -15 8l-6 14q-2 4 -2 7q0 12 13 20l104 59q-7 8 -23 23t-27 26.5t-11 16.5q0 6 5 9 l38 20q6 3 11 3q19 0 73 -63q6 3 33.5 20.5t46 27t26.5 9.5q12 0 17 -10l5 -13q2 -6 2 -8q0 -12 -12 -19zM289 57q70 0 122.5 45.5t71.5 151.5q4 20 4 42q0 67 -39.5 98.5t-94.5 31.5q-77 0 -136.5 -63t-59.5 -171q0 -67 36 -101t96 -34z" />
<glyph unicode="&#xf1;" horiz-adv-x="617" d="M214 499l-6 -39l8 -7q26 34 72 56.5t95 22.5q75 0 115 -38.5t40 -110.5q0 -21 -5 -53l-55 -309q-4 -21 -25 -21h-40q-19 0 -19 21l52 294q4 23 4 47q0 95 -94 95q-61 0 -110.5 -39t-58.5 -91l-54 -306q-4 -21 -25 -21h-39q-19 0 -19 21l84 478q2 8 9.5 14.5t16.5 6.5h36 q18 0 18 -21zM533 750h16q17 0 17 -21v-4q-18 -48 -50.5 -74t-72.5 -26q-28 0 -76 32t-63 32q-37 0 -54 -49q-8 -16 -23 -16h-15q-18 0 -18 20v4q19 47 51.5 73t71.5 26q25 0 75 -29.5t64 -29.5q20 0 42.5 31t34.5 31z" />
<glyph unicode="&#xf2;" horiz-adv-x="636" d="M281 58q84 0 148 70.5t64 179.5q0 70 -38.5 111.5t-102.5 41.5q-85 0 -149.5 -71t-64.5 -178q0 -71 39 -112.5t104 -41.5zM364 532q97 0 157.5 -61t60.5 -158q0 -137 -95.5 -231t-218.5 -94q-99 0 -157.5 58.5t-58.5 155.5q0 138 93 234t219 96zM401 759l33 -113 q0 -1 0.5 -3t0.5 -3q0 -10 -7.5 -17t-18.5 -7h-20q-12 0 -17 8l-67 114q-1 2 -1 7q0 10 7.5 17.5t18.5 7.5h52q12 0 19 -11z" />
<glyph unicode="&#xf3;" horiz-adv-x="636" d="M281 58q84 0 148 70.5t64 179.5q0 70 -38.5 111.5t-102.5 41.5q-85 0 -149.5 -71t-64.5 -178q0 -71 39 -112.5t104 -41.5zM364 532q97 0 157.5 -61t60.5 -158q0 -137 -95.5 -231t-218.5 -94q-99 0 -157.5 58.5t-58.5 155.5q0 138 93 234t219 96zM331 646l73 113 q9 11 23 11h52q19 0 19 -19q0 -8 -4 -13l-108 -114q-11 -8 -20 -8h-20q-19 0 -19 16q0 7 4 14z" />
<glyph unicode="&#xf4;" horiz-adv-x="636" d="M281 58q84 0 148 70.5t64 179.5q0 70 -38.5 111.5t-102.5 41.5q-85 0 -149.5 -71t-64.5 -178q0 -71 39 -112.5t104 -41.5zM364 532q97 0 157.5 -61t60.5 -158q0 -137 -95.5 -231t-218.5 -94q-99 0 -157.5 58.5t-58.5 155.5q0 138 93 234t219 96zM294 615h-28 q-18 0 -18 17q0 7 5 14l92 112q8 12 23 12h71q21 0 30 -20l53 -109q0 -1 0.5 -2.5t0.5 -2.5q0 -8 -8.5 -14.5t-19.5 -6.5h-29q-10 0 -17 9l-52 98l-83 -98q-11 -9 -20 -9z" />
<glyph unicode="&#xf5;" horiz-adv-x="636" d="M281 58q84 0 148 70.5t64 179.5q0 70 -38.5 111.5t-102.5 41.5q-85 0 -149.5 -71t-64.5 -178q0 -71 39 -112.5t104 -41.5zM364 532q97 0 157.5 -61t60.5 -158q0 -137 -95.5 -231t-218.5 -94q-99 0 -157.5 58.5t-58.5 155.5q0 138 93 234t219 96zM544 750h16q17 0 17 -21 v-4q-18 -48 -50.5 -74t-72.5 -26q-28 0 -76 32t-63 32q-37 0 -54 -49q-8 -16 -23 -16h-15q-18 0 -18 20v4q19 47 51.5 73t71.5 26q25 0 75 -29.5t64 -29.5q20 0 42.5 31t34.5 31z" />
<glyph unicode="&#xf6;" horiz-adv-x="636" d="M281 58q84 0 148 70.5t64 179.5q0 70 -38.5 111.5t-102.5 41.5q-85 0 -149.5 -71t-64.5 -178q0 -71 39 -112.5t104 -41.5zM364 532q97 0 157.5 -61t60.5 -158q0 -137 -95.5 -231t-218.5 -94q-99 0 -157.5 58.5t-58.5 155.5q0 138 93 234t219 96zM285 633q-20 0 -31.5 12 t-11.5 30q0 25 18 42.5t43 17.5q18 0 31 -12t13 -30q0 -23 -20.5 -41.5t-41.5 -18.5zM477 633q-18 0 -31 12.5t-13 31.5q0 23 19.5 40.5t42.5 17.5q18 0 31 -12t13 -30q0 -23 -20 -41.5t-42 -18.5z" />
<glyph unicode="&#xf7;" d="M611 346v-31q0 -9 -6.5 -15.5t-15.5 -6.5h-479q-9 0 -15.5 6.5t-6.5 15.5v31q0 9 6.5 15.5t15.5 6.5h479q9 0 15.5 -6.5t6.5 -15.5zM343 87q-27 0 -46 19t-19 45q0 27 18.5 46t46.5 19t46.5 -19t18.5 -46q0 -26 -19 -45t-46 -19zM343 439q-27 0 -46 19.5t-19 46.5 q0 26 19 45.5t46 19.5t46 -19.5t19 -45.5q0 -27 -19 -46.5t-46 -19.5z" />
<glyph unicode="&#xf8;" horiz-adv-x="634" d="M540 478q64 -64 64 -165q0 -137 -95 -231t-218 -94q-59 0 -107 24l-11 -14q-17 -21 -38 -21h-20q-13 0 -13 14q0 7 4 12l30 41q-61 58 -61 158q0 138 93 234t219 96q61 0 106 -24l11 15q15 21 37 21h19q15 0 15 -15q0 -6 -4 -11zM165 259q-4 -21 -4 -45q0 -63 29 -103 l254 334q-28 16 -69 16q-76 0 -135 -55.5t-75 -146.5zM304 58q84 0 148 70t64 178q0 63 -28 103l-255 -334q31 -17 71 -17z" />
<glyph unicode="&#xf9;" horiz-adv-x="617" d="M397 21l7 39l-9 7q-26 -34 -71.5 -56.5t-94.5 -22.5q-76 0 -115 38t-39 109q0 30 5 55l54 309q2 8 9 14.5t17 6.5h39q18 0 18 -21l-51 -294q-5 -30 -5 -48q0 -94 97 -94q59 0 108.5 38.5t58.5 91.5l53 306q2 8 9 14.5t17 6.5h40q18 0 18 -21l-84 -478q-2 -8 -9 -14.5 t-16 -6.5h-37q-19 0 -19 21zM395 759l33 -113q0 -1 0.5 -3t0.5 -3q0 -10 -7.5 -17t-18.5 -7h-20q-12 0 -17 8l-67 114q-1 2 -1 7q0 10 7.5 17.5t18.5 7.5h52q12 0 19 -11z" />
<glyph unicode="&#xfa;" horiz-adv-x="617" d="M397 21l7 39l-9 7q-26 -34 -71.5 -56.5t-94.5 -22.5q-76 0 -115 38t-39 109q0 30 5 55l54 309q2 8 9 14.5t17 6.5h39q18 0 18 -21l-51 -294q-5 -30 -5 -48q0 -94 97 -94q59 0 108.5 38.5t58.5 91.5l53 306q2 8 9 14.5t17 6.5h40q18 0 18 -21l-84 -478q-2 -8 -9 -14.5 t-16 -6.5h-37q-19 0 -19 21zM334 646l73 113q9 11 23 11h52q19 0 19 -19q0 -8 -4 -13l-108 -114q-11 -8 -20 -8h-20q-19 0 -19 16q0 7 4 14z" />
<glyph unicode="&#xfb;" horiz-adv-x="617" d="M397 21l7 39l-9 7q-26 -34 -71.5 -56.5t-94.5 -22.5q-76 0 -115 38t-39 109q0 30 5 55l54 309q2 8 9 14.5t17 6.5h39q18 0 18 -21l-51 -294q-5 -30 -5 -48q0 -94 97 -94q59 0 108.5 38.5t58.5 91.5l53 306q2 8 9 14.5t17 6.5h40q18 0 18 -21l-84 -478q-2 -8 -9 -14.5 t-16 -6.5h-37q-19 0 -19 21zM285 615h-28q-18 0 -18 17q0 7 5 14l92 112q8 12 23 12h71q21 0 30 -20l53 -109q0 -1 0.5 -2.5t0.5 -2.5q0 -8 -8.5 -14.5t-19.5 -6.5h-29q-10 0 -17 9l-52 98l-83 -98q-11 -9 -20 -9z" />
<glyph unicode="&#xfc;" horiz-adv-x="617" d="M397 21l7 39l-9 7q-26 -34 -71.5 -56.5t-94.5 -22.5q-76 0 -115 38t-39 109q0 30 5 55l54 309q2 8 9 14.5t17 6.5h39q18 0 18 -21l-51 -294q-5 -30 -5 -48q0 -94 97 -94q59 0 108.5 38.5t58.5 91.5l53 306q2 8 9 14.5t17 6.5h40q18 0 18 -21l-84 -478q-2 -8 -9 -14.5 t-16 -6.5h-37q-19 0 -19 21zM277 633q-20 0 -31.5 12t-11.5 30q0 25 18 42.5t43 17.5q18 0 31 -12t13 -30q0 -23 -20.5 -41.5t-41.5 -18.5zM469 633q-18 0 -31 12.5t-13 31.5q0 23 19.5 40.5t42.5 17.5q18 0 31 -12t13 -30q0 -23 -20 -41.5t-42 -18.5z" />
<glyph unicode="&#xfd;" horiz-adv-x="548" d="M132 -201h-36q-18 0 -18 16q0 5 3 13q73 127 105 180q-16 68 -50 230.5t-56 252.5v2l-1 2q0 10 8 17.5t18 7.5h42q13 0 17 -13l56 -281q16 -85 19 -114l14 -1l25 53q70 136 189 343q9 13 22 13h40q19 0 19 -17q0 -6 -3 -12q-10 -16 -390 -678q-10 -14 -23 -14zM298 646 l73 113q9 11 23 11h52q19 0 19 -19q0 -8 -4 -13l-108 -114q-11 -8 -20 -8h-20q-19 0 -19 16q0 7 4 14z" />
<glyph unicode="&#xfe;" horiz-adv-x="629" d="M224 742h39q18 0 18 -17v-4l-47 -264l2 -1h3h7q28 36 73.5 56t95.5 20q77 0 131 -50t54 -150q0 -154 -85 -249t-203 -95q-89 0 -148 69l-42 -236q-2 -8 -9.5 -14.5t-16.5 -6.5h-39q-18 0 -18 21l159 900q4 21 26 21zM322 60q79 0 134 67.5t55 190.5q0 67 -31 103.5 t-87 36.5q-65 0 -120 -48t-69 -126l-25 -142q22 -37 61 -59.5t82 -22.5z" />
<glyph unicode="&#xff;" horiz-adv-x="548" d="M132 -201h-36q-18 0 -18 16q0 5 3 13q73 127 105 180q-16 68 -50 230.5t-56 252.5v2l-1 2q0 10 8 17.5t18 7.5h42q13 0 17 -13l56 -281q16 -85 19 -114l14 -1l25 53q70 136 189 343q9 13 22 13h40q19 0 19 -17q0 -6 -3 -12q-10 -16 -390 -678q-10 -14 -23 -14zM241 633 q-20 0 -31.5 12t-11.5 30q0 25 18 42.5t43 17.5q18 0 31 -12t13 -30q0 -23 -20.5 -41.5t-41.5 -18.5zM433 633q-18 0 -31 12.5t-13 31.5q0 23 19.5 40.5t42.5 17.5q18 0 31 -12t13 -30q0 -23 -20 -41.5t-42 -18.5z" />
<glyph unicode="&#x152;" horiz-adv-x="1268" d="M1149 0h-459q-19 0 -19 21l16 89q-127 -122 -290 -122q-128 0 -212.5 80.5t-84.5 211.5q0 114 56.5 215t155.5 163t214 62q166 0 247 -122l16 89q4 21 25 21h459q8 0 13.5 -6t5.5 -15l-7 -36q-2 -8 -9 -14.5t-16 -6.5h-396l-41 -229h348q19 0 19 -21l-7 -35 q-2 -8 -9 -14.5t-16 -6.5h-348l-44 -246h396q19 0 19 -21l-7 -36q-2 -8 -9 -14.5t-16 -6.5zM411 66q128 0 226 101t98 246q0 104 -61.5 166.5t-160.5 62.5q-126 0 -225 -100.5t-99 -248.5q0 -101 62 -164t160 -63z" />
<glyph unicode="&#x153;" horiz-adv-x="1007" d="M926 82q5 -22 5 -24q0 -30 -69 -50t-134 -20q-155 0 -204 112q-44 -51 -106.5 -81.5t-127.5 -30.5q-98 0 -157 58.5t-59 155.5q0 137 93.5 233.5t218.5 96.5q64 0 116 -32t79 -83q91 115 233 115q88 0 139.5 -49t51.5 -147t-32 -98h-379q-3 -17 -3 -32q0 -65 42 -106.5 t106 -41.5q86 0 159 35q3 1 8 1q14 0 20 -12zM303 58q86 0 149.5 70.5t63.5 179.5q0 70 -38.5 111.5t-103.5 41.5q-84 0 -148.5 -71t-64.5 -178q0 -71 38.5 -112.5t103.5 -41.5zM800 461q-64 0 -116.5 -41.5t-77.5 -118.5h314q3 19 3 36q0 60 -34.5 92t-88.5 32z" />
<glyph unicode="&#x178;" horiz-adv-x="643" d="M695 708q15 0 15 -16q0 -8 -4 -13l-338 -393l-47 -265q-4 -21 -25 -21h-42q-19 0 -19 21l47 265l-202 393q-1 2 -1 5q0 9 7 16.5t17 7.5h36q21 0 33 -22l163 -319l276 319q19 22 42 22h42zM322 821q-20 0 -31.5 12t-11.5 30q0 25 18 42.5t43 17.5q18 0 31 -12t13 -30 q0 -23 -20.5 -41.5t-41.5 -18.5zM514 821q-18 0 -31 12.5t-13 31.5q0 23 19.5 40.5t42.5 17.5q18 0 31 -12t13 -30q0 -23 -20 -41.5t-42 -18.5z" />
<glyph unicode="&#x2c6;" horiz-adv-x="500" d="M251 615h-28q-18 0 -18 17q0 7 5 14l92 112q8 12 23 12h71q21 0 30 -20l53 -109q0 -1 0.5 -2.5t0.5 -2.5q0 -8 -8.5 -14.5t-19.5 -6.5h-29q-10 0 -17 9l-52 98l-83 -98q-11 -9 -20 -9z" />
<glyph unicode="&#x2dc;" horiz-adv-x="500" d="M502 750h16q17 0 17 -21v-4q-18 -48 -50.5 -74t-72.5 -26q-28 0 -76 32t-63 32q-37 0 -54 -49q-8 -16 -23 -16h-15q-18 0 -18 20v4q19 47 51.5 73t71.5 26q25 0 75 -29.5t64 -29.5q20 0 42.5 31t34.5 31z" />
<glyph unicode="&#x2000;" horiz-adv-x="479" />
<glyph unicode="&#x2001;" horiz-adv-x="958" />
<glyph unicode="&#x2002;" horiz-adv-x="479" />
<glyph unicode="&#x2003;" horiz-adv-x="958" />
<glyph unicode="&#x2004;" horiz-adv-x="319" />
<glyph unicode="&#x2005;" horiz-adv-x="239" />
<glyph unicode="&#x2006;" horiz-adv-x="159" />
<glyph unicode="&#x2007;" horiz-adv-x="159" />
<glyph unicode="&#x2008;" horiz-adv-x="119" />
<glyph unicode="&#x2009;" horiz-adv-x="191" />
<glyph unicode="&#x200a;" horiz-adv-x="53" />
<glyph unicode="&#x2010;" horiz-adv-x="373" d="M358 300l-4 -24q-4 -21 -27 -21h-239q-19 0 -19 17v4l4 24q5 21 27 21h239q19 0 19 -17v-4z" />
<glyph unicode="&#x2011;" horiz-adv-x="373" d="M358 300l-4 -24q-4 -21 -27 -21h-239q-19 0 -19 17v4l4 24q5 21 27 21h239q19 0 19 -17v-4z" />
<glyph unicode="&#x2012;" horiz-adv-x="373" d="M358 300l-4 -24q-4 -21 -27 -21h-239q-19 0 -19 17v4l4 24q5 21 27 21h239q19 0 19 -17v-4z" />
<glyph unicode="&#x2013;" horiz-adv-x="609" d="M594 300l-4 -25q-2 -8 -9.5 -14.5t-16.5 -6.5h-476q-19 0 -19 17v4l4 25q4 21 27 21h476q18 0 18 -21z" />
<glyph unicode="&#x2014;" horiz-adv-x="1015" d="M1001 300l-4 -25q-4 -21 -27 -21h-883q-19 0 -19 21l4 25q2 8 9.5 14.5t17.5 6.5h883q19 0 19 -17v-4z" />
<glyph unicode="&#x2018;" horiz-adv-x="283" d="M243 608l1 -5q1 -1 9 -8.5t10.5 -10.5t7.5 -10t7 -13.5t2 -13.5q0 -24 -24 -45.5t-52 -21.5q-24 0 -40.5 16.5t-16.5 43.5q0 38 41 107.5t91 113.5q9 6 14 6q10 0 16.5 -6t6.5 -15l-1 -4q-16 -18 -41 -64t-31 -70z" />
<glyph unicode="&#x2019;" horiz-adv-x="282" d="M211 638l-1 5q-34 32 -34 56q0 25 22.5 46.5t51.5 21.5q24 0 40 -17t16 -44q0 -39 -41 -108t-90 -112l-4 -2q-8 -4 -10 -4q-22 0 -22 19v6q16 21 42 66.5t30 66.5z" />
<glyph unicode="&#x201a;" horiz-adv-x="282" d="M97 -11l-2 5q-34 27 -34 54q0 24 23.5 46t50.5 22q24 0 40.5 -16.5t16.5 -43.5q0 -38 -41 -107.5t-90 -112.5l-5 -2q-6 -4 -9 -4q-23 0 -23 18v7q17 21 42.5 66.5t30.5 67.5z" />
<glyph unicode="&#x201c;" horiz-adv-x="471" d="M243 608l1 -5q35 -33 35 -55q0 -24 -23.5 -46t-51.5 -22q-24 0 -40.5 16.5t-16.5 43.5q0 38 41 107.5t91 113.5q9 6 15 6q9 0 15 -6t6 -15l-1 -5q-16 -20 -41.5 -66t-29.5 -67zM433 608l1 -5l4.5 -4.5l5.5 -5.5l5 -5t5 -5.5t4.5 -6t4 -6.5t3 -7t2 -7.5t0.5 -7.5 q0 -24 -23.5 -46t-51.5 -22q-24 0 -40.5 16.5t-16.5 43.5q0 38 41.5 107.5t91.5 113.5q9 6 14 6q8 0 14.5 -6.5t6.5 -14.5l-1 -5q-16 -20 -41 -66t-29 -67z" />
<glyph unicode="&#x201d;" horiz-adv-x="472" d="M211 638l-1 5q-34 32 -34 56q0 25 22.5 46.5t51.5 21.5q24 0 39.5 -16.5t15.5 -43.5q0 -39 -40.5 -108.5t-89.5 -112.5l-4 -2q-8 -4 -10 -4q-22 0 -22 19v6q16 21 42 66.5t30 66.5zM402 638l-1 5q-34 32 -34 56q0 25 22.5 46.5t51.5 21.5q24 0 39.5 -16.5t15.5 -43.5 q0 -40 -40.5 -109t-89.5 -112l-4 -2q-8 -4 -10 -4q-22 0 -22 19v6q16 21 42 66.5t30 66.5z" />
<glyph unicode="&#x201e;" horiz-adv-x="470" d="M97 -11l-2 5q-34 27 -34 54q0 24 23.5 46t50.5 22q24 0 40 -16.5t16 -43.5q0 -38 -41 -107.5t-89 -112.5l-5 -2q-6 -4 -9 -4q-23 0 -23 18v7q17 21 42.5 66.5t30.5 67.5zM286 -11l-2 5q-34 27 -34 54q0 24 23.5 46t50.5 22q24 0 40 -16.5t16 -43.5q0 -38 -41 -107.5 t-89 -112.5l-5 -2q-6 -4 -9 -4q-23 0 -23 18v7q17 21 42.5 66.5t30.5 67.5z" />
<glyph unicode="&#x2022;" horiz-adv-x="426" d="M99 336q0 62 45 106.5t107 44.5t107.5 -45t45.5 -106t-45 -106t-108 -45q-62 0 -107 44.5t-45 106.5z" />
<glyph unicode="&#x2026;" horiz-adv-x="894" d="M420 -12q-23 0 -38.5 15.5t-15.5 38.5q0 28 24 50.5t53 22.5q25 0 41 -16t16 -38q0 -28 -25 -50.5t-55 -22.5zM728 -12q-23 0 -38.5 15.5t-15.5 38.5q0 28 24 50.5t53 22.5q25 0 41 -16t16 -38q0 -28 -25 -50.5t-55 -22.5zM111 -12q-22 0 -37.5 15.5t-15.5 38.5 q0 28 24 50.5t52 22.5q25 0 41 -16t16 -38q0 -28 -24.5 -50.5t-55.5 -22.5z" />
<glyph unicode="&#x202f;" horiz-adv-x="191" />
<glyph unicode="&#x2039;" horiz-adv-x="356" d="M290 107q4 -7 4 -15q-2 -8 -9 -14l-16 -14q-8 -7 -17 -7q-10 0 -14 7l-172 209q-5 4 -5 11q0 9 10 18l246 209q6 6 16 6q7 0 15 -6l11 -14q3 -6 3 -11q0 -11 -8 -19l-206 -181z" />
<glyph unicode="&#x203a;" horiz-adv-x="356" d="M35 107l206 181l-142 179q-4 8 -4 15q1 8 9 15l17 14q6 6 17 6q8 0 14 -6l172 -209q4 -8 4 -13q0 -7 -9 -16l-246 -209q-7 -7 -16 -7q-11 0 -15 7l-12 14q-4 6 -4 10q0 10 9 19z" />
<glyph unicode="&#x205f;" horiz-adv-x="239" />
<glyph unicode="&#x20ac;" horiz-adv-x="724" d="M626 101l16 -32q1 -2 1 -6q0 -31 -80.5 -53t-135.5 -22q-129 0 -207.5 67t-89.5 182h-67q-19 0 -19 17v4l5 30q3 20 27 22h54q3 46 16 87h-54q-20 0 -20 21l5 30q4 20 27 22h67q52 115 154 182.5t231 67.5q105 0 183 -53q7 -6 7 -16q0 -9 -4 -13l-26 -31q-8 -9 -19 -9 q-4 0 -12 4q-67 39 -142 39q-84 0 -160.5 -46t-120.5 -126h322q18 0 18 -21l-5 -30q-1 -8 -8.5 -15t-16.5 -9h-342q-9 -40 -15 -85h341q18 0 18 -21l-5 -30q-1 -9 -9 -15t-17 -7h-322q16 -79 76 -124.5t144 -45.5q78 0 156 40q6 3 14 3q10 0 15 -8z" />
<glyph unicode="&#x2122;" horiz-adv-x="858" d="M670 394q-5 -11 -20 -13h-12q-18 0 -23 13l-110 259h-9v-305q0 -9 -6.5 -15.5t-16.5 -6.5h-11q-9 0 -15.5 6.5t-6.5 15.5v337q0 10 6.5 16.5t15.5 6.5h67q14 0 20 -14l94 -229l93 229q6 14 21 14h62q9 0 16 -6.5t7 -16.5v-337q0 -9 -7 -15.5t-16 -6.5h-12q-9 0 -16 6.5 t-7 15.5v299h-9zM367 685v-8q0 -22 -22 -22h-99v-307q0 -9 -6.5 -15.5t-15.5 -6.5h-15q-9 0 -15.5 6.5t-6.5 15.5v307h-98q-9 0 -15.5 6t-6.5 16v8q0 10 6.5 16.5t15.5 6.5h256q10 0 16 -6.5t6 -16.5z" />
<glyph unicode="&#x25fc;" horiz-adv-x="520" d="M0 520h520v-520h-520v520z" />
<glyph unicode="&#xfb01;" horiz-adv-x="650" d="M485 737q11 -3 11 -17q0 -15 -11.5 -32.5t-24.5 -17.5q-6 0 -37.5 5t-50.5 5q-101 0 -119 -99l-11 -61h150q18 0 18 -21l-3 -19q-1 -9 -9 -15t-17 -6h-150l-77 -438q-2 -8 -9 -14.5t-16 -6.5h-39q-18 0 -18 21l77 438h-65q-18 0 -18 17v4l3 19q2 8 9 14.5t17 6.5h65l9 52 q15 83 71.5 131.5t146.5 48.5q49 0 98 -15zM594 742q20 0 34 -13t14 -32q0 -24 -21 -43.5t-46 -19.5q-18 0 -31 13.5t-13 32.5q0 24 20 43t43 19zM537 520h39q18 0 18 -17v-4l-84 -478q-4 -21 -25 -21h-39q-19 0 -19 21l84 478q2 8 9 14.5t17 6.5z" />
<glyph unicode="&#xfb02;" horiz-adv-x="650" d="M485 737q11 -3 11 -17q0 -15 -11.5 -32.5t-24.5 -17.5q-6 0 -37.5 5t-50.5 5q-101 0 -119 -99l-11 -61h150q18 0 18 -21l-3 -19q-1 -9 -9 -15t-17 -6h-150l-77 -438q-2 -8 -9 -14.5t-16 -6.5h-39q-18 0 -18 21l77 438h-65q-18 0 -18 17v4l3 19q2 8 9 14.5t17 6.5h65l9 52 q15 83 71.5 131.5t146.5 48.5q49 0 98 -15zM576 742h39q19 0 19 -21l-124 -700q-4 -21 -25 -21h-39q-19 0 -19 21l124 700q3 21 25 21z" />
</font>
</defs>
</svg>
